<svg width="17" height="15" viewBox="0 0 17 15" fill="none" xmlns="http://www.w3.org/2000/svg">
<path d="M0.0204558 8.80998L0.0821954 8.7157L3.80572 3.05729C3.86015 2.97442 3.98808 2.98301 4.02927 3.07298C4.6513 4.42726 5.18809 6.1115 4.93662 7.16003C4.82927 7.59144 4.53514 8.17573 4.20424 8.7157C4.16162 8.79428 4.11455 8.87143 4.06454 8.94571C4.04104 8.97998 4.00131 9 3.95866 9H0.129271C0.0263085 9 -0.0339675 8.89142 0.0204558 8.80998Z" fill="white"/>
<path d="M17 9.58751V10.4583C17 10.5083 16.9688 10.5528 16.9235 10.5722C16.6458 10.6889 15.6952 11.1167 15.3 11.6556C14.2913 13.0319 13.5207 15 11.798 15H4.61123C2.06408 15 0 12.9694 0 10.4639V10.3833C0 10.3167 0.0552472 10.2625 0.123241 10.2625H4.12958C4.20891 10.2625 4.26701 10.3347 4.25993 10.4111C4.23158 10.6667 4.27975 10.9278 4.40299 11.1653C4.64099 11.6389 5.13401 11.9347 5.66666 11.9347H7.65V10.4167H5.68933C5.58874 10.4167 5.52926 10.3028 5.58733 10.2222C5.60859 10.1903 5.63268 10.1569 5.65817 10.1194C5.84374 9.86112 6.10866 9.45972 6.37215 9.00276C6.55208 8.69445 6.72634 8.36527 6.86658 8.03473C6.89493 7.97501 6.91757 7.9139 6.94025 7.85415C6.97849 7.74862 7.01817 7.64999 7.04648 7.5514C7.07483 7.46807 7.0975 7.38056 7.12018 7.29861C7.18676 7.01806 7.21507 6.72083 7.21507 6.41249C7.21507 6.29167 7.2094 6.16529 7.19807 6.04443C7.19243 5.91249 7.17542 5.78055 7.15842 5.64861C7.14708 5.53193 7.12584 5.41667 7.10317 5.29584C7.07483 5.11944 7.03517 4.94445 6.98983 4.76805L6.97426 4.70139C6.94025 4.58057 6.9119 4.46527 6.87225 4.34445C6.76032 3.96527 6.63141 3.59583 6.49542 3.25C6.44584 3.1125 6.38916 2.98056 6.3325 2.84862C6.24891 2.64999 6.16391 2.46945 6.08599 2.29861C6.04634 2.22083 6.01233 2.14999 5.97834 2.07778C5.94007 1.99582 5.90042 1.9139 5.86074 1.8361C5.83243 1.77638 5.79983 1.72083 5.77715 1.66528L5.53493 1.22639C5.50092 1.16667 5.55757 1.09583 5.62416 1.11388L7.14 1.51667H7.14426C7.14708 1.51667 7.14993 1.51805 7.14993 1.51805L7.34965 1.57222L7.56926 1.63332L7.65 1.65555V0.77223C7.65 0.345831 7.99849 0 8.42916 0C8.64451 0 8.84 0.0860968 8.98025 0.226388C9.12049 0.366678 9.20834 0.55834 9.20834 0.77223V2.08333L9.36983 2.12776C9.38257 2.13194 9.39532 2.1375 9.40666 2.14582C9.44634 2.17499 9.50299 2.21807 9.57525 2.27082C9.6319 2.31528 9.69282 2.36944 9.76651 2.42499C9.91243 2.54028 10.0867 2.6889 10.2779 2.85971C10.3289 2.90279 10.3785 2.94722 10.4238 2.99168C10.6703 3.21665 10.9466 3.48056 11.2101 3.77223C11.2837 3.85415 11.356 3.93748 11.4297 4.02499C11.5033 4.11388 11.5812 4.20139 11.6493 4.2889C11.7385 4.40555 11.8348 4.52638 11.9184 4.65279C11.9581 4.71251 12.0034 4.77361 12.0417 4.83333C12.1493 4.99306 12.2443 5.15835 12.3349 5.3236C12.3732 5.39999 12.4128 5.48333 12.4468 5.56528C12.5474 5.78611 12.6268 6.01112 12.6777 6.23612C12.6933 6.28473 12.7047 6.33751 12.7103 6.38473V6.39582C12.7273 6.46251 12.733 6.53335 12.7387 6.60556C12.7613 6.8361 12.75 7.06666 12.699 7.29861C12.6777 7.39723 12.6494 7.49027 12.6154 7.58889C12.5814 7.68334 12.5474 7.78193 12.5035 7.875C12.4185 8.06804 12.3179 8.26112 12.1989 8.44166C12.1607 8.50832 12.1153 8.57916 12.07 8.64582C12.0204 8.71666 11.9694 8.78335 11.9241 8.84862C11.8618 8.93196 11.7952 9.01944 11.7272 9.09721C11.6662 9.17916 11.6039 9.26112 11.5359 9.33333C11.441 9.44304 11.3503 9.54723 11.2554 9.64723C11.1987 9.71251 11.1378 9.77917 11.0755 9.83889C11.0146 9.90555 10.9523 9.96527 10.8956 10.0208C10.8007 10.1139 10.7213 10.1861 10.6548 10.2458L10.4989 10.3861C10.4762 10.4056 10.4465 10.4167 10.4153 10.4167H9.20834V11.9347H10.727C11.067 11.9347 11.39 11.8167 11.6507 11.6C11.7399 11.5236 12.1295 11.193 12.5899 10.6945C12.6055 10.6778 12.6253 10.6653 12.648 10.6597L16.8427 9.47083C16.9207 9.4486 17 9.50694 17 9.58751Z" fill="white"/>
</svg>
