<svg width="657" height="361" viewBox="0 0 657 361" fill="none" xmlns="http://www.w3.org/2000/svg">
<g filter="url(#filter0_d_692_585)">
<path d="M61.1977 338.597L51.3511 348.597C50.1061 349.861 51.0018 352 52.7761 352H650C651.105 352 652 351.105 652 350V340C652 338.895 651.105 338 650 338H62.6228C62.087 338 61.5736 338.215 61.1977 338.597Z" fill="#2A2A2A"/>
<path d="M61.1977 338.597L51.3511 348.597C50.1061 349.861 51.0018 352 52.7761 352H650C651.105 352 652 351.105 652 350V340C652 338.895 651.105 338 650 338H62.6228C62.087 338 61.5736 338.215 61.1977 338.597Z" stroke="#2A2A2A"/>
</g>
<g filter="url(#filter1_d_692_585)">
<path d="M4 63.4118V347C4 349.761 6.23858 352 9 352H38.4289C39.755 352 41.0268 351.473 41.9645 350.536L58.0355 334.464C58.9732 333.527 60.245 333 61.5711 333H647C649.761 333 652 330.761 652 328V44.5711C652 43.245 651.473 41.9732 650.536 41.0355L610.964 1.46446C610.027 0.526782 608.755 0 607.429 0H9C6.23858 0 4 2.23858 4 5V63.4118Z" fill="#2A2A2A"/>
</g>
<g filter="url(#filter2_b_692_585)">
<path d="M55.1792 52.0981C55.167 51.3535 55.0205 50.6699 54.752 50.0718C54.3491 49.1562 53.6777 48.4238 52.7256 47.8745C51.2729 47.0322 48.7827 46.605 45.2549 46.605H45.145C41.6172 46.605 39.127 47.0322 37.6743 47.8745C36.7222 48.4238 36.0508 49.1562 35.6479 50.0718C35.3672 50.7065 35.2207 51.4512 35.2207 52.3179C35.2207 53.1724 35.3672 53.8804 35.6724 54.4541C36.2095 55.4795 37.1128 56.2363 38.126 56.688C38.6387 56.9199 39.2856 57.0908 40.0547 57.2251C40.8359 57.3594 41.605 57.4448 42.3618 57.5059C43.1187 57.5547 44.0586 57.5913 45.1694 57.6279L48.2212 57.7988C48.6606 57.8354 48.8804 57.8843 49.2588 58.0308C49.6494 58.165 49.8691 58.4214 49.9058 58.8242C49.9546 59.52 49.4541 59.9961 48.4043 60.228C47.7207 60.3745 46.6709 60.4478 45.2549 60.4478H45.145C43.6802 60.4478 42.606 60.3745 41.9224 60.228C41.4097 60.1182 41.0312 59.9351 40.7993 59.7031C40.5796 59.4956 40.4697 59.1416 40.4697 58.6289V58.519H35.2207V58.9463C35.2329 59.7153 35.3794 60.3867 35.6479 60.9727C36.0508 61.9004 36.7222 62.645 37.6743 63.1943C39.127 64.0366 41.6172 64.4517 45.145 64.4517H45.2549C48.7217 64.4395 51.1997 64.0122 52.7012 63.1455C53.6533 62.5962 54.3247 61.8638 54.7275 60.9482C55.0083 60.3013 55.1548 59.5444 55.1548 58.7021C55.1548 57.8599 55.0083 57.1519 54.7031 56.5781C54.166 55.5039 53.2505 54.7837 52.2373 54.3442C51.7368 54.1123 51.0898 53.9414 50.3086 53.8071C49.5396 53.6729 48.7705 53.5752 48.0015 53.5142C47.2446 53.4531 46.3047 53.4165 45.1694 53.4043L42.1787 53.2212C41.7393 53.1602 41.5439 53.1235 41.1411 53.0137C40.7505 52.9038 40.5308 52.6475 40.4697 52.269C40.3721 51.5732 40.8237 51.1094 41.8247 50.853C42.4961 50.6943 43.5459 50.6089 44.9985 50.5967H45.2305C46.6953 50.6089 47.7695 50.6821 48.4531 50.8286C48.978 50.9385 49.3687 51.1216 49.6006 51.3535C49.8203 51.5488 49.9302 51.915 49.9302 52.4521V52.5254H55.1792V52.0981ZM75.1313 47.1299L69.9312 57.5791L64.7432 47.1299H58.3833V64H63.4614V55.0522L67.7095 64H72.165L76.4131 55.0522V64H81.4912V47.1299H75.1313ZM105.569 59.7031C106.021 58.6167 106.241 57.2617 106.253 55.626C106.265 53.9902 106.033 52.6108 105.569 51.5C104.8 49.5591 103.348 48.2163 101.456 47.5449C99.5879 46.8735 97.7324 46.6416 95.4009 46.6782C93.0693 46.6416 91.2017 46.8735 89.3096 47.5449C87.4419 48.2163 85.9893 49.5591 85.2202 51.5C84.7563 52.5986 84.5244 53.9536 84.5244 55.5771C84.5244 57.2007 84.7563 58.5557 85.2202 59.6543C86.0015 61.5708 87.4419 62.9258 89.3096 63.5972C91.2017 64.2686 93.0693 64.5127 95.4009 64.4761C96.585 64.4883 97.647 64.4395 98.6113 64.3052C99.5757 64.1831 100.528 63.9634 101.468 63.6338C103.372 62.9868 104.8 61.6685 105.569 59.7031ZM100.674 53.3311C100.894 53.8682 101.004 54.6372 101.004 55.6382C101.004 56.627 100.894 57.3838 100.674 57.8965C100.357 58.7144 99.7954 59.3491 98.9775 59.7886C98.1597 60.228 96.9756 60.4478 95.4009 60.4478C92.5566 60.4478 90.7988 59.5688 90.1274 57.8232C89.8955 57.3105 89.7734 56.5659 89.7734 55.5771C89.7734 54.5884 89.8955 53.8438 90.1274 53.3311C90.7988 51.5732 92.5566 50.6943 95.4009 50.6943C96.9634 50.6943 98.1475 50.9263 98.9531 51.3901C99.771 51.854 100.345 52.501 100.674 53.3311ZM128.207 47.1299H120.797L114.401 53.0991V47.1299H111.85H109.323L109.347 64H111.874H114.401V60.0449L116.549 58.0308L121.627 64H128.28L120.248 54.5762L128.207 47.1299ZM147.744 51.1704V47.1299H130.496V64H147.744V59.9473H135.574V57.5791H146.755V53.5264H135.574V51.1704H147.744Z" fill="#70FF00"/>
</g>
<path d="M28.36 115.296C27.784 115.296 27.288 115.088 26.872 114.672C26.456 114.256 26.248 113.76 26.248 113.184V107.52C26.248 106.944 26.456 106.448 26.872 106.032C27.288 105.616 27.784 105.408 28.36 105.408H30.76C31.336 105.408 31.832 105.616 32.248 106.032C32.664 106.448 32.872 106.944 32.872 107.52V111.624H30.592V108.168C30.592 108.008 30.536 107.88 30.424 107.784C30.328 107.672 30.2 107.616 30.04 107.616H29.08C28.92 107.616 28.784 107.672 28.672 107.784C28.576 107.88 28.528 108.008 28.528 108.168V112.584C28.528 112.744 28.576 112.88 28.672 112.992C28.784 113.088 28.92 113.136 29.08 113.136H30.76C31.336 113.136 31.832 113.344 32.248 113.76C32.664 114.176 32.872 114.672 32.872 115.248V120.888C32.872 121.464 32.664 121.96 32.248 122.376C31.832 122.792 31.336 123 30.76 123H28.36C27.784 123 27.288 122.792 26.872 122.376C26.456 121.96 26.248 121.464 26.248 120.888V116.736H28.528V120.24C28.528 120.4 28.576 120.536 28.672 120.648C28.784 120.744 28.92 120.792 29.08 120.792H30.04C30.2 120.792 30.328 120.744 30.424 120.648C30.536 120.536 30.592 120.4 30.592 120.24V115.848C30.592 115.688 30.536 115.56 30.424 115.464C30.328 115.352 30.2 115.296 30.04 115.296H28.36ZM40.1412 113.928L41.9892 105.408H44.3892V123H42.1812V115.824L42.2772 112.464H42.2532L40.7172 120.12H39.5172L37.9812 112.464H37.9572L38.0532 115.824V123H35.8452V105.408H38.2452L40.1412 113.928ZM49.4762 123C48.9002 123 48.4042 122.792 47.9882 122.376C47.5722 121.96 47.3642 121.464 47.3642 120.888V107.52C47.3642 106.944 47.5722 106.448 47.9882 106.032C48.4042 105.616 48.9002 105.408 49.4762 105.408H51.8762C52.4522 105.408 52.9482 105.616 53.3642 106.032C53.7802 106.448 53.9882 106.944 53.9882 107.52V120.888C53.9882 121.464 53.7802 121.96 53.3642 122.376C52.9482 122.792 52.4522 123 51.8762 123H49.4762ZM49.6442 120.24C49.6442 120.4 49.6922 120.536 49.7882 120.648C49.9002 120.744 50.0362 120.792 50.1962 120.792H51.1562C51.3162 120.792 51.4442 120.744 51.5402 120.648C51.6522 120.536 51.7082 120.4 51.7082 120.24V108.168C51.7082 108.008 51.6522 107.88 51.5402 107.784C51.4442 107.672 51.3162 107.616 51.1562 107.616H50.1962C50.0362 107.616 49.9002 107.672 49.7882 107.784C49.6922 107.88 49.6442 108.008 49.6442 108.168V120.24ZM61.2334 112.224L65.2414 123H62.6974L59.6734 114.672L59.2414 115.632V123H56.9614V105.408H59.2414V111.384L62.4334 105.408H64.9054L61.2334 112.224ZM66.9805 105.408H72.2605V107.688H69.2605V113.112H72.2605V115.296H69.2605V120.72H72.2605V123H66.9805V105.408ZM81.7752 123H79.4952V105.408H81.7752V123ZM86.8684 115.296C86.2924 115.296 85.7964 115.088 85.3804 114.672C84.9644 114.256 84.7564 113.76 84.7564 113.184V107.52C84.7564 106.944 84.9644 106.448 85.3804 106.032C85.7964 105.616 86.2924 105.408 86.8684 105.408H89.2684C89.8444 105.408 90.3404 105.616 90.7564 106.032C91.1724 106.448 91.3804 106.944 91.3804 107.52V111.624H89.1004V108.168C89.1004 108.008 89.0444 107.88 88.9324 107.784C88.8364 107.672 88.7084 107.616 88.5484 107.616H87.5884C87.4284 107.616 87.2924 107.672 87.1804 107.784C87.0844 107.88 87.0364 108.008 87.0364 108.168V112.584C87.0364 112.744 87.0844 112.88 87.1804 112.992C87.2924 113.088 87.4284 113.136 87.5884 113.136H89.2684C89.8444 113.136 90.3404 113.344 90.7564 113.76C91.1724 114.176 91.3804 114.672 91.3804 115.248V120.888C91.3804 121.464 91.1724 121.96 90.7564 122.376C90.3404 122.792 89.8444 123 89.2684 123H86.8684C86.2924 123 85.7964 122.792 85.3804 122.376C84.9644 121.96 84.7564 121.464 84.7564 120.888V116.736H87.0364V120.24C87.0364 120.4 87.0844 120.536 87.1804 120.648C87.2924 120.744 87.4284 120.792 87.5884 120.792H88.5484C88.7084 120.792 88.8364 120.744 88.9324 120.648C89.0444 120.536 89.1004 120.4 89.1004 120.24V115.848C89.1004 115.688 89.0444 115.56 88.9324 115.464C88.8364 115.352 88.7084 115.296 88.5484 115.296H86.8684ZM103.034 118.44H101.21L100.682 123H98.4981L100.778 105.408H103.538L105.842 123H103.61L103.034 118.44ZM101.474 116.256H102.77L102.122 110.832L101.474 116.256ZM112.973 105.408H118.253V107.688H115.253V113.112H118.253V115.296H115.253V123H112.973V105.408ZM122.808 123C122.232 123 121.736 122.792 121.32 122.376C120.904 121.96 120.696 121.464 120.696 120.888V107.52C120.696 106.944 120.904 106.448 121.32 106.032C121.736 105.616 122.232 105.408 122.808 105.408H125.208C125.784 105.408 126.28 105.616 126.696 106.032C127.112 106.448 127.32 106.944 127.32 107.52V120.888C127.32 121.464 127.112 121.96 126.696 122.376C126.28 122.792 125.784 123 125.208 123H122.808ZM122.976 120.24C122.976 120.4 123.024 120.536 123.12 120.648C123.232 120.744 123.368 120.792 123.528 120.792H124.488C124.648 120.792 124.776 120.744 124.872 120.648C124.984 120.536 125.04 120.4 125.04 120.24V108.168C125.04 108.008 124.984 107.88 124.872 107.784C124.776 107.672 124.648 107.616 124.488 107.616H123.528C123.368 107.616 123.232 107.672 123.12 107.784C123.024 107.88 122.976 108.008 122.976 108.168V120.24ZM134.805 105.408C135.381 105.408 135.877 105.616 136.293 106.032C136.709 106.448 136.917 106.944 136.917 107.52V113.112C136.917 113.576 136.773 113.992 136.485 114.36C136.213 114.728 135.869 114.984 135.453 115.128L138.333 123H135.885L133.149 115.224H132.573V123H130.293V105.408H134.805ZM132.573 107.616V113.016H134.085C134.245 113.016 134.373 112.968 134.469 112.872C134.581 112.76 134.637 112.624 134.637 112.464V108.168C134.637 108.008 134.581 107.88 134.469 107.784C134.373 107.672 134.245 107.616 134.085 107.616H132.573ZM144.35 113.928L146.198 105.408H148.598V123H146.39V115.824L146.486 112.464H146.462L144.926 120.12H143.726L142.19 112.464H142.166L142.262 115.824V123H140.054V105.408H142.454L144.35 113.928ZM151.573 105.408H156.853V107.688H153.853V113.112H156.853V115.296H153.853V120.72H156.853V123H151.573V105.408ZM163.807 105.408C164.383 105.408 164.879 105.616 165.295 106.032C165.711 106.448 165.919 106.944 165.919 107.52V113.112C165.919 113.576 165.775 113.992 165.487 114.36C165.215 114.728 164.871 114.984 164.455 115.128L167.335 123H164.887L162.151 115.224H161.575V123H159.295V105.408H163.807ZM161.575 107.616V113.016H163.087C163.247 113.016 163.375 112.968 163.471 112.872C163.583 112.76 163.639 112.624 163.639 112.464V108.168C163.639 108.008 163.583 107.88 163.471 107.784C163.375 107.672 163.247 107.616 163.087 107.616H161.575ZM173.201 105.408H179.225V107.688H177.353V123H175.073V107.688H173.201V105.408ZM186.06 105.408C186.636 105.408 187.132 105.616 187.548 106.032C187.964 106.448 188.172 106.944 188.172 107.52V113.112C188.172 113.576 188.028 113.992 187.74 114.36C187.468 114.728 187.124 114.984 186.708 115.128L189.588 123H187.14L184.404 115.224H183.828V123H181.548V105.408H186.06ZM183.828 107.616V113.016H185.34C185.5 113.016 185.628 112.968 185.724 112.872C185.836 112.76 185.892 112.624 185.892 112.464V108.168C185.892 108.008 185.836 107.88 185.724 107.784C185.628 107.672 185.5 107.616 185.34 107.616H183.828ZM195.197 118.44H193.373L192.845 123H190.661L192.941 105.408H195.701L198.005 123H195.773L195.197 118.44ZM193.637 116.256H194.933L194.285 110.832L193.637 116.256ZM200.344 123V105.408H204.856C205.432 105.408 205.928 105.616 206.344 106.032C206.76 106.448 206.968 106.944 206.968 107.52V120.888C206.968 121.464 206.76 121.96 206.344 122.376C205.928 122.792 205.432 123 204.856 123H200.344ZM202.624 107.616V120.792H204.136C204.296 120.792 204.424 120.744 204.52 120.648C204.632 120.536 204.688 120.4 204.688 120.24V108.168C204.688 108.008 204.632 107.88 204.52 107.784C204.424 107.672 204.296 107.616 204.136 107.616H202.624ZM209.941 105.408H215.221V107.688H212.221V113.112H215.221V115.296H212.221V120.72H215.221V123H209.941V105.408ZM222.175 105.408C222.751 105.408 223.247 105.616 223.663 106.032C224.079 106.448 224.287 106.944 224.287 107.52V113.112C224.287 113.576 224.143 113.992 223.855 114.36C223.583 114.728 223.239 114.984 222.823 115.128L225.703 123H223.255L220.519 115.224H219.943V123H217.663V105.408H222.175ZM219.943 107.616V113.016H221.455C221.615 113.016 221.743 112.968 221.839 112.872C221.951 112.76 222.007 112.624 222.007 112.464V108.168C222.007 108.008 221.951 107.88 221.839 107.784C221.743 107.672 221.615 107.616 221.455 107.616H219.943ZM236.105 118.44H234.281L233.753 123H231.569L233.849 105.408H236.609L238.913 123H236.681L236.105 118.44ZM234.545 116.256H235.841L235.193 110.832L234.545 116.256ZM245.667 115.296H245.691L245.595 111.672V105.408H247.755V123H245.715L243.339 113.112H243.315L243.411 116.736V123H241.251V105.408H243.291L245.667 115.296ZM250.731 123V105.408H255.243C255.819 105.408 256.315 105.616 256.731 106.032C257.147 106.448 257.355 106.944 257.355 107.52V120.888C257.355 121.464 257.147 121.96 256.731 122.376C256.315 122.792 255.819 123 255.243 123H250.731ZM253.011 107.616V120.792H254.523C254.683 120.792 254.811 120.744 254.907 120.648C255.019 120.536 255.075 120.4 255.075 120.24V108.168C255.075 108.008 255.019 107.88 254.907 107.784C254.811 107.672 254.683 107.616 254.523 107.616H253.011ZM28.528 146.24C28.528 146.4 28.576 146.536 28.672 146.648C28.784 146.744 28.92 146.792 29.08 146.792H30.04C30.2 146.792 30.328 146.744 30.424 146.648C30.536 146.536 30.592 146.4 30.592 146.24V141.8H32.824V146.888C32.824 147.464 32.616 147.96 32.2 148.376C31.784 148.792 31.288 149 30.712 149H28.36C27.784 149 27.288 148.792 26.872 148.376C26.456 147.96 26.248 147.464 26.248 146.888V133.52C26.248 132.944 26.456 132.448 26.872 132.032C27.288 131.616 27.784 131.408 28.36 131.408H30.712C31.288 131.408 31.784 131.616 32.2 132.032C32.616 132.448 32.824 132.944 32.824 133.52V138.608H30.592V134.168C30.592 134.008 30.536 133.88 30.424 133.784C30.328 133.672 30.2 133.616 30.04 133.616H29.08C28.92 133.616 28.784 133.672 28.672 133.784C28.576 133.88 28.528 134.008 28.528 134.168V146.24ZM40.2634 131.408C40.8394 131.408 41.3354 131.616 41.7514 132.032C42.1674 132.448 42.3754 132.944 42.3754 133.52V139.112C42.3754 139.576 42.2314 139.992 41.9434 140.36C41.6714 140.728 41.3274 140.984 40.9114 141.128L43.7914 149H41.3434L38.6074 141.224H38.0314V149H35.7514V131.408H40.2634ZM38.0314 133.616V139.016H39.5434C39.7034 139.016 39.8314 138.968 39.9274 138.872C40.0394 138.76 40.0954 138.624 40.0954 138.464V134.168C40.0954 134.008 40.0394 133.88 39.9274 133.784C39.8314 133.672 39.7034 133.616 39.5434 133.616H38.0314ZM48.5607 138.128L50.4567 131.408H52.7127L49.6647 141.416V149H47.3847V141.416L44.3607 131.408H46.5927L48.5607 138.128ZM56.8039 141.224V149H54.5239V131.408H59.0359C59.6119 131.408 60.1079 131.616 60.5239 132.032C60.9399 132.448 61.1479 132.944 61.1479 133.52V139.112C61.1479 139.688 60.9399 140.184 60.5239 140.6C60.1079 141.016 59.6119 141.224 59.0359 141.224H56.8039ZM56.8039 133.616V139.016H58.3159C58.4759 139.016 58.6039 138.968 58.6999 138.872C58.8119 138.76 58.8679 138.624 58.8679 138.464V134.168C58.8679 134.008 58.8119 133.88 58.6999 133.784C58.6039 133.672 58.4759 133.616 58.3159 133.616H56.8039ZM62.8403 131.408H68.8643V133.688H66.9923V149H64.7123V133.688H62.8403V131.408ZM72.9475 149C72.3715 149 71.8755 148.792 71.4595 148.376C71.0435 147.96 70.8355 147.464 70.8355 146.888V133.52C70.8355 132.944 71.0435 132.448 71.4595 132.032C71.8755 131.616 72.3715 131.408 72.9475 131.408H75.3475C75.9235 131.408 76.4195 131.616 76.8355 132.032C77.2515 132.448 77.4595 132.944 77.4595 133.52V146.888C77.4595 147.464 77.2515 147.96 76.8355 148.376C76.4195 148.792 75.9235 149 75.3475 149H72.9475ZM73.1155 146.24C73.1155 146.4 73.1635 146.536 73.2595 146.648C73.3715 146.744 73.5075 146.792 73.6675 146.792H74.6275C74.7875 146.792 74.9155 146.744 75.0115 146.648C75.1235 146.536 75.1795 146.4 75.1795 146.24V134.168C75.1795 134.008 75.1235 133.88 75.0115 133.784C74.9155 133.672 74.7875 133.616 74.6275 133.616H73.6675C73.5075 133.616 73.3715 133.672 73.2595 133.784C73.1635 133.88 73.1155 134.008 73.1155 134.168V146.24ZM80.1927 139.112H84.4647V141.296H80.1927V139.112ZM87.1939 131.408H92.4739V133.688H89.4739V139.112H92.4739V141.296H89.4739V146.72H92.4739V149H87.1939V131.408ZM99.3321 141.296H99.3561L99.2601 137.672V131.408H101.42V149H99.3801L97.0041 139.112H96.9801L97.0761 142.736V149H94.9161V131.408H96.9561L99.3321 141.296ZM103.748 131.408H109.772V133.688H107.9V149H105.62V133.688H103.748V131.408ZM116.247 141.296H114.375V149H112.095V131.408H114.375V139.112H116.247V131.408H118.527V149H116.247V141.296ZM123.617 149C123.041 149 122.545 148.792 122.129 148.376C121.713 147.96 121.505 147.464 121.505 146.888V131.408H123.785V146.24C123.785 146.4 123.833 146.536 123.929 146.648C124.041 146.744 124.177 146.792 124.337 146.792H125.201C125.361 146.792 125.489 146.744 125.585 146.648C125.697 146.536 125.753 146.4 125.753 146.24V131.408H128.033V146.888C128.033 147.464 127.825 147.96 127.409 148.376C126.993 148.792 126.497 149 125.921 149H123.617ZM133.12 141.296C132.544 141.296 132.048 141.088 131.632 140.672C131.216 140.256 131.008 139.76 131.008 139.184V133.52C131.008 132.944 131.216 132.448 131.632 132.032C132.048 131.616 132.544 131.408 133.12 131.408H135.52C136.096 131.408 136.592 131.616 137.008 132.032C137.424 132.448 137.632 132.944 137.632 133.52V137.624H135.352V134.168C135.352 134.008 135.296 133.88 135.184 133.784C135.088 133.672 134.96 133.616 134.8 133.616H133.84C133.68 133.616 133.544 133.672 133.432 133.784C133.336 133.88 133.288 134.008 133.288 134.168V138.584C133.288 138.744 133.336 138.88 133.432 138.992C133.544 139.088 133.68 139.136 133.84 139.136H135.52C136.096 139.136 136.592 139.344 137.008 139.76C137.424 140.176 137.632 140.672 137.632 141.248V146.888C137.632 147.464 137.424 147.96 137.008 148.376C136.592 148.792 136.096 149 135.52 149H133.12C132.544 149 132.048 148.792 131.632 148.376C131.216 147.96 131.008 147.464 131.008 146.888V142.736H133.288V146.24C133.288 146.4 133.336 146.536 133.432 146.648C133.544 146.744 133.68 146.792 133.84 146.792H134.8C134.96 146.792 135.088 146.744 135.184 146.648C135.296 146.536 135.352 146.4 135.352 146.24V141.848C135.352 141.688 135.296 141.56 135.184 141.464C135.088 141.352 134.96 141.296 134.8 141.296H133.12ZM142.885 149H140.605V131.408H142.885V149ZM149.754 144.44H147.93L147.402 149H145.218L147.498 131.408H150.258L152.562 149H150.33L149.754 144.44ZM148.194 142.256H149.49L148.842 136.832L148.194 142.256ZM156.732 141.296C156.156 141.296 155.66 141.088 155.244 140.672C154.828 140.256 154.62 139.76 154.62 139.184V133.52C154.62 132.944 154.828 132.448 155.244 132.032C155.66 131.616 156.156 131.408 156.732 131.408H159.132C159.708 131.408 160.204 131.616 160.62 132.032C161.036 132.448 161.244 132.944 161.244 133.52V137.624H158.964V134.168C158.964 134.008 158.908 133.88 158.796 133.784C158.7 133.672 158.572 133.616 158.412 133.616H157.452C157.292 133.616 157.156 133.672 157.044 133.784C156.948 133.88 156.9 134.008 156.9 134.168V138.584C156.9 138.744 156.948 138.88 157.044 138.992C157.156 139.088 157.292 139.136 157.452 139.136H159.132C159.708 139.136 160.204 139.344 160.62 139.76C161.036 140.176 161.244 140.672 161.244 141.248V146.888C161.244 147.464 161.036 147.96 160.62 148.376C160.204 148.792 159.708 149 159.132 149H156.732C156.156 149 155.66 148.792 155.244 148.376C154.828 147.96 154.62 147.464 154.62 146.888V142.736H156.9V146.24C156.9 146.4 156.948 146.536 157.044 146.648C157.156 146.744 157.292 146.792 157.452 146.792H158.412C158.572 146.792 158.7 146.744 158.796 146.648C158.908 146.536 158.964 146.4 158.964 146.24V141.848C158.964 141.688 158.908 141.56 158.796 141.464C158.7 141.352 158.572 141.296 158.412 141.296H156.732ZM163.217 131.408H169.241V133.688H167.369V149H165.089V133.688H163.217V131.408ZM172.191 146.48V148.28C172.191 148.488 172.175 148.72 172.143 148.976C172.111 149.216 172.039 149.448 171.927 149.672C171.831 149.896 171.687 150.096 171.495 150.272C171.303 150.464 171.047 150.6 170.727 150.68L170.271 149.888C170.383 149.856 170.487 149.808 170.583 149.744C170.679 149.664 170.759 149.568 170.823 149.456C170.903 149.344 170.951 149.192 170.967 149H169.911V146.48H172.191ZM183.854 141.296H183.878L183.782 137.672V131.408H185.942V149H183.902L181.526 139.112H181.502L181.598 142.736V149H179.438V131.408H181.478L183.854 141.296ZM191.03 149C190.454 149 189.958 148.792 189.542 148.376C189.126 147.96 188.918 147.464 188.918 146.888V133.52C188.918 132.944 189.126 132.448 189.542 132.032C189.958 131.616 190.454 131.408 191.03 131.408H193.43C194.006 131.408 194.502 131.616 194.918 132.032C195.334 132.448 195.542 132.944 195.542 133.52V146.888C195.542 147.464 195.334 147.96 194.918 148.376C194.502 148.792 194.006 149 193.43 149H191.03ZM191.198 146.24C191.198 146.4 191.246 146.536 191.342 146.648C191.454 146.744 191.59 146.792 191.75 146.792H192.71C192.87 146.792 192.998 146.744 193.094 146.648C193.206 146.536 193.262 146.4 193.262 146.24V134.168C193.262 134.008 193.206 133.88 193.094 133.784C192.998 133.672 192.87 133.616 192.71 133.616H191.75C191.59 133.616 191.454 133.672 191.342 133.784C191.246 133.88 191.198 134.008 191.198 134.168V146.24ZM207.36 131.408H209.616L206.856 149H205.176L203.496 140.384L201.72 149H200.112L197.352 131.408H199.656L201.264 142.136L202.944 133.712H204L205.752 142.136L207.36 131.408ZM220.613 144.44H218.789L218.261 149H216.077L218.357 131.408H221.117L223.421 149H221.189L220.613 144.44ZM219.053 142.256H220.349L219.701 136.832L219.053 142.256ZM234.849 139.928L236.697 131.408H239.097V149H236.889V141.824L236.985 138.464H236.961L235.425 146.12H234.225L232.689 138.464H232.665L232.761 141.824V149H230.553V131.408H232.953L234.849 139.928ZM244.352 149H242.072V131.408H244.352V149ZM249.445 141.296C248.869 141.296 248.373 141.088 247.957 140.672C247.541 140.256 247.333 139.76 247.333 139.184V133.52C247.333 132.944 247.541 132.448 247.957 132.032C248.373 131.616 248.869 131.408 249.445 131.408H251.845C252.421 131.408 252.917 131.616 253.333 132.032C253.749 132.448 253.957 132.944 253.957 133.52V137.624H251.677V134.168C251.677 134.008 251.621 133.88 251.509 133.784C251.413 133.672 251.285 133.616 251.125 133.616H250.165C250.005 133.616 249.869 133.672 249.757 133.784C249.661 133.88 249.613 134.008 249.613 134.168V138.584C249.613 138.744 249.661 138.88 249.757 138.992C249.869 139.088 250.005 139.136 250.165 139.136H251.845C252.421 139.136 252.917 139.344 253.333 139.76C253.749 140.176 253.957 140.672 253.957 141.248V146.888C253.957 147.464 253.749 147.96 253.333 148.376C252.917 148.792 252.421 149 251.845 149H249.445C248.869 149 248.373 148.792 247.957 148.376C247.541 147.96 247.333 147.464 247.333 146.888V142.736H249.613V146.24C249.613 146.4 249.661 146.536 249.757 146.648C249.869 146.744 250.005 146.792 250.165 146.792H251.125C251.285 146.792 251.413 146.744 251.509 146.648C251.621 146.536 251.677 146.4 251.677 146.24V141.848C251.677 141.688 251.621 141.56 251.509 141.464C251.413 141.352 251.285 141.296 251.125 141.296H249.445ZM256.93 131.408H262.21V133.688H259.21V139.112H262.21V141.296H259.21V149H256.93V131.408ZM266.932 149H264.652V131.408H266.932V149ZM269.266 131.408H275.29V133.688H273.418V149H271.138V133.688H269.266V131.408ZM30.136 170.44H28.312L27.784 175H25.6L27.88 157.408H30.64L32.944 175H30.712L30.136 170.44ZM28.576 168.256H29.872L29.224 162.832L28.576 168.256ZM39.6987 167.296H39.7227L39.6267 163.672V157.408H41.7867V175H39.7467L37.3707 165.112H37.3467L37.4427 168.736V175H35.2827V157.408H37.3227L39.6987 167.296ZM44.7627 175V157.408H49.2747C49.8507 157.408 50.3467 157.616 50.7627 158.032C51.1787 158.448 51.3867 158.944 51.3867 159.52V172.888C51.3867 173.464 51.1787 173.96 50.7627 174.376C50.3467 174.792 49.8507 175 49.2747 175H44.7627ZM47.0427 159.616V172.792H48.5547C48.7147 172.792 48.8427 172.744 48.9387 172.648C49.0507 172.536 49.1067 172.4 49.1067 172.24V160.168C49.1067 160.008 49.0507 159.88 48.9387 159.784C48.8427 159.672 48.7147 159.616 48.5547 159.616H47.0427ZM63.0404 170.44H61.2164L60.6884 175H58.5044L60.7844 157.408H63.5444L65.8484 175H63.6164L63.0404 170.44ZM61.4804 168.256H62.7764L62.1284 162.832L61.4804 168.256ZM72.9796 175V157.408H77.4916C78.0676 157.408 78.5636 157.616 78.9796 158.032C79.3956 158.448 79.6036 158.944 79.6036 159.52V172.888C79.6036 173.464 79.3956 173.96 78.9796 174.376C78.5636 174.792 78.0676 175 77.4916 175H72.9796ZM75.2596 159.616V172.792H76.7716C76.9316 172.792 77.0596 172.744 77.1556 172.648C77.2676 172.536 77.3236 172.4 77.3236 172.24V160.168C77.3236 160.008 77.2676 159.88 77.1556 159.784C77.0596 159.672 76.9316 159.616 76.7716 159.616H75.2596ZM87.0888 157.408C87.6648 157.408 88.1608 157.616 88.5768 158.032C88.9928 158.448 89.2008 158.944 89.2008 159.52V165.112C89.2008 165.576 89.0568 165.992 88.7688 166.36C88.4968 166.728 88.1528 166.984 87.7368 167.128L90.6168 175H88.1688L85.4328 167.224H84.8568V175H82.5768V157.408H87.0888ZM84.8568 159.616V165.016H86.3688C86.5288 165.016 86.6568 164.968 86.7528 164.872C86.8648 164.76 86.9208 164.624 86.9208 164.464V160.168C86.9208 160.008 86.8648 159.88 86.7528 159.784C86.6568 159.672 86.5288 159.616 86.3688 159.616H84.8568ZM94.45 175C93.874 175 93.378 174.792 92.962 174.376C92.546 173.96 92.338 173.464 92.338 172.888V157.408H94.618V172.24C94.618 172.4 94.666 172.536 94.762 172.648C94.874 172.744 95.01 172.792 95.17 172.792H96.034C96.194 172.792 96.322 172.744 96.418 172.648C96.53 172.536 96.586 172.4 96.586 172.24V157.408H98.866V172.888C98.866 173.464 98.658 173.96 98.242 174.376C97.826 174.792 97.33 175 96.754 175H94.45ZM105.105 165.808H108.465V172.888C108.465 173.464 108.257 173.96 107.841 174.376C107.425 174.792 106.929 175 106.353 175H103.953C103.377 175 102.881 174.792 102.465 174.376C102.049 173.96 101.841 173.464 101.841 172.888V159.52C101.841 158.944 102.049 158.448 102.465 158.032C102.881 157.616 103.377 157.408 103.953 157.408H106.305C106.881 157.408 107.377 157.616 107.793 158.032C108.209 158.448 108.417 158.944 108.417 159.52V163.888H106.185V160.168C106.185 160.008 106.129 159.88 106.017 159.784C105.921 159.672 105.793 159.616 105.633 159.616H104.673C104.513 159.616 104.377 159.672 104.265 159.784C104.169 159.88 104.121 160.008 104.121 160.168V172.24C104.121 172.4 104.169 172.536 104.265 172.648C104.377 172.744 104.513 172.792 104.673 172.792H105.633C105.793 172.792 105.921 172.744 106.017 172.648C106.129 172.536 106.185 172.4 106.185 172.24V167.992H105.105V165.808ZM120.119 170.44H118.295L117.767 175H115.583L117.863 157.408H120.623L122.927 175H120.695L120.119 170.44ZM118.559 168.256H119.855L119.207 162.832L118.559 168.256ZM125.266 175V157.408H129.778C130.354 157.408 130.85 157.616 131.266 158.032C131.682 158.448 131.89 158.944 131.89 159.52V172.888C131.89 173.464 131.682 173.96 131.266 174.376C130.85 174.792 130.354 175 129.778 175H125.266ZM127.546 159.616V172.792H129.058C129.218 172.792 129.346 172.744 129.442 172.648C129.554 172.536 129.61 172.4 129.61 172.24V160.168C129.61 160.008 129.554 159.88 129.442 159.784C129.346 159.672 129.218 159.616 129.058 159.616H127.546ZM134.863 175V157.408H139.375C139.951 157.408 140.447 157.616 140.863 158.032C141.279 158.448 141.487 158.944 141.487 159.52V172.888C141.487 173.464 141.279 173.96 140.863 174.376C140.447 174.792 139.951 175 139.375 175H134.863ZM137.143 159.616V172.792H138.655C138.815 172.792 138.943 172.744 139.039 172.648C139.151 172.536 139.207 172.4 139.207 172.24V160.168C139.207 160.008 139.151 159.88 139.039 159.784C138.943 159.672 138.815 159.616 138.655 159.616H137.143ZM146.74 175H144.46V157.408H146.74V175ZM152.001 172.24C152.001 172.4 152.049 172.536 152.145 172.648C152.257 172.744 152.393 172.792 152.553 172.792H153.513C153.673 172.792 153.801 172.744 153.897 172.648C154.009 172.536 154.065 172.4 154.065 172.24V167.8H156.297V172.888C156.297 173.464 156.089 173.96 155.673 174.376C155.257 174.792 154.761 175 154.185 175H151.833C151.257 175 150.761 174.792 150.345 174.376C149.929 173.96 149.721 173.464 149.721 172.888V159.52C149.721 158.944 149.929 158.448 150.345 158.032C150.761 157.616 151.257 157.408 151.833 157.408H154.185C154.761 157.408 155.257 157.616 155.673 158.032C156.089 158.448 156.297 158.944 156.297 159.52V164.608H154.065V160.168C154.065 160.008 154.009 159.88 153.897 159.784C153.801 159.672 153.673 159.616 153.513 159.616H152.553C152.393 159.616 152.257 159.672 152.145 159.784C152.049 159.88 152.001 160.008 152.001 160.168V172.24ZM158.225 157.408H164.249V159.688H162.377V175H160.097V159.688H158.225V157.408ZM175.877 157.408C176.453 157.408 176.949 157.616 177.365 158.032C177.781 158.448 177.989 158.944 177.989 159.52V165.112C177.989 165.576 177.845 165.992 177.557 166.36C177.285 166.728 176.941 166.984 176.525 167.128L179.405 175H176.957L174.221 167.224H173.645V175H171.365V157.408H175.877ZM173.645 159.616V165.016H175.157C175.317 165.016 175.445 164.968 175.541 164.872C175.653 164.76 175.709 164.624 175.709 164.464V160.168C175.709 160.008 175.653 159.88 175.541 159.784C175.445 159.672 175.317 159.616 175.157 159.616H173.645ZM181.126 157.408H186.406V159.688H183.406V165.112H186.406V167.296H183.406V172.72H186.406V175H181.126V157.408ZM192.736 170.44H190.912L190.384 175H188.2L190.48 157.408H193.24L195.544 175H193.312L192.736 170.44ZM191.176 168.256H192.472L191.824 162.832L191.176 168.256ZM197.883 175V157.408H202.395C202.971 157.408 203.467 157.616 203.883 158.032C204.299 158.448 204.507 158.944 204.507 159.52V172.888C204.507 173.464 204.299 173.96 203.883 174.376C203.467 174.792 202.971 175 202.395 175H197.883ZM200.163 159.616V172.792H201.675C201.835 172.792 201.963 172.744 202.059 172.648C202.171 172.536 202.227 172.4 202.227 172.24V160.168C202.227 160.008 202.171 159.88 202.059 159.784C201.963 159.672 201.835 159.616 201.675 159.616H200.163ZM210.293 164.128L212.189 157.408H214.445L211.397 167.416V175H209.117V167.416L206.093 157.408H208.325L210.293 164.128ZM220.401 157.408H226.425V159.688H224.553V175H222.273V159.688H220.401V157.408ZM230.508 175C229.932 175 229.436 174.792 229.02 174.376C228.604 173.96 228.396 173.464 228.396 172.888V159.52C228.396 158.944 228.604 158.448 229.02 158.032C229.436 157.616 229.932 157.408 230.508 157.408H232.908C233.484 157.408 233.98 157.616 234.396 158.032C234.812 158.448 235.02 158.944 235.02 159.52V172.888C235.02 173.464 234.812 173.96 234.396 174.376C233.98 174.792 233.484 175 232.908 175H230.508ZM230.676 172.24C230.676 172.4 230.724 172.536 230.82 172.648C230.932 172.744 231.068 172.792 231.228 172.792H232.188C232.348 172.792 232.476 172.744 232.572 172.648C232.684 172.536 232.74 172.4 232.74 172.24V160.168C232.74 160.008 232.684 159.88 232.572 159.784C232.476 159.672 232.348 159.616 232.188 159.616H231.228C231.068 159.616 230.932 159.672 230.82 159.784C230.724 159.88 230.676 160.008 230.676 160.168V172.24ZM242.786 175V157.408H247.298C247.874 157.408 248.37 157.616 248.786 158.032C249.202 158.448 249.41 158.944 249.41 159.52V172.888C249.41 173.464 249.202 173.96 248.786 174.376C248.37 174.792 247.874 175 247.298 175H242.786ZM245.066 159.616V172.792H246.578C246.738 172.792 246.866 172.744 246.962 172.648C247.074 172.536 247.13 172.4 247.13 172.24V160.168C247.13 160.008 247.074 159.88 246.962 159.784C246.866 159.672 246.738 159.616 246.578 159.616H245.066ZM254.495 175C253.919 175 253.423 174.792 253.007 174.376C252.591 173.96 252.383 173.464 252.383 172.888V159.52C252.383 158.944 252.591 158.448 253.007 158.032C253.423 157.616 253.919 157.408 254.495 157.408H256.895C257.471 157.408 257.967 157.616 258.383 158.032C258.799 158.448 259.007 158.944 259.007 159.52V172.888C259.007 173.464 258.799 173.96 258.383 174.376C257.967 174.792 257.471 175 256.895 175H254.495ZM254.663 172.24C254.663 172.4 254.711 172.536 254.807 172.648C254.919 172.744 255.055 172.792 255.215 172.792H256.175C256.335 172.792 256.463 172.744 256.559 172.648C256.671 172.536 256.727 172.4 256.727 172.24V160.168C256.727 160.008 256.671 159.88 256.559 159.784C256.463 159.672 256.335 159.616 256.175 159.616H255.215C255.055 159.616 254.919 159.672 254.807 159.784C254.711 159.88 254.663 160.008 254.663 160.168V172.24ZM30.136 196.44H28.312L27.784 201H25.6L27.88 183.408H30.64L32.944 201H30.712L30.136 196.44ZM28.576 194.256H29.872L29.224 188.832L28.576 194.256ZM39.6987 193.296H39.7227L39.6267 189.672V183.408H41.7867V201H39.7467L37.3707 191.112H37.3467L37.4427 194.736V201H35.2827V183.408H37.3227L39.6987 193.296ZM47.8107 190.128L49.7067 183.408H51.9627L48.9147 193.416V201H46.6347V193.416L43.6107 183.408H45.8427L47.8107 190.128ZM53.1259 183.408H59.1499V185.688H57.2779V201H54.9979V185.688H53.1259V183.408ZM65.6247 193.296H63.7527V201H61.4727V183.408H63.7527V191.112H65.6247V183.408H67.9047V201H65.6247V193.296ZM73.1624 201H70.8824V183.408H73.1624V201ZM80.5596 193.296H80.5836L80.4876 189.672V183.408H82.6476V201H80.6076L78.2316 191.112H78.2076L78.3036 194.736V201H76.1436V183.408H78.1836L80.5596 193.296ZM88.8876 191.808H92.2476V198.888C92.2476 199.464 92.0396 199.96 91.6236 200.376C91.2076 200.792 90.7116 201 90.1356 201H87.7356C87.1596 201 86.6636 200.792 86.2476 200.376C85.8316 199.96 85.6236 199.464 85.6236 198.888V185.52C85.6236 184.944 85.8316 184.448 86.2476 184.032C86.6636 183.616 87.1596 183.408 87.7356 183.408H90.0876C90.6636 183.408 91.1596 183.616 91.5756 184.032C91.9916 184.448 92.1996 184.944 92.1996 185.52V189.888H89.9676V186.168C89.9676 186.008 89.9116 185.88 89.7996 185.784C89.7036 185.672 89.5756 185.616 89.4156 185.616H88.4556C88.2956 185.616 88.1596 185.672 88.0476 185.784C87.9516 185.88 87.9036 186.008 87.9036 186.168V198.24C87.9036 198.4 87.9516 198.536 88.0476 198.648C88.1596 198.744 88.2956 198.792 88.4556 198.792H89.4156C89.5756 198.792 89.7036 198.744 89.7996 198.648C89.9116 198.536 89.9676 198.4 89.9676 198.24V193.992H88.8876V191.808ZM100.013 183.408H105.293V185.688H102.293V191.112H105.293V193.296H102.293V201H100.013V183.408ZM109.848 201C109.272 201 108.776 200.792 108.36 200.376C107.944 199.96 107.736 199.464 107.736 198.888V185.52C107.736 184.944 107.944 184.448 108.36 184.032C108.776 183.616 109.272 183.408 109.848 183.408H112.248C112.824 183.408 113.32 183.616 113.736 184.032C114.152 184.448 114.36 184.944 114.36 185.52V198.888C114.36 199.464 114.152 199.96 113.736 200.376C113.32 200.792 112.824 201 112.248 201H109.848ZM110.016 198.24C110.016 198.4 110.064 198.536 110.16 198.648C110.272 198.744 110.408 198.792 110.568 198.792H111.528C111.688 198.792 111.816 198.744 111.912 198.648C112.024 198.536 112.08 198.4 112.08 198.24V186.168C112.08 186.008 112.024 185.88 111.912 185.784C111.816 185.672 111.688 185.616 111.528 185.616H110.568C110.408 185.616 110.272 185.672 110.16 185.784C110.064 185.88 110.016 186.008 110.016 186.168V198.24ZM121.845 183.408C122.421 183.408 122.917 183.616 123.333 184.032C123.749 184.448 123.957 184.944 123.957 185.52V191.112C123.957 191.576 123.813 191.992 123.525 192.36C123.253 192.728 122.909 192.984 122.493 193.128L125.373 201H122.925L120.189 193.224H119.613V201H117.333V183.408H121.845ZM119.613 185.616V191.016H121.125C121.285 191.016 121.413 190.968 121.509 190.872C121.621 190.76 121.677 190.624 121.677 190.464V186.168C121.677 186.008 121.621 185.88 121.509 185.784C121.413 185.672 121.285 185.616 121.125 185.616H119.613ZM135.774 196.44H133.95L133.422 201H131.238L133.518 183.408H136.278L138.582 201H136.35L135.774 196.44ZM134.214 194.256H135.51L134.862 188.832L134.214 194.256ZM145.714 201V183.408H150.226C150.802 183.408 151.298 183.616 151.714 184.032C152.13 184.448 152.338 184.944 152.338 185.52V198.888C152.338 199.464 152.13 199.96 151.714 200.376C151.298 200.792 150.802 201 150.226 201H145.714ZM147.994 185.616V198.792H149.506C149.666 198.792 149.794 198.744 149.89 198.648C150.002 198.536 150.058 198.4 150.058 198.24V186.168C150.058 186.008 150.002 185.88 149.89 185.784C149.794 185.672 149.666 185.616 149.506 185.616H147.994ZM157.423 201C156.847 201 156.351 200.792 155.935 200.376C155.519 199.96 155.311 199.464 155.311 198.888V185.52C155.311 184.944 155.519 184.448 155.935 184.032C156.351 183.616 156.847 183.408 157.423 183.408H159.823C160.399 183.408 160.895 183.616 161.311 184.032C161.727 184.448 161.935 184.944 161.935 185.52V198.888C161.935 199.464 161.727 199.96 161.311 200.376C160.895 200.792 160.399 201 159.823 201H157.423ZM157.591 198.24C157.591 198.4 157.639 198.536 157.735 198.648C157.847 198.744 157.983 198.792 158.143 198.792H159.103C159.263 198.792 159.391 198.744 159.487 198.648C159.599 198.536 159.655 198.4 159.655 198.24V186.168C159.655 186.008 159.599 185.88 159.487 185.784C159.391 185.672 159.263 185.616 159.103 185.616H158.143C157.983 185.616 157.847 185.672 157.735 185.784C157.639 185.88 157.591 186.008 157.591 186.168V198.24ZM167.02 193.296C166.444 193.296 165.948 193.088 165.532 192.672C165.116 192.256 164.908 191.76 164.908 191.184V185.52C164.908 184.944 165.116 184.448 165.532 184.032C165.948 183.616 166.444 183.408 167.02 183.408H169.42C169.996 183.408 170.492 183.616 170.908 184.032C171.324 184.448 171.532 184.944 171.532 185.52V189.624H169.252V186.168C169.252 186.008 169.196 185.88 169.084 185.784C168.988 185.672 168.86 185.616 168.7 185.616H167.74C167.58 185.616 167.444 185.672 167.332 185.784C167.236 185.88 167.188 186.008 167.188 186.168V190.584C167.188 190.744 167.236 190.88 167.332 190.992C167.444 191.088 167.58 191.136 167.74 191.136H169.42C169.996 191.136 170.492 191.344 170.908 191.76C171.324 192.176 171.532 192.672 171.532 193.248V198.888C171.532 199.464 171.324 199.96 170.908 200.376C170.492 200.792 169.996 201 169.42 201H167.02C166.444 201 165.948 200.792 165.532 200.376C165.116 199.96 164.908 199.464 164.908 198.888V194.736H167.188V198.24C167.188 198.4 167.236 198.536 167.332 198.648C167.444 198.744 167.58 198.792 167.74 198.792H168.7C168.86 198.792 168.988 198.744 169.084 198.648C169.196 198.536 169.252 198.4 169.252 198.24V193.848C169.252 193.688 169.196 193.56 169.084 193.464C168.988 193.352 168.86 193.296 168.7 193.296H167.02ZM174.505 183.408H179.785V185.688H176.785V191.112H179.785V193.296H176.785V198.72H179.785V201H174.505V183.408ZM183.979 201H181.699V198.48H183.979V201Z" fill="white"/>
<path d="M335.322 57.5791C335.285 57.689 335.261 57.7866 335.224 57.8721C334.907 58.6899 334.345 59.3247 333.527 59.7764C332.709 60.228 331.525 60.4478 329.951 60.4478C327.106 60.4478 325.349 59.5688 324.677 57.7988C324.445 57.2861 324.323 56.5415 324.323 55.5527C324.323 54.564 324.445 53.8071 324.677 53.2944C325.349 51.5488 327.106 50.6699 329.951 50.6699C331.513 50.6699 332.697 50.9019 333.503 51.3657C334.321 51.8174 334.895 52.4644 335.224 53.2944C335.236 53.3677 335.261 53.4409 335.297 53.5264H340.681C340.546 52.7451 340.351 52.0615 340.119 51.4756C339.35 49.5347 337.897 48.1919 336.005 47.5205C334.138 46.8491 332.282 46.6172 329.951 46.6538C327.619 46.6172 325.751 46.8491 323.859 47.5205C321.992 48.1919 320.539 49.5347 319.77 51.4756C319.306 52.5742 319.074 53.9292 319.074 55.5527C319.074 57.1763 319.306 58.5312 319.77 59.6299C320.551 61.5464 321.992 62.9014 323.859 63.585C325.751 64.2686 327.619 64.4761 329.951 64.4761C331.135 64.4761 332.197 64.415 333.161 64.293C334.125 64.1831 335.078 63.9512 336.018 63.6216C337.922 62.9502 339.35 61.644 340.119 59.7031C340.375 59.105 340.571 58.397 340.681 57.5791H335.322ZM358.082 47.1299V53.5264H348.707V47.1299H343.628V64H348.707V57.5791H358.082V64H363.135V47.1299H358.082ZM373.578 47.1299L365.302 64H370.954L371.955 61.9736H380.878L381.879 64H387.506L379.23 47.1299H373.578ZM373.908 57.9209L376.41 52.8794L378.852 57.9209H373.908ZM402.917 64H408.545L405.859 58.4946C406.177 58.2871 406.47 58.0308 406.738 57.75C407.324 57.1763 407.776 56.5171 408.093 55.7725C408.728 54.2466 408.728 52.4521 408.093 50.9263C407.458 49.4248 406.262 48.2407 404.761 47.606C403.992 47.2886 403.186 47.1299 402.344 47.1299H389.685V64H394.763V59.5811H400.745L402.917 64ZM394.763 51.1704H401.318C401.917 51.1704 402.417 51.3901 402.844 51.8174C403.271 52.2446 403.491 52.7573 403.491 53.3555C403.491 53.9536 403.284 54.4663 402.856 54.8936C402.429 55.3208 401.917 55.5283 401.318 55.5283H394.763V51.1704ZM418.365 47.1299L410.089 64H415.741L416.742 61.9736H425.665L426.666 64H432.293L424.017 47.1299H418.365ZM418.695 57.9209L421.197 52.8794L423.639 57.9209H418.695ZM449.243 57.5791C449.206 57.689 449.182 57.7866 449.145 57.8721C448.828 58.6899 448.266 59.3247 447.448 59.7764C446.63 60.228 445.446 60.4478 443.872 60.4478C441.027 60.4478 439.27 59.5688 438.598 57.7988C438.366 57.2861 438.244 56.5415 438.244 55.5527C438.244 54.564 438.366 53.8071 438.598 53.2944C439.27 51.5488 441.027 50.6699 443.872 50.6699C445.434 50.6699 446.618 50.9019 447.424 51.3657C448.242 51.8174 448.815 52.4644 449.145 53.2944C449.157 53.3677 449.182 53.4409 449.218 53.5264H454.602C454.467 52.7451 454.272 52.0615 454.04 51.4756C453.271 49.5347 451.818 48.1919 449.926 47.5205C448.059 46.8491 446.203 46.6172 443.872 46.6538C441.54 46.6172 439.672 46.8491 437.78 47.5205C435.913 48.1919 434.46 49.5347 433.691 51.4756C433.227 52.5742 432.995 53.9292 432.995 55.5527C432.995 57.1763 433.227 58.5312 433.691 59.6299C434.472 61.5464 435.913 62.9014 437.78 63.585C439.672 64.2686 441.54 64.4761 443.872 64.4761C445.056 64.4761 446.118 64.415 447.082 64.293C448.046 64.1831 448.999 63.9512 449.938 63.6216C451.843 62.9502 453.271 61.644 454.04 59.7031C454.296 59.105 454.492 58.397 454.602 57.5791H449.243ZM474.883 47.1299H456.304V51.1704H463.055V64H468.133V51.1704H474.883V47.1299ZM494.579 51.1704V47.1299H477.331V64H494.579V59.9473H482.409V57.5791H493.59V53.5264H482.409V51.1704H494.579ZM511.174 64H516.802L514.116 58.4946C514.434 58.2871 514.727 58.0308 514.995 57.75C515.581 57.1763 516.033 56.5171 516.35 55.7725C516.985 54.2466 516.985 52.4521 516.35 50.9263C515.715 49.4248 514.519 48.2407 513.018 47.606C512.249 47.2886 511.443 47.1299 510.601 47.1299H497.942V64H503.02V59.5811H509.001L511.174 64ZM503.02 51.1704H509.575C510.173 51.1704 510.674 51.3901 511.101 51.8174C511.528 52.2446 511.748 52.7573 511.748 53.3555C511.748 53.9536 511.541 54.4663 511.113 54.8936C510.686 55.3208 510.173 55.5283 509.575 55.5283H503.02V51.1704ZM524.974 64V47.1299H519.896V64H524.974ZM548.125 52.0981C548.112 51.3535 547.966 50.6699 547.697 50.0718C547.294 49.1562 546.623 48.4238 545.671 47.8745C544.218 47.0322 541.728 46.605 538.2 46.605H538.09C534.562 46.605 532.072 47.0322 530.62 47.8745C529.667 48.4238 528.996 49.1562 528.593 50.0718C528.312 50.7065 528.166 51.4512 528.166 52.3179C528.166 53.1724 528.312 53.8804 528.618 54.4541C529.155 55.4795 530.058 56.2363 531.071 56.688C531.584 56.9199 532.231 57.0908 533 57.2251C533.781 57.3594 534.55 57.4448 535.307 57.5059C536.064 57.5547 537.004 57.5913 538.115 57.6279L541.167 57.7988C541.606 57.8354 541.826 57.8843 542.204 58.0308C542.595 58.165 542.814 58.4214 542.851 58.8242C542.9 59.52 542.399 59.9961 541.35 60.228C540.666 60.3745 539.616 60.4478 538.2 60.4478H538.09C536.625 60.4478 535.551 60.3745 534.868 60.228C534.355 60.1182 533.977 59.9351 533.745 59.7031C533.525 59.4956 533.415 59.1416 533.415 58.6289V58.519H528.166V58.9463C528.178 59.7153 528.325 60.3867 528.593 60.9727C528.996 61.9004 529.667 62.645 530.62 63.1943C532.072 64.0366 534.562 64.4517 538.09 64.4517H538.2C541.667 64.4395 544.145 64.0122 545.646 63.1455C546.599 62.5962 547.27 61.8638 547.673 60.9482C547.954 60.3013 548.1 59.5444 548.1 58.7021C548.1 57.8599 547.954 57.1519 547.648 56.5781C547.111 55.5039 546.196 54.7837 545.183 54.3442C544.682 54.1123 544.035 53.9414 543.254 53.8071C542.485 53.6729 541.716 53.5752 540.947 53.5142C540.19 53.4531 539.25 53.4165 538.115 53.4043L535.124 53.2212C534.685 53.1602 534.489 53.1235 534.086 53.0137C533.696 52.9038 533.476 52.6475 533.415 52.269C533.317 51.5732 533.769 51.1094 534.77 50.853C535.441 50.6943 536.491 50.6089 537.944 50.5967H538.176C539.641 50.6089 540.715 50.6821 541.398 50.8286C541.923 50.9385 542.314 51.1216 542.546 51.3535C542.766 51.5488 542.875 51.915 542.875 52.4521V52.5254H548.125V52.0981ZM568.663 47.1299H550.083V51.1704H556.834V64H561.912V51.1704H568.663V47.1299ZM576.188 64V47.1299H571.11V64H576.188ZM595.481 57.5791C595.444 57.689 595.42 57.7866 595.383 57.8721C595.066 58.6899 594.504 59.3247 593.687 59.7764C592.869 60.228 591.685 60.4478 590.11 60.4478C587.266 60.4478 585.508 59.5688 584.836 57.7988C584.604 57.2861 584.482 56.5415 584.482 55.5527C584.482 54.564 584.604 53.8071 584.836 53.2944C585.508 51.5488 587.266 50.6699 590.11 50.6699C591.672 50.6699 592.856 50.9019 593.662 51.3657C594.48 51.8174 595.054 52.4644 595.383 53.2944C595.396 53.3677 595.42 53.4409 595.457 53.5264H600.84C600.706 52.7451 600.51 52.0615 600.278 51.4756C599.509 49.5347 598.057 48.1919 596.165 47.5205C594.297 46.8491 592.441 46.6172 590.11 46.6538C587.778 46.6172 585.911 46.8491 584.019 47.5205C582.151 48.1919 580.698 49.5347 579.929 51.4756C579.465 52.5742 579.233 53.9292 579.233 55.5527C579.233 57.1763 579.465 58.5312 579.929 59.6299C580.71 61.5464 582.151 62.9014 584.019 63.585C585.911 64.2686 587.778 64.4761 590.11 64.4761C591.294 64.4761 592.356 64.415 593.32 64.293C594.285 64.1831 595.237 63.9512 596.177 63.6216C598.081 62.9502 599.509 61.644 600.278 59.7031C600.535 59.105 600.73 58.397 600.84 57.5791H595.481Z" fill="white"/>
<path d="M329.84 101.34H331.72L329.42 116H328.02L326.62 108.82L325.14 116H323.8L321.5 101.34H323.42L324.76 110.28L326.16 103.26H327.04L328.5 110.28L329.84 101.34ZM333.451 101.34H337.851V103.24H335.351V107.76H337.851V109.58H335.351V114.1H337.851V116H333.451V101.34ZM342.926 112.2H341.406L340.966 116H339.146L341.046 101.34H343.346L345.266 116H343.406L342.926 112.2ZM341.626 110.38H342.706L342.166 105.86L341.626 110.38ZM348.915 109.52V116H347.015V101.34H350.775C351.255 101.34 351.668 101.513 352.015 101.86C352.362 102.207 352.535 102.62 352.535 103.1V107.76C352.535 108.24 352.362 108.653 352.015 109C351.668 109.347 351.255 109.52 350.775 109.52H348.915ZM348.915 103.18V107.68H350.175C350.308 107.68 350.415 107.64 350.495 107.56C350.588 107.467 350.635 107.353 350.635 107.22V103.64C350.635 103.507 350.588 103.4 350.495 103.32C350.415 103.227 350.308 103.18 350.175 103.18H348.915ZM356.338 116C355.858 116 355.445 115.827 355.098 115.48C354.752 115.133 354.578 114.72 354.578 114.24V103.1C354.578 102.62 354.752 102.207 355.098 101.86C355.445 101.513 355.858 101.34 356.338 101.34H358.338C358.818 101.34 359.232 101.513 359.578 101.86C359.925 102.207 360.098 102.62 360.098 103.1V114.24C360.098 114.72 359.925 115.133 359.578 115.48C359.232 115.827 358.818 116 358.338 116H356.338ZM356.478 113.7C356.478 113.833 356.518 113.947 356.598 114.04C356.692 114.12 356.805 114.16 356.938 114.16H357.738C357.872 114.16 357.978 114.12 358.058 114.04C358.152 113.947 358.198 113.833 358.198 113.7V103.64C358.198 103.507 358.152 103.4 358.058 103.32C357.978 103.227 357.872 103.18 357.738 103.18H356.938C356.805 103.18 356.692 103.227 356.598 103.32C356.518 103.4 356.478 103.507 356.478 103.64V113.7ZM366.056 109.58H366.076L365.996 106.56V101.34H367.796V116H366.096L364.116 107.76H364.096L364.176 110.78V116H362.376V101.34H364.076L366.056 109.58Z" fill="white"/>
<path d="M322.04 131.34H326.44V133.24H323.94V137.76H326.44V139.58H323.94V146H322.04V131.34ZM331.085 142.2H329.565L329.125 146H327.305L329.205 131.34H331.505L333.425 146H331.565L331.085 142.2ZM329.785 140.38H330.865L330.325 135.86L329.785 140.38ZM336.84 143.7C336.84 143.833 336.88 143.947 336.96 144.04C337.053 144.12 337.167 144.16 337.3 144.16H338.1C338.233 144.16 338.34 144.12 338.42 144.04C338.513 143.947 338.56 143.833 338.56 143.7V140H340.42V144.24C340.42 144.72 340.247 145.133 339.9 145.48C339.553 145.827 339.14 146 338.66 146H336.7C336.22 146 335.807 145.827 335.46 145.48C335.113 145.133 334.94 144.72 334.94 144.24V133.1C334.94 132.62 335.113 132.207 335.46 131.86C335.807 131.513 336.22 131.34 336.7 131.34H338.66C339.14 131.34 339.553 131.513 339.9 131.86C340.247 132.207 340.42 132.62 340.42 133.1V137.34H338.56V133.64C338.56 133.507 338.513 133.4 338.42 133.32C338.34 133.227 338.233 133.18 338.1 133.18H337.3C337.167 133.18 337.053 133.227 336.96 133.32C336.88 133.4 336.84 133.507 336.84 133.64V143.7ZM342.66 131.34H347.06V133.24H344.56V137.76H347.06V139.58H344.56V144.1H347.06V146H342.66V131.34ZM354.588 146H352.688V131.34H354.588V146ZM356.333 131.34H361.353V133.24H359.793V146H357.893V133.24H356.333V131.34ZM363.088 131.34H367.488V133.24H364.988V137.76H367.488V139.58H364.988V144.1H367.488V146H363.088V131.34ZM372.904 138.44L374.444 131.34H376.444V146H374.604V140.02L374.684 137.22H374.664L373.384 143.6H372.384L371.104 137.22H371.084L371.164 140.02V146H369.324V131.34H371.324L372.904 138.44Z" fill="white"/>
<path d="M323.94 173.7C323.94 173.833 323.98 173.947 324.06 174.04C324.153 174.12 324.267 174.16 324.4 174.16H325.2C325.333 174.16 325.44 174.12 325.52 174.04C325.613 173.947 325.66 173.833 325.66 173.7V170H327.52V174.24C327.52 174.72 327.347 175.133 327 175.48C326.653 175.827 326.24 176 325.76 176H323.8C323.32 176 322.907 175.827 322.56 175.48C322.213 175.133 322.04 174.72 322.04 174.24V163.1C322.04 162.62 322.213 162.207 322.56 161.86C322.907 161.513 323.32 161.34 323.8 161.34H325.76C326.24 161.34 326.653 161.513 327 161.86C327.347 162.207 327.52 162.62 327.52 163.1V167.34H325.66V163.64C325.66 163.507 325.613 163.4 325.52 163.32C325.44 163.227 325.333 163.18 325.2 163.18H324.4C324.267 163.18 324.153 163.227 324.06 163.32C323.98 163.4 323.94 163.507 323.94 163.64V173.7ZM329.76 161.34H331.66V174.1H334.16V176H329.76V161.34ZM337.364 176C336.884 176 336.471 175.827 336.124 175.48C335.777 175.133 335.604 174.72 335.604 174.24V163.1C335.604 162.62 335.777 162.207 336.124 161.86C336.471 161.513 336.884 161.34 337.364 161.34H339.364C339.844 161.34 340.257 161.513 340.604 161.86C340.951 162.207 341.124 162.62 341.124 163.1V174.24C341.124 174.72 340.951 175.133 340.604 175.48C340.257 175.827 339.844 176 339.364 176H337.364ZM337.504 173.7C337.504 173.833 337.544 173.947 337.624 174.04C337.717 174.12 337.831 174.16 337.964 174.16H338.764C338.897 174.16 339.004 174.12 339.084 174.04C339.177 173.947 339.224 173.833 339.224 173.7V163.64C339.224 163.507 339.177 163.4 339.084 163.32C339.004 163.227 338.897 163.18 338.764 163.18H337.964C337.831 163.18 337.717 163.227 337.624 163.32C337.544 163.4 337.504 163.507 337.504 163.64V173.7ZM342.569 161.34H347.589V163.24H346.029V176H344.129V163.24H342.569V161.34ZM352.784 169.58H351.224V176H349.324V161.34H351.224V167.76H352.784V161.34H354.684V176H352.784V169.58ZM356.966 161.34H361.366V163.24H358.866V167.76H361.366V169.58H358.866V174.1H361.366V176H356.966V161.34ZM364.961 169.58C364.481 169.58 364.068 169.407 363.721 169.06C363.374 168.713 363.201 168.3 363.201 167.82V163.1C363.201 162.62 363.374 162.207 363.721 161.86C364.068 161.513 364.481 161.34 364.961 161.34H366.961C367.441 161.34 367.854 161.513 368.201 161.86C368.548 162.207 368.721 162.62 368.721 163.1V166.52H366.821V163.64C366.821 163.507 366.774 163.4 366.681 163.32C366.601 163.227 366.494 163.18 366.361 163.18H365.561C365.428 163.18 365.314 163.227 365.221 163.32C365.141 163.4 365.101 163.507 365.101 163.64V167.32C365.101 167.453 365.141 167.567 365.221 167.66C365.314 167.74 365.428 167.78 365.561 167.78H366.961C367.441 167.78 367.854 167.953 368.201 168.3C368.548 168.647 368.721 169.06 368.721 169.54V174.24C368.721 174.72 368.548 175.133 368.201 175.48C367.854 175.827 367.441 176 366.961 176H364.961C364.481 176 364.068 175.827 363.721 175.48C363.374 175.133 363.201 174.72 363.201 174.24V170.78H365.101V173.7C365.101 173.833 365.141 173.947 365.221 174.04C365.314 174.12 365.428 174.16 365.561 174.16H366.361C366.494 174.16 366.601 174.12 366.681 174.04C366.774 173.947 366.821 173.833 366.821 173.7V170.04C366.821 169.907 366.774 169.8 366.681 169.72C366.601 169.627 366.494 169.58 366.361 169.58H364.961Z" fill="white"/>
<path d="M325.5 199.58H323.94V206H322.04V191.34H323.94V197.76H325.5V191.34H327.4V206H325.5V199.58ZM332.921 202.2H331.401L330.961 206H329.141L331.041 191.34H333.341L335.261 206H333.401L332.921 202.2ZM331.621 200.38H332.701L332.161 195.86L331.621 200.38ZM335.767 191.34H340.787V193.24H339.227V206H337.327V193.24H335.767V191.34Z" fill="white"/>
<path d="M325.72 259.58H325.74L325.66 256.56V251.34H327.46V266H325.76L323.78 257.76H323.76L323.84 260.78V266H322.04V251.34H323.74L325.72 259.58ZM329.74 251.34H334.14V253.24H331.64V257.76H334.14V259.58H331.64V264.1H334.14V266H329.74V251.34ZM337.875 263.7C337.875 263.833 337.915 263.947 337.995 264.04C338.088 264.12 338.202 264.16 338.335 264.16H339.135C339.268 264.16 339.375 264.12 339.455 264.04C339.548 263.947 339.595 263.833 339.595 263.7V260H341.455V264.24C341.455 264.72 341.282 265.133 340.935 265.48C340.588 265.827 340.175 266 339.695 266H337.735C337.255 266 336.842 265.827 336.495 265.48C336.148 265.133 335.975 264.72 335.975 264.24V253.1C335.975 252.62 336.148 252.207 336.495 251.86C336.842 251.513 337.255 251.34 337.735 251.34H339.695C340.175 251.34 340.588 251.513 340.935 251.86C341.282 252.207 341.455 252.62 341.455 253.1V257.34H339.595V253.64C339.595 253.507 339.548 253.4 339.455 253.32C339.375 253.227 339.268 253.18 339.135 253.18H338.335C338.202 253.18 338.088 253.227 337.995 253.32C337.915 253.4 337.875 253.507 337.875 253.64V263.7ZM347.255 257.02L350.595 266H348.475L345.955 259.06L345.595 259.86V266H343.695V251.34H345.595V256.32L348.255 251.34H350.315L347.255 257.02Z" fill="white"/>
<path d="M325.62 228.44L327.16 221.34H329.16V236H327.32V230.02L327.4 227.22H327.38L326.1 233.6H325.1L323.82 227.22H323.8L323.88 230.02V236H322.04V221.34H324.04L325.62 228.44ZM333.199 236C332.719 236 332.306 235.827 331.959 235.48C331.613 235.133 331.439 234.72 331.439 234.24V223.1C331.439 222.62 331.613 222.207 331.959 221.86C332.306 221.513 332.719 221.34 333.199 221.34H335.199C335.679 221.34 336.093 221.513 336.439 221.86C336.786 222.207 336.959 222.62 336.959 223.1V234.24C336.959 234.72 336.786 235.133 336.439 235.48C336.093 235.827 335.679 236 335.199 236H333.199ZM333.339 233.7C333.339 233.833 333.379 233.947 333.459 234.04C333.553 234.12 333.666 234.16 333.799 234.16H334.599C334.733 234.16 334.839 234.12 334.919 234.04C335.013 233.947 335.059 233.833 335.059 233.7V223.64C335.059 223.507 335.013 223.4 334.919 223.32C334.839 223.227 334.733 223.18 334.599 223.18H333.799C333.666 223.18 333.553 223.227 333.459 223.32C333.379 223.4 333.339 223.507 333.339 223.64V233.7ZM340.997 236C340.517 236 340.104 235.827 339.757 235.48C339.41 235.133 339.237 234.72 339.237 234.24V221.34H341.137V233.7C341.137 233.833 341.177 233.947 341.257 234.04C341.35 234.12 341.464 234.16 341.597 234.16H342.317C342.45 234.16 342.557 234.12 342.637 234.04C342.73 233.947 342.777 233.833 342.777 233.7V221.34H344.677V234.24C344.677 234.72 344.504 235.133 344.157 235.48C343.81 235.827 343.397 236 342.917 236H340.997ZM346.123 221.34H351.143V223.24H349.583V236H347.683V223.24H346.123V221.34ZM356.339 229.58H354.779V236H352.879V221.34H354.779V227.76H356.339V221.34H358.239V236H356.339V229.58Z" fill="white"/>
<path d="M27.8 234.58C27.32 234.58 26.9067 234.407 26.56 234.06C26.2133 233.713 26.04 233.3 26.04 232.82V228.1C26.04 227.62 26.2133 227.207 26.56 226.86C26.9067 226.513 27.32 226.34 27.8 226.34H29.8C30.28 226.34 30.6933 226.513 31.04 226.86C31.3867 227.207 31.56 227.62 31.56 228.1V231.52H29.66V228.64C29.66 228.507 29.6133 228.4 29.52 228.32C29.44 228.227 29.3333 228.18 29.2 228.18H28.4C28.2667 228.18 28.1533 228.227 28.06 228.32C27.98 228.4 27.94 228.507 27.94 228.64V232.32C27.94 232.453 27.98 232.567 28.06 232.66C28.1533 232.74 28.2667 232.78 28.4 232.78H29.8C30.28 232.78 30.6933 232.953 31.04 233.3C31.3867 233.647 31.56 234.06 31.56 234.54V239.24C31.56 239.72 31.3867 240.133 31.04 240.48C30.6933 240.827 30.28 241 29.8 241H27.8C27.32 241 26.9067 240.827 26.56 240.48C26.2133 240.133 26.04 239.72 26.04 239.24V235.78H27.94V238.7C27.94 238.833 27.98 238.947 28.06 239.04C28.1533 239.12 28.2667 239.16 28.4 239.16H29.2C29.3333 239.16 29.44 239.12 29.52 239.04C29.6133 238.947 29.66 238.833 29.66 238.7V235.04C29.66 234.907 29.6133 234.8 29.52 234.72C29.44 234.627 29.3333 234.58 29.2 234.58H27.8ZM33.8377 226.34H38.2377V228.24H35.7377V232.76H38.2377V234.58H35.7377V239.1H38.2377V241H33.8377V226.34ZM45.8328 241H43.8728L42.4328 236.06L40.9728 241H39.0328L41.3928 233.16L39.3328 226.34H41.3128L42.4528 230.56L43.6328 226.34H45.5328L43.4728 233.16L45.8328 241ZM48.5297 241H46.6297V238.9H48.5297V241ZM48.5297 234.72H46.6297V232.62H48.5297V234.72ZM57.7489 233.44L59.2889 226.34H61.2889V241H59.4489V235.02L59.5289 232.22H59.5089L58.2289 238.6H57.2289L55.9489 232.22H55.9289L56.0089 235.02V241H54.1689V226.34H56.1689L57.7489 233.44ZM66.8081 237.2H65.2881L64.8481 241H63.0281L64.9281 226.34H67.2281L69.1481 241H67.2881L66.8081 237.2ZM65.5081 235.38H66.5881L66.0481 230.86L65.5081 235.38ZM70.897 226.34H72.797V239.1H75.297V241H70.897V226.34ZM76.9369 226.34H81.3369V228.24H78.8369V232.76H81.3369V234.58H78.8369V239.1H81.3369V241H76.9369V226.34Z" fill="white"/>
<path d="M29.28 262.2H27.76L27.32 266H25.5L27.4 251.34H29.7L31.62 266H29.76L29.28 262.2ZM27.98 260.38H29.06L28.52 255.86L27.98 260.38ZM35.8545 258.34H38.6545V264.24C38.6545 264.72 38.4812 265.133 38.1345 265.48C37.7879 265.827 37.3745 266 36.8945 266H34.8945C34.4145 266 34.0012 265.827 33.6545 265.48C33.3079 265.133 33.1345 264.72 33.1345 264.24V253.1C33.1345 252.62 33.3079 252.207 33.6545 251.86C34.0012 251.513 34.4145 251.34 34.8945 251.34H36.8545C37.3345 251.34 37.7479 251.513 38.0945 251.86C38.4412 252.207 38.6145 252.62 38.6145 253.1V256.74H36.7545V253.64C36.7545 253.507 36.7079 253.4 36.6145 253.32C36.5345 253.227 36.4279 253.18 36.2945 253.18H35.4945C35.3612 253.18 35.2479 253.227 35.1545 253.32C35.0745 253.4 35.0345 253.507 35.0345 253.64V263.7C35.0345 263.833 35.0745 263.947 35.1545 264.04C35.2479 264.12 35.3612 264.16 35.4945 264.16H36.2945C36.4279 264.16 36.5345 264.12 36.6145 264.04C36.7079 263.947 36.7545 263.833 36.7545 263.7V260.16H35.8545V258.34ZM40.9322 251.34H45.3322V253.24H42.8322V257.76H45.3322V259.58H42.8322V264.1H45.3322V266H40.9322V251.34ZM48.6273 266H46.7273V263.9H48.6273V266ZM48.6273 259.72H46.7273V257.62H48.6273V259.72ZM53.7266 263.08C53.7266 262.693 53.7799 262.333 53.8866 262C53.9932 261.653 54.1266 261.347 54.2866 261.08L57.0266 256.26C57.0799 256.167 57.1199 256.067 57.1466 255.96C57.1732 255.84 57.1866 255.687 57.1866 255.5V253.64C57.1866 253.507 57.1399 253.4 57.0466 253.32C56.9666 253.227 56.8599 253.18 56.7266 253.18H56.0866C55.9532 253.18 55.8399 253.227 55.7466 253.32C55.6666 253.4 55.6266 253.507 55.6266 253.64V255.7H53.7666V253.1C53.7666 252.62 53.9399 252.207 54.2866 251.86C54.6332 251.513 55.0466 251.34 55.5266 251.34H57.3266C57.8066 251.34 58.2199 251.513 58.5666 251.86C58.9132 252.207 59.0866 252.62 59.0866 253.1V255.4C59.0866 255.933 59.0266 256.353 58.9066 256.66C58.7866 256.967 58.6132 257.293 58.3866 257.64L55.8666 261.92C55.7732 262.067 55.7066 262.22 55.6666 262.38C55.6399 262.527 55.6266 262.673 55.6266 262.82V264.1H59.0866V266H53.7266V263.08ZM60.3914 263.08C60.3914 262.693 60.4447 262.333 60.5514 262C60.6581 261.653 60.7914 261.347 60.9514 261.08L63.6914 256.26C63.7447 256.167 63.7847 256.067 63.8114 255.96C63.8381 255.84 63.8514 255.687 63.8514 255.5V253.64C63.8514 253.507 63.8047 253.4 63.7114 253.32C63.6314 253.227 63.5247 253.18 63.3914 253.18H62.7514C62.6181 253.18 62.5047 253.227 62.4114 253.32C62.3314 253.4 62.2914 253.507 62.2914 253.64V255.7H60.4314V253.1C60.4314 252.62 60.6047 252.207 60.9514 251.86C61.2981 251.513 61.7114 251.34 62.1914 251.34H63.9914C64.4714 251.34 64.8847 251.513 65.2314 251.86C65.5781 252.207 65.7514 252.62 65.7514 253.1V255.4C65.7514 255.933 65.6914 256.353 65.5714 256.66C65.4514 256.967 65.2781 257.293 65.0514 257.64L62.5314 261.92C62.4381 262.067 62.3714 262.22 62.3314 262.38C62.3047 262.527 62.2914 262.673 62.2914 262.82V264.1H65.7514V266H60.3914V263.08Z" fill="white"/>
<path d="M29.8 276.34C30.28 276.34 30.6933 276.513 31.04 276.86C31.3867 277.207 31.56 277.62 31.56 278.1V282.76C31.56 283.147 31.44 283.493 31.2 283.8C30.9733 284.107 30.6867 284.32 30.34 284.44L32.74 291H30.7L28.42 284.52H27.94V291H26.04V276.34H29.8ZM27.94 278.18V282.68H29.2C29.3333 282.68 29.44 282.64 29.52 282.56C29.6133 282.467 29.66 282.353 29.66 282.22V278.64C29.66 278.507 29.6133 278.4 29.52 278.32C29.44 278.227 29.3333 278.18 29.2 278.18H27.94ZM37.2144 287.2H35.6944L35.2544 291H33.4344L35.3344 276.34H37.6344L39.5544 291H37.6944L37.2144 287.2ZM35.9144 285.38H36.9944L36.4544 280.86L35.9144 285.38ZM42.9689 288.7C42.9689 288.833 43.0089 288.947 43.0889 289.04C43.1822 289.12 43.2956 289.16 43.4289 289.16H44.2289C44.3622 289.16 44.4689 289.12 44.5489 289.04C44.6422 288.947 44.6889 288.833 44.6889 288.7V285H46.5489V289.24C46.5489 289.72 46.3756 290.133 46.0289 290.48C45.6822 290.827 45.2689 291 44.7889 291H42.8289C42.3489 291 41.9356 290.827 41.5889 290.48C41.2422 290.133 41.0689 289.72 41.0689 289.24V278.1C41.0689 277.62 41.2422 277.207 41.5889 276.86C41.9356 276.513 42.3489 276.34 42.8289 276.34H44.7889C45.2689 276.34 45.6822 276.513 46.0289 276.86C46.3756 277.207 46.5489 277.62 46.5489 278.1V282.34H44.6889V278.64C44.6889 278.507 44.6422 278.4 44.5489 278.32C44.4689 278.227 44.3622 278.18 44.2289 278.18H43.4289C43.2956 278.18 43.1822 278.227 43.0889 278.32C43.0089 278.4 42.9689 278.507 42.9689 278.64V288.7ZM48.7884 276.34H53.1884V278.24H50.6884V282.76H53.1884V284.58H50.6884V289.1H53.1884V291H48.7884V276.34ZM56.4836 291H54.5836V288.9H56.4836V291ZM56.4836 284.72H54.5836V282.62H56.4836V284.72ZM65.5828 284.58H64.0228V291H62.1228V276.34H64.0228V282.76H65.5828V276.34H67.4828V291H65.5828V284.58ZM71.5242 291C71.0442 291 70.6309 290.827 70.2842 290.48C69.9376 290.133 69.7642 289.72 69.7642 289.24V276.34H71.6642V288.7C71.6642 288.833 71.7042 288.947 71.7842 289.04C71.8776 289.12 71.9909 289.16 72.1242 289.16H72.8442C72.9776 289.16 73.0842 289.12 73.1642 289.04C73.2576 288.947 73.3042 288.833 73.3042 288.7V276.34H75.2042V289.24C75.2042 289.72 75.0309 290.133 74.6842 290.48C74.3376 290.827 73.9242 291 73.4442 291H71.5242ZM81.0637 283.44L82.6037 276.34H84.6037V291H82.7637V285.02L82.8437 282.22H82.8237L81.5437 288.6H80.5437L79.2637 282.22H79.2437L79.3237 285.02V291H77.4837V276.34H79.4837L81.0637 283.44ZM90.123 287.2H88.603L88.163 291H86.343L88.243 276.34H90.543L92.463 291H90.603L90.123 287.2ZM88.823 285.38H89.903L89.363 280.86L88.823 285.38ZM97.8919 284.58H97.9119L97.8319 281.56V276.34H99.6319V291H97.9319L95.9519 282.76H95.9319L96.0119 285.78V291H94.2119V276.34H95.9119L97.8919 284.58Z" fill="white"/>
<path d="M319.5 296.34H324.52V298.24H322.96V311H321.06V298.24H319.5V296.34ZM327.723 311C327.243 311 326.829 310.827 326.483 310.48C326.136 310.133 325.963 309.72 325.963 309.24V298.1C325.963 297.62 326.136 297.207 326.483 296.86C326.829 296.513 327.243 296.34 327.723 296.34H329.723C330.203 296.34 330.616 296.513 330.963 296.86C331.309 297.207 331.483 297.62 331.483 298.1V309.24C331.483 309.72 331.309 310.133 330.963 310.48C330.616 310.827 330.203 311 329.723 311H327.723ZM327.863 308.7C327.863 308.833 327.903 308.947 327.983 309.04C328.076 309.12 328.189 309.16 328.323 309.16H329.123C329.256 309.16 329.363 309.12 329.443 309.04C329.536 308.947 329.583 308.833 329.583 308.7V298.64C329.583 298.507 329.536 298.4 329.443 298.32C329.363 298.227 329.256 298.18 329.123 298.18H328.323C328.189 298.18 328.076 298.227 327.983 298.32C327.903 298.4 327.863 298.507 327.863 298.64V308.7ZM332.927 296.34H337.947V298.24H336.387V311H334.487V298.24H332.927V296.34ZM342.22 307.2H340.7L340.26 311H338.44L340.34 296.34H342.64L344.56 311H342.7L342.22 307.2ZM340.92 305.38H342L341.46 300.86L340.92 305.38ZM346.309 296.34H348.209V309.1H350.709V311H346.309V296.34ZM358.042 311H356.142V296.34H358.042V311ZM359.787 296.34H364.807V298.24H363.247V311H361.347V298.24H359.787V296.34ZM366.542 296.34H370.942V298.24H368.442V302.76H370.942V304.58H368.442V309.1H370.942V311H366.542V296.34ZM376.357 303.44L377.897 296.34H379.897V311H378.057V305.02L378.137 302.22H378.117L376.837 308.6H375.837L374.557 302.22H374.537L374.617 305.02V311H372.777V296.34H374.777L376.357 303.44Z" fill="white"/>
<path d="M401 109H479" stroke="#70FF00" stroke-width="10" stroke-linecap="square"/>
<path d="M400 139H514" stroke="#70FF00" stroke-width="10" stroke-linecap="square"/>
<path d="M400 169H468" stroke="#70FF00" stroke-width="10" stroke-linecap="square"/>
<path d="M400 199H514" stroke="#70FF00" stroke-width="10" stroke-linecap="square"/>
<path d="M400 229H432" stroke="#70FF00" stroke-width="10" stroke-linecap="square"/>
<path d="M400 259H416" stroke="#70FF00" stroke-width="10" stroke-linecap="square"/>
<rect x="575" y="246" width="25" height="25" rx="2" fill="#434343"/>
<rect x="575" y="126" width="25" height="25" rx="2" fill="#434343"/>
<rect x="575" y="216" width="25" height="25" rx="2" fill="#434343"/>
<rect x="575" y="186" width="25" height="25" rx="2" fill="#434343"/>
<rect x="575" y="156" width="25" height="25" rx="2" fill="#434343"/>
<rect x="575" y="96" width="25" height="25" rx="2" fill="#434343"/>
<path d="M584.46 262.36L587.76 251.34H589.58V262H590.38V263.8H589.58V266H587.84V263.8H584.46V262.36ZM587.84 262V256.36L586.28 262H587.84Z" fill="white"/>
<path d="M588.52 139.78H586.66C586.18 139.78 585.767 139.607 585.42 139.26C585.073 138.913 584.9 138.5 584.9 138.02V133.1C584.9 132.62 585.073 132.207 585.42 131.86C585.767 131.513 586.18 131.34 586.66 131.34H588.66C589.14 131.34 589.553 131.513 589.9 131.86C590.247 132.207 590.42 132.62 590.42 133.1V144.24C590.42 144.72 590.247 145.133 589.9 145.48C589.553 145.827 589.14 146 588.66 146H586.7C586.22 146 585.807 145.827 585.46 145.48C585.113 145.133 584.94 144.72 584.94 144.24V141.62H586.8V143.7C586.8 143.833 586.84 143.947 586.92 144.04C587.013 144.12 587.127 144.16 587.26 144.16H588.06C588.193 144.16 588.3 144.12 588.38 144.04C588.473 143.947 588.52 143.833 588.52 143.7V139.78ZM586.8 137.5C586.8 137.633 586.84 137.747 586.92 137.84C587.013 137.92 587.127 137.96 587.26 137.96H588.52V133.64C588.52 133.507 588.473 133.4 588.38 133.32C588.3 133.227 588.193 133.18 588.06 133.18H587.26C587.127 133.18 587.013 133.227 586.92 133.32C586.84 133.4 586.8 133.507 586.8 133.64V137.5Z" fill="white"/>
<path d="M588.18 228.94C588.18 228.807 588.133 228.7 588.04 228.62C587.96 228.527 587.853 228.48 587.72 228.48H586.84C586.507 228.48 586.327 228.667 586.3 229.04H584.7L585 221.34H590.06V223.24H586.68L586.56 226.74C586.613 226.713 586.693 226.693 586.8 226.68C586.92 226.653 587.027 226.64 587.12 226.64H588.32C588.8 226.64 589.213 226.813 589.56 227.16C589.907 227.507 590.08 227.92 590.08 228.4V234.24C590.08 234.72 589.907 235.133 589.56 235.48C589.213 235.827 588.8 236 588.32 236H586.36C585.88 236 585.467 235.827 585.12 235.48C584.773 235.133 584.6 234.72 584.6 234.24V231.62H586.46V233.7C586.46 233.833 586.5 233.947 586.58 234.04C586.673 234.12 586.787 234.16 586.92 234.16H587.72C587.853 234.16 587.96 234.12 588.04 234.04C588.133 233.947 588.18 233.833 588.18 233.7V228.94Z" fill="white"/>
<path d="M588.52 199.78H586.66C586.18 199.78 585.767 199.607 585.42 199.26C585.073 198.913 584.9 198.5 584.9 198.02V193.1C584.9 192.62 585.073 192.207 585.42 191.86C585.767 191.513 586.18 191.34 586.66 191.34H588.66C589.14 191.34 589.553 191.513 589.9 191.86C590.247 192.207 590.42 192.62 590.42 193.1V204.24C590.42 204.72 590.247 205.133 589.9 205.48C589.553 205.827 589.14 206 588.66 206H586.7C586.22 206 585.807 205.827 585.46 205.48C585.113 205.133 584.94 204.72 584.94 204.24V201.62H586.8V203.7C586.8 203.833 586.84 203.947 586.92 204.04C587.013 204.12 587.127 204.16 587.26 204.16H588.06C588.193 204.16 588.3 204.12 588.38 204.04C588.473 203.947 588.52 203.833 588.52 203.7V199.78ZM586.8 197.5C586.8 197.633 586.84 197.747 586.92 197.84C587.013 197.92 587.127 197.96 587.26 197.96H588.52V193.64C588.52 193.507 588.473 193.4 588.38 193.32C588.3 193.227 588.193 193.18 588.06 193.18H587.26C587.127 193.18 587.013 193.227 586.92 193.32C586.84 193.4 586.8 193.507 586.8 193.64V197.5Z" fill="white"/>
<path d="M585.8 167.36H587.66C588.14 167.36 588.553 167.533 588.9 167.88C589.247 168.227 589.42 168.64 589.42 169.12V174.24C589.42 174.72 589.247 175.133 588.9 175.48C588.553 175.827 588.14 176 587.66 176H585.66C585.18 176 584.767 175.827 584.42 175.48C584.073 175.133 583.9 174.72 583.9 174.24V163.1C583.9 162.62 584.073 162.207 584.42 161.86C584.767 161.513 585.18 161.34 585.66 161.34H587.62C588.1 161.34 588.513 161.513 588.86 161.86C589.207 162.207 589.38 162.62 589.38 163.1V165.7H587.52V163.64C587.52 163.507 587.473 163.4 587.38 163.32C587.3 163.227 587.193 163.18 587.06 163.18H586.26C586.127 163.18 586.013 163.227 585.92 163.32C585.84 163.4 585.8 163.507 585.8 163.64V167.36ZM587.52 169.64C587.52 169.507 587.473 169.4 587.38 169.32C587.3 169.227 587.193 169.18 587.06 169.18H585.8V173.7C585.8 173.833 585.84 173.947 585.92 174.04C586.013 174.12 586.127 174.16 586.26 174.16H587.06C587.193 174.16 587.3 174.12 587.38 174.04C587.473 173.947 587.52 173.833 587.52 173.7V169.64Z" fill="white"/>
<path d="M585.1 101.34H590.12V102.66L588.12 116H586.2L588.24 103.24H585.1V101.34Z" fill="white"/>
<rect x="575" y="291" width="25" height="25" rx="2" fill="#70FF00"/>
<path d="M580.46 307.36L583.76 296.34H585.58V307H586.38V308.8H585.58V311H583.84V308.8H580.46V307.36ZM583.84 307V301.36L582.28 307H583.84ZM589.934 311C589.454 311 589.04 310.827 588.694 310.48C588.347 310.133 588.174 309.72 588.174 309.24V298.1C588.174 297.62 588.347 297.207 588.694 296.86C589.04 296.513 589.454 296.34 589.934 296.34H591.934C592.414 296.34 592.827 296.513 593.174 296.86C593.52 297.207 593.694 297.62 593.694 298.1V309.24C593.694 309.72 593.52 310.133 593.174 310.48C592.827 310.827 592.414 311 591.934 311H589.934ZM590.074 308.7C590.074 308.833 590.114 308.947 590.194 309.04C590.287 309.12 590.4 309.16 590.534 309.16H591.334C591.467 309.16 591.574 309.12 591.654 309.04C591.747 308.947 591.794 308.833 591.794 308.7V298.64C591.794 298.507 591.747 298.4 591.654 298.32C591.574 298.227 591.467 298.18 591.334 298.18H590.534C590.4 298.18 590.287 298.227 590.194 298.32C590.114 298.4 590.074 298.507 590.074 298.64V308.7Z" fill="#222222"/>
<line x1="288.25" x2="288.25" y2="333" stroke="#3A3A3A" stroke-width="0.5"/>
<defs>
<filter id="filter0_d_692_585" x="46.2712" y="337.5" width="610.229" height="23" filterUnits="userSpaceOnUse" color-interpolation-filters="sRGB">
<feFlood flood-opacity="0" result="BackgroundImageFix"/>
<feColorMatrix in="SourceAlpha" type="matrix" values="0 0 0 0 0 0 0 0 0 0 0 0 0 0 0 0 0 0 127 0" result="hardAlpha"/>
<feOffset dy="4"/>
<feGaussianBlur stdDeviation="2"/>
<feComposite in2="hardAlpha" operator="out"/>
<feColorMatrix type="matrix" values="0 0 0 0 0 0 0 0 0 0 0 0 0 0 0 0 0 0 0.25 0"/>
<feBlend mode="normal" in2="BackgroundImageFix" result="effect1_dropShadow_692_585"/>
<feBlend mode="normal" in="SourceGraphic" in2="effect1_dropShadow_692_585" result="shape"/>
</filter>
<filter id="filter1_d_692_585" x="0" y="0" width="656" height="360" filterUnits="userSpaceOnUse" color-interpolation-filters="sRGB">
<feFlood flood-opacity="0" result="BackgroundImageFix"/>
<feColorMatrix in="SourceAlpha" type="matrix" values="0 0 0 0 0 0 0 0 0 0 0 0 0 0 0 0 0 0 127 0" result="hardAlpha"/>
<feOffset dy="4"/>
<feGaussianBlur stdDeviation="2"/>
<feComposite in2="hardAlpha" operator="out"/>
<feColorMatrix type="matrix" values="0 0 0 0 0 0 0 0 0 0 0 0 0 0 0 0 0 0 0.25 0"/>
<feBlend mode="normal" in2="BackgroundImageFix" result="effect1_dropShadow_692_585"/>
<feBlend mode="normal" in="SourceGraphic" in2="effect1_dropShadow_692_585" result="shape"/>
</filter>
<filter id="filter2_b_692_585" x="29.0885" y="40.4728" width="124.788" height="30.1721" filterUnits="userSpaceOnUse" color-interpolation-filters="sRGB">
<feFlood flood-opacity="0" result="BackgroundImageFix"/>
<feGaussianBlur in="BackgroundImage" stdDeviation="3.0661"/>
<feComposite in2="SourceAlpha" operator="in" result="effect1_backgroundBlur_692_585"/>
<feBlend mode="normal" in="SourceGraphic" in2="effect1_backgroundBlur_692_585" result="shape"/>
</filter>
</defs>
</svg>
