<svg width="657" height="361" viewBox="0 0 657 361" fill="none" xmlns="http://www.w3.org/2000/svg">
<g filter="url(#filter0_d_692_530)">
<path d="M61.1977 338.597L51.3511 348.597C50.1061 349.861 51.0018 352 52.7761 352H650C651.105 352 652 351.105 652 350V340C652 338.895 651.105 338 650 338H62.6228C62.087 338 61.5736 338.215 61.1977 338.597Z" fill="#2A2A2A"/>
<path d="M61.1977 338.597L51.3511 348.597C50.1061 349.861 51.0018 352 52.7761 352H650C651.105 352 652 351.105 652 350V340C652 338.895 651.105 338 650 338H62.6228C62.087 338 61.5736 338.215 61.1977 338.597Z" stroke="#2A2A2A"/>
</g>
<g filter="url(#filter1_d_692_530)">
<path d="M4 63.4118V347C4 349.761 6.23858 352 9 352H38.4289C39.755 352 41.0268 351.473 41.9645 350.536L58.0355 334.464C58.9732 333.527 60.245 333 61.5711 333H647C649.761 333 652 330.761 652 328V44.5711C652 43.245 651.473 41.9732 650.536 41.0355L610.964 1.46446C610.027 0.526782 608.755 0 607.429 0H9C6.23858 0 4 2.23858 4 5V63.4118Z" fill="#2A2A2A"/>
</g>
<g filter="url(#filter2_b_692_530)">
<path d="M55.1792 52.0981C55.167 51.3535 55.0205 50.6699 54.752 50.0718C54.3491 49.1562 53.6777 48.4238 52.7256 47.8745C51.2729 47.0322 48.7827 46.605 45.2549 46.605H45.145C41.6172 46.605 39.127 47.0322 37.6743 47.8745C36.7222 48.4238 36.0508 49.1562 35.6479 50.0718C35.3672 50.7065 35.2207 51.4512 35.2207 52.3179C35.2207 53.1724 35.3672 53.8804 35.6724 54.4541C36.2095 55.4795 37.1128 56.2363 38.126 56.688C38.6387 56.9199 39.2856 57.0908 40.0547 57.2251C40.8359 57.3594 41.605 57.4448 42.3618 57.5059C43.1187 57.5547 44.0586 57.5913 45.1694 57.6279L48.2212 57.7988C48.6606 57.8354 48.8804 57.8843 49.2588 58.0308C49.6494 58.165 49.8691 58.4214 49.9058 58.8242C49.9546 59.52 49.4541 59.9961 48.4043 60.228C47.7207 60.3745 46.6709 60.4478 45.2549 60.4478H45.145C43.6802 60.4478 42.606 60.3745 41.9224 60.228C41.4097 60.1182 41.0312 59.9351 40.7993 59.7031C40.5796 59.4956 40.4697 59.1416 40.4697 58.6289V58.519H35.2207V58.9463C35.2329 59.7153 35.3794 60.3867 35.6479 60.9727C36.0508 61.9004 36.7222 62.645 37.6743 63.1943C39.127 64.0366 41.6172 64.4517 45.145 64.4517H45.2549C48.7217 64.4395 51.1997 64.0122 52.7012 63.1455C53.6533 62.5962 54.3247 61.8638 54.7275 60.9482C55.0083 60.3013 55.1548 59.5444 55.1548 58.7021C55.1548 57.8599 55.0083 57.1519 54.7031 56.5781C54.166 55.5039 53.2505 54.7837 52.2373 54.3442C51.7368 54.1123 51.0898 53.9414 50.3086 53.8071C49.5396 53.6729 48.7705 53.5752 48.0015 53.5142C47.2446 53.4531 46.3047 53.4165 45.1694 53.4043L42.1787 53.2212C41.7393 53.1602 41.5439 53.1235 41.1411 53.0137C40.7505 52.9038 40.5308 52.6475 40.4697 52.269C40.3721 51.5732 40.8237 51.1094 41.8247 50.853C42.4961 50.6943 43.5459 50.6089 44.9985 50.5967H45.2305C46.6953 50.6089 47.7695 50.6821 48.4531 50.8286C48.978 50.9385 49.3687 51.1216 49.6006 51.3535C49.8203 51.5488 49.9302 51.915 49.9302 52.4521V52.5254H55.1792V52.0981ZM72.8364 47.1299V53.5264H63.4614V47.1299H58.3833V64H63.4614V57.5791H72.8364V64H77.8901V47.1299H72.8364ZM88.333 47.1299L80.0566 64H85.7085L86.7095 61.9736H95.6328L96.6338 64H102.261L93.9849 47.1299H88.333ZM88.6626 57.9209L91.165 52.8794L93.6064 57.9209H88.6626ZM117.672 64H123.3L120.614 58.4946C120.932 58.2871 121.225 58.0308 121.493 57.75C122.079 57.1763 122.531 56.5171 122.848 55.7725C123.483 54.2466 123.483 52.4521 122.848 50.9263C122.213 49.4248 121.017 48.2407 119.516 47.606C118.747 47.2886 117.941 47.1299 117.099 47.1299H104.44V64H109.518V59.5811H115.5L117.672 64ZM109.518 51.1704H116.073C116.671 51.1704 117.172 51.3901 117.599 51.8174C118.026 52.2446 118.246 52.7573 118.246 53.3555C118.246 53.9536 118.039 54.4663 117.611 54.8936C117.184 55.3208 116.671 55.5283 116.073 55.5283H109.518V51.1704ZM145.278 47.1299H137.869L131.472 53.0991V47.1299H128.921H126.394L126.418 64H128.945H131.472V60.0449L133.621 58.0308L138.699 64H145.352L137.319 54.5762L145.278 47.1299ZM160.445 47.1299L156.295 52.9038L152.145 47.1299H145.919L153.768 58.0552V64H158.822V58.0552L166.671 47.1299H160.445Z" fill="#70FF00"/>
</g>
<path d="M28.36 115.296C27.784 115.296 27.288 115.088 26.872 114.672C26.456 114.256 26.248 113.76 26.248 113.184V107.52C26.248 106.944 26.456 106.448 26.872 106.032C27.288 105.616 27.784 105.408 28.36 105.408H30.76C31.336 105.408 31.832 105.616 32.248 106.032C32.664 106.448 32.872 106.944 32.872 107.52V111.624H30.592V108.168C30.592 108.008 30.536 107.88 30.424 107.784C30.328 107.672 30.2 107.616 30.04 107.616H29.08C28.92 107.616 28.784 107.672 28.672 107.784C28.576 107.88 28.528 108.008 28.528 108.168V112.584C28.528 112.744 28.576 112.88 28.672 112.992C28.784 113.088 28.92 113.136 29.08 113.136H30.76C31.336 113.136 31.832 113.344 32.248 113.76C32.664 114.176 32.872 114.672 32.872 115.248V120.888C32.872 121.464 32.664 121.96 32.248 122.376C31.832 122.792 31.336 123 30.76 123H28.36C27.784 123 27.288 122.792 26.872 122.376C26.456 121.96 26.248 121.464 26.248 120.888V116.736H28.528V120.24C28.528 120.4 28.576 120.536 28.672 120.648C28.784 120.744 28.92 120.792 29.08 120.792H30.04C30.2 120.792 30.328 120.744 30.424 120.648C30.536 120.536 30.592 120.4 30.592 120.24V115.848C30.592 115.688 30.536 115.56 30.424 115.464C30.328 115.352 30.2 115.296 30.04 115.296H28.36ZM39.9972 115.296H38.1252V123H35.8452V105.408H38.1252V113.112H39.9972V105.408H42.2772V123H39.9972V115.296ZM49.1429 118.44H47.3189L46.7909 123H44.6069L46.8869 105.408H49.6469L51.9509 123H49.7189L49.1429 118.44ZM47.5829 116.256H48.8789L48.2309 110.832L47.5829 116.256ZM58.8016 105.408C59.3776 105.408 59.8736 105.616 60.2896 106.032C60.7056 106.448 60.9136 106.944 60.9136 107.52V113.112C60.9136 113.576 60.7696 113.992 60.4816 114.36C60.2096 114.728 59.8656 114.984 59.4496 115.128L62.3296 123H59.8816L57.1456 115.224H56.5696V123H54.2896V105.408H58.8016ZM56.5696 107.616V113.016H58.0816C58.2416 113.016 58.3696 112.968 58.4656 112.872C58.5776 112.76 58.6336 112.624 58.6336 112.464V108.168C58.6336 108.008 58.5776 107.88 58.4656 107.784C58.3696 107.672 58.2416 107.616 58.0816 107.616H56.5696ZM68.3228 112.224L72.3308 123H69.7868L66.7628 114.672L66.3308 115.632V123H64.0508V105.408H66.3308V111.384L69.5228 105.408H71.9948L68.3228 112.224ZM77.1179 112.128L79.0139 105.408H81.2699L78.2219 115.416V123H75.9419V115.416L72.9179 105.408H75.1499L77.1179 112.128ZM90.1536 123H87.8736V105.408H90.1536V123ZM95.2469 115.296C94.6709 115.296 94.1749 115.088 93.7589 114.672C93.3429 114.256 93.1349 113.76 93.1349 113.184V107.52C93.1349 106.944 93.3429 106.448 93.7589 106.032C94.1749 105.616 94.6709 105.408 95.2469 105.408H97.6469C98.2229 105.408 98.7189 105.616 99.1349 106.032C99.5509 106.448 99.7589 106.944 99.7589 107.52V111.624H97.4789V108.168C97.4789 108.008 97.4229 107.88 97.3109 107.784C97.2149 107.672 97.0869 107.616 96.9269 107.616H95.9669C95.8069 107.616 95.6709 107.672 95.5589 107.784C95.4629 107.88 95.4149 108.008 95.4149 108.168V112.584C95.4149 112.744 95.4629 112.88 95.5589 112.992C95.6709 113.088 95.8069 113.136 95.9669 113.136H97.6469C98.2229 113.136 98.7189 113.344 99.1349 113.76C99.5509 114.176 99.7589 114.672 99.7589 115.248V120.888C99.7589 121.464 99.5509 121.96 99.1349 122.376C98.7189 122.792 98.2229 123 97.6469 123H95.2469C94.6709 123 94.1749 122.792 93.7589 122.376C93.3429 121.96 93.1349 121.464 93.1349 120.888V116.736H95.4149V120.24C95.4149 120.4 95.4629 120.536 95.5589 120.648C95.6709 120.744 95.8069 120.792 95.9669 120.792H96.9269C97.0869 120.792 97.2149 120.744 97.3109 120.648C97.4229 120.536 97.4789 120.4 97.4789 120.24V115.848C97.4789 115.688 97.4229 115.56 97.3109 115.464C97.2149 115.352 97.0869 115.296 96.9269 115.296H95.2469ZM111.413 118.44H109.589L109.061 123H106.877L109.157 105.408H111.917L114.221 123H111.989L111.413 118.44ZM109.853 116.256H111.149L110.501 110.832L109.853 116.256ZM123.632 120.24C123.632 120.4 123.68 120.536 123.776 120.648C123.888 120.744 124.024 120.792 124.184 120.792H125.144C125.304 120.792 125.432 120.744 125.528 120.648C125.64 120.536 125.696 120.4 125.696 120.24V115.8H127.928V120.888C127.928 121.464 127.72 121.96 127.304 122.376C126.888 122.792 126.392 123 125.816 123H123.464C122.888 123 122.392 122.792 121.976 122.376C121.56 121.96 121.352 121.464 121.352 120.888V107.52C121.352 106.944 121.56 106.448 121.976 106.032C122.392 105.616 122.888 105.408 123.464 105.408H125.816C126.392 105.408 126.888 105.616 127.304 106.032C127.72 106.448 127.928 106.944 127.928 107.52V112.608H125.696V108.168C125.696 108.008 125.64 107.88 125.528 107.784C125.432 107.672 125.304 107.616 125.144 107.616H124.184C124.024 107.616 123.888 107.672 123.776 107.784C123.68 107.88 123.632 108.008 123.632 108.168V120.24ZM133.669 112.128L135.565 105.408H137.821L134.773 115.416V123H132.493V115.416L129.469 105.408H131.701L133.669 112.128ZM146.184 120.888C146.184 121.464 145.976 121.96 145.56 122.376C145.144 122.792 144.648 123 144.072 123H139.632V105.408H144.072C144.648 105.408 145.144 105.616 145.56 106.032C145.976 106.448 146.184 106.944 146.184 107.52V112.608C146.184 112.928 146.144 113.192 146.064 113.4C146 113.608 145.912 113.776 145.8 113.904C145.704 114.016 145.6 114.096 145.488 114.144C145.376 114.192 145.272 114.216 145.176 114.216C145.272 114.232 145.376 114.264 145.488 114.312C145.6 114.36 145.704 114.448 145.8 114.576C145.912 114.688 146 114.848 146.064 115.056C146.144 115.248 146.184 115.504 146.184 115.824V120.888ZM141.912 107.616V113.112H143.352C143.512 113.112 143.64 113.064 143.736 112.968C143.848 112.856 143.904 112.72 143.904 112.56V108.168C143.904 108.008 143.848 107.88 143.736 107.784C143.64 107.672 143.512 107.616 143.352 107.616H141.912ZM141.912 115.296V120.792H143.352C143.512 120.792 143.64 120.744 143.736 120.648C143.848 120.536 143.904 120.4 143.904 120.24V115.848C143.904 115.688 143.848 115.56 143.736 115.464C143.64 115.352 143.512 115.296 143.352 115.296H141.912ZM151.107 123C150.531 123 150.035 122.792 149.619 122.376C149.203 121.96 148.995 121.464 148.995 120.888V107.52C148.995 106.944 149.203 106.448 149.619 106.032C150.035 105.616 150.531 105.408 151.107 105.408H153.507C154.083 105.408 154.579 105.616 154.995 106.032C155.411 106.448 155.619 106.944 155.619 107.52V120.888C155.619 121.464 155.411 121.96 154.995 122.376C154.579 122.792 154.083 123 153.507 123H151.107ZM151.275 120.24C151.275 120.4 151.323 120.536 151.419 120.648C151.531 120.744 151.667 120.792 151.827 120.792H152.787C152.947 120.792 153.075 120.744 153.171 120.648C153.283 120.536 153.339 120.4 153.339 120.24V108.168C153.339 108.008 153.283 107.88 153.171 107.784C153.075 107.672 152.947 107.616 152.787 107.616H151.827C151.667 107.616 151.531 107.672 151.419 107.784C151.323 107.88 151.275 108.008 151.275 108.168V120.24ZM163.104 105.408C163.68 105.408 164.176 105.616 164.592 106.032C165.008 106.448 165.216 106.944 165.216 107.52V113.112C165.216 113.576 165.072 113.992 164.784 114.36C164.512 114.728 164.168 114.984 163.752 115.128L166.632 123H164.184L161.448 115.224H160.872V123H158.592V105.408H163.104ZM160.872 107.616V113.016H162.384C162.544 113.016 162.672 112.968 162.768 112.872C162.88 112.76 162.936 112.624 162.936 112.464V108.168C162.936 108.008 162.88 107.88 162.768 107.784C162.672 107.672 162.544 107.616 162.384 107.616H160.872ZM171.617 113.808H174.977V120.888C174.977 121.464 174.769 121.96 174.353 122.376C173.937 122.792 173.441 123 172.865 123H170.465C169.889 123 169.393 122.792 168.977 122.376C168.561 121.96 168.353 121.464 168.353 120.888V107.52C168.353 106.944 168.561 106.448 168.977 106.032C169.393 105.616 169.889 105.408 170.465 105.408H172.817C173.393 105.408 173.889 105.616 174.305 106.032C174.721 106.448 174.929 106.944 174.929 107.52V111.888H172.697V108.168C172.697 108.008 172.641 107.88 172.529 107.784C172.433 107.672 172.305 107.616 172.145 107.616H171.185C171.025 107.616 170.889 107.672 170.777 107.784C170.681 107.88 170.633 108.008 170.633 108.168V120.24C170.633 120.4 170.681 120.536 170.777 120.648C170.889 120.744 171.025 120.792 171.185 120.792H172.145C172.305 120.792 172.433 120.744 172.529 120.648C172.641 120.536 172.697 120.4 172.697 120.24V115.992H171.617V113.808ZM185.023 115.224V123H182.743V105.408H187.255C187.831 105.408 188.327 105.616 188.743 106.032C189.159 106.448 189.367 106.944 189.367 107.52V113.112C189.367 113.688 189.159 114.184 188.743 114.6C188.327 115.016 187.831 115.224 187.255 115.224H185.023ZM185.023 107.616V113.016H186.535C186.695 113.016 186.823 112.968 186.919 112.872C187.031 112.76 187.087 112.624 187.087 112.464V108.168C187.087 108.008 187.031 107.88 186.919 107.784C186.823 107.672 186.695 107.616 186.535 107.616H185.023ZM196.571 105.408C197.147 105.408 197.643 105.616 198.059 106.032C198.475 106.448 198.683 106.944 198.683 107.52V113.112C198.683 113.576 198.539 113.992 198.251 114.36C197.979 114.728 197.635 114.984 197.219 115.128L200.099 123H197.651L194.915 115.224H194.339V123H192.059V105.408H196.571ZM194.339 107.616V113.016H195.851C196.011 113.016 196.139 112.968 196.235 112.872C196.347 112.76 196.403 112.624 196.403 112.464V108.168C196.403 108.008 196.347 107.88 196.235 107.784C196.139 107.672 196.011 107.616 195.851 107.616H194.339ZM203.932 123C203.356 123 202.86 122.792 202.444 122.376C202.028 121.96 201.82 121.464 201.82 120.888V107.52C201.82 106.944 202.028 106.448 202.444 106.032C202.86 105.616 203.356 105.408 203.932 105.408H206.332C206.908 105.408 207.404 105.616 207.82 106.032C208.236 106.448 208.444 106.944 208.444 107.52V120.888C208.444 121.464 208.236 121.96 207.82 122.376C207.404 122.792 206.908 123 206.332 123H203.932ZM204.1 120.24C204.1 120.4 204.148 120.536 204.244 120.648C204.356 120.744 204.492 120.792 204.652 120.792H205.612C205.772 120.792 205.9 120.744 205.996 120.648C206.108 120.536 206.164 120.4 206.164 120.24V108.168C206.164 108.008 206.108 107.88 205.996 107.784C205.9 107.672 205.772 107.616 205.612 107.616H204.652C204.492 107.616 204.356 107.672 204.244 107.784C204.148 107.88 204.1 108.008 204.1 108.168V120.24ZM211.417 123V105.408H215.929C216.505 105.408 217.001 105.616 217.417 106.032C217.833 106.448 218.041 106.944 218.041 107.52V120.888C218.041 121.464 217.833 121.96 217.417 122.376C217.001 122.792 216.505 123 215.929 123H211.417ZM213.697 107.616V120.792H215.209C215.369 120.792 215.497 120.744 215.593 120.648C215.705 120.536 215.761 120.4 215.761 120.24V108.168C215.761 108.008 215.705 107.88 215.593 107.784C215.497 107.672 215.369 107.616 215.209 107.616H213.697ZM223.127 123C222.551 123 222.055 122.792 221.639 122.376C221.223 121.96 221.015 121.464 221.015 120.888V105.408H223.295V120.24C223.295 120.4 223.343 120.536 223.439 120.648C223.551 120.744 223.687 120.792 223.847 120.792H224.711C224.871 120.792 224.999 120.744 225.095 120.648C225.207 120.536 225.263 120.4 225.263 120.24V105.408H227.543V120.888C227.543 121.464 227.335 121.96 226.919 122.376C226.503 122.792 226.007 123 225.431 123H223.127ZM232.798 120.24C232.798 120.4 232.846 120.536 232.942 120.648C233.054 120.744 233.19 120.792 233.35 120.792H234.31C234.47 120.792 234.598 120.744 234.694 120.648C234.806 120.536 234.862 120.4 234.862 120.24V115.8H237.094V120.888C237.094 121.464 236.886 121.96 236.47 122.376C236.054 122.792 235.558 123 234.982 123H232.63C232.054 123 231.558 122.792 231.142 122.376C230.726 121.96 230.518 121.464 230.518 120.888V107.52C230.518 106.944 230.726 106.448 231.142 106.032C231.558 105.616 232.054 105.408 232.63 105.408H234.982C235.558 105.408 236.054 105.616 236.47 106.032C236.886 106.448 237.094 106.944 237.094 107.52V112.608H234.862V108.168C234.862 108.008 234.806 107.88 234.694 107.784C234.598 107.672 234.47 107.616 234.31 107.616H233.35C233.19 107.616 233.054 107.672 232.942 107.784C232.846 107.88 232.798 108.008 232.798 108.168V120.24ZM240.021 105.408H245.301V107.688H242.301V113.112H245.301V115.296H242.301V120.72H245.301V123H240.021V105.408ZM247.744 123V105.408H252.256C252.832 105.408 253.328 105.616 253.744 106.032C254.16 106.448 254.368 106.944 254.368 107.52V120.888C254.368 121.464 254.16 121.96 253.744 122.376C253.328 122.792 252.832 123 252.256 123H247.744ZM250.024 107.616V120.792H251.536C251.696 120.792 251.824 120.744 251.92 120.648C252.032 120.536 252.088 120.4 252.088 120.24V108.168C252.088 108.008 252.032 107.88 251.92 107.784C251.824 107.672 251.696 107.616 251.536 107.616H250.024ZM32.8 146.888C32.8 147.464 32.592 147.96 32.176 148.376C31.76 148.792 31.264 149 30.688 149H26.248V131.408H30.688C31.264 131.408 31.76 131.616 32.176 132.032C32.592 132.448 32.8 132.944 32.8 133.52V138.608C32.8 138.928 32.76 139.192 32.68 139.4C32.616 139.608 32.528 139.776 32.416 139.904C32.32 140.016 32.216 140.096 32.104 140.144C31.992 140.192 31.888 140.216 31.792 140.216C31.888 140.232 31.992 140.264 32.104 140.312C32.216 140.36 32.32 140.448 32.416 140.576C32.528 140.688 32.616 140.848 32.68 141.056C32.76 141.248 32.8 141.504 32.8 141.824V146.888ZM28.528 133.616V139.112H29.968C30.128 139.112 30.256 139.064 30.352 138.968C30.464 138.856 30.52 138.72 30.52 138.56V134.168C30.52 134.008 30.464 133.88 30.352 133.784C30.256 133.672 30.128 133.616 29.968 133.616H28.528ZM28.528 141.296V146.792H29.968C30.128 146.792 30.256 146.744 30.352 146.648C30.464 146.536 30.52 146.4 30.52 146.24V141.848C30.52 141.688 30.464 141.56 30.352 141.464C30.256 141.352 30.128 141.296 29.968 141.296H28.528ZM38.4244 138.128L40.3204 131.408H42.5764L39.5284 141.416V149H37.2484V141.416L34.2244 131.408H36.4564L38.4244 138.128ZM48.5322 131.408H54.5562V133.688H52.6842V149H50.4042V133.688H48.5322V131.408ZM56.8789 131.408H62.1589V133.688H59.1589V139.112H62.1589V141.296H59.1589V146.72H62.1589V149H56.8789V131.408ZM66.7131 141.296C66.1371 141.296 65.6411 141.088 65.2251 140.672C64.8091 140.256 64.6011 139.76 64.6011 139.184V133.52C64.6011 132.944 64.8091 132.448 65.2251 132.032C65.6411 131.616 66.1371 131.408 66.7131 131.408H69.1131C69.6891 131.408 70.1851 131.616 70.6011 132.032C71.0171 132.448 71.2251 132.944 71.2251 133.52V137.624H68.9451V134.168C68.9451 134.008 68.8891 133.88 68.7771 133.784C68.6811 133.672 68.5531 133.616 68.3931 133.616H67.4331C67.2731 133.616 67.1371 133.672 67.0251 133.784C66.9291 133.88 66.8811 134.008 66.8811 134.168V138.584C66.8811 138.744 66.9291 138.88 67.0251 138.992C67.1371 139.088 67.2731 139.136 67.4331 139.136H69.1131C69.6891 139.136 70.1851 139.344 70.6011 139.76C71.0171 140.176 71.2251 140.672 71.2251 141.248V146.888C71.2251 147.464 71.0171 147.96 70.6011 148.376C70.1851 148.792 69.6891 149 69.1131 149H66.7131C66.1371 149 65.6411 148.792 65.2251 148.376C64.8091 147.96 64.6011 147.464 64.6011 146.888V142.736H66.8811V146.24C66.8811 146.4 66.9291 146.536 67.0251 146.648C67.1371 146.744 67.2731 146.792 67.4331 146.792H68.3931C68.5531 146.792 68.6811 146.744 68.7771 146.648C68.8891 146.536 68.9451 146.4 68.9451 146.24V141.848C68.9451 141.688 68.8891 141.56 68.7771 141.464C68.6811 141.352 68.5531 141.296 68.3931 141.296H66.7131ZM74.1983 131.408H76.4783V146.72H79.4783V149H74.1983V131.408ZM85.5741 144.44H83.7501L83.2221 149H81.0381L83.3181 131.408H86.0781L88.3821 149H86.1501L85.5741 144.44ZM84.0141 142.256H85.3101L84.6621 136.832L84.0141 142.256ZM92.3048 131.408L91.8728 136.04H90.6248L90.1928 131.408H92.3048ZM96.8753 141.296C96.2993 141.296 95.8033 141.088 95.3873 140.672C94.9713 140.256 94.7633 139.76 94.7633 139.184V133.52C94.7633 132.944 94.9713 132.448 95.3873 132.032C95.8033 131.616 96.2993 131.408 96.8753 131.408H99.2753C99.8513 131.408 100.347 131.616 100.763 132.032C101.179 132.448 101.387 132.944 101.387 133.52V137.624H99.1073V134.168C99.1073 134.008 99.0513 133.88 98.9393 133.784C98.8433 133.672 98.7153 133.616 98.5553 133.616H97.5953C97.4353 133.616 97.2993 133.672 97.1873 133.784C97.0913 133.88 97.0433 134.008 97.0433 134.168V138.584C97.0433 138.744 97.0913 138.88 97.1873 138.992C97.2993 139.088 97.4353 139.136 97.5953 139.136H99.2753C99.8513 139.136 100.347 139.344 100.763 139.76C101.179 140.176 101.387 140.672 101.387 141.248V146.888C101.387 147.464 101.179 147.96 100.763 148.376C100.347 148.792 99.8513 149 99.2753 149H96.8753C96.2993 149 95.8033 148.792 95.3873 148.376C94.9713 147.96 94.7633 147.464 94.7633 146.888V142.736H97.0433V146.24C97.0433 146.4 97.0913 146.536 97.1873 146.648C97.2993 146.744 97.4353 146.792 97.5953 146.792H98.5553C98.7153 146.792 98.8433 146.744 98.9393 146.648C99.0513 146.536 99.1073 146.4 99.1073 146.24V141.848C99.1073 141.688 99.0513 141.56 98.9393 141.464C98.8433 141.352 98.7153 141.296 98.5553 141.296H96.8753ZM111.433 141.224V149H109.153V131.408H113.665C114.241 131.408 114.737 131.616 115.153 132.032C115.569 132.448 115.777 132.944 115.777 133.52V139.112C115.777 139.688 115.569 140.184 115.153 140.6C114.737 141.016 114.241 141.224 113.665 141.224H111.433ZM111.433 133.616V139.016H112.945C113.105 139.016 113.233 138.968 113.329 138.872C113.441 138.76 113.497 138.624 113.497 138.464V134.168C113.497 134.008 113.441 133.88 113.329 133.784C113.233 133.672 113.105 133.616 112.945 133.616H111.433ZM118.469 131.408H120.749V146.72H123.749V149H118.469V131.408ZM129.845 144.44H128.021L127.493 149H125.309L127.589 131.408H130.349L132.653 149H130.421L129.845 144.44ZM128.285 142.256H129.581L128.933 136.832L128.285 142.256ZM139.407 141.296H139.431L139.335 137.672V131.408H141.495V149H139.455L137.079 139.112H137.055L137.151 142.736V149H134.991V131.408H137.031L139.407 141.296ZM143.823 131.408H149.847V133.688H147.975V149H145.695V133.688H143.823V131.408ZM159.075 149C158.499 149 158.003 148.792 157.587 148.376C157.171 147.96 156.963 147.464 156.963 146.888V133.52C156.963 132.944 157.171 132.448 157.587 132.032C158.003 131.616 158.499 131.408 159.075 131.408H161.475C162.051 131.408 162.547 131.616 162.963 132.032C163.379 132.448 163.587 132.944 163.587 133.52V146.888C163.587 147.464 163.379 147.96 162.963 148.376C162.547 148.792 162.051 149 161.475 149H159.075ZM159.243 146.24C159.243 146.4 159.291 146.536 159.387 146.648C159.499 146.744 159.635 146.792 159.795 146.792H160.755C160.915 146.792 161.043 146.744 161.139 146.648C161.251 146.536 161.307 146.4 161.307 146.24V134.168C161.307 134.008 161.251 133.88 161.139 133.784C161.043 133.672 160.915 133.616 160.755 133.616H159.795C159.635 133.616 159.499 133.672 159.387 133.784C159.291 133.88 159.243 134.008 159.243 134.168V146.24ZM170.976 141.296H171L170.904 137.672V131.408H173.064V149H171.024L168.648 139.112H168.624L168.72 142.736V149H166.56V131.408H168.6L170.976 141.296ZM185.128 139.928L186.976 131.408H189.376V149H187.168V141.824L187.264 138.464H187.24L185.704 146.12H184.504L182.968 138.464H182.944L183.04 141.824V149H180.832V131.408H183.232L185.128 139.928ZM196.239 144.44H194.415L193.887 149H191.703L193.983 131.408H196.743L199.047 149H196.815L196.239 144.44ZM194.679 142.256H195.975L195.327 136.832L194.679 142.256ZM205.898 131.408C206.474 131.408 206.97 131.616 207.386 132.032C207.802 132.448 208.01 132.944 208.01 133.52V139.112C208.01 139.576 207.866 139.992 207.578 140.36C207.306 140.728 206.962 140.984 206.546 141.128L209.426 149H206.978L204.242 141.224H203.666V149H201.386V131.408H205.898ZM203.666 133.616V139.016H205.178C205.338 139.016 205.466 138.968 205.562 138.872C205.674 138.76 205.73 138.624 205.73 138.464V134.168C205.73 134.008 205.674 133.88 205.562 133.784C205.466 133.672 205.338 133.616 205.178 133.616H203.666ZM213.259 141.296C212.683 141.296 212.187 141.088 211.771 140.672C211.355 140.256 211.147 139.76 211.147 139.184V133.52C211.147 132.944 211.355 132.448 211.771 132.032C212.187 131.616 212.683 131.408 213.259 131.408H215.659C216.235 131.408 216.731 131.616 217.147 132.032C217.563 132.448 217.771 132.944 217.771 133.52V137.624H215.491V134.168C215.491 134.008 215.435 133.88 215.323 133.784C215.227 133.672 215.099 133.616 214.939 133.616H213.979C213.819 133.616 213.683 133.672 213.571 133.784C213.475 133.88 213.427 134.008 213.427 134.168V138.584C213.427 138.744 213.475 138.88 213.571 138.992C213.683 139.088 213.819 139.136 213.979 139.136H215.659C216.235 139.136 216.731 139.344 217.147 139.76C217.563 140.176 217.771 140.672 217.771 141.248V146.888C217.771 147.464 217.563 147.96 217.147 148.376C216.731 148.792 216.235 149 215.659 149H213.259C212.683 149 212.187 148.792 211.771 148.376C211.355 147.96 211.147 147.464 211.147 146.888V142.736H213.427V146.24C213.427 146.4 213.475 146.536 213.571 146.648C213.683 146.744 213.819 146.792 213.979 146.792H214.939C215.099 146.792 215.227 146.744 215.323 146.648C215.435 146.536 215.491 146.4 215.491 146.24V141.848C215.491 141.688 215.435 141.56 215.323 141.464C215.227 141.352 215.099 141.296 214.939 141.296H213.259ZM222.497 149H220.217V146.48H222.497V149ZM229.096 131.408H235.12V133.688H233.248V149H230.968V133.688H229.096V131.408ZM241.594 141.296H239.722V149H237.442V131.408H239.722V139.112H241.594V131.408H243.874V149H241.594V141.296ZM246.852 131.408H252.132V133.688H249.132V139.112H252.132V141.296H249.132V146.72H252.132V149H246.852V131.408ZM28.36 175C27.784 175 27.288 174.792 26.872 174.376C26.456 173.96 26.248 173.464 26.248 172.888V159.52C26.248 158.944 26.456 158.448 26.872 158.032C27.288 157.616 27.784 157.408 28.36 157.408H30.76C31.336 157.408 31.832 157.616 32.248 158.032C32.664 158.448 32.872 158.944 32.872 159.52V172.888C32.872 173.464 32.664 173.96 32.248 174.376C31.832 174.792 31.336 175 30.76 175H28.36ZM28.528 172.24C28.528 172.4 28.576 172.536 28.672 172.648C28.784 172.744 28.92 172.792 29.08 172.792H30.04C30.2 172.792 30.328 172.744 30.424 172.648C30.536 172.536 30.592 172.4 30.592 172.24V160.168C30.592 160.008 30.536 159.88 30.424 159.784C30.328 159.672 30.2 159.616 30.04 159.616H29.08C28.92 159.616 28.784 159.672 28.672 159.784C28.576 159.88 28.528 160.008 28.528 160.168V172.24ZM42.3972 172.888C42.3972 173.464 42.1892 173.96 41.7732 174.376C41.3572 174.792 40.8612 175 40.2852 175H35.8452V157.408H40.2852C40.8612 157.408 41.3572 157.616 41.7732 158.032C42.1892 158.448 42.3972 158.944 42.3972 159.52V164.608C42.3972 164.928 42.3572 165.192 42.2772 165.4C42.2132 165.608 42.1252 165.776 42.0132 165.904C41.9172 166.016 41.8132 166.096 41.7012 166.144C41.5892 166.192 41.4852 166.216 41.3892 166.216C41.4852 166.232 41.5892 166.264 41.7012 166.312C41.8132 166.36 41.9172 166.448 42.0132 166.576C42.1252 166.688 42.2132 166.848 42.2772 167.056C42.3572 167.248 42.3972 167.504 42.3972 167.824V172.888ZM38.1252 159.616V165.112H39.5652C39.7252 165.112 39.8532 165.064 39.9492 164.968C40.0612 164.856 40.1172 164.72 40.1172 164.56V160.168C40.1172 160.008 40.0612 159.88 39.9492 159.784C39.8532 159.672 39.7252 159.616 39.5652 159.616H38.1252ZM38.1252 167.296V172.792H39.5652C39.7252 172.792 39.8532 172.744 39.9492 172.648C40.0612 172.536 40.1172 172.4 40.1172 172.24V167.848C40.1172 167.688 40.0612 167.56 39.9492 167.464C39.8532 167.352 39.7252 167.296 39.5652 167.296H38.1252ZM47.32 167.296C46.744 167.296 46.248 167.088 45.832 166.672C45.416 166.256 45.208 165.76 45.208 165.184V159.52C45.208 158.944 45.416 158.448 45.832 158.032C46.248 157.616 46.744 157.408 47.32 157.408H49.72C50.296 157.408 50.792 157.616 51.208 158.032C51.624 158.448 51.832 158.944 51.832 159.52V163.624H49.552V160.168C49.552 160.008 49.496 159.88 49.384 159.784C49.288 159.672 49.16 159.616 49 159.616H48.04C47.88 159.616 47.744 159.672 47.632 159.784C47.536 159.88 47.488 160.008 47.488 160.168V164.584C47.488 164.744 47.536 164.88 47.632 164.992C47.744 165.088 47.88 165.136 48.04 165.136H49.72C50.296 165.136 50.792 165.344 51.208 165.76C51.624 166.176 51.832 166.672 51.832 167.248V172.888C51.832 173.464 51.624 173.96 51.208 174.376C50.792 174.792 50.296 175 49.72 175H47.32C46.744 175 46.248 174.792 45.832 174.376C45.416 173.96 45.208 173.464 45.208 172.888V168.736H47.488V172.24C47.488 172.4 47.536 172.536 47.632 172.648C47.744 172.744 47.88 172.792 48.04 172.792H49C49.16 172.792 49.288 172.744 49.384 172.648C49.496 172.536 49.552 172.4 49.552 172.24V167.848C49.552 167.688 49.496 167.56 49.384 167.464C49.288 167.352 49.16 167.296 49 167.296H47.32ZM54.8052 157.408H60.0852V159.688H57.0852V165.112H60.0852V167.296H57.0852V172.72H60.0852V175H54.8052V157.408ZM64.6394 167.296C64.0634 167.296 63.5674 167.088 63.1514 166.672C62.7354 166.256 62.5274 165.76 62.5274 165.184V159.52C62.5274 158.944 62.7354 158.448 63.1514 158.032C63.5674 157.616 64.0634 157.408 64.6394 157.408H67.0394C67.6154 157.408 68.1114 157.616 68.5274 158.032C68.9434 158.448 69.1514 158.944 69.1514 159.52V163.624H66.8714V160.168C66.8714 160.008 66.8154 159.88 66.7034 159.784C66.6074 159.672 66.4794 159.616 66.3194 159.616H65.3594C65.1994 159.616 65.0634 159.672 64.9514 159.784C64.8554 159.88 64.8074 160.008 64.8074 160.168V164.584C64.8074 164.744 64.8554 164.88 64.9514 164.992C65.0634 165.088 65.1994 165.136 65.3594 165.136H67.0394C67.6154 165.136 68.1114 165.344 68.5274 165.76C68.9434 166.176 69.1514 166.672 69.1514 167.248V172.888C69.1514 173.464 68.9434 173.96 68.5274 174.376C68.1114 174.792 67.6154 175 67.0394 175H64.6394C64.0634 175 63.5674 174.792 63.1514 174.376C62.7354 173.96 62.5274 173.464 62.5274 172.888V168.736H64.8074V172.24C64.8074 172.4 64.8554 172.536 64.9514 172.648C65.0634 172.744 65.1994 172.792 65.3594 172.792H66.3194C66.4794 172.792 66.6074 172.744 66.7034 172.648C66.8154 172.536 66.8714 172.4 66.8714 172.24V167.848C66.8714 167.688 66.8154 167.56 66.7034 167.464C66.6074 167.352 66.4794 167.296 66.3194 167.296H64.6394ZM74.2366 167.296C73.6606 167.296 73.1646 167.088 72.7486 166.672C72.3326 166.256 72.1246 165.76 72.1246 165.184V159.52C72.1246 158.944 72.3326 158.448 72.7486 158.032C73.1646 157.616 73.6606 157.408 74.2366 157.408H76.6366C77.2126 157.408 77.7086 157.616 78.1246 158.032C78.5406 158.448 78.7486 158.944 78.7486 159.52V163.624H76.4686V160.168C76.4686 160.008 76.4126 159.88 76.3006 159.784C76.2046 159.672 76.0766 159.616 75.9166 159.616H74.9566C74.7966 159.616 74.6606 159.672 74.5486 159.784C74.4526 159.88 74.4046 160.008 74.4046 160.168V164.584C74.4046 164.744 74.4526 164.88 74.5486 164.992C74.6606 165.088 74.7966 165.136 74.9566 165.136H76.6366C77.2126 165.136 77.7086 165.344 78.1246 165.76C78.5406 166.176 78.7486 166.672 78.7486 167.248V172.888C78.7486 173.464 78.5406 173.96 78.1246 174.376C77.7086 174.792 77.2126 175 76.6366 175H74.2366C73.6606 175 73.1646 174.792 72.7486 174.376C72.3326 173.96 72.1246 173.464 72.1246 172.888V168.736H74.4046V172.24C74.4046 172.4 74.4526 172.536 74.5486 172.648C74.6606 172.744 74.7966 172.792 74.9566 172.792H75.9166C76.0766 172.792 76.2046 172.744 76.3006 172.648C76.4126 172.536 76.4686 172.4 76.4686 172.24V167.848C76.4686 167.688 76.4126 167.56 76.3006 167.464C76.2046 167.352 76.0766 167.296 75.9166 167.296H74.2366ZM84.0018 175H81.7218V157.408H84.0018V175ZM89.095 175C88.519 175 88.023 174.792 87.607 174.376C87.191 173.96 86.983 173.464 86.983 172.888V159.52C86.983 158.944 87.191 158.448 87.607 158.032C88.023 157.616 88.519 157.408 89.095 157.408H91.495C92.071 157.408 92.567 157.616 92.983 158.032C93.399 158.448 93.607 158.944 93.607 159.52V172.888C93.607 173.464 93.399 173.96 92.983 174.376C92.567 174.792 92.071 175 91.495 175H89.095ZM89.263 172.24C89.263 172.4 89.311 172.536 89.407 172.648C89.519 172.744 89.655 172.792 89.815 172.792H90.775C90.935 172.792 91.063 172.744 91.159 172.648C91.271 172.536 91.327 172.4 91.327 172.24V160.168C91.327 160.008 91.271 159.88 91.159 159.784C91.063 159.672 90.935 159.616 90.775 159.616H89.815C89.655 159.616 89.519 159.672 89.407 159.784C89.311 159.88 89.263 160.008 89.263 160.168V172.24ZM100.996 167.296H101.02L100.924 163.672V157.408H103.084V175H101.044L98.6682 165.112H98.6442L98.7402 168.736V175H96.5802V157.408H98.6202L100.996 167.296ZM120.213 157.408H122.469L119.709 175H118.029L116.349 166.384L114.573 175H112.965L110.205 157.408H112.509L114.117 168.136L115.797 159.712H116.853L118.605 168.136L120.213 157.408ZM127.066 175H124.786V157.408H127.066V175ZM129.399 157.408H135.423V159.688H133.551V175H131.271V159.688H129.399V157.408ZM141.898 167.296H140.026V175H137.746V157.408H140.026V165.112H141.898V157.408H144.178V175H141.898V167.296ZM151.948 157.408H157.228V159.688H154.228V165.112H157.228V167.296H154.228V175H151.948V157.408ZM161.95 175H159.67V157.408H161.95V175ZM169.347 167.296H169.371L169.275 163.672V157.408H171.435V175H169.395L167.019 165.112H166.995L167.091 168.736V175H164.931V157.408H166.971L169.347 167.296ZM174.411 175V157.408H178.923C179.499 157.408 179.995 157.616 180.411 158.032C180.827 158.448 181.035 158.944 181.035 159.52V172.888C181.035 173.464 180.827 173.96 180.411 174.376C179.995 174.792 179.499 175 178.923 175H174.411ZM176.691 159.616V172.792H178.203C178.363 172.792 178.491 172.744 178.587 172.648C178.699 172.536 178.755 172.4 178.755 172.24V160.168C178.755 160.008 178.699 159.88 178.587 159.784C178.491 159.672 178.363 159.616 178.203 159.616H176.691ZM186.289 175H184.009V157.408H186.289V175ZM193.686 167.296H193.71L193.614 163.672V157.408H195.774V175H193.734L191.358 165.112H191.334L191.43 168.736V175H189.27V157.408H191.31L193.686 167.296ZM202.014 165.808H205.374V172.888C205.374 173.464 205.166 173.96 204.75 174.376C204.334 174.792 203.838 175 203.262 175H200.862C200.286 175 199.79 174.792 199.374 174.376C198.958 173.96 198.75 173.464 198.75 172.888V159.52C198.75 158.944 198.958 158.448 199.374 158.032C199.79 157.616 200.286 157.408 200.862 157.408H203.214C203.79 157.408 204.286 157.616 204.702 158.032C205.118 158.448 205.326 158.944 205.326 159.52V163.888H203.094V160.168C203.094 160.008 203.038 159.88 202.926 159.784C202.83 159.672 202.702 159.616 202.542 159.616H201.582C201.422 159.616 201.286 159.672 201.174 159.784C201.078 159.88 201.03 160.008 201.03 160.168V172.24C201.03 172.4 201.078 172.536 201.174 172.648C201.286 172.744 201.422 172.792 201.582 172.792H202.542C202.702 172.792 202.83 172.744 202.926 172.648C203.038 172.536 203.094 172.4 203.094 172.24V167.992H202.014V165.808ZM215.42 175H213.14V157.408H215.42V175ZM217.753 157.408H223.777V159.688H221.905V175H219.625V159.688H217.753V157.408ZM227.86 167.296C227.284 167.296 226.788 167.088 226.372 166.672C225.956 166.256 225.748 165.76 225.748 165.184V159.52C225.748 158.944 225.956 158.448 226.372 158.032C226.788 157.616 227.284 157.408 227.86 157.408H230.26C230.836 157.408 231.332 157.616 231.748 158.032C232.164 158.448 232.372 158.944 232.372 159.52V163.624H230.092V160.168C230.092 160.008 230.036 159.88 229.924 159.784C229.828 159.672 229.7 159.616 229.54 159.616H228.58C228.42 159.616 228.284 159.672 228.172 159.784C228.076 159.88 228.028 160.008 228.028 160.168V164.584C228.028 164.744 228.076 164.88 228.172 164.992C228.284 165.088 228.42 165.136 228.58 165.136H230.26C230.836 165.136 231.332 165.344 231.748 165.76C232.164 166.176 232.372 166.672 232.372 167.248V172.888C232.372 173.464 232.164 173.96 231.748 174.376C231.332 174.792 230.836 175 230.26 175H227.86C227.284 175 226.788 174.792 226.372 174.376C225.956 173.96 225.748 173.464 225.748 172.888V168.736H228.028V172.24C228.028 172.4 228.076 172.536 228.172 172.648C228.284 172.744 228.42 172.792 228.58 172.792H229.54C229.7 172.792 229.828 172.744 229.924 172.648C230.036 172.536 230.092 172.4 230.092 172.24V167.848C230.092 167.688 230.036 167.56 229.924 167.464C229.828 167.352 229.7 167.296 229.54 167.296H227.86ZM28.36 201C27.784 201 27.288 200.792 26.872 200.376C26.456 199.96 26.248 199.464 26.248 198.888V185.52C26.248 184.944 26.456 184.448 26.872 184.032C27.288 183.616 27.784 183.408 28.36 183.408H30.76C31.336 183.408 31.832 183.616 32.248 184.032C32.664 184.448 32.872 184.944 32.872 185.52V198.888C32.872 199.464 32.664 199.96 32.248 200.376C31.832 200.792 31.336 201 30.76 201H28.36ZM28.528 198.24C28.528 198.4 28.576 198.536 28.672 198.648C28.784 198.744 28.92 198.792 29.08 198.792H30.04C30.2 198.792 30.328 198.744 30.424 198.648C30.536 198.536 30.592 198.4 30.592 198.24V186.168C30.592 186.008 30.536 185.88 30.424 185.784C30.328 185.672 30.2 185.616 30.04 185.616H29.08C28.92 185.616 28.784 185.672 28.672 185.784C28.576 185.88 28.528 186.008 28.528 186.168V198.24ZM44.6896 183.408H46.9456L44.1856 201H42.5056L40.8256 192.384L39.0496 201H37.4416L34.6816 183.408H36.9856L38.5936 194.136L40.2736 185.712H41.3296L43.0816 194.136L44.6896 183.408ZM53.6787 193.296H53.7027L53.6067 189.672V183.408H55.7667V201H53.7267L51.3507 191.112H51.3267L51.4227 194.736V201H49.2627V183.408H51.3027L53.6787 193.296ZM58.7427 183.408H64.0227V185.688H61.0227V191.112H64.0227V193.296H61.0227V198.72H64.0227V201H58.7427V183.408ZM70.9769 183.408C71.5529 183.408 72.0489 183.616 72.4649 184.032C72.8809 184.448 73.0889 184.944 73.0889 185.52V191.112C73.0889 191.576 72.9449 191.992 72.6569 192.36C72.3849 192.728 72.0409 192.984 71.6249 193.128L74.5049 201H72.0569L69.3209 193.224H68.7449V201H66.4649V183.408H70.9769ZM68.7449 185.616V191.016H70.2569C70.4169 191.016 70.5449 190.968 70.6409 190.872C70.7529 190.76 70.8089 190.624 70.8089 190.464V186.168C70.8089 186.008 70.7529 185.88 70.6409 185.784C70.5449 185.672 70.4169 185.616 70.2569 185.616H68.7449ZM81.0186 183.408H86.2986V185.688H83.2986V191.112H86.2986V193.296H83.2986V198.72H86.2986V201H81.0186V183.408ZM88.7408 183.408H91.0208V198.72H94.0208V201H88.7408V183.408ZM98.3406 201C97.7646 201 97.2686 200.792 96.8526 200.376C96.4366 199.96 96.2286 199.464 96.2286 198.888V185.52C96.2286 184.944 96.4366 184.448 96.8526 184.032C97.2686 183.616 97.7646 183.408 98.3406 183.408H100.741C101.317 183.408 101.813 183.616 102.229 184.032C102.645 184.448 102.853 184.944 102.853 185.52V198.888C102.853 199.464 102.645 199.96 102.229 200.376C101.813 200.792 101.317 201 100.741 201H98.3406ZM98.5086 198.24C98.5086 198.4 98.5566 198.536 98.6526 198.648C98.7646 198.744 98.9006 198.792 99.0606 198.792H100.021C100.181 198.792 100.309 198.744 100.405 198.648C100.517 198.536 100.573 198.4 100.573 198.24V186.168C100.573 186.008 100.517 185.88 100.405 185.784C100.309 185.672 100.181 185.616 100.021 185.616H99.0606C98.9006 185.616 98.7646 185.672 98.6526 185.784C98.5566 185.88 98.5086 186.008 98.5086 186.168V198.24ZM110.242 193.296H110.266L110.17 189.672V183.408H112.33V201H110.29L107.914 191.112H107.89L107.986 194.736V201H105.826V183.408H107.866L110.242 193.296ZM124.25 193.296H122.378V201H120.098V183.408H122.378V191.112H124.25V183.408H126.53V201H124.25V193.296ZM133.396 196.44H131.572L131.044 201H128.86L131.14 183.408H133.9L136.204 201H133.972L133.396 196.44ZM131.836 194.256H133.132L132.484 188.832L131.836 194.256ZM140.373 201C139.797 201 139.301 200.792 138.885 200.376C138.469 199.96 138.261 199.464 138.261 198.888V183.408H140.541V198.24C140.541 198.4 140.589 198.536 140.685 198.648C140.797 198.744 140.933 198.792 141.093 198.792H141.957C142.117 198.792 142.245 198.744 142.341 198.648C142.453 198.536 142.509 198.4 142.509 198.24V183.408H144.789V198.888C144.789 199.464 144.581 199.96 144.165 200.376C143.749 200.792 143.253 201 142.677 201H140.373ZM152.181 193.296H152.205L152.109 189.672V183.408H154.269V201H152.229L149.853 191.112H149.829L149.925 194.736V201H147.765V183.408H149.805L152.181 193.296ZM156.597 183.408H162.621V185.688H160.749V201H158.469V185.688H156.597V183.408ZM166.704 193.296C166.128 193.296 165.632 193.088 165.216 192.672C164.8 192.256 164.592 191.76 164.592 191.184V185.52C164.592 184.944 164.8 184.448 165.216 184.032C165.632 183.616 166.128 183.408 166.704 183.408H169.104C169.68 183.408 170.176 183.616 170.592 184.032C171.008 184.448 171.216 184.944 171.216 185.52V189.624H168.936V186.168C168.936 186.008 168.88 185.88 168.768 185.784C168.672 185.672 168.544 185.616 168.384 185.616H167.424C167.264 185.616 167.128 185.672 167.016 185.784C166.92 185.88 166.872 186.008 166.872 186.168V190.584C166.872 190.744 166.92 190.88 167.016 190.992C167.128 191.088 167.264 191.136 167.424 191.136H169.104C169.68 191.136 170.176 191.344 170.592 191.76C171.008 192.176 171.216 192.672 171.216 193.248V198.888C171.216 199.464 171.008 199.96 170.592 200.376C170.176 200.792 169.68 201 169.104 201H166.704C166.128 201 165.632 200.792 165.216 200.376C164.8 199.96 164.592 199.464 164.592 198.888V194.736H166.872V198.24C166.872 198.4 166.92 198.536 167.016 198.648C167.128 198.744 167.264 198.792 167.424 198.792H168.384C168.544 198.792 168.672 198.744 168.768 198.648C168.88 198.536 168.936 198.4 168.936 198.24V193.848C168.936 193.688 168.88 193.56 168.768 193.464C168.672 193.352 168.544 193.296 168.384 193.296H166.704ZM183.134 193.296H181.262V201H178.982V183.408H181.262V191.112H183.134V183.408H185.414V201H183.134V193.296ZM190.671 201H188.391V183.408H190.671V201ZM197.949 191.928L199.797 183.408H202.197V201H199.989V193.824L200.085 190.464H200.061L198.525 198.12H197.325L195.789 190.464H195.765L195.861 193.824V201H193.653V183.408H196.053L197.949 191.928ZM206.924 201H204.644V198.48H206.924V201Z" fill="white"/>
<path d="M335.322 57.5791C335.285 57.689 335.261 57.7866 335.224 57.8721C334.907 58.6899 334.345 59.3247 333.527 59.7764C332.709 60.228 331.525 60.4478 329.951 60.4478C327.106 60.4478 325.349 59.5688 324.677 57.7988C324.445 57.2861 324.323 56.5415 324.323 55.5527C324.323 54.564 324.445 53.8071 324.677 53.2944C325.349 51.5488 327.106 50.6699 329.951 50.6699C331.513 50.6699 332.697 50.9019 333.503 51.3657C334.321 51.8174 334.895 52.4644 335.224 53.2944C335.236 53.3677 335.261 53.4409 335.297 53.5264H340.681C340.546 52.7451 340.351 52.0615 340.119 51.4756C339.35 49.5347 337.897 48.1919 336.005 47.5205C334.138 46.8491 332.282 46.6172 329.951 46.6538C327.619 46.6172 325.751 46.8491 323.859 47.5205C321.992 48.1919 320.539 49.5347 319.77 51.4756C319.306 52.5742 319.074 53.9292 319.074 55.5527C319.074 57.1763 319.306 58.5312 319.77 59.6299C320.551 61.5464 321.992 62.9014 323.859 63.585C325.751 64.2686 327.619 64.4761 329.951 64.4761C331.135 64.4761 332.197 64.415 333.161 64.293C334.125 64.1831 335.078 63.9512 336.018 63.6216C337.922 62.9502 339.35 61.644 340.119 59.7031C340.375 59.105 340.571 58.397 340.681 57.5791H335.322ZM358.082 47.1299V53.5264H348.707V47.1299H343.628V64H348.707V57.5791H358.082V64H363.135V47.1299H358.082ZM373.578 47.1299L365.302 64H370.954L371.955 61.9736H380.878L381.879 64H387.506L379.23 47.1299H373.578ZM373.908 57.9209L376.41 52.8794L378.852 57.9209H373.908ZM402.917 64H408.545L405.859 58.4946C406.177 58.2871 406.47 58.0308 406.738 57.75C407.324 57.1763 407.776 56.5171 408.093 55.7725C408.728 54.2466 408.728 52.4521 408.093 50.9263C407.458 49.4248 406.262 48.2407 404.761 47.606C403.992 47.2886 403.186 47.1299 402.344 47.1299H389.685V64H394.763V59.5811H400.745L402.917 64ZM394.763 51.1704H401.318C401.917 51.1704 402.417 51.3901 402.844 51.8174C403.271 52.2446 403.491 52.7573 403.491 53.3555C403.491 53.9536 403.284 54.4663 402.856 54.8936C402.429 55.3208 401.917 55.5283 401.318 55.5283H394.763V51.1704ZM418.365 47.1299L410.089 64H415.741L416.742 61.9736H425.665L426.666 64H432.293L424.017 47.1299H418.365ZM418.695 57.9209L421.197 52.8794L423.639 57.9209H418.695ZM449.243 57.5791C449.206 57.689 449.182 57.7866 449.145 57.8721C448.828 58.6899 448.266 59.3247 447.448 59.7764C446.63 60.228 445.446 60.4478 443.872 60.4478C441.027 60.4478 439.27 59.5688 438.598 57.7988C438.366 57.2861 438.244 56.5415 438.244 55.5527C438.244 54.564 438.366 53.8071 438.598 53.2944C439.27 51.5488 441.027 50.6699 443.872 50.6699C445.434 50.6699 446.618 50.9019 447.424 51.3657C448.242 51.8174 448.815 52.4644 449.145 53.2944C449.157 53.3677 449.182 53.4409 449.218 53.5264H454.602C454.467 52.7451 454.272 52.0615 454.04 51.4756C453.271 49.5347 451.818 48.1919 449.926 47.5205C448.059 46.8491 446.203 46.6172 443.872 46.6538C441.54 46.6172 439.672 46.8491 437.78 47.5205C435.913 48.1919 434.46 49.5347 433.691 51.4756C433.227 52.5742 432.995 53.9292 432.995 55.5527C432.995 57.1763 433.227 58.5312 433.691 59.6299C434.472 61.5464 435.913 62.9014 437.78 63.585C439.672 64.2686 441.54 64.4761 443.872 64.4761C445.056 64.4761 446.118 64.415 447.082 64.293C448.046 64.1831 448.999 63.9512 449.938 63.6216C451.843 62.9502 453.271 61.644 454.04 59.7031C454.296 59.105 454.492 58.397 454.602 57.5791H449.243ZM474.883 47.1299H456.304V51.1704H463.055V64H468.133V51.1704H474.883V47.1299ZM494.579 51.1704V47.1299H477.331V64H494.579V59.9473H482.409V57.5791H493.59V53.5264H482.409V51.1704H494.579ZM511.174 64H516.802L514.116 58.4946C514.434 58.2871 514.727 58.0308 514.995 57.75C515.581 57.1763 516.033 56.5171 516.35 55.7725C516.985 54.2466 516.985 52.4521 516.35 50.9263C515.715 49.4248 514.519 48.2407 513.018 47.606C512.249 47.2886 511.443 47.1299 510.601 47.1299H497.942V64H503.02V59.5811H509.001L511.174 64ZM503.02 51.1704H509.575C510.173 51.1704 510.674 51.3901 511.101 51.8174C511.528 52.2446 511.748 52.7573 511.748 53.3555C511.748 53.9536 511.541 54.4663 511.113 54.8936C510.686 55.3208 510.173 55.5283 509.575 55.5283H503.02V51.1704ZM524.974 64V47.1299H519.896V64H524.974ZM548.125 52.0981C548.112 51.3535 547.966 50.6699 547.697 50.0718C547.294 49.1562 546.623 48.4238 545.671 47.8745C544.218 47.0322 541.728 46.605 538.2 46.605H538.09C534.562 46.605 532.072 47.0322 530.62 47.8745C529.667 48.4238 528.996 49.1562 528.593 50.0718C528.312 50.7065 528.166 51.4512 528.166 52.3179C528.166 53.1724 528.312 53.8804 528.618 54.4541C529.155 55.4795 530.058 56.2363 531.071 56.688C531.584 56.9199 532.231 57.0908 533 57.2251C533.781 57.3594 534.55 57.4448 535.307 57.5059C536.064 57.5547 537.004 57.5913 538.115 57.6279L541.167 57.7988C541.606 57.8354 541.826 57.8843 542.204 58.0308C542.595 58.165 542.814 58.4214 542.851 58.8242C542.9 59.52 542.399 59.9961 541.35 60.228C540.666 60.3745 539.616 60.4478 538.2 60.4478H538.09C536.625 60.4478 535.551 60.3745 534.868 60.228C534.355 60.1182 533.977 59.9351 533.745 59.7031C533.525 59.4956 533.415 59.1416 533.415 58.6289V58.519H528.166V58.9463C528.178 59.7153 528.325 60.3867 528.593 60.9727C528.996 61.9004 529.667 62.645 530.62 63.1943C532.072 64.0366 534.562 64.4517 538.09 64.4517H538.2C541.667 64.4395 544.145 64.0122 545.646 63.1455C546.599 62.5962 547.27 61.8638 547.673 60.9482C547.954 60.3013 548.1 59.5444 548.1 58.7021C548.1 57.8599 547.954 57.1519 547.648 56.5781C547.111 55.5039 546.196 54.7837 545.183 54.3442C544.682 54.1123 544.035 53.9414 543.254 53.8071C542.485 53.6729 541.716 53.5752 540.947 53.5142C540.19 53.4531 539.25 53.4165 538.115 53.4043L535.124 53.2212C534.685 53.1602 534.489 53.1235 534.086 53.0137C533.696 52.9038 533.476 52.6475 533.415 52.269C533.317 51.5732 533.769 51.1094 534.77 50.853C535.441 50.6943 536.491 50.6089 537.944 50.5967H538.176C539.641 50.6089 540.715 50.6821 541.398 50.8286C541.923 50.9385 542.314 51.1216 542.546 51.3535C542.766 51.5488 542.875 51.915 542.875 52.4521V52.5254H548.125V52.0981ZM568.663 47.1299H550.083V51.1704H556.834V64H561.912V51.1704H568.663V47.1299ZM576.188 64V47.1299H571.11V64H576.188ZM595.481 57.5791C595.444 57.689 595.42 57.7866 595.383 57.8721C595.066 58.6899 594.504 59.3247 593.687 59.7764C592.869 60.228 591.685 60.4478 590.11 60.4478C587.266 60.4478 585.508 59.5688 584.836 57.7988C584.604 57.2861 584.482 56.5415 584.482 55.5527C584.482 54.564 584.604 53.8071 584.836 53.2944C585.508 51.5488 587.266 50.6699 590.11 50.6699C591.672 50.6699 592.856 50.9019 593.662 51.3657C594.48 51.8174 595.054 52.4644 595.383 53.2944C595.396 53.3677 595.42 53.4409 595.457 53.5264H600.84C600.706 52.7451 600.51 52.0615 600.278 51.4756C599.509 49.5347 598.057 48.1919 596.165 47.5205C594.297 46.8491 592.441 46.6172 590.11 46.6538C587.778 46.6172 585.911 46.8491 584.019 47.5205C582.151 48.1919 580.698 49.5347 579.929 51.4756C579.465 52.5742 579.233 53.9292 579.233 55.5527C579.233 57.1763 579.465 58.5312 579.929 59.6299C580.71 61.5464 582.151 62.9014 584.019 63.585C585.911 64.2686 587.778 64.4761 590.11 64.4761C591.294 64.4761 592.356 64.415 593.32 64.293C594.285 64.1831 595.237 63.9512 596.177 63.6216C598.081 62.9502 599.509 61.644 600.278 59.7031C600.535 59.105 600.73 58.397 600.84 57.5791H595.481Z" fill="white"/>
<path d="M329.84 101.34H331.72L329.42 116H328.02L326.62 108.82L325.14 116H323.8L321.5 101.34H323.42L324.76 110.28L326.16 103.26H327.04L328.5 110.28L329.84 101.34ZM333.451 101.34H337.851V103.24H335.351V107.76H337.851V109.58H335.351V114.1H337.851V116H333.451V101.34ZM342.926 112.2H341.406L340.966 116H339.146L341.046 101.34H343.346L345.266 116H343.406L342.926 112.2ZM341.626 110.38H342.706L342.166 105.86L341.626 110.38ZM348.915 109.52V116H347.015V101.34H350.775C351.255 101.34 351.668 101.513 352.015 101.86C352.362 102.207 352.535 102.62 352.535 103.1V107.76C352.535 108.24 352.362 108.653 352.015 109C351.668 109.347 351.255 109.52 350.775 109.52H348.915ZM348.915 103.18V107.68H350.175C350.308 107.68 350.415 107.64 350.495 107.56C350.588 107.467 350.635 107.353 350.635 107.22V103.64C350.635 103.507 350.588 103.4 350.495 103.32C350.415 103.227 350.308 103.18 350.175 103.18H348.915ZM356.338 116C355.858 116 355.445 115.827 355.098 115.48C354.752 115.133 354.578 114.72 354.578 114.24V103.1C354.578 102.62 354.752 102.207 355.098 101.86C355.445 101.513 355.858 101.34 356.338 101.34H358.338C358.818 101.34 359.232 101.513 359.578 101.86C359.925 102.207 360.098 102.62 360.098 103.1V114.24C360.098 114.72 359.925 115.133 359.578 115.48C359.232 115.827 358.818 116 358.338 116H356.338ZM356.478 113.7C356.478 113.833 356.518 113.947 356.598 114.04C356.692 114.12 356.805 114.16 356.938 114.16H357.738C357.872 114.16 357.978 114.12 358.058 114.04C358.152 113.947 358.198 113.833 358.198 113.7V103.64C358.198 103.507 358.152 103.4 358.058 103.32C357.978 103.227 357.872 103.18 357.738 103.18H356.938C356.805 103.18 356.692 103.227 356.598 103.32C356.518 103.4 356.478 103.507 356.478 103.64V113.7ZM366.056 109.58H366.076L365.996 106.56V101.34H367.796V116H366.096L364.116 107.76H364.096L364.176 110.78V116H362.376V101.34H364.076L366.056 109.58Z" fill="white"/>
<path d="M322.04 131.34H326.44V133.24H323.94V137.76H326.44V139.58H323.94V146H322.04V131.34ZM331.085 142.2H329.565L329.125 146H327.305L329.205 131.34H331.505L333.425 146H331.565L331.085 142.2ZM329.785 140.38H330.865L330.325 135.86L329.785 140.38ZM336.84 143.7C336.84 143.833 336.88 143.947 336.96 144.04C337.053 144.12 337.167 144.16 337.3 144.16H338.1C338.233 144.16 338.34 144.12 338.42 144.04C338.513 143.947 338.56 143.833 338.56 143.7V140H340.42V144.24C340.42 144.72 340.247 145.133 339.9 145.48C339.553 145.827 339.14 146 338.66 146H336.7C336.22 146 335.807 145.827 335.46 145.48C335.113 145.133 334.94 144.72 334.94 144.24V133.1C334.94 132.62 335.113 132.207 335.46 131.86C335.807 131.513 336.22 131.34 336.7 131.34H338.66C339.14 131.34 339.553 131.513 339.9 131.86C340.247 132.207 340.42 132.62 340.42 133.1V137.34H338.56V133.64C338.56 133.507 338.513 133.4 338.42 133.32C338.34 133.227 338.233 133.18 338.1 133.18H337.3C337.167 133.18 337.053 133.227 336.96 133.32C336.88 133.4 336.84 133.507 336.84 133.64V143.7ZM342.66 131.34H347.06V133.24H344.56V137.76H347.06V139.58H344.56V144.1H347.06V146H342.66V131.34ZM354.588 146H352.688V131.34H354.588V146ZM356.333 131.34H361.353V133.24H359.793V146H357.893V133.24H356.333V131.34ZM363.088 131.34H367.488V133.24H364.988V137.76H367.488V139.58H364.988V144.1H367.488V146H363.088V131.34ZM372.904 138.44L374.444 131.34H376.444V146H374.604V140.02L374.684 137.22H374.664L373.384 143.6H372.384L371.104 137.22H371.084L371.164 140.02V146H369.324V131.34H371.324L372.904 138.44Z" fill="white"/>
<path d="M323.94 173.7C323.94 173.833 323.98 173.947 324.06 174.04C324.153 174.12 324.267 174.16 324.4 174.16H325.2C325.333 174.16 325.44 174.12 325.52 174.04C325.613 173.947 325.66 173.833 325.66 173.7V170H327.52V174.24C327.52 174.72 327.347 175.133 327 175.48C326.653 175.827 326.24 176 325.76 176H323.8C323.32 176 322.907 175.827 322.56 175.48C322.213 175.133 322.04 174.72 322.04 174.24V163.1C322.04 162.62 322.213 162.207 322.56 161.86C322.907 161.513 323.32 161.34 323.8 161.34H325.76C326.24 161.34 326.653 161.513 327 161.86C327.347 162.207 327.52 162.62 327.52 163.1V167.34H325.66V163.64C325.66 163.507 325.613 163.4 325.52 163.32C325.44 163.227 325.333 163.18 325.2 163.18H324.4C324.267 163.18 324.153 163.227 324.06 163.32C323.98 163.4 323.94 163.507 323.94 163.64V173.7ZM329.76 161.34H331.66V174.1H334.16V176H329.76V161.34ZM337.364 176C336.884 176 336.471 175.827 336.124 175.48C335.777 175.133 335.604 174.72 335.604 174.24V163.1C335.604 162.62 335.777 162.207 336.124 161.86C336.471 161.513 336.884 161.34 337.364 161.34H339.364C339.844 161.34 340.257 161.513 340.604 161.86C340.951 162.207 341.124 162.62 341.124 163.1V174.24C341.124 174.72 340.951 175.133 340.604 175.48C340.257 175.827 339.844 176 339.364 176H337.364ZM337.504 173.7C337.504 173.833 337.544 173.947 337.624 174.04C337.717 174.12 337.831 174.16 337.964 174.16H338.764C338.897 174.16 339.004 174.12 339.084 174.04C339.177 173.947 339.224 173.833 339.224 173.7V163.64C339.224 163.507 339.177 163.4 339.084 163.32C339.004 163.227 338.897 163.18 338.764 163.18H337.964C337.831 163.18 337.717 163.227 337.624 163.32C337.544 163.4 337.504 163.507 337.504 163.64V173.7ZM342.569 161.34H347.589V163.24H346.029V176H344.129V163.24H342.569V161.34ZM352.784 169.58H351.224V176H349.324V161.34H351.224V167.76H352.784V161.34H354.684V176H352.784V169.58ZM356.966 161.34H361.366V163.24H358.866V167.76H361.366V169.58H358.866V174.1H361.366V176H356.966V161.34ZM364.961 169.58C364.481 169.58 364.068 169.407 363.721 169.06C363.374 168.713 363.201 168.3 363.201 167.82V163.1C363.201 162.62 363.374 162.207 363.721 161.86C364.068 161.513 364.481 161.34 364.961 161.34H366.961C367.441 161.34 367.854 161.513 368.201 161.86C368.548 162.207 368.721 162.62 368.721 163.1V166.52H366.821V163.64C366.821 163.507 366.774 163.4 366.681 163.32C366.601 163.227 366.494 163.18 366.361 163.18H365.561C365.428 163.18 365.314 163.227 365.221 163.32C365.141 163.4 365.101 163.507 365.101 163.64V167.32C365.101 167.453 365.141 167.567 365.221 167.66C365.314 167.74 365.428 167.78 365.561 167.78H366.961C367.441 167.78 367.854 167.953 368.201 168.3C368.548 168.647 368.721 169.06 368.721 169.54V174.24C368.721 174.72 368.548 175.133 368.201 175.48C367.854 175.827 367.441 176 366.961 176H364.961C364.481 176 364.068 175.827 363.721 175.48C363.374 175.133 363.201 174.72 363.201 174.24V170.78H365.101V173.7C365.101 173.833 365.141 173.947 365.221 174.04C365.314 174.12 365.428 174.16 365.561 174.16H366.361C366.494 174.16 366.601 174.12 366.681 174.04C366.774 173.947 366.821 173.833 366.821 173.7V170.04C366.821 169.907 366.774 169.8 366.681 169.72C366.601 169.627 366.494 169.58 366.361 169.58H364.961Z" fill="white"/>
<path d="M325.5 199.58H323.94V206H322.04V191.34H323.94V197.76H325.5V191.34H327.4V206H325.5V199.58ZM332.921 202.2H331.401L330.961 206H329.141L331.041 191.34H333.341L335.261 206H333.401L332.921 202.2ZM331.621 200.38H332.701L332.161 195.86L331.621 200.38ZM335.767 191.34H340.787V193.24H339.227V206H337.327V193.24H335.767V191.34Z" fill="white"/>
<path d="M325.72 259.58H325.74L325.66 256.56V251.34H327.46V266H325.76L323.78 257.76H323.76L323.84 260.78V266H322.04V251.34H323.74L325.72 259.58ZM329.74 251.34H334.14V253.24H331.64V257.76H334.14V259.58H331.64V264.1H334.14V266H329.74V251.34ZM337.875 263.7C337.875 263.833 337.915 263.947 337.995 264.04C338.088 264.12 338.202 264.16 338.335 264.16H339.135C339.268 264.16 339.375 264.12 339.455 264.04C339.548 263.947 339.595 263.833 339.595 263.7V260H341.455V264.24C341.455 264.72 341.282 265.133 340.935 265.48C340.588 265.827 340.175 266 339.695 266H337.735C337.255 266 336.842 265.827 336.495 265.48C336.148 265.133 335.975 264.72 335.975 264.24V253.1C335.975 252.62 336.148 252.207 336.495 251.86C336.842 251.513 337.255 251.34 337.735 251.34H339.695C340.175 251.34 340.588 251.513 340.935 251.86C341.282 252.207 341.455 252.62 341.455 253.1V257.34H339.595V253.64C339.595 253.507 339.548 253.4 339.455 253.32C339.375 253.227 339.268 253.18 339.135 253.18H338.335C338.202 253.18 338.088 253.227 337.995 253.32C337.915 253.4 337.875 253.507 337.875 253.64V263.7ZM347.255 257.02L350.595 266H348.475L345.955 259.06L345.595 259.86V266H343.695V251.34H345.595V256.32L348.255 251.34H350.315L347.255 257.02Z" fill="white"/>
<path d="M325.62 228.44L327.16 221.34H329.16V236H327.32V230.02L327.4 227.22H327.38L326.1 233.6H325.1L323.82 227.22H323.8L323.88 230.02V236H322.04V221.34H324.04L325.62 228.44ZM333.199 236C332.719 236 332.306 235.827 331.959 235.48C331.613 235.133 331.439 234.72 331.439 234.24V223.1C331.439 222.62 331.613 222.207 331.959 221.86C332.306 221.513 332.719 221.34 333.199 221.34H335.199C335.679 221.34 336.093 221.513 336.439 221.86C336.786 222.207 336.959 222.62 336.959 223.1V234.24C336.959 234.72 336.786 235.133 336.439 235.48C336.093 235.827 335.679 236 335.199 236H333.199ZM333.339 233.7C333.339 233.833 333.379 233.947 333.459 234.04C333.553 234.12 333.666 234.16 333.799 234.16H334.599C334.733 234.16 334.839 234.12 334.919 234.04C335.013 233.947 335.059 233.833 335.059 233.7V223.64C335.059 223.507 335.013 223.4 334.919 223.32C334.839 223.227 334.733 223.18 334.599 223.18H333.799C333.666 223.18 333.553 223.227 333.459 223.32C333.379 223.4 333.339 223.507 333.339 223.64V233.7ZM340.997 236C340.517 236 340.104 235.827 339.757 235.48C339.41 235.133 339.237 234.72 339.237 234.24V221.34H341.137V233.7C341.137 233.833 341.177 233.947 341.257 234.04C341.35 234.12 341.464 234.16 341.597 234.16H342.317C342.45 234.16 342.557 234.12 342.637 234.04C342.73 233.947 342.777 233.833 342.777 233.7V221.34H344.677V234.24C344.677 234.72 344.504 235.133 344.157 235.48C343.81 235.827 343.397 236 342.917 236H340.997ZM346.123 221.34H351.143V223.24H349.583V236H347.683V223.24H346.123V221.34ZM356.339 229.58H354.779V236H352.879V221.34H354.779V227.76H356.339V221.34H358.239V236H356.339V229.58Z" fill="white"/>
<path d="M27.8 234.58C27.32 234.58 26.9067 234.407 26.56 234.06C26.2133 233.713 26.04 233.3 26.04 232.82V228.1C26.04 227.62 26.2133 227.207 26.56 226.86C26.9067 226.513 27.32 226.34 27.8 226.34H29.8C30.28 226.34 30.6933 226.513 31.04 226.86C31.3867 227.207 31.56 227.62 31.56 228.1V231.52H29.66V228.64C29.66 228.507 29.6133 228.4 29.52 228.32C29.44 228.227 29.3333 228.18 29.2 228.18H28.4C28.2667 228.18 28.1533 228.227 28.06 228.32C27.98 228.4 27.94 228.507 27.94 228.64V232.32C27.94 232.453 27.98 232.567 28.06 232.66C28.1533 232.74 28.2667 232.78 28.4 232.78H29.8C30.28 232.78 30.6933 232.953 31.04 233.3C31.3867 233.647 31.56 234.06 31.56 234.54V239.24C31.56 239.72 31.3867 240.133 31.04 240.48C30.6933 240.827 30.28 241 29.8 241H27.8C27.32 241 26.9067 240.827 26.56 240.48C26.2133 240.133 26.04 239.72 26.04 239.24V235.78H27.94V238.7C27.94 238.833 27.98 238.947 28.06 239.04C28.1533 239.12 28.2667 239.16 28.4 239.16H29.2C29.3333 239.16 29.44 239.12 29.52 239.04C29.6133 238.947 29.66 238.833 29.66 238.7V235.04C29.66 234.907 29.6133 234.8 29.52 234.72C29.44 234.627 29.3333 234.58 29.2 234.58H27.8ZM33.8377 226.34H38.2377V228.24H35.7377V232.76H38.2377V234.58H35.7377V239.1H38.2377V241H33.8377V226.34ZM45.8328 241H43.8728L42.4328 236.06L40.9728 241H39.0328L41.3928 233.16L39.3328 226.34H41.3128L42.4528 230.56L43.6328 226.34H45.5328L43.4728 233.16L45.8328 241ZM48.5297 241H46.6297V238.9H48.5297V241ZM48.5297 234.72H46.6297V232.62H48.5297V234.72ZM57.7489 233.44L59.2889 226.34H61.2889V241H59.4489V235.02L59.5289 232.22H59.5089L58.2289 238.6H57.2289L55.9489 232.22H55.9289L56.0089 235.02V241H54.1689V226.34H56.1689L57.7489 233.44ZM66.8081 237.2H65.2881L64.8481 241H63.0281L64.9281 226.34H67.2281L69.1481 241H67.2881L66.8081 237.2ZM65.5081 235.38H66.5881L66.0481 230.86L65.5081 235.38ZM70.897 226.34H72.797V239.1H75.297V241H70.897V226.34ZM76.9369 226.34H81.3369V228.24H78.8369V232.76H81.3369V234.58H78.8369V239.1H81.3369V241H76.9369V226.34Z" fill="white"/>
<path d="M29.28 262.2H27.76L27.32 266H25.5L27.4 251.34H29.7L31.62 266H29.76L29.28 262.2ZM27.98 260.38H29.06L28.52 255.86L27.98 260.38ZM35.8545 258.34H38.6545V264.24C38.6545 264.72 38.4812 265.133 38.1345 265.48C37.7879 265.827 37.3745 266 36.8945 266H34.8945C34.4145 266 34.0012 265.827 33.6545 265.48C33.3079 265.133 33.1345 264.72 33.1345 264.24V253.1C33.1345 252.62 33.3079 252.207 33.6545 251.86C34.0012 251.513 34.4145 251.34 34.8945 251.34H36.8545C37.3345 251.34 37.7479 251.513 38.0945 251.86C38.4412 252.207 38.6145 252.62 38.6145 253.1V256.74H36.7545V253.64C36.7545 253.507 36.7079 253.4 36.6145 253.32C36.5345 253.227 36.4279 253.18 36.2945 253.18H35.4945C35.3612 253.18 35.2479 253.227 35.1545 253.32C35.0745 253.4 35.0345 253.507 35.0345 253.64V263.7C35.0345 263.833 35.0745 263.947 35.1545 264.04C35.2479 264.12 35.3612 264.16 35.4945 264.16H36.2945C36.4279 264.16 36.5345 264.12 36.6145 264.04C36.7079 263.947 36.7545 263.833 36.7545 263.7V260.16H35.8545V258.34ZM40.9322 251.34H45.3322V253.24H42.8322V257.76H45.3322V259.58H42.8322V264.1H45.3322V266H40.9322V251.34ZM48.6273 266H46.7273V263.9H48.6273V266ZM48.6273 259.72H46.7273V257.62H48.6273V259.72ZM53.8266 251.34H56.5666V266H54.6666V253.24H53.8266V251.34ZM60.6016 266C60.1216 266 59.7082 265.827 59.3616 265.48C59.0149 265.133 58.8416 264.72 58.8416 264.24V253.1C58.8416 252.62 59.0149 252.207 59.3616 251.86C59.7082 251.513 60.1216 251.34 60.6016 251.34H62.6016C63.0816 251.34 63.4949 251.513 63.8416 251.86C64.1882 252.207 64.3616 252.62 64.3616 253.1V264.24C64.3616 264.72 64.1882 265.133 63.8416 265.48C63.4949 265.827 63.0816 266 62.6016 266H60.6016ZM60.7416 263.7C60.7416 263.833 60.7816 263.947 60.8616 264.04C60.9549 264.12 61.0682 264.16 61.2016 264.16H62.0016C62.1349 264.16 62.2416 264.12 62.3216 264.04C62.4149 263.947 62.4616 263.833 62.4616 263.7V253.64C62.4616 253.507 62.4149 253.4 62.3216 253.32C62.2416 253.227 62.1349 253.18 62.0016 253.18H61.2016C61.0682 253.18 60.9549 253.227 60.8616 253.32C60.7816 253.4 60.7416 253.507 60.7416 253.64V263.7ZM68.5192 257.14H69.3192C69.4526 257.14 69.5592 257.1 69.6392 257.02C69.7326 256.927 69.7792 256.813 69.7792 256.68V253.64C69.7792 253.507 69.7326 253.4 69.6392 253.32C69.5592 253.227 69.4526 253.18 69.3192 253.18H68.5192C68.3859 253.18 68.2726 253.227 68.1792 253.32C68.0992 253.4 68.0592 253.507 68.0592 253.64V255.7H66.1992V253.1C66.1992 252.62 66.3726 252.207 66.7192 251.86C67.0659 251.513 67.4792 251.34 67.9592 251.34H69.9192C70.3992 251.34 70.8126 251.513 71.1592 251.86C71.5059 252.207 71.6792 252.62 71.6792 253.1V256.5C71.6792 256.78 71.6459 257.013 71.5792 257.2C71.5259 257.373 71.4526 257.52 71.3592 257.64C71.2659 257.76 71.1659 257.853 71.0592 257.92C70.9526 257.973 70.8526 258.02 70.7592 258.06C70.9459 258.127 71.1459 258.273 71.3592 258.5C71.5726 258.727 71.6792 259.1 71.6792 259.62V264.24C71.6792 264.72 71.5059 265.133 71.1592 265.48C70.8126 265.827 70.3992 266 69.9192 266H67.9592C67.4792 266 67.0659 265.827 66.7192 265.48C66.3726 265.133 66.1992 264.72 66.1992 264.24V261.62H68.0592V263.7C68.0592 263.833 68.0992 263.947 68.1792 264.04C68.2726 264.12 68.3859 264.16 68.5192 264.16H69.3192C69.4526 264.16 69.5592 264.12 69.6392 264.04C69.7326 263.947 69.7792 263.833 69.7792 263.7V259.5C69.7792 259.367 69.7326 259.26 69.6392 259.18C69.5592 259.087 69.4526 259.04 69.3192 259.04H68.5192V257.14Z" fill="white"/>
<path d="M29.8 276.34C30.28 276.34 30.6933 276.513 31.04 276.86C31.3867 277.207 31.56 277.62 31.56 278.1V282.76C31.56 283.147 31.44 283.493 31.2 283.8C30.9733 284.107 30.6867 284.32 30.34 284.44L32.74 291H30.7L28.42 284.52H27.94V291H26.04V276.34H29.8ZM27.94 278.18V282.68H29.2C29.3333 282.68 29.44 282.64 29.52 282.56C29.6133 282.467 29.66 282.353 29.66 282.22V278.64C29.66 278.507 29.6133 278.4 29.52 278.32C29.44 278.227 29.3333 278.18 29.2 278.18H27.94ZM37.2144 287.2H35.6944L35.2544 291H33.4344L35.3344 276.34H37.6344L39.5544 291H37.6944L37.2144 287.2ZM35.9144 285.38H36.9944L36.4544 280.86L35.9144 285.38ZM42.9689 288.7C42.9689 288.833 43.0089 288.947 43.0889 289.04C43.1822 289.12 43.2956 289.16 43.4289 289.16H44.2289C44.3622 289.16 44.4689 289.12 44.5489 289.04C44.6422 288.947 44.6889 288.833 44.6889 288.7V285H46.5489V289.24C46.5489 289.72 46.3756 290.133 46.0289 290.48C45.6822 290.827 45.2689 291 44.7889 291H42.8289C42.3489 291 41.9356 290.827 41.5889 290.48C41.2422 290.133 41.0689 289.72 41.0689 289.24V278.1C41.0689 277.62 41.2422 277.207 41.5889 276.86C41.9356 276.513 42.3489 276.34 42.8289 276.34H44.7889C45.2689 276.34 45.6822 276.513 46.0289 276.86C46.3756 277.207 46.5489 277.62 46.5489 278.1V282.34H44.6889V278.64C44.6889 278.507 44.6422 278.4 44.5489 278.32C44.4689 278.227 44.3622 278.18 44.2289 278.18H43.4289C43.2956 278.18 43.1822 278.227 43.0889 278.32C43.0089 278.4 42.9689 278.507 42.9689 278.64V288.7ZM48.7884 276.34H53.1884V278.24H50.6884V282.76H53.1884V284.58H50.6884V289.1H53.1884V291H48.7884V276.34ZM56.4836 291H54.5836V288.9H56.4836V291ZM56.4836 284.72H54.5836V282.62H56.4836V284.72ZM65.7028 283.44L67.2428 276.34H69.2428V291H67.4028V285.02L67.4828 282.22H67.4628L66.1828 288.6H65.1828L63.9028 282.22H63.8828L63.9628 285.02V291H62.1228V276.34H64.1228L65.7028 283.44ZM73.282 291C72.802 291 72.3887 290.827 72.042 290.48C71.6954 290.133 71.522 289.72 71.522 289.24V276.34H73.422V288.7C73.422 288.833 73.462 288.947 73.542 289.04C73.6354 289.12 73.7487 289.16 73.882 289.16H74.602C74.7354 289.16 74.842 289.12 74.922 289.04C75.0154 288.947 75.062 288.833 75.062 288.7V276.34H76.962V289.24C76.962 289.72 76.7887 290.133 76.442 290.48C76.0954 290.827 75.682 291 75.202 291H73.282ZM78.4086 276.34H83.4286V278.24H81.8686V291H79.9686V278.24H78.4086V276.34ZM87.7011 287.2H86.1811L85.7411 291H83.9211L85.8211 276.34H88.1211L90.0411 291H88.1811L87.7011 287.2ZM86.4011 285.38H87.4811L86.9411 280.86L86.4011 285.38ZM95.47 284.58H95.49L95.41 281.56V276.34H97.21V291H95.51L93.53 282.76H93.51L93.59 285.78V291H91.79V276.34H93.49L95.47 284.58ZM98.95 276.34H103.97V278.24H102.41V291H100.51V278.24H98.95V276.34Z" fill="white"/>
<path d="M319.5 296.34H324.52V298.24H322.96V311H321.06V298.24H319.5V296.34ZM327.723 311C327.243 311 326.829 310.827 326.483 310.48C326.136 310.133 325.963 309.72 325.963 309.24V298.1C325.963 297.62 326.136 297.207 326.483 296.86C326.829 296.513 327.243 296.34 327.723 296.34H329.723C330.203 296.34 330.616 296.513 330.963 296.86C331.309 297.207 331.483 297.62 331.483 298.1V309.24C331.483 309.72 331.309 310.133 330.963 310.48C330.616 310.827 330.203 311 329.723 311H327.723ZM327.863 308.7C327.863 308.833 327.903 308.947 327.983 309.04C328.076 309.12 328.189 309.16 328.323 309.16H329.123C329.256 309.16 329.363 309.12 329.443 309.04C329.536 308.947 329.583 308.833 329.583 308.7V298.64C329.583 298.507 329.536 298.4 329.443 298.32C329.363 298.227 329.256 298.18 329.123 298.18H328.323C328.189 298.18 328.076 298.227 327.983 298.32C327.903 298.4 327.863 298.507 327.863 298.64V308.7ZM332.927 296.34H337.947V298.24H336.387V311H334.487V298.24H332.927V296.34ZM342.22 307.2H340.7L340.26 311H338.44L340.34 296.34H342.64L344.56 311H342.7L342.22 307.2ZM340.92 305.38H342L341.46 300.86L340.92 305.38ZM346.309 296.34H348.209V309.1H350.709V311H346.309V296.34ZM358.042 311H356.142V296.34H358.042V311ZM359.787 296.34H364.807V298.24H363.247V311H361.347V298.24H359.787V296.34ZM366.542 296.34H370.942V298.24H368.442V302.76H370.942V304.58H368.442V309.1H370.942V311H366.542V296.34ZM376.357 303.44L377.897 296.34H379.897V311H378.057V305.02L378.137 302.22H378.117L376.837 308.6H375.837L374.557 302.22H374.537L374.617 305.02V311H372.777V296.34H374.777L376.357 303.44Z" fill="white"/>
<path d="M401 109L471 109" stroke="#70FF00" stroke-width="10" stroke-linecap="square"/>
<path d="M400 139H555" stroke="#70FF00" stroke-width="10" stroke-linecap="square"/>
<path d="M400 169H436" stroke="#70FF00" stroke-width="10" stroke-linecap="square"/>
<path d="M400 199H514" stroke="#70FF00" stroke-width="10" stroke-linecap="square"/>
<path d="M400 229H432" stroke="#70FF00" stroke-width="10" stroke-linecap="square"/>
<path d="M400 259H416" stroke="#70FF00" stroke-width="10" stroke-linecap="square"/>
<rect x="575" y="246" width="25" height="25" rx="2" fill="#434343"/>
<rect x="575" y="126" width="25" height="25" rx="2" fill="#434343"/>
<rect x="575" y="216" width="25" height="25" rx="2" fill="#434343"/>
<rect x="575" y="186" width="25" height="25" rx="2" fill="#434343"/>
<rect x="575" y="156" width="25" height="25" rx="2" fill="#434343"/>
<rect x="575" y="96" width="25" height="25" rx="2" fill="#434343"/>
<path d="M584.46 262.36L587.76 251.34H589.58V262H590.38V263.8H589.58V266H587.84V263.8H584.46V262.36ZM587.84 262V256.36L586.28 262H587.84Z" fill="white"/>
<path d="M582.6 131.34H585.34V146H583.44V133.24H582.6V131.34ZM590.755 138.94C590.755 138.807 590.708 138.7 590.615 138.62C590.535 138.527 590.428 138.48 590.295 138.48H589.415C589.082 138.48 588.902 138.667 588.875 139.04H587.275L587.575 131.34H592.635V133.24H589.255L589.135 136.74C589.188 136.713 589.268 136.693 589.375 136.68C589.495 136.653 589.602 136.64 589.695 136.64H590.895C591.375 136.64 591.788 136.813 592.135 137.16C592.482 137.507 592.655 137.92 592.655 138.4V144.24C592.655 144.72 592.482 145.133 592.135 145.48C591.788 145.827 591.375 146 590.895 146H588.935C588.455 146 588.042 145.827 587.695 145.48C587.348 145.133 587.175 144.72 587.175 144.24V141.62H589.035V143.7C589.035 143.833 589.075 143.947 589.155 144.04C589.248 144.12 589.362 144.16 589.495 144.16H590.295C590.428 144.16 590.535 144.12 590.615 144.04C590.708 143.947 590.755 143.833 590.755 143.7V138.94Z" fill="white"/>
<path d="M588.18 228.94C588.18 228.807 588.133 228.7 588.04 228.62C587.96 228.527 587.853 228.48 587.72 228.48H586.84C586.507 228.48 586.327 228.667 586.3 229.04H584.7L585 221.34H590.06V223.24H586.68L586.56 226.74C586.613 226.713 586.693 226.693 586.8 226.68C586.92 226.653 587.027 226.64 587.12 226.64H588.32C588.8 226.64 589.213 226.813 589.56 227.16C589.907 227.507 590.08 227.92 590.08 228.4V234.24C590.08 234.72 589.907 235.133 589.56 235.48C589.213 235.827 588.8 236 588.32 236H586.36C585.88 236 585.467 235.827 585.12 235.48C584.773 235.133 584.6 234.72 584.6 234.24V231.62H586.46V233.7C586.46 233.833 586.5 233.947 586.58 234.04C586.673 234.12 586.787 234.16 586.92 234.16H587.72C587.853 234.16 587.96 234.12 588.04 234.04C588.133 233.947 588.18 233.833 588.18 233.7V228.94Z" fill="white"/>
<path d="M588.52 199.78H586.66C586.18 199.78 585.767 199.607 585.42 199.26C585.073 198.913 584.9 198.5 584.9 198.02V193.1C584.9 192.62 585.073 192.207 585.42 191.86C585.767 191.513 586.18 191.34 586.66 191.34H588.66C589.14 191.34 589.553 191.513 589.9 191.86C590.247 192.207 590.42 192.62 590.42 193.1V204.24C590.42 204.72 590.247 205.133 589.9 205.48C589.553 205.827 589.14 206 588.66 206H586.7C586.22 206 585.807 205.827 585.46 205.48C585.113 205.133 584.94 204.72 584.94 204.24V201.62H586.8V203.7C586.8 203.833 586.84 203.947 586.92 204.04C587.013 204.12 587.127 204.16 587.26 204.16H588.06C588.193 204.16 588.3 204.12 588.38 204.04C588.473 203.947 588.52 203.833 588.52 203.7V199.78ZM586.8 197.5C586.8 197.633 586.84 197.747 586.92 197.84C587.013 197.92 587.127 197.96 587.26 197.96H588.52V193.64C588.52 193.507 588.473 193.4 588.38 193.32C588.3 193.227 588.193 193.18 588.06 193.18H587.26C587.127 193.18 587.013 193.227 586.92 193.32C586.84 193.4 586.8 193.507 586.8 193.64V197.5Z" fill="white"/>
<path d="M587.18 168.94C587.18 168.807 587.133 168.7 587.04 168.62C586.96 168.527 586.853 168.48 586.72 168.48H585.84C585.507 168.48 585.327 168.667 585.3 169.04H583.7L584 161.34H589.06V163.24H585.68L585.56 166.74C585.613 166.713 585.693 166.693 585.8 166.68C585.92 166.653 586.027 166.64 586.12 166.64H587.32C587.8 166.64 588.213 166.813 588.56 167.16C588.907 167.507 589.08 167.92 589.08 168.4V174.24C589.08 174.72 588.907 175.133 588.56 175.48C588.213 175.827 587.8 176 587.32 176H585.36C584.88 176 584.467 175.827 584.12 175.48C583.773 175.133 583.6 174.72 583.6 174.24V171.62H585.46V173.7C585.46 173.833 585.5 173.947 585.58 174.04C585.673 174.12 585.787 174.16 585.92 174.16H586.72C586.853 174.16 586.96 174.12 587.04 174.04C587.133 173.947 587.18 173.833 587.18 173.7V168.94Z" fill="white"/>
<path d="M584.1 101.34H589.12V102.66L587.12 116H585.2L587.24 103.24H584.1V101.34Z" fill="white"/>
<rect x="575" y="291" width="25" height="25" rx="2" fill="#70FF00"/>
<path d="M580.46 307.36L583.76 296.34H585.58V307H586.38V308.8H585.58V311H583.84V308.8H580.46V307.36ZM583.84 307V301.36L582.28 307H583.84ZM591.314 303.94C591.314 303.807 591.267 303.7 591.174 303.62C591.094 303.527 590.987 303.48 590.854 303.48H589.974C589.64 303.48 589.46 303.667 589.434 304.04H587.834L588.134 296.34H593.194V298.24H589.814L589.694 301.74C589.747 301.713 589.827 301.693 589.934 301.68C590.054 301.653 590.16 301.64 590.254 301.64H591.454C591.934 301.64 592.347 301.813 592.694 302.16C593.04 302.507 593.214 302.92 593.214 303.4V309.24C593.214 309.72 593.04 310.133 592.694 310.48C592.347 310.827 591.934 311 591.454 311H589.494C589.014 311 588.6 310.827 588.254 310.48C587.907 310.133 587.734 309.72 587.734 309.24V306.62H589.594V308.7C589.594 308.833 589.634 308.947 589.714 309.04C589.807 309.12 589.92 309.16 590.054 309.16H590.854C590.987 309.16 591.094 309.12 591.174 309.04C591.267 308.947 591.314 308.833 591.314 308.7V303.94Z" fill="#222222"/>
<line x1="288.25" x2="288.25" y2="333" stroke="#3A3A3A" stroke-width="0.5"/>
<defs>
<filter id="filter0_d_692_530" x="46.2711" y="337.5" width="610.229" height="23" filterUnits="userSpaceOnUse" color-interpolation-filters="sRGB">
<feFlood flood-opacity="0" result="BackgroundImageFix"/>
<feColorMatrix in="SourceAlpha" type="matrix" values="0 0 0 0 0 0 0 0 0 0 0 0 0 0 0 0 0 0 127 0" result="hardAlpha"/>
<feOffset dy="4"/>
<feGaussianBlur stdDeviation="2"/>
<feComposite in2="hardAlpha" operator="out"/>
<feColorMatrix type="matrix" values="0 0 0 0 0 0 0 0 0 0 0 0 0 0 0 0 0 0 0.25 0"/>
<feBlend mode="normal" in2="BackgroundImageFix" result="effect1_dropShadow_692_530"/>
<feBlend mode="normal" in="SourceGraphic" in2="effect1_dropShadow_692_530" result="shape"/>
</filter>
<filter id="filter1_d_692_530" x="0" y="0" width="656" height="360" filterUnits="userSpaceOnUse" color-interpolation-filters="sRGB">
<feFlood flood-opacity="0" result="BackgroundImageFix"/>
<feColorMatrix in="SourceAlpha" type="matrix" values="0 0 0 0 0 0 0 0 0 0 0 0 0 0 0 0 0 0 127 0" result="hardAlpha"/>
<feOffset dy="4"/>
<feGaussianBlur stdDeviation="2"/>
<feComposite in2="hardAlpha" operator="out"/>
<feColorMatrix type="matrix" values="0 0 0 0 0 0 0 0 0 0 0 0 0 0 0 0 0 0 0.25 0"/>
<feBlend mode="normal" in2="BackgroundImageFix" result="effect1_dropShadow_692_530"/>
<feBlend mode="normal" in="SourceGraphic" in2="effect1_dropShadow_692_530" result="shape"/>
</filter>
<filter id="filter2_b_692_530" x="29.0885" y="40.4728" width="143.715" height="30.1111" filterUnits="userSpaceOnUse" color-interpolation-filters="sRGB">
<feFlood flood-opacity="0" result="BackgroundImageFix"/>
<feGaussianBlur in="BackgroundImage" stdDeviation="3.0661"/>
<feComposite in2="SourceAlpha" operator="in" result="effect1_backgroundBlur_692_530"/>
<feBlend mode="normal" in="SourceGraphic" in2="effect1_backgroundBlur_692_530" result="shape"/>
</filter>
</defs>
</svg>
