<svg width="657" height="361" viewBox="0 0 657 361" fill="none" xmlns="http://www.w3.org/2000/svg">
<g filter="url(#filter0_d_692_640)">
<path d="M61.1977 338.597L51.3511 348.597C50.1061 349.861 51.0018 352 52.7761 352H650C651.105 352 652 351.105 652 350V340C652 338.895 651.105 338 650 338H62.6228C62.087 338 61.5736 338.215 61.1977 338.597Z" fill="#2A2A2A"/>
<path d="M61.1977 338.597L51.3511 348.597C50.1061 349.861 51.0018 352 52.7761 352H650C651.105 352 652 351.105 652 350V340C652 338.895 651.105 338 650 338H62.6228C62.087 338 61.5736 338.215 61.1977 338.597Z" stroke="#2A2A2A"/>
</g>
<g filter="url(#filter1_d_692_640)">
<path d="M4 63.4118V347C4 349.761 6.23858 352 9 352H38.4289C39.755 352 41.0268 351.473 41.9645 350.536L58.0355 334.464C58.9732 333.527 60.245 333 61.5711 333H647C649.761 333 652 330.761 652 328V44.5711C652 43.245 651.473 41.9732 650.536 41.0355L610.964 1.46446C610.027 0.526782 608.755 0 607.429 0H9C6.23858 0 4 2.23858 4 5V63.4118Z" fill="#2A2A2A"/>
</g>
<g filter="url(#filter2_b_692_640)">
<path d="M55.1792 52.0981C55.167 51.3535 55.0205 50.6699 54.752 50.0718C54.3491 49.1562 53.6777 48.4238 52.7256 47.8745C51.2729 47.0322 48.7827 46.605 45.2549 46.605H45.145C41.6172 46.605 39.127 47.0322 37.6743 47.8745C36.7222 48.4238 36.0508 49.1562 35.6479 50.0718C35.3672 50.7065 35.2207 51.4512 35.2207 52.3179C35.2207 53.1724 35.3672 53.8804 35.6724 54.4541C36.2095 55.4795 37.1128 56.2363 38.126 56.688C38.6387 56.9199 39.2856 57.0908 40.0547 57.2251C40.8359 57.3594 41.605 57.4448 42.3618 57.5059C43.1187 57.5547 44.0586 57.5913 45.1694 57.6279L48.2212 57.7988C48.6606 57.8354 48.8804 57.8843 49.2588 58.0308C49.6494 58.165 49.8691 58.4214 49.9058 58.8242C49.9546 59.52 49.4541 59.9961 48.4043 60.228C47.7207 60.3745 46.6709 60.4478 45.2549 60.4478H45.145C43.6802 60.4478 42.606 60.3745 41.9224 60.228C41.4097 60.1182 41.0312 59.9351 40.7993 59.7031C40.5796 59.4956 40.4697 59.1416 40.4697 58.6289V58.519H35.2207V58.9463C35.2329 59.7153 35.3794 60.3867 35.6479 60.9727C36.0508 61.9004 36.7222 62.645 37.6743 63.1943C39.127 64.0366 41.6172 64.4517 45.145 64.4517H45.2549C48.7217 64.4395 51.1997 64.0122 52.7012 63.1455C53.6533 62.5962 54.3247 61.8638 54.7275 60.9482C55.0083 60.3013 55.1548 59.5444 55.1548 58.7021C55.1548 57.8599 55.0083 57.1519 54.7031 56.5781C54.166 55.5039 53.2505 54.7837 52.2373 54.3442C51.7368 54.1123 51.0898 53.9414 50.3086 53.8071C49.5396 53.6729 48.7705 53.5752 48.0015 53.5142C47.2446 53.4531 46.3047 53.4165 45.1694 53.4043L42.1787 53.2212C41.7393 53.1602 41.5439 53.1235 41.1411 53.0137C40.7505 52.9038 40.5308 52.6475 40.4697 52.269C40.3721 51.5732 40.8237 51.1094 41.8247 50.853C42.4961 50.6943 43.5459 50.6089 44.9985 50.5967H45.2305C46.6953 50.6089 47.7695 50.6821 48.4531 50.8286C48.978 50.9385 49.3687 51.1216 49.6006 51.3535C49.8203 51.5488 49.9302 51.915 49.9302 52.4521V52.5254H55.1792V52.0981ZM64.6943 47.1299L56.418 64H62.0698L63.0708 61.9736H71.9941L72.9951 64H78.6226L70.3462 47.1299H64.6943ZM65.0239 57.9209L67.5264 52.8794L69.9678 57.9209H65.0239ZM95.5229 47.1299H76.9438V51.1704H83.6943V64H88.7725V51.1704H95.5229V47.1299ZM118.368 59.7031C118.82 58.6167 119.04 57.2617 119.052 55.626C119.064 53.9902 118.832 52.6108 118.368 51.5C117.599 49.5591 116.146 48.2163 114.254 47.5449C112.387 46.8735 110.531 46.6416 108.2 46.6782C105.868 46.6416 104 46.8735 102.108 47.5449C100.241 48.2163 98.7881 49.5591 98.019 51.5C97.5552 52.5986 97.3232 53.9536 97.3232 55.5771C97.3232 57.2007 97.5552 58.5557 98.019 59.6543C98.8003 61.5708 100.241 62.9258 102.108 63.5972C104 64.2686 105.868 64.5127 108.2 64.4761C109.384 64.4883 110.446 64.4395 111.41 64.3052C112.375 64.1831 113.327 63.9634 114.267 63.6338C116.171 62.9868 117.599 61.6685 118.368 59.7031ZM113.473 53.3311C113.693 53.8682 113.803 54.6372 113.803 55.6382C113.803 56.627 113.693 57.3838 113.473 57.8965C113.156 58.7144 112.594 59.3491 111.776 59.7886C110.958 60.228 109.774 60.4478 108.2 60.4478C105.355 60.4478 103.598 59.5688 102.926 57.8232C102.694 57.3105 102.572 56.5659 102.572 55.5771C102.572 54.5884 102.694 53.8438 102.926 53.3311C103.598 51.5732 105.355 50.6943 108.2 50.6943C109.762 50.6943 110.946 50.9263 111.752 51.3901C112.57 51.854 113.144 52.501 113.473 53.3311ZM141.58 52.0981C141.567 51.3535 141.421 50.6699 141.152 50.0718C140.75 49.1562 140.078 48.4238 139.126 47.8745C137.673 47.0322 135.183 46.605 131.655 46.605H131.545C128.018 46.605 125.527 47.0322 124.075 47.8745C123.123 48.4238 122.451 49.1562 122.048 50.0718C121.768 50.7065 121.621 51.4512 121.621 52.3179C121.621 53.1724 121.768 53.8804 122.073 54.4541C122.61 55.4795 123.513 56.2363 124.526 56.688C125.039 56.9199 125.686 57.0908 126.455 57.2251C127.236 57.3594 128.005 57.4448 128.762 57.5059C129.519 57.5547 130.459 57.5913 131.57 57.6279L134.622 57.7988C135.061 57.8354 135.281 57.8843 135.659 58.0308C136.05 58.165 136.27 58.4214 136.306 58.8242C136.355 59.52 135.854 59.9961 134.805 60.228C134.121 60.3745 133.071 60.4478 131.655 60.4478H131.545C130.081 60.4478 129.006 60.3745 128.323 60.228C127.81 60.1182 127.432 59.9351 127.2 59.7031C126.98 59.4956 126.87 59.1416 126.87 58.6289V58.519H121.621V58.9463C121.633 59.7153 121.78 60.3867 122.048 60.9727C122.451 61.9004 123.123 62.645 124.075 63.1943C125.527 64.0366 128.018 64.4517 131.545 64.4517H131.655C135.122 64.4395 137.6 64.0122 139.102 63.1455C140.054 62.5962 140.725 61.8638 141.128 60.9482C141.409 60.3013 141.555 59.5444 141.555 58.7021C141.555 57.8599 141.409 57.1519 141.104 56.5781C140.566 55.5039 139.651 54.7837 138.638 54.3442C138.137 54.1123 137.49 53.9414 136.709 53.8071C135.94 53.6729 135.171 53.5752 134.402 53.5142C133.645 53.4531 132.705 53.4165 131.57 53.4043L128.579 53.2212C128.14 53.1602 127.944 53.1235 127.542 53.0137C127.151 52.9038 126.931 52.6475 126.87 52.269C126.772 51.5732 127.224 51.1094 128.225 50.853C128.896 50.6943 129.946 50.6089 131.399 50.5967H131.631C133.096 50.6089 134.17 50.6821 134.854 50.8286C135.378 50.9385 135.769 51.1216 136.001 51.3535C136.221 51.5488 136.331 51.915 136.331 52.4521V52.5254H141.58V52.0981ZM159.237 47.1299V53.5264H149.862V47.1299H144.784V64H149.862V57.5791H159.237V64H164.291V47.1299H159.237ZM173.085 64V47.1299H168.007V64H173.085Z" fill="#70FF00"/>
</g>
<path d="M28.36 115.296C27.784 115.296 27.288 115.088 26.872 114.672C26.456 114.256 26.248 113.76 26.248 113.184V107.52C26.248 106.944 26.456 106.448 26.872 106.032C27.288 105.616 27.784 105.408 28.36 105.408H30.76C31.336 105.408 31.832 105.616 32.248 106.032C32.664 106.448 32.872 106.944 32.872 107.52V111.624H30.592V108.168C30.592 108.008 30.536 107.88 30.424 107.784C30.328 107.672 30.2 107.616 30.04 107.616H29.08C28.92 107.616 28.784 107.672 28.672 107.784C28.576 107.88 28.528 108.008 28.528 108.168V112.584C28.528 112.744 28.576 112.88 28.672 112.992C28.784 113.088 28.92 113.136 29.08 113.136H30.76C31.336 113.136 31.832 113.344 32.248 113.76C32.664 114.176 32.872 114.672 32.872 115.248V120.888C32.872 121.464 32.664 121.96 32.248 122.376C31.832 122.792 31.336 123 30.76 123H28.36C27.784 123 27.288 122.792 26.872 122.376C26.456 121.96 26.248 121.464 26.248 120.888V116.736H28.528V120.24C28.528 120.4 28.576 120.536 28.672 120.648C28.784 120.744 28.92 120.792 29.08 120.792H30.04C30.2 120.792 30.328 120.744 30.424 120.648C30.536 120.536 30.592 120.4 30.592 120.24V115.848C30.592 115.688 30.536 115.56 30.424 115.464C30.328 115.352 30.2 115.296 30.04 115.296H28.36ZM39.4519 118.44H37.6279L37.0999 123H34.9159L37.1959 105.408H39.9559L42.2599 123H40.0279L39.4519 118.44ZM37.8919 116.256H39.1879L38.5399 110.832L37.8919 116.256ZM43.1069 105.408H49.1309V107.688H47.2589V123H44.9789V107.688H43.1069V105.408ZM53.2141 123C52.6381 123 52.1421 122.792 51.7261 122.376C51.3101 121.96 51.1021 121.464 51.1021 120.888V107.52C51.1021 106.944 51.3101 106.448 51.7261 106.032C52.1421 105.616 52.6381 105.408 53.2141 105.408H55.6141C56.1901 105.408 56.6861 105.616 57.1021 106.032C57.5181 106.448 57.7261 106.944 57.7261 107.52V120.888C57.7261 121.464 57.5181 121.96 57.1021 122.376C56.6861 122.792 56.1901 123 55.6141 123H53.2141ZM53.3821 120.24C53.3821 120.4 53.4301 120.536 53.5261 120.648C53.6381 120.744 53.7741 120.792 53.9341 120.792H54.8941C55.0541 120.792 55.1821 120.744 55.2781 120.648C55.3901 120.536 55.4461 120.4 55.4461 120.24V108.168C55.4461 108.008 55.3901 107.88 55.2781 107.784C55.1821 107.672 55.0541 107.616 54.8941 107.616H53.9341C53.7741 107.616 53.6381 107.672 53.5261 107.784C53.4301 107.88 53.3821 108.008 53.3821 108.168V120.24ZM62.8112 115.296C62.2352 115.296 61.7392 115.088 61.3232 114.672C60.9072 114.256 60.6992 113.76 60.6992 113.184V107.52C60.6992 106.944 60.9072 106.448 61.3232 106.032C61.7392 105.616 62.2352 105.408 62.8112 105.408H65.2112C65.7872 105.408 66.2832 105.616 66.6992 106.032C67.1152 106.448 67.3232 106.944 67.3232 107.52V111.624H65.0432V108.168C65.0432 108.008 64.9872 107.88 64.8752 107.784C64.7792 107.672 64.6512 107.616 64.4912 107.616H63.5312C63.3712 107.616 63.2352 107.672 63.1232 107.784C63.0272 107.88 62.9792 108.008 62.9792 108.168V112.584C62.9792 112.744 63.0272 112.88 63.1232 112.992C63.2352 113.088 63.3712 113.136 63.5312 113.136H65.2112C65.7872 113.136 66.2832 113.344 66.6992 113.76C67.1152 114.176 67.3232 114.672 67.3232 115.248V120.888C67.3232 121.464 67.1152 121.96 66.6992 122.376C66.2832 122.792 65.7872 123 65.2112 123H62.8112C62.2352 123 61.7392 122.792 61.3232 122.376C60.9072 121.96 60.6992 121.464 60.6992 120.888V116.736H62.9792V120.24C62.9792 120.4 63.0272 120.536 63.1232 120.648C63.2352 120.744 63.3712 120.792 63.5312 120.792H64.4912C64.6512 120.792 64.7792 120.744 64.8752 120.648C64.9872 120.536 65.0432 120.4 65.0432 120.24V115.848C65.0432 115.688 64.9872 115.56 64.8752 115.464C64.7792 115.352 64.6512 115.296 64.4912 115.296H62.8112ZM74.4484 115.296H72.5764V123H70.2964V105.408H72.5764V113.112H74.4484V105.408H76.7284V123H74.4484V115.296ZM81.9861 123H79.7061V105.408H81.9861V123ZM92.0399 123H89.7599V105.408H92.0399V123ZM97.1331 115.296C96.5571 115.296 96.0611 115.088 95.6451 114.672C95.2291 114.256 95.0211 113.76 95.0211 113.184V107.52C95.0211 106.944 95.2291 106.448 95.6451 106.032C96.0611 105.616 96.5571 105.408 97.1331 105.408H99.5331C100.109 105.408 100.605 105.616 101.021 106.032C101.437 106.448 101.645 106.944 101.645 107.52V111.624H99.3651V108.168C99.3651 108.008 99.3091 107.88 99.1971 107.784C99.1011 107.672 98.9731 107.616 98.8131 107.616H97.8531C97.6931 107.616 97.5571 107.672 97.4451 107.784C97.3491 107.88 97.3011 108.008 97.3011 108.168V112.584C97.3011 112.744 97.3491 112.88 97.4451 112.992C97.5571 113.088 97.6931 113.136 97.8531 113.136H99.5331C100.109 113.136 100.605 113.344 101.021 113.76C101.437 114.176 101.645 114.672 101.645 115.248V120.888C101.645 121.464 101.437 121.96 101.021 122.376C100.605 122.792 100.109 123 99.5331 123H97.1331C96.5571 123 96.0611 122.792 95.6451 122.376C95.2291 121.96 95.0211 121.464 95.0211 120.888V116.736H97.3011V120.24C97.3011 120.4 97.3491 120.536 97.4451 120.648C97.5571 120.744 97.6931 120.792 97.8531 120.792H98.8131C98.9731 120.792 99.1011 120.744 99.1971 120.648C99.3091 120.536 99.3651 120.4 99.3651 120.24V115.848C99.3651 115.688 99.3091 115.56 99.1971 115.464C99.1011 115.352 98.9731 115.296 98.8131 115.296H97.1331ZM113.299 118.44H111.475L110.947 123H108.763L111.043 105.408H113.803L116.107 123H113.875L113.299 118.44ZM111.739 116.256H113.035L112.387 110.832L111.739 116.256ZM126.502 113.808H129.862V120.888C129.862 121.464 129.654 121.96 129.238 122.376C128.822 122.792 128.326 123 127.75 123H125.35C124.774 123 124.278 122.792 123.862 122.376C123.446 121.96 123.238 121.464 123.238 120.888V107.52C123.238 106.944 123.446 106.448 123.862 106.032C124.278 105.616 124.774 105.408 125.35 105.408H127.702C128.278 105.408 128.774 105.616 129.19 106.032C129.606 106.448 129.814 106.944 129.814 107.52V111.888H127.582V108.168C127.582 108.008 127.526 107.88 127.414 107.784C127.318 107.672 127.19 107.616 127.03 107.616H126.07C125.91 107.616 125.774 107.672 125.662 107.784C125.566 107.88 125.518 108.008 125.518 108.168V120.24C125.518 120.4 125.566 120.536 125.662 120.648C125.774 120.744 125.91 120.792 126.07 120.792H127.03C127.19 120.792 127.318 120.744 127.414 120.648C127.526 120.536 127.582 120.4 127.582 120.24V115.992H126.502V113.808ZM132.835 105.408H138.115V107.688H135.115V113.112H138.115V115.296H135.115V120.72H138.115V123H132.835V105.408ZM144.973 115.296H144.997L144.901 111.672V105.408H147.061V123H145.021L142.645 113.112H142.621L142.717 116.736V123H140.557V105.408H142.597L144.973 115.296ZM152.317 123H150.037V105.408H152.317V123ZM157.411 123C156.835 123 156.339 122.792 155.923 122.376C155.507 121.96 155.299 121.464 155.299 120.888V105.408H157.579V120.24C157.579 120.4 157.627 120.536 157.723 120.648C157.835 120.744 157.971 120.792 158.131 120.792H158.995C159.155 120.792 159.283 120.744 159.379 120.648C159.491 120.536 159.547 120.4 159.547 120.24V105.408H161.827V120.888C161.827 121.464 161.619 121.96 161.203 122.376C160.787 122.792 160.291 123 159.715 123H157.411ZM166.914 115.296C166.338 115.296 165.842 115.088 165.426 114.672C165.01 114.256 164.802 113.76 164.802 113.184V107.52C164.802 106.944 165.01 106.448 165.426 106.032C165.842 105.616 166.338 105.408 166.914 105.408H169.314C169.89 105.408 170.386 105.616 170.802 106.032C171.218 106.448 171.426 106.944 171.426 107.52V111.624H169.146V108.168C169.146 108.008 169.09 107.88 168.978 107.784C168.882 107.672 168.754 107.616 168.594 107.616H167.634C167.474 107.616 167.338 107.672 167.226 107.784C167.13 107.88 167.082 108.008 167.082 108.168V112.584C167.082 112.744 167.13 112.88 167.226 112.992C167.338 113.088 167.474 113.136 167.634 113.136H169.314C169.89 113.136 170.386 113.344 170.802 113.76C171.218 114.176 171.426 114.672 171.426 115.248V120.888C171.426 121.464 171.218 121.96 170.802 122.376C170.386 122.792 169.89 123 169.314 123H166.914C166.338 123 165.842 122.792 165.426 122.376C165.01 121.96 164.802 121.464 164.802 120.888V116.736H167.082V120.24C167.082 120.4 167.13 120.536 167.226 120.648C167.338 120.744 167.474 120.792 167.634 120.792H168.594C168.754 120.792 168.882 120.744 168.978 120.648C169.09 120.536 169.146 120.4 169.146 120.24V115.848C169.146 115.688 169.09 115.56 168.978 115.464C168.882 115.352 168.754 115.296 168.594 115.296H166.914ZM181.304 115.296C180.728 115.296 180.232 115.088 179.816 114.672C179.4 114.256 179.192 113.76 179.192 113.184V107.52C179.192 106.944 179.4 106.448 179.816 106.032C180.232 105.616 180.728 105.408 181.304 105.408H183.704C184.28 105.408 184.776 105.616 185.192 106.032C185.608 106.448 185.816 106.944 185.816 107.52V111.624H183.536V108.168C183.536 108.008 183.48 107.88 183.368 107.784C183.272 107.672 183.144 107.616 182.984 107.616H182.024C181.864 107.616 181.728 107.672 181.616 107.784C181.52 107.88 181.472 108.008 181.472 108.168V112.584C181.472 112.744 181.52 112.88 181.616 112.992C181.728 113.088 181.864 113.136 182.024 113.136H183.704C184.28 113.136 184.776 113.344 185.192 113.76C185.608 114.176 185.816 114.672 185.816 115.248V120.888C185.816 121.464 185.608 121.96 185.192 122.376C184.776 122.792 184.28 123 183.704 123H181.304C180.728 123 180.232 122.792 179.816 122.376C179.4 121.96 179.192 121.464 179.192 120.888V116.736H181.472V120.24C181.472 120.4 181.52 120.536 181.616 120.648C181.728 120.744 181.864 120.792 182.024 120.792H182.984C183.144 120.792 183.272 120.744 183.368 120.648C183.48 120.536 183.536 120.4 183.536 120.24V115.848C183.536 115.688 183.48 115.56 183.368 115.464C183.272 115.352 183.144 115.296 182.984 115.296H181.304ZM191.069 120.24C191.069 120.4 191.117 120.536 191.213 120.648C191.325 120.744 191.461 120.792 191.621 120.792H192.581C192.741 120.792 192.869 120.744 192.965 120.648C193.077 120.536 193.133 120.4 193.133 120.24V115.8H195.365V120.888C195.365 121.464 195.157 121.96 194.741 122.376C194.325 122.792 193.829 123 193.253 123H190.901C190.325 123 189.829 122.792 189.413 122.376C188.997 121.96 188.789 121.464 188.789 120.888V107.52C188.789 106.944 188.997 106.448 189.413 106.032C189.829 105.616 190.325 105.408 190.901 105.408H193.253C193.829 105.408 194.325 105.616 194.741 106.032C195.157 106.448 195.365 106.944 195.365 107.52V112.608H193.133V108.168C193.133 108.008 193.077 107.88 192.965 107.784C192.869 107.672 192.741 107.616 192.581 107.616H191.621C191.461 107.616 191.325 107.672 191.213 107.784C191.117 107.88 191.069 108.008 191.069 108.168V120.24ZM200.572 123H198.292V105.408H200.572V123ZM203.554 105.408H208.834V107.688H205.834V113.112H208.834V115.296H205.834V120.72H208.834V123H203.554V105.408ZM215.692 115.296H215.716L215.62 111.672V105.408H217.78V123H215.74L213.364 113.112H213.34L213.436 116.736V123H211.276V105.408H213.316L215.692 115.296ZM220.108 105.408H226.132V107.688H224.26V123H221.98V107.688H220.108V105.408ZM230.735 123H228.455V105.408H230.735V123ZM235.828 115.296C235.252 115.296 234.756 115.088 234.34 114.672C233.924 114.256 233.716 113.76 233.716 113.184V107.52C233.716 106.944 233.924 106.448 234.34 106.032C234.756 105.616 235.252 105.408 235.828 105.408H238.228C238.804 105.408 239.3 105.616 239.716 106.032C240.132 106.448 240.34 106.944 240.34 107.52V111.624H238.06V108.168C238.06 108.008 238.004 107.88 237.892 107.784C237.796 107.672 237.668 107.616 237.508 107.616H236.548C236.388 107.616 236.252 107.672 236.14 107.784C236.044 107.88 235.996 108.008 235.996 108.168V112.584C235.996 112.744 236.044 112.88 236.14 112.992C236.252 113.088 236.388 113.136 236.548 113.136H238.228C238.804 113.136 239.3 113.344 239.716 113.76C240.132 114.176 240.34 114.672 240.34 115.248V120.888C240.34 121.464 240.132 121.96 239.716 122.376C239.3 122.792 238.804 123 238.228 123H235.828C235.252 123 234.756 122.792 234.34 122.376C233.924 121.96 233.716 121.464 233.716 120.888V116.736H235.996V120.24C235.996 120.4 236.044 120.536 236.14 120.648C236.252 120.744 236.388 120.792 236.548 120.792H237.508C237.668 120.792 237.796 120.744 237.892 120.648C238.004 120.536 238.06 120.4 238.06 120.24V115.848C238.06 115.688 238.004 115.56 237.892 115.464C237.796 115.352 237.668 115.296 237.508 115.296H235.828ZM242.313 105.408H248.337V107.688H246.465V123H244.185V107.688H242.313V105.408ZM35.608 131.408H37.864L35.104 149H33.424L31.744 140.384L29.968 149H28.36L25.6 131.408H27.904L29.512 142.136L31.192 133.712H32.248L34 142.136L35.608 131.408ZM44.3331 141.296H42.4611V149H40.1811V131.408H42.4611V139.112H44.3331V131.408H46.6131V149H44.3331V141.296ZM51.7028 149C51.1268 149 50.6308 148.792 50.2148 148.376C49.7988 147.96 49.5908 147.464 49.5908 146.888V133.52C49.5908 132.944 49.7988 132.448 50.2148 132.032C50.6308 131.616 51.1268 131.408 51.7028 131.408H54.1028C54.6788 131.408 55.1748 131.616 55.5908 132.032C56.0068 132.448 56.2148 132.944 56.2148 133.52V146.888C56.2148 147.464 56.0068 147.96 55.5908 148.376C55.1748 148.792 54.6788 149 54.1028 149H51.7028ZM51.8708 146.24C51.8708 146.4 51.9188 146.536 52.0148 146.648C52.1268 146.744 52.2628 146.792 52.4228 146.792H53.3828C53.5428 146.792 53.6708 146.744 53.7668 146.648C53.8788 146.536 53.9348 146.4 53.9348 146.24V134.168C53.9348 134.008 53.8788 133.88 53.7668 133.784C53.6708 133.672 53.5428 133.616 53.3828 133.616H52.4228C52.2628 133.616 52.1268 133.672 52.0148 133.784C51.9188 133.88 51.8708 134.008 51.8708 134.168V146.24ZM63.9805 131.408H69.2605V133.688H66.2605V139.112H69.2605V141.296H66.2605V149H63.9805V131.408ZM73.8147 149C73.2387 149 72.7427 148.792 72.3267 148.376C71.9107 147.96 71.7027 147.464 71.7027 146.888V133.52C71.7027 132.944 71.9107 132.448 72.3267 132.032C72.7427 131.616 73.2387 131.408 73.8147 131.408H76.2147C76.7907 131.408 77.2867 131.616 77.7027 132.032C78.1187 132.448 78.3267 132.944 78.3267 133.52V146.888C78.3267 147.464 78.1187 147.96 77.7027 148.376C77.2867 148.792 76.7907 149 76.2147 149H73.8147ZM73.9827 146.24C73.9827 146.4 74.0307 146.536 74.1267 146.648C74.2387 146.744 74.3747 146.792 74.5347 146.792H75.4947C75.6547 146.792 75.7827 146.744 75.8787 146.648C75.9907 146.536 76.0467 146.4 76.0467 146.24V134.168C76.0467 134.008 75.9907 133.88 75.8787 133.784C75.7827 133.672 75.6547 133.616 75.4947 133.616H74.5347C74.3747 133.616 74.2387 133.672 74.1267 133.784C74.0307 133.88 73.9827 134.008 73.9827 134.168V146.24ZM83.4119 149C82.8359 149 82.3399 148.792 81.9239 148.376C81.5079 147.96 81.2999 147.464 81.2999 146.888V131.408H83.5799V146.24C83.5799 146.4 83.6279 146.536 83.7239 146.648C83.8359 146.744 83.9719 146.792 84.1319 146.792H84.9959C85.1559 146.792 85.2839 146.744 85.3799 146.648C85.4919 146.536 85.5479 146.4 85.5479 146.24V131.408H87.8279V146.888C87.8279 147.464 87.6199 147.96 87.2039 148.376C86.7879 148.792 86.2919 149 85.7159 149H83.4119ZM95.2193 141.296H95.2433L95.1473 137.672V131.408H97.3073V149H95.2673L92.8913 139.112H92.8673L92.9633 142.736V149H90.8033V131.408H92.8433L95.2193 141.296ZM100.283 149V131.408H104.795C105.371 131.408 105.867 131.616 106.283 132.032C106.699 132.448 106.907 132.944 106.907 133.52V146.888C106.907 147.464 106.699 147.96 106.283 148.376C105.867 148.792 105.371 149 104.795 149H100.283ZM102.563 133.616V146.792H104.075C104.235 146.792 104.363 146.744 104.459 146.648C104.571 146.536 104.627 146.4 104.627 146.24V134.168C104.627 134.008 104.571 133.88 104.459 133.784C104.363 133.672 104.235 133.616 104.075 133.616H102.563ZM118.825 141.296H116.953V149H114.673V131.408H116.953V139.112H118.825V131.408H121.105V149H118.825V141.296ZM126.363 149H124.083V131.408H126.363V149ZM131.456 141.296C130.88 141.296 130.384 141.088 129.968 140.672C129.552 140.256 129.344 139.76 129.344 139.184V133.52C129.344 132.944 129.552 132.448 129.968 132.032C130.384 131.616 130.88 131.408 131.456 131.408H133.856C134.432 131.408 134.928 131.616 135.344 132.032C135.76 132.448 135.968 132.944 135.968 133.52V137.624H133.688V134.168C133.688 134.008 133.632 133.88 133.52 133.784C133.424 133.672 133.296 133.616 133.136 133.616H132.176C132.016 133.616 131.88 133.672 131.768 133.784C131.672 133.88 131.624 134.008 131.624 134.168V138.584C131.624 138.744 131.672 138.88 131.768 138.992C131.88 139.088 132.016 139.136 132.176 139.136H133.856C134.432 139.136 134.928 139.344 135.344 139.76C135.76 140.176 135.968 140.672 135.968 141.248V146.888C135.968 147.464 135.76 147.96 135.344 148.376C134.928 148.792 134.432 149 133.856 149H131.456C130.88 149 130.384 148.792 129.968 148.376C129.552 147.96 129.344 147.464 129.344 146.888V142.736H131.624V146.24C131.624 146.4 131.672 146.536 131.768 146.648C131.88 146.744 132.016 146.792 132.176 146.792H133.136C133.296 146.792 133.424 146.744 133.52 146.648C133.632 146.536 133.688 146.4 133.688 146.24V141.848C133.688 141.688 133.632 141.56 133.52 141.464C133.424 141.352 133.296 141.296 133.136 141.296H131.456ZM146.014 146.24C146.014 146.4 146.062 146.536 146.158 146.648C146.27 146.744 146.406 146.792 146.566 146.792H147.526C147.686 146.792 147.814 146.744 147.91 146.648C148.022 146.536 148.078 146.4 148.078 146.24V141.8H150.31V146.888C150.31 147.464 150.102 147.96 149.686 148.376C149.27 148.792 148.774 149 148.198 149H145.846C145.27 149 144.774 148.792 144.358 148.376C143.942 147.96 143.734 147.464 143.734 146.888V133.52C143.734 132.944 143.942 132.448 144.358 132.032C144.774 131.616 145.27 131.408 145.846 131.408H148.198C148.774 131.408 149.27 131.616 149.686 132.032C150.102 132.448 150.31 132.944 150.31 133.52V138.608H148.078V134.168C148.078 134.008 148.022 133.88 147.91 133.784C147.814 133.672 147.686 133.616 147.526 133.616H146.566C146.406 133.616 146.27 133.672 146.158 133.784C146.062 133.88 146.014 134.008 146.014 134.168V146.24ZM156.844 144.44H155.02L154.492 149H152.308L154.588 131.408H157.348L159.652 149H157.42L156.844 144.44ZM155.284 142.256H156.58L155.932 136.832L155.284 142.256ZM161.99 131.408H164.27V146.72H167.27V149H161.99V131.408ZM169.478 131.408H171.758V146.72H174.758V149H169.478V131.408ZM179.246 149H176.966V131.408H179.246V149ZM186.643 141.296H186.667L186.571 137.672V131.408H188.731V149H186.691L184.315 139.112H184.291L184.387 142.736V149H182.227V131.408H184.267L186.643 141.296ZM194.971 139.808H198.331V146.888C198.331 147.464 198.123 147.96 197.707 148.376C197.291 148.792 196.795 149 196.219 149H193.819C193.243 149 192.747 148.792 192.331 148.376C191.915 147.96 191.707 147.464 191.707 146.888V133.52C191.707 132.944 191.915 132.448 192.331 132.032C192.747 131.616 193.243 131.408 193.819 131.408H196.171C196.747 131.408 197.243 131.616 197.659 132.032C198.075 132.448 198.283 132.944 198.283 133.52V137.888H196.051V134.168C196.051 134.008 195.995 133.88 195.883 133.784C195.787 133.672 195.659 133.616 195.499 133.616H194.539C194.379 133.616 194.243 133.672 194.131 133.784C194.035 133.88 193.987 134.008 193.987 134.168V146.24C193.987 146.4 194.035 146.536 194.131 146.648C194.243 146.744 194.379 146.792 194.539 146.792H195.499C195.659 146.792 195.787 146.744 195.883 146.648C195.995 146.536 196.051 146.4 196.051 146.24V141.992H194.971V139.808ZM208.377 149H206.097V131.408H208.377V149ZM215.774 141.296H215.798L215.702 137.672V131.408H217.862V149H215.822L213.446 139.112H213.422L213.518 142.736V149H211.358V131.408H213.398L215.774 141.296ZM229.519 144.44H227.695L227.167 149H224.983L227.263 131.408H230.023L232.327 149H230.095L229.519 144.44ZM227.959 142.256H229.255L228.607 136.832L227.959 142.256ZM30.664 167.296H30.688L30.592 163.672V157.408H32.752V175H30.712L28.336 165.112H28.312L28.408 168.736V175H26.248V157.408H28.288L30.664 167.296ZM39.616 170.44H37.792L37.264 175H35.08L37.36 157.408H40.12L42.424 175H40.192L39.616 170.44ZM38.056 168.256H39.352L38.704 162.832L38.056 168.256ZM49.2747 157.408C49.8507 157.408 50.3467 157.616 50.7627 158.032C51.1787 158.448 51.3867 158.944 51.3867 159.52V165.112C51.3867 165.576 51.2427 165.992 50.9547 166.36C50.6827 166.728 50.3387 166.984 49.9227 167.128L52.8027 175H50.3547L47.6187 167.224H47.0427V175H44.7627V157.408H49.2747ZM47.0427 159.616V165.016H48.5547C48.7147 165.016 48.8427 164.968 48.9387 164.872C49.0507 164.76 49.1067 164.624 49.1067 164.464V160.168C49.1067 160.008 49.0507 159.88 48.9387 159.784C48.8427 159.672 48.7147 159.616 48.5547 159.616H47.0427ZM56.8039 172.24C56.8039 172.4 56.8519 172.536 56.9479 172.648C57.0599 172.744 57.1959 172.792 57.3559 172.792H58.3159C58.4759 172.792 58.6039 172.744 58.6999 172.648C58.8119 172.536 58.8679 172.4 58.8679 172.24V167.8H61.0999V172.888C61.0999 173.464 60.8919 173.96 60.4759 174.376C60.0599 174.792 59.5639 175 58.9879 175H56.6359C56.0599 175 55.5639 174.792 55.1479 174.376C54.7319 173.96 54.5239 173.464 54.5239 172.888V159.52C54.5239 158.944 54.7319 158.448 55.1479 158.032C55.5639 157.616 56.0599 157.408 56.6359 157.408H58.9879C59.5639 157.408 60.0599 157.616 60.4759 158.032C60.8919 158.448 61.0999 158.944 61.0999 159.52V164.608H58.8679V160.168C58.8679 160.008 58.8119 159.88 58.6999 159.784C58.6039 159.672 58.4759 159.616 58.3159 159.616H57.3559C57.1959 159.616 57.0599 159.672 56.9479 159.784C56.8519 159.88 56.8039 160.008 56.8039 160.168V172.24ZM66.1394 175C65.5634 175 65.0674 174.792 64.6514 174.376C64.2354 173.96 64.0274 173.464 64.0274 172.888V159.52C64.0274 158.944 64.2354 158.448 64.6514 158.032C65.0674 157.616 65.5634 157.408 66.1394 157.408H68.5394C69.1154 157.408 69.6114 157.616 70.0274 158.032C70.4434 158.448 70.6514 158.944 70.6514 159.52V172.888C70.6514 173.464 70.4434 173.96 70.0274 174.376C69.6114 174.792 69.1154 175 68.5394 175H66.1394ZM66.3074 172.24C66.3074 172.4 66.3554 172.536 66.4514 172.648C66.5634 172.744 66.6994 172.792 66.8594 172.792H67.8194C67.9794 172.792 68.1074 172.744 68.2034 172.648C68.3154 172.536 68.3714 172.4 68.3714 172.24V160.168C68.3714 160.008 68.3154 159.88 68.2034 159.784C68.1074 159.672 67.9794 159.616 67.8194 159.616H66.8594C66.6994 159.616 66.5634 159.672 66.4514 159.784C66.3554 159.88 66.3074 160.008 66.3074 160.168V172.24ZM72.625 157.408H78.649V159.688H76.777V175H74.497V159.688H72.625V157.408ZM83.2518 175H80.9718V157.408H83.2518V175ZM88.513 172.24C88.513 172.4 88.561 172.536 88.657 172.648C88.769 172.744 88.905 172.792 89.065 172.792H90.025C90.185 172.792 90.313 172.744 90.409 172.648C90.521 172.536 90.577 172.4 90.577 172.24V167.8H92.809V172.888C92.809 173.464 92.601 173.96 92.185 174.376C91.769 174.792 91.273 175 90.697 175H88.345C87.769 175 87.273 174.792 86.857 174.376C86.441 173.96 86.233 173.464 86.233 172.888V159.52C86.233 158.944 86.441 158.448 86.857 158.032C87.273 157.616 87.769 157.408 88.345 157.408H90.697C91.273 157.408 91.769 157.616 92.185 158.032C92.601 158.448 92.809 158.944 92.809 159.52V164.608H90.577V160.168C90.577 160.008 90.521 159.88 90.409 159.784C90.313 159.672 90.185 159.616 90.025 159.616H89.065C88.905 159.616 88.769 159.672 88.657 159.784C88.561 159.88 88.513 160.008 88.513 160.168V172.24ZM102.809 167.224V175H100.529V157.408H105.041C105.617 157.408 106.113 157.616 106.529 158.032C106.945 158.448 107.153 158.944 107.153 159.52V165.112C107.153 165.688 106.945 166.184 106.529 166.6C106.113 167.016 105.617 167.224 105.041 167.224H102.809ZM102.809 159.616V165.016H104.321C104.481 165.016 104.609 164.968 104.705 164.872C104.817 164.76 104.873 164.624 104.873 164.464V160.168C104.873 160.008 104.817 159.88 104.705 159.784C104.609 159.672 104.481 159.616 104.321 159.616H102.809ZM114.357 157.408C114.933 157.408 115.429 157.616 115.845 158.032C116.261 158.448 116.469 158.944 116.469 159.52V165.112C116.469 165.576 116.325 165.992 116.037 166.36C115.765 166.728 115.421 166.984 115.005 167.128L117.885 175H115.437L112.701 167.224H112.125V175H109.845V157.408H114.357ZM112.125 159.616V165.016H113.637C113.797 165.016 113.925 164.968 114.021 164.872C114.133 164.76 114.189 164.624 114.189 164.464V160.168C114.189 160.008 114.133 159.88 114.021 159.784C113.925 159.672 113.797 159.616 113.637 159.616H112.125ZM121.718 175C121.142 175 120.646 174.792 120.23 174.376C119.814 173.96 119.606 173.464 119.606 172.888V159.52C119.606 158.944 119.814 158.448 120.23 158.032C120.646 157.616 121.142 157.408 121.718 157.408H124.118C124.694 157.408 125.19 157.616 125.606 158.032C126.022 158.448 126.23 158.944 126.23 159.52V172.888C126.23 173.464 126.022 173.96 125.606 174.376C125.19 174.792 124.694 175 124.118 175H121.718ZM121.886 172.24C121.886 172.4 121.934 172.536 122.03 172.648C122.142 172.744 122.278 172.792 122.438 172.792H123.398C123.558 172.792 123.686 172.744 123.782 172.648C123.894 172.536 123.95 172.4 123.95 172.24V160.168C123.95 160.008 123.894 159.88 123.782 159.784C123.686 159.672 123.558 159.616 123.398 159.616H122.438C122.278 159.616 122.142 159.672 122.03 159.784C121.934 159.88 121.886 160.008 121.886 160.168V172.24ZM129.203 175V157.408H133.715C134.291 157.408 134.787 157.616 135.203 158.032C135.619 158.448 135.827 158.944 135.827 159.52V172.888C135.827 173.464 135.619 173.96 135.203 174.376C134.787 174.792 134.291 175 133.715 175H129.203ZM131.483 159.616V172.792H132.995C133.155 172.792 133.283 172.744 133.379 172.648C133.491 172.536 133.547 172.4 133.547 172.24V160.168C133.547 160.008 133.491 159.88 133.379 159.784C133.283 159.672 133.155 159.616 132.995 159.616H131.483ZM140.912 175C140.336 175 139.84 174.792 139.424 174.376C139.008 173.96 138.8 173.464 138.8 172.888V157.408H141.08V172.24C141.08 172.4 141.128 172.536 141.224 172.648C141.336 172.744 141.472 172.792 141.632 172.792H142.496C142.656 172.792 142.784 172.744 142.88 172.648C142.992 172.536 143.048 172.4 143.048 172.24V157.408H145.328V172.888C145.328 173.464 145.12 173.96 144.704 174.376C144.288 174.792 143.792 175 143.216 175H140.912ZM150.584 172.24C150.584 172.4 150.632 172.536 150.728 172.648C150.84 172.744 150.976 172.792 151.136 172.792H152.096C152.256 172.792 152.384 172.744 152.48 172.648C152.592 172.536 152.648 172.4 152.648 172.24V167.8H154.88V172.888C154.88 173.464 154.672 173.96 154.256 174.376C153.84 174.792 153.344 175 152.768 175H150.416C149.84 175 149.344 174.792 148.928 174.376C148.512 173.96 148.304 173.464 148.304 172.888V159.52C148.304 158.944 148.512 158.448 148.928 158.032C149.344 157.616 149.84 157.408 150.416 157.408H152.768C153.344 157.408 153.84 157.616 154.256 158.032C154.672 158.448 154.88 158.944 154.88 159.52V164.608H152.648V160.168C152.648 160.008 152.592 159.88 152.48 159.784C152.384 159.672 152.256 159.616 152.096 159.616H151.136C150.976 159.616 150.84 159.672 150.728 159.784C150.632 159.88 150.584 160.008 150.584 160.168V172.24ZM156.808 157.408H162.832V159.688H160.96V175H158.68V159.688H156.808V157.408ZM167.435 175H165.155V157.408H167.435V175ZM172.528 175C171.952 175 171.456 174.792 171.04 174.376C170.624 173.96 170.416 173.464 170.416 172.888V159.52C170.416 158.944 170.624 158.448 171.04 158.032C171.456 157.616 171.952 157.408 172.528 157.408H174.928C175.504 157.408 176 157.616 176.416 158.032C176.832 158.448 177.04 158.944 177.04 159.52V172.888C177.04 173.464 176.832 173.96 176.416 174.376C176 174.792 175.504 175 174.928 175H172.528ZM172.696 172.24C172.696 172.4 172.744 172.536 172.84 172.648C172.952 172.744 173.088 172.792 173.248 172.792H174.208C174.368 172.792 174.496 172.744 174.592 172.648C174.704 172.536 174.76 172.4 174.76 172.24V160.168C174.76 160.008 174.704 159.88 174.592 159.784C174.496 159.672 174.368 159.616 174.208 159.616H173.248C173.088 159.616 172.952 159.672 172.84 159.784C172.744 159.88 172.696 160.008 172.696 160.168V172.24ZM184.429 167.296H184.453L184.357 163.672V157.408H186.517V175H184.477L182.101 165.112H182.077L182.173 168.736V175H180.013V157.408H182.053L184.429 167.296ZM198.174 170.44H196.35L195.822 175H193.638L195.918 157.408H198.678L200.982 175H198.75L198.174 170.44ZM196.614 168.256H197.91L197.262 162.832L196.614 168.256ZM207.736 167.296H207.76L207.664 163.672V157.408H209.824V175H207.784L205.408 165.112H205.384L205.48 168.736V175H203.32V157.408H205.36L207.736 167.296ZM212.8 175V157.408H217.312C217.888 157.408 218.384 157.616 218.8 158.032C219.216 158.448 219.424 158.944 219.424 159.52V172.888C219.424 173.464 219.216 173.96 218.8 174.376C218.384 174.792 217.888 175 217.312 175H212.8ZM215.08 159.616V172.792H216.592C216.752 172.792 216.88 172.744 216.976 172.648C217.088 172.536 217.144 172.4 217.144 172.24V160.168C217.144 160.008 217.088 159.88 216.976 159.784C216.88 159.672 216.752 159.616 216.592 159.616H215.08ZM28.528 201H26.248V183.408H28.528V201ZM31.5093 183.408H33.7893V198.72H36.7893V201H31.5093V183.408ZM38.9971 183.408H41.2771V198.72H44.2771V201H38.9971V183.408ZM46.4849 183.408H51.7649V185.688H48.7649V191.112H51.7649V193.296H48.7649V198.72H51.7649V201H46.4849V183.408ZM57.4711 191.808H60.8311V198.888C60.8311 199.464 60.6231 199.96 60.2071 200.376C59.7911 200.792 59.2951 201 58.7191 201H56.3191C55.7431 201 55.2471 200.792 54.8311 200.376C54.4151 199.96 54.2071 199.464 54.2071 198.888V185.52C54.2071 184.944 54.4151 184.448 54.8311 184.032C55.2471 183.616 55.7431 183.408 56.3191 183.408H58.6711C59.2471 183.408 59.7431 183.616 60.1591 184.032C60.5751 184.448 60.7831 184.944 60.7831 185.52V189.888H58.5511V186.168C58.5511 186.008 58.4951 185.88 58.3831 185.784C58.2871 185.672 58.1591 185.616 57.9991 185.616H57.0391C56.8791 185.616 56.7431 185.672 56.6311 185.784C56.5351 185.88 56.4871 186.008 56.4871 186.168V198.24C56.4871 198.4 56.5351 198.536 56.6311 198.648C56.7431 198.744 56.8791 198.792 57.0391 198.792H57.9991C58.1591 198.792 58.2871 198.744 58.3831 198.648C58.4951 198.536 58.5511 198.4 58.5511 198.24V193.992H57.4711V191.808ZM67.411 196.44H65.587L65.059 201H62.875L65.155 183.408H67.915L70.219 201H67.987L67.411 196.44ZM65.851 194.256H67.147L66.499 188.832L65.851 194.256ZM72.5577 183.408H74.8377V198.72H77.8377V201H72.5577V183.408ZM87.118 198.24C87.118 198.4 87.166 198.536 87.262 198.648C87.374 198.744 87.51 198.792 87.67 198.792H88.63C88.79 198.792 88.918 198.744 89.014 198.648C89.126 198.536 89.182 198.4 89.182 198.24V193.8H91.414V198.888C91.414 199.464 91.206 199.96 90.79 200.376C90.374 200.792 89.878 201 89.302 201H86.95C86.374 201 85.878 200.792 85.462 200.376C85.046 199.96 84.838 199.464 84.838 198.888V185.52C84.838 184.944 85.046 184.448 85.462 184.032C85.878 183.616 86.374 183.408 86.95 183.408H89.302C89.878 183.408 90.374 183.616 90.79 184.032C91.206 184.448 91.414 184.944 91.414 185.52V190.608H89.182V186.168C89.182 186.008 89.126 185.88 89.014 185.784C88.918 185.672 88.79 185.616 88.63 185.616H87.67C87.51 185.616 87.374 185.672 87.262 185.784C87.166 185.88 87.118 186.008 87.118 186.168V198.24ZM97.1551 190.128L99.0511 183.408H101.307L98.2591 193.416V201H95.9791V193.416L92.9551 183.408H95.1871L97.1551 190.128ZM109.67 198.888C109.67 199.464 109.462 199.96 109.046 200.376C108.63 200.792 108.134 201 107.558 201H103.118V183.408H107.558C108.134 183.408 108.63 183.616 109.046 184.032C109.462 184.448 109.67 184.944 109.67 185.52V190.608C109.67 190.928 109.63 191.192 109.55 191.4C109.486 191.608 109.398 191.776 109.286 191.904C109.19 192.016 109.086 192.096 108.974 192.144C108.862 192.192 108.758 192.216 108.662 192.216C108.758 192.232 108.862 192.264 108.974 192.312C109.086 192.36 109.19 192.448 109.286 192.576C109.398 192.688 109.486 192.848 109.55 193.056C109.63 193.248 109.67 193.504 109.67 193.824V198.888ZM105.398 185.616V191.112H106.838C106.998 191.112 107.126 191.064 107.222 190.968C107.334 190.856 107.39 190.72 107.39 190.56V186.168C107.39 186.008 107.334 185.88 107.222 185.784C107.126 185.672 106.998 185.616 106.838 185.616H105.398ZM105.398 193.296V198.792H106.838C106.998 198.792 107.126 198.744 107.222 198.648C107.334 198.536 107.39 198.4 107.39 198.24V193.848C107.39 193.688 107.334 193.56 107.222 193.464C107.126 193.352 106.998 193.296 106.838 193.296H105.398ZM112.481 183.408H117.761V185.688H114.761V191.112H117.761V193.296H114.761V198.72H117.761V201H112.481V183.408ZM124.715 183.408C125.291 183.408 125.787 183.616 126.203 184.032C126.619 184.448 126.827 184.944 126.827 185.52V191.112C126.827 191.576 126.683 191.992 126.395 192.36C126.123 192.728 125.779 192.984 125.363 193.128L128.243 201H125.795L123.059 193.224H122.483V201H120.203V183.408H124.715ZM122.483 185.616V191.016H123.995C124.155 191.016 124.283 190.968 124.379 190.872C124.491 190.76 124.547 190.624 124.547 190.464V186.168C124.547 186.008 124.491 185.88 124.379 185.784C124.283 185.672 124.155 185.616 123.995 185.616H122.483ZM134.381 193.296H134.405L134.309 189.672V183.408H136.469V201H134.429L132.053 191.112H132.029L132.125 194.736V201H129.965V183.408H132.005L134.381 193.296ZM139.445 183.408H144.725V185.688H141.725V191.112H144.725V193.296H141.725V198.72H144.725V201H139.445V183.408ZM146.519 183.408H152.543V185.688H150.671V201H148.391V185.688H146.519V183.408ZM157.145 201H154.865V183.408H157.145V201ZM162.407 198.24C162.407 198.4 162.455 198.536 162.551 198.648C162.663 198.744 162.799 198.792 162.959 198.792H163.919C164.079 198.792 164.207 198.744 164.303 198.648C164.415 198.536 164.471 198.4 164.471 198.24V193.8H166.703V198.888C166.703 199.464 166.495 199.96 166.079 200.376C165.663 200.792 165.167 201 164.591 201H162.239C161.663 201 161.167 200.792 160.751 200.376C160.335 199.96 160.127 199.464 160.127 198.888V185.52C160.127 184.944 160.335 184.448 160.751 184.032C161.167 183.616 161.663 183.408 162.239 183.408H164.591C165.167 183.408 165.663 183.616 166.079 184.032C166.495 184.448 166.703 184.944 166.703 185.52V190.608H164.471V186.168C164.471 186.008 164.415 185.88 164.303 185.784C164.207 185.672 164.079 185.616 163.919 185.616H162.959C162.799 185.616 162.663 185.672 162.551 185.784C162.455 185.88 162.407 186.008 162.407 186.168V198.24ZM171.742 193.296C171.166 193.296 170.67 193.088 170.254 192.672C169.838 192.256 169.63 191.76 169.63 191.184V185.52C169.63 184.944 169.838 184.448 170.254 184.032C170.67 183.616 171.166 183.408 171.742 183.408H174.142C174.718 183.408 175.214 183.616 175.63 184.032C176.046 184.448 176.254 184.944 176.254 185.52V189.624H173.974V186.168C173.974 186.008 173.918 185.88 173.806 185.784C173.71 185.672 173.582 185.616 173.422 185.616H172.462C172.302 185.616 172.166 185.672 172.054 185.784C171.958 185.88 171.91 186.008 171.91 186.168V190.584C171.91 190.744 171.958 190.88 172.054 190.992C172.166 191.088 172.302 191.136 172.462 191.136H174.142C174.718 191.136 175.214 191.344 175.63 191.76C176.046 192.176 176.254 192.672 176.254 193.248V198.888C176.254 199.464 176.046 199.96 175.63 200.376C175.214 200.792 174.718 201 174.142 201H171.742C171.166 201 170.67 200.792 170.254 200.376C169.838 199.96 169.63 199.464 169.63 198.888V194.736H171.91V198.24C171.91 198.4 171.958 198.536 172.054 198.648C172.166 198.744 172.302 198.792 172.462 198.792H173.422C173.582 198.792 173.71 198.744 173.806 198.648C173.918 198.536 173.974 198.4 173.974 198.24V193.848C173.974 193.688 173.918 193.56 173.806 193.464C173.71 193.352 173.582 193.296 173.422 193.296H171.742ZM180.979 201H178.699V198.48H180.979V201Z" fill="white"/>
<path d="M335.322 57.5791C335.285 57.689 335.261 57.7866 335.224 57.8721C334.907 58.6899 334.345 59.3247 333.527 59.7764C332.709 60.228 331.525 60.4478 329.951 60.4478C327.106 60.4478 325.349 59.5688 324.677 57.7988C324.445 57.2861 324.323 56.5415 324.323 55.5527C324.323 54.564 324.445 53.8071 324.677 53.2944C325.349 51.5488 327.106 50.6699 329.951 50.6699C331.513 50.6699 332.697 50.9019 333.503 51.3657C334.321 51.8174 334.895 52.4644 335.224 53.2944C335.236 53.3677 335.261 53.4409 335.297 53.5264H340.681C340.546 52.7451 340.351 52.0615 340.119 51.4756C339.35 49.5347 337.897 48.1919 336.005 47.5205C334.138 46.8491 332.282 46.6172 329.951 46.6538C327.619 46.6172 325.751 46.8491 323.859 47.5205C321.992 48.1919 320.539 49.5347 319.77 51.4756C319.306 52.5742 319.074 53.9292 319.074 55.5527C319.074 57.1763 319.306 58.5312 319.77 59.6299C320.551 61.5464 321.992 62.9014 323.859 63.585C325.751 64.2686 327.619 64.4761 329.951 64.4761C331.135 64.4761 332.197 64.415 333.161 64.293C334.125 64.1831 335.078 63.9512 336.018 63.6216C337.922 62.9502 339.35 61.644 340.119 59.7031C340.375 59.105 340.571 58.397 340.681 57.5791H335.322ZM358.082 47.1299V53.5264H348.707V47.1299H343.628V64H348.707V57.5791H358.082V64H363.135V47.1299H358.082ZM373.578 47.1299L365.302 64H370.954L371.955 61.9736H380.878L381.879 64H387.506L379.23 47.1299H373.578ZM373.908 57.9209L376.41 52.8794L378.852 57.9209H373.908ZM402.917 64H408.545L405.859 58.4946C406.177 58.2871 406.47 58.0308 406.738 57.75C407.324 57.1763 407.776 56.5171 408.093 55.7725C408.728 54.2466 408.728 52.4521 408.093 50.9263C407.458 49.4248 406.262 48.2407 404.761 47.606C403.992 47.2886 403.186 47.1299 402.344 47.1299H389.685V64H394.763V59.5811H400.745L402.917 64ZM394.763 51.1704H401.318C401.917 51.1704 402.417 51.3901 402.844 51.8174C403.271 52.2446 403.491 52.7573 403.491 53.3555C403.491 53.9536 403.284 54.4663 402.856 54.8936C402.429 55.3208 401.917 55.5283 401.318 55.5283H394.763V51.1704ZM418.365 47.1299L410.089 64H415.741L416.742 61.9736H425.665L426.666 64H432.293L424.017 47.1299H418.365ZM418.695 57.9209L421.197 52.8794L423.639 57.9209H418.695ZM449.243 57.5791C449.206 57.689 449.182 57.7866 449.145 57.8721C448.828 58.6899 448.266 59.3247 447.448 59.7764C446.63 60.228 445.446 60.4478 443.872 60.4478C441.027 60.4478 439.27 59.5688 438.598 57.7988C438.366 57.2861 438.244 56.5415 438.244 55.5527C438.244 54.564 438.366 53.8071 438.598 53.2944C439.27 51.5488 441.027 50.6699 443.872 50.6699C445.434 50.6699 446.618 50.9019 447.424 51.3657C448.242 51.8174 448.815 52.4644 449.145 53.2944C449.157 53.3677 449.182 53.4409 449.218 53.5264H454.602C454.467 52.7451 454.272 52.0615 454.04 51.4756C453.271 49.5347 451.818 48.1919 449.926 47.5205C448.059 46.8491 446.203 46.6172 443.872 46.6538C441.54 46.6172 439.672 46.8491 437.78 47.5205C435.913 48.1919 434.46 49.5347 433.691 51.4756C433.227 52.5742 432.995 53.9292 432.995 55.5527C432.995 57.1763 433.227 58.5312 433.691 59.6299C434.472 61.5464 435.913 62.9014 437.78 63.585C439.672 64.2686 441.54 64.4761 443.872 64.4761C445.056 64.4761 446.118 64.415 447.082 64.293C448.046 64.1831 448.999 63.9512 449.938 63.6216C451.843 62.9502 453.271 61.644 454.04 59.7031C454.296 59.105 454.492 58.397 454.602 57.5791H449.243ZM474.883 47.1299H456.304V51.1704H463.055V64H468.133V51.1704H474.883V47.1299ZM494.579 51.1704V47.1299H477.331V64H494.579V59.9473H482.409V57.5791H493.59V53.5264H482.409V51.1704H494.579ZM511.174 64H516.802L514.116 58.4946C514.434 58.2871 514.727 58.0308 514.995 57.75C515.581 57.1763 516.033 56.5171 516.35 55.7725C516.985 54.2466 516.985 52.4521 516.35 50.9263C515.715 49.4248 514.519 48.2407 513.018 47.606C512.249 47.2886 511.443 47.1299 510.601 47.1299H497.942V64H503.02V59.5811H509.001L511.174 64ZM503.02 51.1704H509.575C510.173 51.1704 510.674 51.3901 511.101 51.8174C511.528 52.2446 511.748 52.7573 511.748 53.3555C511.748 53.9536 511.541 54.4663 511.113 54.8936C510.686 55.3208 510.173 55.5283 509.575 55.5283H503.02V51.1704ZM524.974 64V47.1299H519.896V64H524.974ZM548.125 52.0981C548.112 51.3535 547.966 50.6699 547.697 50.0718C547.294 49.1562 546.623 48.4238 545.671 47.8745C544.218 47.0322 541.728 46.605 538.2 46.605H538.09C534.562 46.605 532.072 47.0322 530.62 47.8745C529.667 48.4238 528.996 49.1562 528.593 50.0718C528.312 50.7065 528.166 51.4512 528.166 52.3179C528.166 53.1724 528.312 53.8804 528.618 54.4541C529.155 55.4795 530.058 56.2363 531.071 56.688C531.584 56.9199 532.231 57.0908 533 57.2251C533.781 57.3594 534.55 57.4448 535.307 57.5059C536.064 57.5547 537.004 57.5913 538.115 57.6279L541.167 57.7988C541.606 57.8354 541.826 57.8843 542.204 58.0308C542.595 58.165 542.814 58.4214 542.851 58.8242C542.9 59.52 542.399 59.9961 541.35 60.228C540.666 60.3745 539.616 60.4478 538.2 60.4478H538.09C536.625 60.4478 535.551 60.3745 534.868 60.228C534.355 60.1182 533.977 59.9351 533.745 59.7031C533.525 59.4956 533.415 59.1416 533.415 58.6289V58.519H528.166V58.9463C528.178 59.7153 528.325 60.3867 528.593 60.9727C528.996 61.9004 529.667 62.645 530.62 63.1943C532.072 64.0366 534.562 64.4517 538.09 64.4517H538.2C541.667 64.4395 544.145 64.0122 545.646 63.1455C546.599 62.5962 547.27 61.8638 547.673 60.9482C547.954 60.3013 548.1 59.5444 548.1 58.7021C548.1 57.8599 547.954 57.1519 547.648 56.5781C547.111 55.5039 546.196 54.7837 545.183 54.3442C544.682 54.1123 544.035 53.9414 543.254 53.8071C542.485 53.6729 541.716 53.5752 540.947 53.5142C540.19 53.4531 539.25 53.4165 538.115 53.4043L535.124 53.2212C534.685 53.1602 534.489 53.1235 534.086 53.0137C533.696 52.9038 533.476 52.6475 533.415 52.269C533.317 51.5732 533.769 51.1094 534.77 50.853C535.441 50.6943 536.491 50.6089 537.944 50.5967H538.176C539.641 50.6089 540.715 50.6821 541.398 50.8286C541.923 50.9385 542.314 51.1216 542.546 51.3535C542.766 51.5488 542.875 51.915 542.875 52.4521V52.5254H548.125V52.0981ZM568.663 47.1299H550.083V51.1704H556.834V64H561.912V51.1704H568.663V47.1299ZM576.188 64V47.1299H571.11V64H576.188ZM595.481 57.5791C595.444 57.689 595.42 57.7866 595.383 57.8721C595.066 58.6899 594.504 59.3247 593.687 59.7764C592.869 60.228 591.685 60.4478 590.11 60.4478C587.266 60.4478 585.508 59.5688 584.836 57.7988C584.604 57.2861 584.482 56.5415 584.482 55.5527C584.482 54.564 584.604 53.8071 584.836 53.2944C585.508 51.5488 587.266 50.6699 590.11 50.6699C591.672 50.6699 592.856 50.9019 593.662 51.3657C594.48 51.8174 595.054 52.4644 595.383 53.2944C595.396 53.3677 595.42 53.4409 595.457 53.5264H600.84C600.706 52.7451 600.51 52.0615 600.278 51.4756C599.509 49.5347 598.057 48.1919 596.165 47.5205C594.297 46.8491 592.441 46.6172 590.11 46.6538C587.778 46.6172 585.911 46.8491 584.019 47.5205C582.151 48.1919 580.698 49.5347 579.929 51.4756C579.465 52.5742 579.233 53.9292 579.233 55.5527C579.233 57.1763 579.465 58.5312 579.929 59.6299C580.71 61.5464 582.151 62.9014 584.019 63.585C585.911 64.2686 587.778 64.4761 590.11 64.4761C591.294 64.4761 592.356 64.415 593.32 64.293C594.285 64.1831 595.237 63.9512 596.177 63.6216C598.081 62.9502 599.509 61.644 600.278 59.7031C600.535 59.105 600.73 58.397 600.84 57.5791H595.481Z" fill="white"/>
<path d="M329.84 101.34H331.72L329.42 116H328.02L326.62 108.82L325.14 116H323.8L321.5 101.34H323.42L324.76 110.28L326.16 103.26H327.04L328.5 110.28L329.84 101.34ZM333.451 101.34H337.851V103.24H335.351V107.76H337.851V109.58H335.351V114.1H337.851V116H333.451V101.34ZM342.926 112.2H341.406L340.966 116H339.146L341.046 101.34H343.346L345.266 116H343.406L342.926 112.2ZM341.626 110.38H342.706L342.166 105.86L341.626 110.38ZM348.915 109.52V116H347.015V101.34H350.775C351.255 101.34 351.668 101.513 352.015 101.86C352.362 102.207 352.535 102.62 352.535 103.1V107.76C352.535 108.24 352.362 108.653 352.015 109C351.668 109.347 351.255 109.52 350.775 109.52H348.915ZM348.915 103.18V107.68H350.175C350.308 107.68 350.415 107.64 350.495 107.56C350.588 107.467 350.635 107.353 350.635 107.22V103.64C350.635 103.507 350.588 103.4 350.495 103.32C350.415 103.227 350.308 103.18 350.175 103.18H348.915ZM356.338 116C355.858 116 355.445 115.827 355.098 115.48C354.752 115.133 354.578 114.72 354.578 114.24V103.1C354.578 102.62 354.752 102.207 355.098 101.86C355.445 101.513 355.858 101.34 356.338 101.34H358.338C358.818 101.34 359.232 101.513 359.578 101.86C359.925 102.207 360.098 102.62 360.098 103.1V114.24C360.098 114.72 359.925 115.133 359.578 115.48C359.232 115.827 358.818 116 358.338 116H356.338ZM356.478 113.7C356.478 113.833 356.518 113.947 356.598 114.04C356.692 114.12 356.805 114.16 356.938 114.16H357.738C357.872 114.16 357.978 114.12 358.058 114.04C358.152 113.947 358.198 113.833 358.198 113.7V103.64C358.198 103.507 358.152 103.4 358.058 103.32C357.978 103.227 357.872 103.18 357.738 103.18H356.938C356.805 103.18 356.692 103.227 356.598 103.32C356.518 103.4 356.478 103.507 356.478 103.64V113.7ZM366.056 109.58H366.076L365.996 106.56V101.34H367.796V116H366.096L364.116 107.76H364.096L364.176 110.78V116H362.376V101.34H364.076L366.056 109.58Z" fill="white"/>
<path d="M322.04 131.34H326.44V133.24H323.94V137.76H326.44V139.58H323.94V146H322.04V131.34ZM331.085 142.2H329.565L329.125 146H327.305L329.205 131.34H331.505L333.425 146H331.565L331.085 142.2ZM329.785 140.38H330.865L330.325 135.86L329.785 140.38ZM336.84 143.7C336.84 143.833 336.88 143.947 336.96 144.04C337.053 144.12 337.167 144.16 337.3 144.16H338.1C338.233 144.16 338.34 144.12 338.42 144.04C338.513 143.947 338.56 143.833 338.56 143.7V140H340.42V144.24C340.42 144.72 340.247 145.133 339.9 145.48C339.553 145.827 339.14 146 338.66 146H336.7C336.22 146 335.807 145.827 335.46 145.48C335.113 145.133 334.94 144.72 334.94 144.24V133.1C334.94 132.62 335.113 132.207 335.46 131.86C335.807 131.513 336.22 131.34 336.7 131.34H338.66C339.14 131.34 339.553 131.513 339.9 131.86C340.247 132.207 340.42 132.62 340.42 133.1V137.34H338.56V133.64C338.56 133.507 338.513 133.4 338.42 133.32C338.34 133.227 338.233 133.18 338.1 133.18H337.3C337.167 133.18 337.053 133.227 336.96 133.32C336.88 133.4 336.84 133.507 336.84 133.64V143.7ZM342.66 131.34H347.06V133.24H344.56V137.76H347.06V139.58H344.56V144.1H347.06V146H342.66V131.34ZM354.588 146H352.688V131.34H354.588V146ZM356.333 131.34H361.353V133.24H359.793V146H357.893V133.24H356.333V131.34ZM363.088 131.34H367.488V133.24H364.988V137.76H367.488V139.58H364.988V144.1H367.488V146H363.088V131.34ZM372.904 138.44L374.444 131.34H376.444V146H374.604V140.02L374.684 137.22H374.664L373.384 143.6H372.384L371.104 137.22H371.084L371.164 140.02V146H369.324V131.34H371.324L372.904 138.44Z" fill="white"/>
<path d="M323.94 173.7C323.94 173.833 323.98 173.947 324.06 174.04C324.153 174.12 324.267 174.16 324.4 174.16H325.2C325.333 174.16 325.44 174.12 325.52 174.04C325.613 173.947 325.66 173.833 325.66 173.7V170H327.52V174.24C327.52 174.72 327.347 175.133 327 175.48C326.653 175.827 326.24 176 325.76 176H323.8C323.32 176 322.907 175.827 322.56 175.48C322.213 175.133 322.04 174.72 322.04 174.24V163.1C322.04 162.62 322.213 162.207 322.56 161.86C322.907 161.513 323.32 161.34 323.8 161.34H325.76C326.24 161.34 326.653 161.513 327 161.86C327.347 162.207 327.52 162.62 327.52 163.1V167.34H325.66V163.64C325.66 163.507 325.613 163.4 325.52 163.32C325.44 163.227 325.333 163.18 325.2 163.18H324.4C324.267 163.18 324.153 163.227 324.06 163.32C323.98 163.4 323.94 163.507 323.94 163.64V173.7ZM329.76 161.34H331.66V174.1H334.16V176H329.76V161.34ZM337.364 176C336.884 176 336.471 175.827 336.124 175.48C335.777 175.133 335.604 174.72 335.604 174.24V163.1C335.604 162.62 335.777 162.207 336.124 161.86C336.471 161.513 336.884 161.34 337.364 161.34H339.364C339.844 161.34 340.257 161.513 340.604 161.86C340.951 162.207 341.124 162.62 341.124 163.1V174.24C341.124 174.72 340.951 175.133 340.604 175.48C340.257 175.827 339.844 176 339.364 176H337.364ZM337.504 173.7C337.504 173.833 337.544 173.947 337.624 174.04C337.717 174.12 337.831 174.16 337.964 174.16H338.764C338.897 174.16 339.004 174.12 339.084 174.04C339.177 173.947 339.224 173.833 339.224 173.7V163.64C339.224 163.507 339.177 163.4 339.084 163.32C339.004 163.227 338.897 163.18 338.764 163.18H337.964C337.831 163.18 337.717 163.227 337.624 163.32C337.544 163.4 337.504 163.507 337.504 163.64V173.7ZM342.569 161.34H347.589V163.24H346.029V176H344.129V163.24H342.569V161.34ZM352.784 169.58H351.224V176H349.324V161.34H351.224V167.76H352.784V161.34H354.684V176H352.784V169.58ZM356.966 161.34H361.366V163.24H358.866V167.76H361.366V169.58H358.866V174.1H361.366V176H356.966V161.34ZM364.961 169.58C364.481 169.58 364.068 169.407 363.721 169.06C363.374 168.713 363.201 168.3 363.201 167.82V163.1C363.201 162.62 363.374 162.207 363.721 161.86C364.068 161.513 364.481 161.34 364.961 161.34H366.961C367.441 161.34 367.854 161.513 368.201 161.86C368.548 162.207 368.721 162.62 368.721 163.1V166.52H366.821V163.64C366.821 163.507 366.774 163.4 366.681 163.32C366.601 163.227 366.494 163.18 366.361 163.18H365.561C365.428 163.18 365.314 163.227 365.221 163.32C365.141 163.4 365.101 163.507 365.101 163.64V167.32C365.101 167.453 365.141 167.567 365.221 167.66C365.314 167.74 365.428 167.78 365.561 167.78H366.961C367.441 167.78 367.854 167.953 368.201 168.3C368.548 168.647 368.721 169.06 368.721 169.54V174.24C368.721 174.72 368.548 175.133 368.201 175.48C367.854 175.827 367.441 176 366.961 176H364.961C364.481 176 364.068 175.827 363.721 175.48C363.374 175.133 363.201 174.72 363.201 174.24V170.78H365.101V173.7C365.101 173.833 365.141 173.947 365.221 174.04C365.314 174.12 365.428 174.16 365.561 174.16H366.361C366.494 174.16 366.601 174.12 366.681 174.04C366.774 173.947 366.821 173.833 366.821 173.7V170.04C366.821 169.907 366.774 169.8 366.681 169.72C366.601 169.627 366.494 169.58 366.361 169.58H364.961Z" fill="white"/>
<path d="M325.5 199.58H323.94V206H322.04V191.34H323.94V197.76H325.5V191.34H327.4V206H325.5V199.58ZM332.921 202.2H331.401L330.961 206H329.141L331.041 191.34H333.341L335.261 206H333.401L332.921 202.2ZM331.621 200.38H332.701L332.161 195.86L331.621 200.38ZM335.767 191.34H340.787V193.24H339.227V206H337.327V193.24H335.767V191.34Z" fill="white"/>
<path d="M325.72 259.58H325.74L325.66 256.56V251.34H327.46V266H325.76L323.78 257.76H323.76L323.84 260.78V266H322.04V251.34H323.74L325.72 259.58ZM329.74 251.34H334.14V253.24H331.64V257.76H334.14V259.58H331.64V264.1H334.14V266H329.74V251.34ZM337.875 263.7C337.875 263.833 337.915 263.947 337.995 264.04C338.088 264.12 338.202 264.16 338.335 264.16H339.135C339.268 264.16 339.375 264.12 339.455 264.04C339.548 263.947 339.595 263.833 339.595 263.7V260H341.455V264.24C341.455 264.72 341.282 265.133 340.935 265.48C340.588 265.827 340.175 266 339.695 266H337.735C337.255 266 336.842 265.827 336.495 265.48C336.148 265.133 335.975 264.72 335.975 264.24V253.1C335.975 252.62 336.148 252.207 336.495 251.86C336.842 251.513 337.255 251.34 337.735 251.34H339.695C340.175 251.34 340.588 251.513 340.935 251.86C341.282 252.207 341.455 252.62 341.455 253.1V257.34H339.595V253.64C339.595 253.507 339.548 253.4 339.455 253.32C339.375 253.227 339.268 253.18 339.135 253.18H338.335C338.202 253.18 338.088 253.227 337.995 253.32C337.915 253.4 337.875 253.507 337.875 253.64V263.7ZM347.255 257.02L350.595 266H348.475L345.955 259.06L345.595 259.86V266H343.695V251.34H345.595V256.32L348.255 251.34H350.315L347.255 257.02Z" fill="white"/>
<path d="M325.62 228.44L327.16 221.34H329.16V236H327.32V230.02L327.4 227.22H327.38L326.1 233.6H325.1L323.82 227.22H323.8L323.88 230.02V236H322.04V221.34H324.04L325.62 228.44ZM333.199 236C332.719 236 332.306 235.827 331.959 235.48C331.613 235.133 331.439 234.72 331.439 234.24V223.1C331.439 222.62 331.613 222.207 331.959 221.86C332.306 221.513 332.719 221.34 333.199 221.34H335.199C335.679 221.34 336.093 221.513 336.439 221.86C336.786 222.207 336.959 222.62 336.959 223.1V234.24C336.959 234.72 336.786 235.133 336.439 235.48C336.093 235.827 335.679 236 335.199 236H333.199ZM333.339 233.7C333.339 233.833 333.379 233.947 333.459 234.04C333.553 234.12 333.666 234.16 333.799 234.16H334.599C334.733 234.16 334.839 234.12 334.919 234.04C335.013 233.947 335.059 233.833 335.059 233.7V223.64C335.059 223.507 335.013 223.4 334.919 223.32C334.839 223.227 334.733 223.18 334.599 223.18H333.799C333.666 223.18 333.553 223.227 333.459 223.32C333.379 223.4 333.339 223.507 333.339 223.64V233.7ZM340.997 236C340.517 236 340.104 235.827 339.757 235.48C339.41 235.133 339.237 234.72 339.237 234.24V221.34H341.137V233.7C341.137 233.833 341.177 233.947 341.257 234.04C341.35 234.12 341.464 234.16 341.597 234.16H342.317C342.45 234.16 342.557 234.12 342.637 234.04C342.73 233.947 342.777 233.833 342.777 233.7V221.34H344.677V234.24C344.677 234.72 344.504 235.133 344.157 235.48C343.81 235.827 343.397 236 342.917 236H340.997ZM346.123 221.34H351.143V223.24H349.583V236H347.683V223.24H346.123V221.34ZM356.339 229.58H354.779V236H352.879V221.34H354.779V227.76H356.339V221.34H358.239V236H356.339V229.58Z" fill="white"/>
<path d="M27.8 234.58C27.32 234.58 26.9067 234.407 26.56 234.06C26.2133 233.713 26.04 233.3 26.04 232.82V228.1C26.04 227.62 26.2133 227.207 26.56 226.86C26.9067 226.513 27.32 226.34 27.8 226.34H29.8C30.28 226.34 30.6933 226.513 31.04 226.86C31.3867 227.207 31.56 227.62 31.56 228.1V231.52H29.66V228.64C29.66 228.507 29.6133 228.4 29.52 228.32C29.44 228.227 29.3333 228.18 29.2 228.18H28.4C28.2667 228.18 28.1533 228.227 28.06 228.32C27.98 228.4 27.94 228.507 27.94 228.64V232.32C27.94 232.453 27.98 232.567 28.06 232.66C28.1533 232.74 28.2667 232.78 28.4 232.78H29.8C30.28 232.78 30.6933 232.953 31.04 233.3C31.3867 233.647 31.56 234.06 31.56 234.54V239.24C31.56 239.72 31.3867 240.133 31.04 240.48C30.6933 240.827 30.28 241 29.8 241H27.8C27.32 241 26.9067 240.827 26.56 240.48C26.2133 240.133 26.04 239.72 26.04 239.24V235.78H27.94V238.7C27.94 238.833 27.98 238.947 28.06 239.04C28.1533 239.12 28.2667 239.16 28.4 239.16H29.2C29.3333 239.16 29.44 239.12 29.52 239.04C29.6133 238.947 29.66 238.833 29.66 238.7V235.04C29.66 234.907 29.6133 234.8 29.52 234.72C29.44 234.627 29.3333 234.58 29.2 234.58H27.8ZM33.8377 226.34H38.2377V228.24H35.7377V232.76H38.2377V234.58H35.7377V239.1H38.2377V241H33.8377V226.34ZM45.8328 241H43.8728L42.4328 236.06L40.9728 241H39.0328L41.3928 233.16L39.3328 226.34H41.3128L42.4528 230.56L43.6328 226.34H45.5328L43.4728 233.16L45.8328 241ZM48.5297 241H46.6297V238.9H48.5297V241ZM48.5297 234.72H46.6297V232.62H48.5297V234.72ZM57.7489 233.44L59.2889 226.34H61.2889V241H59.4489V235.02L59.5289 232.22H59.5089L58.2289 238.6H57.2289L55.9489 232.22H55.9289L56.0089 235.02V241H54.1689V226.34H56.1689L57.7489 233.44ZM66.8081 237.2H65.2881L64.8481 241H63.0281L64.9281 226.34H67.2281L69.1481 241H67.2881L66.8081 237.2ZM65.5081 235.38H66.5881L66.0481 230.86L65.5081 235.38ZM70.897 226.34H72.797V239.1H75.297V241H70.897V226.34ZM76.9369 226.34H81.3369V228.24H78.8369V232.76H81.3369V234.58H78.8369V239.1H81.3369V241H76.9369V226.34Z" fill="white"/>
<path d="M29.28 262.2H27.76L27.32 266H25.5L27.4 251.34H29.7L31.62 266H29.76L29.28 262.2ZM27.98 260.38H29.06L28.52 255.86L27.98 260.38ZM35.8545 258.34H38.6545V264.24C38.6545 264.72 38.4812 265.133 38.1345 265.48C37.7879 265.827 37.3745 266 36.8945 266H34.8945C34.4145 266 34.0012 265.827 33.6545 265.48C33.3079 265.133 33.1345 264.72 33.1345 264.24V253.1C33.1345 252.62 33.3079 252.207 33.6545 251.86C34.0012 251.513 34.4145 251.34 34.8945 251.34H36.8545C37.3345 251.34 37.7479 251.513 38.0945 251.86C38.4412 252.207 38.6145 252.62 38.6145 253.1V256.74H36.7545V253.64C36.7545 253.507 36.7079 253.4 36.6145 253.32C36.5345 253.227 36.4279 253.18 36.2945 253.18H35.4945C35.3612 253.18 35.2479 253.227 35.1545 253.32C35.0745 253.4 35.0345 253.507 35.0345 253.64V263.7C35.0345 263.833 35.0745 263.947 35.1545 264.04C35.2479 264.12 35.3612 264.16 35.4945 264.16H36.2945C36.4279 264.16 36.5345 264.12 36.6145 264.04C36.7079 263.947 36.7545 263.833 36.7545 263.7V260.16H35.8545V258.34ZM40.9322 251.34H45.3322V253.24H42.8322V257.76H45.3322V259.58H42.8322V264.1H45.3322V266H40.9322V251.34ZM48.6273 266H46.7273V263.9H48.6273V266ZM48.6273 259.72H46.7273V257.62H48.6273V259.72ZM53.7266 263.08C53.7266 262.693 53.7799 262.333 53.8866 262C53.9932 261.653 54.1266 261.347 54.2866 261.08L57.0266 256.26C57.0799 256.167 57.1199 256.067 57.1466 255.96C57.1732 255.84 57.1866 255.687 57.1866 255.5V253.64C57.1866 253.507 57.1399 253.4 57.0466 253.32C56.9666 253.227 56.8599 253.18 56.7266 253.18H56.0866C55.9532 253.18 55.8399 253.227 55.7466 253.32C55.6666 253.4 55.6266 253.507 55.6266 253.64V255.7H53.7666V253.1C53.7666 252.62 53.9399 252.207 54.2866 251.86C54.6332 251.513 55.0466 251.34 55.5266 251.34H57.3266C57.8066 251.34 58.2199 251.513 58.5666 251.86C58.9132 252.207 59.0866 252.62 59.0866 253.1V255.4C59.0866 255.933 59.0266 256.353 58.9066 256.66C58.7866 256.967 58.6132 257.293 58.3866 257.64L55.8666 261.92C55.7732 262.067 55.7066 262.22 55.6666 262.38C55.6399 262.527 55.6266 262.673 55.6266 262.82V264.1H59.0866V266H53.7266V263.08ZM64.0714 258.94C64.0714 258.807 64.0247 258.7 63.9314 258.62C63.8514 258.527 63.7447 258.48 63.6114 258.48H62.7314C62.3981 258.48 62.2181 258.667 62.1914 259.04H60.5914L60.8914 251.34H65.9514V253.24H62.5714L62.4514 256.74C62.5047 256.713 62.5847 256.693 62.6914 256.68C62.8114 256.653 62.9181 256.64 63.0114 256.64H64.2114C64.6914 256.64 65.1047 256.813 65.4514 257.16C65.7981 257.507 65.9714 257.92 65.9714 258.4V264.24C65.9714 264.72 65.7981 265.133 65.4514 265.48C65.1047 265.827 64.6914 266 64.2114 266H62.2514C61.7714 266 61.3581 265.827 61.0114 265.48C60.6647 265.133 60.4914 264.72 60.4914 264.24V261.62H62.3514V263.7C62.3514 263.833 62.3914 263.947 62.4714 264.04C62.5647 264.12 62.6781 264.16 62.8114 264.16H63.6114C63.7447 264.16 63.8514 264.12 63.9314 264.04C64.0247 263.947 64.0714 263.833 64.0714 263.7V258.94ZM69.7664 266C69.2864 266 68.8731 265.827 68.5264 265.48C68.1797 265.133 68.0064 264.72 68.0064 264.24V253.1C68.0064 252.62 68.1797 252.207 68.5264 251.86C68.8731 251.513 69.2864 251.34 69.7664 251.34H71.7664C72.2464 251.34 72.6597 251.513 73.0064 251.86C73.3531 252.207 73.5264 252.62 73.5264 253.1V264.24C73.5264 264.72 73.3531 265.133 73.0064 265.48C72.6597 265.827 72.2464 266 71.7664 266H69.7664ZM69.9064 263.7C69.9064 263.833 69.9464 263.947 70.0264 264.04C70.1197 264.12 70.2331 264.16 70.3664 264.16H71.1664C71.2997 264.16 71.4064 264.12 71.4864 264.04C71.5797 263.947 71.6264 263.833 71.6264 263.7V253.64C71.6264 253.507 71.5797 253.4 71.4864 253.32C71.4064 253.227 71.2997 253.18 71.1664 253.18H70.3664C70.2331 253.18 70.1197 253.227 70.0264 253.32C69.9464 253.4 69.9064 253.507 69.9064 253.64V263.7Z" fill="white"/>
<path d="M29.8 276.34C30.28 276.34 30.6933 276.513 31.04 276.86C31.3867 277.207 31.56 277.62 31.56 278.1V282.76C31.56 283.147 31.44 283.493 31.2 283.8C30.9733 284.107 30.6867 284.32 30.34 284.44L32.74 291H30.7L28.42 284.52H27.94V291H26.04V276.34H29.8ZM27.94 278.18V282.68H29.2C29.3333 282.68 29.44 282.64 29.52 282.56C29.6133 282.467 29.66 282.353 29.66 282.22V278.64C29.66 278.507 29.6133 278.4 29.52 278.32C29.44 278.227 29.3333 278.18 29.2 278.18H27.94ZM37.2144 287.2H35.6944L35.2544 291H33.4344L35.3344 276.34H37.6344L39.5544 291H37.6944L37.2144 287.2ZM35.9144 285.38H36.9944L36.4544 280.86L35.9144 285.38ZM42.9689 288.7C42.9689 288.833 43.0089 288.947 43.0889 289.04C43.1822 289.12 43.2956 289.16 43.4289 289.16H44.2289C44.3622 289.16 44.4689 289.12 44.5489 289.04C44.6422 288.947 44.6889 288.833 44.6889 288.7V285H46.5489V289.24C46.5489 289.72 46.3756 290.133 46.0289 290.48C45.6822 290.827 45.2689 291 44.7889 291H42.8289C42.3489 291 41.9356 290.827 41.5889 290.48C41.2422 290.133 41.0689 289.72 41.0689 289.24V278.1C41.0689 277.62 41.2422 277.207 41.5889 276.86C41.9356 276.513 42.3489 276.34 42.8289 276.34H44.7889C45.2689 276.34 45.6822 276.513 46.0289 276.86C46.3756 277.207 46.5489 277.62 46.5489 278.1V282.34H44.6889V278.64C44.6889 278.507 44.6422 278.4 44.5489 278.32C44.4689 278.227 44.3622 278.18 44.2289 278.18H43.4289C43.2956 278.18 43.1822 278.227 43.0889 278.32C43.0089 278.4 42.9689 278.507 42.9689 278.64V288.7ZM48.7884 276.34H53.1884V278.24H50.6884V282.76H53.1884V284.58H50.6884V289.1H53.1884V291H48.7884V276.34ZM56.4836 291H54.5836V288.9H56.4836V291ZM56.4836 284.72H54.5836V282.62H56.4836V284.72ZM65.5828 284.58H64.0228V291H62.1228V276.34H64.0228V282.76H65.5828V276.34H67.4828V291H65.5828V284.58ZM71.5242 291C71.0442 291 70.6309 290.827 70.2842 290.48C69.9376 290.133 69.7642 289.72 69.7642 289.24V276.34H71.6642V288.7C71.6642 288.833 71.7042 288.947 71.7842 289.04C71.8776 289.12 71.9909 289.16 72.1242 289.16H72.8442C72.9776 289.16 73.0842 289.12 73.1642 289.04C73.2576 288.947 73.3042 288.833 73.3042 288.7V276.34H75.2042V289.24C75.2042 289.72 75.0309 290.133 74.6842 290.48C74.3376 290.827 73.9242 291 73.4442 291H71.5242ZM81.0637 283.44L82.6037 276.34H84.6037V291H82.7637V285.02L82.8437 282.22H82.8237L81.5437 288.6H80.5437L79.2637 282.22H79.2437L79.3237 285.02V291H77.4837V276.34H79.4837L81.0637 283.44ZM90.123 287.2H88.603L88.163 291H86.343L88.243 276.34H90.543L92.463 291H90.603L90.123 287.2ZM88.823 285.38H89.903L89.363 280.86L88.823 285.38ZM97.8919 284.58H97.9119L97.8319 281.56V276.34H99.6319V291H97.9319L95.9519 282.76H95.9319L96.0119 285.78V291H94.2119V276.34H95.9119L97.8919 284.58Z" fill="white"/>
<path d="M319.5 296.34H324.52V298.24H322.96V311H321.06V298.24H319.5V296.34ZM327.723 311C327.243 311 326.829 310.827 326.483 310.48C326.136 310.133 325.963 309.72 325.963 309.24V298.1C325.963 297.62 326.136 297.207 326.483 296.86C326.829 296.513 327.243 296.34 327.723 296.34H329.723C330.203 296.34 330.616 296.513 330.963 296.86C331.309 297.207 331.483 297.62 331.483 298.1V309.24C331.483 309.72 331.309 310.133 330.963 310.48C330.616 310.827 330.203 311 329.723 311H327.723ZM327.863 308.7C327.863 308.833 327.903 308.947 327.983 309.04C328.076 309.12 328.189 309.16 328.323 309.16H329.123C329.256 309.16 329.363 309.12 329.443 309.04C329.536 308.947 329.583 308.833 329.583 308.7V298.64C329.583 298.507 329.536 298.4 329.443 298.32C329.363 298.227 329.256 298.18 329.123 298.18H328.323C328.189 298.18 328.076 298.227 327.983 298.32C327.903 298.4 327.863 298.507 327.863 298.64V308.7ZM332.927 296.34H337.947V298.24H336.387V311H334.487V298.24H332.927V296.34ZM342.22 307.2H340.7L340.26 311H338.44L340.34 296.34H342.64L344.56 311H342.7L342.22 307.2ZM340.92 305.38H342L341.46 300.86L340.92 305.38ZM346.309 296.34H348.209V309.1H350.709V311H346.309V296.34ZM358.042 311H356.142V296.34H358.042V311ZM359.787 296.34H364.807V298.24H363.247V311H361.347V298.24H359.787V296.34ZM366.542 296.34H370.942V298.24H368.442V302.76H370.942V304.58H368.442V309.1H370.942V311H366.542V296.34ZM376.357 303.44L377.897 296.34H379.897V311H378.057V305.02L378.137 302.22H378.117L376.837 308.6H375.837L374.557 302.22H374.537L374.617 305.02V311H372.777V296.34H374.777L376.357 303.44Z" fill="white"/>
<path d="M401 109H530" stroke="#70FF00" stroke-width="10" stroke-linecap="square"/>
<path d="M400 139H432" stroke="#70FF00" stroke-width="10" stroke-linecap="square"/>
<path d="M400 169H489" stroke="#70FF00" stroke-width="10" stroke-linecap="square"/>
<path d="M400 199H489" stroke="#70FF00" stroke-width="10" stroke-linecap="square"/>
<path d="M400 229H432" stroke="#70FF00" stroke-width="10" stroke-linecap="square"/>
<path d="M400 259H416" stroke="#70FF00" stroke-width="10" stroke-linecap="square"/>
<rect x="575" y="246" width="25" height="25" rx="2" fill="#434343"/>
<rect x="575" y="126" width="25" height="25" rx="2" fill="#434343"/>
<rect x="575" y="216" width="25" height="25" rx="2" fill="#434343"/>
<rect x="575" y="186" width="25" height="25" rx="2" fill="#434343"/>
<rect x="575" y="156" width="25" height="25" rx="2" fill="#434343"/>
<rect x="575" y="96" width="25" height="25" rx="2" fill="#434343"/>
<path d="M584.46 262.36L587.76 251.34H589.58V262H590.38V263.8H589.58V266H587.84V263.8H584.46V262.36ZM587.84 262V256.36L586.28 262H587.84Z" fill="white"/>
<path d="M588.18 138.94C588.18 138.807 588.133 138.7 588.04 138.62C587.96 138.527 587.853 138.48 587.72 138.48H586.84C586.507 138.48 586.327 138.667 586.3 139.04H584.7L585 131.34H590.06V133.24H586.68L586.56 136.74C586.613 136.713 586.693 136.693 586.8 136.68C586.92 136.653 587.027 136.64 587.12 136.64H588.32C588.8 136.64 589.213 136.813 589.56 137.16C589.907 137.507 590.08 137.92 590.08 138.4V144.24C590.08 144.72 589.907 145.133 589.56 145.48C589.213 145.827 588.8 146 588.32 146H586.36C585.88 146 585.467 145.827 585.12 145.48C584.773 145.133 584.6 144.72 584.6 144.24V141.62H586.46V143.7C586.46 143.833 586.5 143.947 586.58 144.04C586.673 144.12 586.787 144.16 586.92 144.16H587.72C587.853 144.16 587.96 144.12 588.04 144.04C588.133 143.947 588.18 143.833 588.18 143.7V138.94Z" fill="white"/>
<path d="M588.18 228.94C588.18 228.807 588.133 228.7 588.04 228.62C587.96 228.527 587.853 228.48 587.72 228.48H586.84C586.507 228.48 586.327 228.667 586.3 229.04H584.7L585 221.34H590.06V223.24H586.68L586.56 226.74C586.613 226.713 586.693 226.693 586.8 226.68C586.92 226.653 587.027 226.64 587.12 226.64H588.32C588.8 226.64 589.213 226.813 589.56 227.16C589.907 227.507 590.08 227.92 590.08 228.4V234.24C590.08 234.72 589.907 235.133 589.56 235.48C589.213 235.827 588.8 236 588.32 236H586.36C585.88 236 585.467 235.827 585.12 235.48C584.773 235.133 584.6 234.72 584.6 234.24V231.62H586.46V233.7C586.46 233.833 586.5 233.947 586.58 234.04C586.673 234.12 586.787 234.16 586.92 234.16H587.72C587.853 234.16 587.96 234.12 588.04 234.04C588.133 233.947 588.18 233.833 588.18 233.7V228.94Z" fill="white"/>
<path d="M588.52 199.78H586.66C586.18 199.78 585.767 199.607 585.42 199.26C585.073 198.913 584.9 198.5 584.9 198.02V193.1C584.9 192.62 585.073 192.207 585.42 191.86C585.767 191.513 586.18 191.34 586.66 191.34H588.66C589.14 191.34 589.553 191.513 589.9 191.86C590.247 192.207 590.42 192.62 590.42 193.1V204.24C590.42 204.72 590.247 205.133 589.9 205.48C589.553 205.827 589.14 206 588.66 206H586.7C586.22 206 585.807 205.827 585.46 205.48C585.113 205.133 584.94 204.72 584.94 204.24V201.62H586.8V203.7C586.8 203.833 586.84 203.947 586.92 204.04C587.013 204.12 587.127 204.16 587.26 204.16H588.06C588.193 204.16 588.3 204.12 588.38 204.04C588.473 203.947 588.52 203.833 588.52 203.7V199.78ZM586.8 197.5C586.8 197.633 586.84 197.747 586.92 197.84C587.013 197.92 587.127 197.96 587.26 197.96H588.52V193.64C588.52 193.507 588.473 193.4 588.38 193.32C588.3 193.227 588.193 193.18 588.06 193.18H587.26C587.127 193.18 587.013 193.227 586.92 193.32C586.84 193.4 586.8 193.507 586.8 193.64V197.5Z" fill="white"/>
<path d="M587.52 169.78H585.66C585.18 169.78 584.767 169.607 584.42 169.26C584.073 168.913 583.9 168.5 583.9 168.02V163.1C583.9 162.62 584.073 162.207 584.42 161.86C584.767 161.513 585.18 161.34 585.66 161.34H587.66C588.14 161.34 588.553 161.513 588.9 161.86C589.247 162.207 589.42 162.62 589.42 163.1V174.24C589.42 174.72 589.247 175.133 588.9 175.48C588.553 175.827 588.14 176 587.66 176H585.7C585.22 176 584.807 175.827 584.46 175.48C584.113 175.133 583.94 174.72 583.94 174.24V171.62H585.8V173.7C585.8 173.833 585.84 173.947 585.92 174.04C586.013 174.12 586.127 174.16 586.26 174.16H587.06C587.193 174.16 587.3 174.12 587.38 174.04C587.473 173.947 587.52 173.833 587.52 173.7V169.78ZM585.8 167.5C585.8 167.633 585.84 167.747 585.92 167.84C586.013 167.92 586.127 167.96 586.26 167.96H587.52V163.64C587.52 163.507 587.473 163.4 587.38 163.32C587.3 163.227 587.193 163.18 587.06 163.18H586.26C586.127 163.18 586.013 163.227 585.92 163.32C585.84 163.4 585.8 163.507 585.8 163.64V167.5Z" fill="white"/>
<path d="M582.6 101.34H585.34V116H583.44V103.24H582.6V101.34ZM590.755 108.94C590.755 108.807 590.708 108.7 590.615 108.62C590.535 108.527 590.428 108.48 590.295 108.48H589.415C589.082 108.48 588.902 108.667 588.875 109.04H587.275L587.575 101.34H592.635V103.24H589.255L589.135 106.74C589.188 106.713 589.268 106.693 589.375 106.68C589.495 106.653 589.602 106.64 589.695 106.64H590.895C591.375 106.64 591.788 106.813 592.135 107.16C592.482 107.507 592.655 107.92 592.655 108.4V114.24C592.655 114.72 592.482 115.133 592.135 115.48C591.788 115.827 591.375 116 590.895 116H588.935C588.455 116 588.042 115.827 587.695 115.48C587.348 115.133 587.175 114.72 587.175 114.24V111.62H589.035V113.7C589.035 113.833 589.075 113.947 589.155 114.04C589.248 114.12 589.362 114.16 589.495 114.16H590.295C590.428 114.16 590.535 114.12 590.615 114.04C590.708 113.947 590.755 113.833 590.755 113.7V108.94Z" fill="white"/>
<rect x="575" y="291" width="25" height="25" rx="2" fill="#70FF00"/>
<path d="M581.46 307.36L584.76 296.34H586.58V307H587.38V308.8H586.58V311H584.84V308.8H581.46V307.36ZM584.84 307V301.36L583.28 307H584.84ZM588.234 296.34H593.254V297.66L591.254 311H589.334L591.374 298.24H588.234V296.34Z" fill="#222222"/>
<line x1="288.25" x2="288.25" y2="333" stroke="#3A3A3A" stroke-width="0.5"/>
<defs>
<filter id="filter0_d_692_640" x="46.271" y="337.5" width="610.229" height="23" filterUnits="userSpaceOnUse" color-interpolation-filters="sRGB">
<feFlood flood-opacity="0" result="BackgroundImageFix"/>
<feColorMatrix in="SourceAlpha" type="matrix" values="0 0 0 0 0 0 0 0 0 0 0 0 0 0 0 0 0 0 127 0" result="hardAlpha"/>
<feOffset dy="4"/>
<feGaussianBlur stdDeviation="2"/>
<feComposite in2="hardAlpha" operator="out"/>
<feColorMatrix type="matrix" values="0 0 0 0 0 0 0 0 0 0 0 0 0 0 0 0 0 0 0.25 0"/>
<feBlend mode="normal" in2="BackgroundImageFix" result="effect1_dropShadow_692_640"/>
<feBlend mode="normal" in="SourceGraphic" in2="effect1_dropShadow_692_640" result="shape"/>
</filter>
<filter id="filter1_d_692_640" x="0" y="0" width="656" height="360" filterUnits="userSpaceOnUse" color-interpolation-filters="sRGB">
<feFlood flood-opacity="0" result="BackgroundImageFix"/>
<feColorMatrix in="SourceAlpha" type="matrix" values="0 0 0 0 0 0 0 0 0 0 0 0 0 0 0 0 0 0 127 0" result="hardAlpha"/>
<feOffset dy="4"/>
<feGaussianBlur stdDeviation="2"/>
<feComposite in2="hardAlpha" operator="out"/>
<feColorMatrix type="matrix" values="0 0 0 0 0 0 0 0 0 0 0 0 0 0 0 0 0 0 0.25 0"/>
<feBlend mode="normal" in2="BackgroundImageFix" result="effect1_dropShadow_692_640"/>
<feBlend mode="normal" in="SourceGraphic" in2="effect1_dropShadow_692_640" result="shape"/>
</filter>
<filter id="filter2_b_692_640" x="29.0885" y="40.4728" width="150.129" height="30.1721" filterUnits="userSpaceOnUse" color-interpolation-filters="sRGB">
<feFlood flood-opacity="0" result="BackgroundImageFix"/>
<feGaussianBlur in="BackgroundImage" stdDeviation="3.0661"/>
<feComposite in2="SourceAlpha" operator="in" result="effect1_backgroundBlur_692_640"/>
<feBlend mode="normal" in="SourceGraphic" in2="effect1_backgroundBlur_692_640" result="shape"/>
</filter>
</defs>
</svg>
