<svg width="657" height="361" viewBox="0 0 657 361" fill="none" xmlns="http://www.w3.org/2000/svg">
<g filter="url(#filter0_d_411_322)">
<path d="M61.1977 338.597L51.3511 348.597C50.1061 349.861 51.0018 352 52.7761 352H650C651.105 352 652 351.105 652 350V340C652 338.895 651.105 338 650 338H62.6228C62.087 338 61.5736 338.215 61.1977 338.597Z" fill="#2A2A2A"/>
<path d="M61.1977 338.597L51.3511 348.597C50.1061 349.861 51.0018 352 52.7761 352H650C651.105 352 652 351.105 652 350V340C652 338.895 651.105 338 650 338H62.6228C62.087 338 61.5736 338.215 61.1977 338.597Z" stroke="#2A2A2A"/>
</g>
<g filter="url(#filter1_d_411_322)">
<path d="M4 63.4118V347C4 349.761 6.23858 352 9 352H38.4289C39.755 352 41.0268 351.473 41.9645 350.536L58.0355 334.464C58.9732 333.527 60.245 333 61.5711 333H647C649.761 333 652 330.761 652 328V44.5711C652 43.245 651.473 41.9732 650.536 41.0355L610.964 1.46446C610.027 0.526782 608.755 0 607.429 0H9C6.23858 0 4 2.23858 4 5V63.4118Z" fill="#2A2A2A"/>
</g>
<g filter="url(#filter2_b_411_322)">
<path d="M48.7949 47.1299V55.5527C48.7949 56.1753 48.7339 56.7124 48.624 57.1885C48.3921 58.1284 48.1235 58.6899 47.5376 59.1294C46.9517 59.5566 46.6099 59.7275 45.8896 59.8374C45.5356 59.8984 45.2549 59.9229 45.0596 59.9351C44.8765 59.9473 44.6079 59.9473 44.2783 59.9473C43.9487 59.9473 43.6802 59.9473 43.4849 59.9351C43.3018 59.9229 43.021 59.8984 42.6548 59.8374C42.2886 59.7764 41.9956 59.7031 41.7637 59.6055C41.312 59.3979 40.6406 58.9463 40.2988 58.3481C39.9692 57.75 39.7007 56.7856 39.7007 55.5527H34.6226C34.6348 57.1274 34.8789 58.4946 35.3794 59.6787C35.8799 60.8872 36.6367 61.8882 37.6743 62.6694C39.2612 63.8901 41.4585 64.5005 44.2783 64.5005C45.5601 64.5005 46.6831 64.3784 47.6719 64.1465C48.917 63.8413 49.979 63.353 50.8701 62.6694C51.8955 61.9004 52.6523 60.8872 53.1528 59.6543C53.6289 58.4946 53.873 57.1274 53.873 55.5527V47.1299H48.7949ZM77.6338 59.7031C78.0854 58.6167 78.3052 57.2617 78.3174 55.626C78.3296 53.9902 78.0977 52.6108 77.6338 51.5C76.8647 49.5591 75.4121 48.2163 73.52 47.5449C71.6523 46.8735 69.7969 46.6416 67.4653 46.6782C65.1338 46.6416 63.2661 46.8735 61.374 47.5449C59.5063 48.2163 58.0537 49.5591 57.2847 51.5C56.8208 52.5986 56.5889 53.9536 56.5889 55.5771C56.5889 57.2007 56.8208 58.5557 57.2847 59.6543C58.0659 61.5708 59.5063 62.9258 61.374 63.5972C63.2661 64.2686 65.1338 64.5127 67.4653 64.4761C68.6494 64.4883 69.7114 64.4395 70.6758 64.3052C71.6401 64.1831 72.5923 63.9634 73.5322 63.6338C75.4365 62.9868 76.8647 61.6685 77.6338 59.7031ZM72.7388 53.3311C72.9585 53.8682 73.0684 54.6372 73.0684 55.6382C73.0684 56.627 72.9585 57.3838 72.7388 57.8965C72.4214 58.7144 71.8599 59.3491 71.042 59.7886C70.2241 60.228 69.04 60.4478 67.4653 60.4478C64.6211 60.4478 62.8633 59.5688 62.1919 57.8232C61.96 57.3105 61.8379 56.5659 61.8379 55.5771C61.8379 54.5884 61.96 53.8438 62.1919 53.3311C62.8633 51.5732 64.6211 50.6943 67.4653 50.6943C69.0278 50.6943 70.2119 50.9263 71.0176 51.3901C71.8354 51.854 72.4092 52.501 72.7388 53.3311ZM96.4873 57.5791L87.3198 47.1299H81.3872V64H86.4653V54.3809L94.9858 64H101.541V47.1299H96.4873V57.5791ZM129.348 57.5791C129.312 57.689 129.287 57.7866 129.25 57.8721C128.933 58.6899 128.372 59.3247 127.554 59.7764C126.736 60.228 125.552 60.4478 123.977 60.4478C121.133 60.4478 119.375 59.5688 118.704 57.7988C118.472 57.2861 118.35 56.5415 118.35 55.5527C118.35 54.564 118.472 53.8071 118.704 53.2944C119.375 51.5488 121.133 50.6699 123.977 50.6699C125.54 50.6699 126.724 50.9019 127.529 51.3657C128.347 51.8174 128.921 52.4644 129.25 53.2944C129.263 53.3677 129.287 53.4409 129.324 53.5264H134.707C134.573 52.7451 134.377 52.0615 134.146 51.4756C133.376 49.5347 131.924 48.1919 130.032 47.5205C128.164 46.8491 126.309 46.6172 123.977 46.6538C121.646 46.6172 119.778 46.8491 117.886 47.5205C116.018 48.1919 114.565 49.5347 113.796 51.4756C113.333 52.5742 113.101 53.9292 113.101 55.5527C113.101 57.1763 113.333 58.5312 113.796 59.6299C114.578 61.5464 116.018 62.9014 117.886 63.585C119.778 64.2686 121.646 64.4761 123.977 64.4761C125.161 64.4761 126.223 64.415 127.188 64.293C128.152 64.1831 129.104 63.9512 130.044 63.6216C131.948 62.9502 133.376 61.644 134.146 59.7031C134.402 59.105 134.597 58.397 134.707 57.5791H129.348ZM152.108 47.1299V53.5264H142.733V47.1299H137.655V64H142.733V57.5791H152.108V64H157.162V47.1299H152.108ZM167.604 47.1299L159.328 64H164.98L165.981 61.9736H174.904L175.905 64H181.533L173.256 47.1299H167.604ZM167.934 57.9209L170.437 52.8794L172.878 57.9209H167.934ZM188.79 64V47.1299H183.711V64H188.79ZM207.582 57.5791L198.415 47.1299H192.482V64H197.56V54.3809L206.081 64H212.636V47.1299H207.582V57.5791Z" fill="#70FF00"/>
</g>
<path d="M27.712 123C27.136 123 26.64 122.792 26.224 122.376C25.808 121.96 25.6 121.464 25.6 120.888V116.784H27.88V120.24C27.88 120.4 27.928 120.536 28.024 120.648C28.136 120.744 28.272 120.792 28.432 120.792H29.152C29.312 120.792 29.44 120.744 29.536 120.648C29.648 120.536 29.704 120.4 29.704 120.24V105.408H31.984V120.888C31.984 121.464 31.776 121.96 31.36 122.376C30.944 122.792 30.448 123 29.872 123H27.712ZM37.0666 123C36.4906 123 35.9946 122.792 35.5786 122.376C35.1626 121.96 34.9546 121.464 34.9546 120.888V107.52C34.9546 106.944 35.1626 106.448 35.5786 106.032C35.9946 105.616 36.4906 105.408 37.0666 105.408H39.4666C40.0426 105.408 40.5386 105.616 40.9546 106.032C41.3706 106.448 41.5786 106.944 41.5786 107.52V120.888C41.5786 121.464 41.3706 121.96 40.9546 122.376C40.5386 122.792 40.0426 123 39.4666 123H37.0666ZM37.2346 120.24C37.2346 120.4 37.2826 120.536 37.3786 120.648C37.4906 120.744 37.6266 120.792 37.7866 120.792H38.7466C38.9066 120.792 39.0346 120.744 39.1306 120.648C39.2426 120.536 39.2986 120.4 39.2986 120.24V108.168C39.2986 108.008 39.2426 107.88 39.1306 107.784C39.0346 107.672 38.9066 107.616 38.7466 107.616H37.7866C37.6266 107.616 37.4906 107.672 37.3786 107.784C37.2826 107.88 37.2346 108.008 37.2346 108.168V120.24ZM48.9677 115.296H48.9917L48.8957 111.672V105.408H51.0557V123H49.0157L46.6397 113.112H46.6157L46.7117 116.736V123H44.5517V105.408H46.5917L48.9677 115.296ZM61.1042 120.24C61.1042 120.4 61.1522 120.536 61.2482 120.648C61.3602 120.744 61.4962 120.792 61.6562 120.792H62.6162C62.7762 120.792 62.9042 120.744 63.0002 120.648C63.1122 120.536 63.1682 120.4 63.1682 120.24V115.8H65.4002V120.888C65.4002 121.464 65.1922 121.96 64.7762 122.376C64.3602 122.792 63.8642 123 63.2882 123H60.9362C60.3602 123 59.8642 122.792 59.4482 122.376C59.0322 121.96 58.8242 121.464 58.8242 120.888V107.52C58.8242 106.944 59.0322 106.448 59.4482 106.032C59.8642 105.616 60.3602 105.408 60.9362 105.408H63.2882C63.8642 105.408 64.3602 105.616 64.7762 106.032C65.1922 106.448 65.4002 106.944 65.4002 107.52V112.608H63.1682V108.168C63.1682 108.008 63.1122 107.88 63.0002 107.784C62.9042 107.672 62.7762 107.616 62.6162 107.616H61.6562C61.4962 107.616 61.3602 107.672 61.2482 107.784C61.1522 107.88 61.1042 108.008 61.1042 108.168V120.24ZM72.4797 115.296H70.6077V123H68.3277V105.408H70.6077V113.112H72.4797V105.408H74.7597V123H72.4797V115.296ZM81.6254 118.44H79.8014L79.2734 123H77.0894L79.3694 105.408H82.1294L84.4334 123H82.2014L81.6254 118.44ZM80.0654 116.256H81.3614L80.7134 110.832L80.0654 116.256ZM89.0521 123H86.7721V105.408H89.0521V123ZM96.4493 115.296H96.4733L96.3773 111.672V105.408H98.5373V123H96.4973L94.1213 113.112H94.0973L94.1933 116.736V123H92.0333V105.408H94.0733L96.4493 115.296ZM108.586 123H106.306V105.408H108.586V123ZM113.679 115.296C113.103 115.296 112.607 115.088 112.191 114.672C111.775 114.256 111.567 113.76 111.567 113.184V107.52C111.567 106.944 111.775 106.448 112.191 106.032C112.607 105.616 113.103 105.408 113.679 105.408H116.079C116.655 105.408 117.151 105.616 117.567 106.032C117.983 106.448 118.191 106.944 118.191 107.52V111.624H115.911V108.168C115.911 108.008 115.855 107.88 115.743 107.784C115.647 107.672 115.519 107.616 115.359 107.616H114.399C114.239 107.616 114.103 107.672 113.991 107.784C113.895 107.88 113.847 108.008 113.847 108.168V112.584C113.847 112.744 113.895 112.88 113.991 112.992C114.103 113.088 114.239 113.136 114.399 113.136H116.079C116.655 113.136 117.151 113.344 117.567 113.76C117.983 114.176 118.191 114.672 118.191 115.248V120.888C118.191 121.464 117.983 121.96 117.567 122.376C117.151 122.792 116.655 123 116.079 123H113.679C113.103 123 112.607 122.792 112.191 122.376C111.775 121.96 111.567 121.464 111.567 120.888V116.736H113.847V120.24C113.847 120.4 113.895 120.536 113.991 120.648C114.103 120.744 114.239 120.792 114.399 120.792H115.359C115.519 120.792 115.647 120.744 115.743 120.648C115.855 120.536 115.911 120.4 115.911 120.24V115.848C115.911 115.688 115.855 115.56 115.743 115.464C115.647 115.352 115.519 115.296 115.359 115.296H113.679ZM129.845 118.44H128.021L127.493 123H125.309L127.589 105.408H130.349L132.653 123H130.421L129.845 118.44ZM128.285 116.256H129.581L128.933 110.832L128.285 116.256ZM139.784 105.408H145.064V107.688H142.064V113.112H145.064V115.296H142.064V123H139.784V105.408ZM149.618 123C149.042 123 148.546 122.792 148.13 122.376C147.714 121.96 147.506 121.464 147.506 120.888V107.52C147.506 106.944 147.714 106.448 148.13 106.032C148.546 105.616 149.042 105.408 149.618 105.408H152.018C152.594 105.408 153.09 105.616 153.506 106.032C153.922 106.448 154.13 106.944 154.13 107.52V120.888C154.13 121.464 153.922 121.96 153.506 122.376C153.09 122.792 152.594 123 152.018 123H149.618ZM149.786 120.24C149.786 120.4 149.834 120.536 149.93 120.648C150.042 120.744 150.178 120.792 150.338 120.792H151.298C151.458 120.792 151.586 120.744 151.682 120.648C151.794 120.536 151.85 120.4 151.85 120.24V108.168C151.85 108.008 151.794 107.88 151.682 107.784C151.586 107.672 151.458 107.616 151.298 107.616H150.338C150.178 107.616 150.042 107.672 149.93 107.784C149.834 107.88 149.786 108.008 149.786 108.168V120.24ZM161.615 105.408C162.191 105.408 162.687 105.616 163.103 106.032C163.519 106.448 163.727 106.944 163.727 107.52V113.112C163.727 113.576 163.583 113.992 163.295 114.36C163.023 114.728 162.679 114.984 162.263 115.128L165.143 123H162.695L159.959 115.224H159.383V123H157.103V105.408H161.615ZM159.383 107.616V113.016H160.895C161.055 113.016 161.183 112.968 161.279 112.872C161.391 112.76 161.447 112.624 161.447 112.464V108.168C161.447 108.008 161.391 107.88 161.279 107.784C161.183 107.672 161.055 107.616 160.895 107.616H159.383ZM171.161 113.928L173.009 105.408H175.409V123H173.201V115.824L173.297 112.464H173.273L171.737 120.12H170.537L169.001 112.464H168.977L169.073 115.824V123H166.865V105.408H169.265L171.161 113.928ZM178.384 105.408H183.664V107.688H180.664V113.112H183.664V115.296H180.664V120.72H183.664V123H178.384V105.408ZM190.618 105.408C191.194 105.408 191.69 105.616 192.106 106.032C192.522 106.448 192.73 106.944 192.73 107.52V113.112C192.73 113.576 192.586 113.992 192.298 114.36C192.026 114.728 191.682 114.984 191.266 115.128L194.146 123H191.698L188.962 115.224H188.386V123H186.106V105.408H190.618ZM188.386 107.616V113.016H189.898C190.058 113.016 190.186 112.968 190.282 112.872C190.394 112.76 190.45 112.624 190.45 112.464V108.168C190.45 108.008 190.394 107.88 190.282 107.784C190.186 107.672 190.058 107.616 189.898 107.616H188.386ZM30.544 139.928L32.392 131.408H34.792V149H32.584V141.824L32.68 138.464H32.656L31.12 146.12H29.92L28.384 138.464H28.36L28.456 141.824V149H26.248V131.408H28.648L30.544 139.928ZM37.7671 131.408H43.0471V133.688H40.0471V139.112H43.0471V141.296H40.0471V146.72H43.0471V149H37.7671V131.408ZM50.0012 131.408C50.5772 131.408 51.0732 131.616 51.4892 132.032C51.9052 132.448 52.1132 132.944 52.1132 133.52V139.112C52.1132 139.576 51.9692 139.992 51.6812 140.36C51.4092 140.728 51.0652 140.984 50.6492 141.128L53.5292 149H51.0812L48.3452 141.224H47.7692V149H45.4892V131.408H50.0012ZM47.7692 133.616V139.016H49.2812C49.4412 139.016 49.5692 138.968 49.6652 138.872C49.7772 138.76 49.8332 138.624 49.8332 138.464V134.168C49.8332 134.008 49.7772 133.88 49.6652 133.784C49.5692 133.672 49.4412 133.616 49.2812 133.616H47.7692ZM57.5305 146.24C57.5305 146.4 57.5785 146.536 57.6745 146.648C57.7865 146.744 57.9225 146.792 58.0825 146.792H59.0425C59.2025 146.792 59.3305 146.744 59.4265 146.648C59.5385 146.536 59.5945 146.4 59.5945 146.24V141.8H61.8265V146.888C61.8265 147.464 61.6185 147.96 61.2025 148.376C60.7865 148.792 60.2905 149 59.7145 149H57.3625C56.7865 149 56.2905 148.792 55.8745 148.376C55.4585 147.96 55.2505 147.464 55.2505 146.888V133.52C55.2505 132.944 55.4585 132.448 55.8745 132.032C56.2905 131.616 56.7865 131.408 57.3625 131.408H59.7145C60.2905 131.408 60.7865 131.616 61.2025 132.032C61.6185 132.448 61.8265 132.944 61.8265 133.52V138.608H59.5945V134.168C59.5945 134.008 59.5385 133.88 59.4265 133.784C59.3305 133.672 59.2025 133.616 59.0425 133.616H58.0825C57.9225 133.616 57.7865 133.672 57.6745 133.784C57.5785 133.88 57.5305 134.008 57.5305 134.168V146.24ZM64.7539 131.408H70.0339V133.688H67.0339V139.112H70.0339V141.296H67.0339V146.72H70.0339V149H64.7539V131.408ZM76.8921 141.296H76.9161L76.8201 137.672V131.408H78.9801V149H76.9401L74.5641 139.112H74.5401L74.6361 142.736V149H72.4761V131.408H74.5161L76.8921 141.296ZM85.8441 144.44H84.0201L83.4921 149H81.3081L83.5881 131.408H86.3481L88.6521 149H86.4201L85.8441 144.44ZM84.2841 142.256H85.5801L84.9321 136.832L84.2841 142.256ZM95.5028 131.408C96.0788 131.408 96.5748 131.616 96.9908 132.032C97.4068 132.448 97.6148 132.944 97.6148 133.52V139.112C97.6148 139.576 97.4708 139.992 97.1828 140.36C96.9108 140.728 96.5668 140.984 96.1508 141.128L99.0308 149H96.5828L93.8468 141.224H93.2708V149H90.9908V131.408H95.5028ZM93.2708 133.616V139.016H94.7828C94.9428 139.016 95.0708 138.968 95.1668 138.872C95.2788 138.76 95.3348 138.624 95.3348 138.464V134.168C95.3348 134.008 95.2788 133.88 95.1668 133.784C95.0708 133.672 94.9428 133.616 94.7828 133.616H93.2708ZM103.8 138.128L105.696 131.408H107.952L104.904 141.416V149H102.624V141.416L99.6001 131.408H101.832L103.8 138.128ZM123.916 131.408H126.172L123.412 149H121.732L120.052 140.384L118.276 149H116.668L113.908 131.408H116.212L117.82 142.136L119.5 133.712H120.556L122.308 142.136L123.916 131.408ZM132.641 141.296H130.769V149H128.489V131.408H130.769V139.112H132.641V131.408H134.921V149H132.641V141.296ZM140.011 149C139.435 149 138.939 148.792 138.523 148.376C138.107 147.96 137.899 147.464 137.899 146.888V133.52C137.899 132.944 138.107 132.448 138.523 132.032C138.939 131.616 139.435 131.408 140.011 131.408H142.411C142.987 131.408 143.483 131.616 143.899 132.032C144.315 132.448 144.523 132.944 144.523 133.52V146.888C144.523 147.464 144.315 147.96 143.899 148.376C143.483 148.792 142.987 149 142.411 149H140.011ZM140.179 146.24C140.179 146.4 140.227 146.536 140.323 146.648C140.435 146.744 140.571 146.792 140.731 146.792H141.691C141.851 146.792 141.979 146.744 142.075 146.648C142.187 146.536 142.243 146.4 142.243 146.24V134.168C142.243 134.008 142.187 133.88 142.075 133.784C141.979 133.672 141.851 133.616 141.691 133.616H140.731C140.571 133.616 140.435 133.672 140.323 133.784C140.227 133.88 140.179 134.008 140.179 134.168V146.24ZM156.44 141.296H154.568V149H152.288V131.408H154.568V139.112H156.44V131.408H158.72V149H156.44V141.296ZM165.586 144.44H163.762L163.234 149H161.05L163.33 131.408H166.09L168.394 149H166.162L165.586 144.44ZM164.026 142.256H165.322L164.674 136.832L164.026 142.256ZM172.563 141.296C171.987 141.296 171.491 141.088 171.075 140.672C170.659 140.256 170.451 139.76 170.451 139.184V133.52C170.451 132.944 170.659 132.448 171.075 132.032C171.491 131.616 171.987 131.408 172.563 131.408H174.963C175.539 131.408 176.035 131.616 176.451 132.032C176.867 132.448 177.075 132.944 177.075 133.52V137.624H174.795V134.168C174.795 134.008 174.739 133.88 174.627 133.784C174.531 133.672 174.403 133.616 174.243 133.616H173.283C173.123 133.616 172.987 133.672 172.875 133.784C172.779 133.88 172.731 134.008 172.731 134.168V138.584C172.731 138.744 172.779 138.88 172.875 138.992C172.987 139.088 173.123 139.136 173.283 139.136H174.963C175.539 139.136 176.035 139.344 176.451 139.76C176.867 140.176 177.075 140.672 177.075 141.248V146.888C177.075 147.464 176.867 147.96 176.451 148.376C176.035 148.792 175.539 149 174.963 149H172.563C171.987 149 171.491 148.792 171.075 148.376C170.659 147.96 170.451 147.464 170.451 146.888V142.736H172.731V146.24C172.731 146.4 172.779 146.536 172.875 146.648C172.987 146.744 173.123 146.792 173.283 146.792H174.243C174.403 146.792 174.531 146.744 174.627 146.648C174.739 146.536 174.795 146.4 174.795 146.24V141.848C174.795 141.688 174.739 141.56 174.627 141.464C174.531 141.352 174.403 141.296 174.243 141.296H172.563ZM184.841 131.408H187.121V146.72H190.121V149H184.841V131.408ZM194.441 149C193.865 149 193.369 148.792 192.953 148.376C192.537 147.96 192.329 147.464 192.329 146.888V133.52C192.329 132.944 192.537 132.448 192.953 132.032C193.369 131.616 193.865 131.408 194.441 131.408H196.841C197.417 131.408 197.913 131.616 198.329 132.032C198.745 132.448 198.953 132.944 198.953 133.52V146.888C198.953 147.464 198.745 147.96 198.329 148.376C197.913 148.792 197.417 149 196.841 149H194.441ZM194.609 146.24C194.609 146.4 194.657 146.536 194.753 146.648C194.865 146.744 195.001 146.792 195.161 146.792H196.121C196.281 146.792 196.409 146.744 196.505 146.648C196.617 146.536 196.673 146.4 196.673 146.24V134.168C196.673 134.008 196.617 133.88 196.505 133.784C196.409 133.672 196.281 133.616 196.121 133.616H195.161C195.001 133.616 194.865 133.672 194.753 133.784C194.657 133.88 194.609 134.008 194.609 134.168V146.24ZM204.038 141.296C203.462 141.296 202.966 141.088 202.55 140.672C202.134 140.256 201.926 139.76 201.926 139.184V133.52C201.926 132.944 202.134 132.448 202.55 132.032C202.966 131.616 203.462 131.408 204.038 131.408H206.438C207.014 131.408 207.51 131.616 207.926 132.032C208.342 132.448 208.55 132.944 208.55 133.52V137.624H206.27V134.168C206.27 134.008 206.214 133.88 206.102 133.784C206.006 133.672 205.878 133.616 205.718 133.616H204.758C204.598 133.616 204.462 133.672 204.35 133.784C204.254 133.88 204.206 134.008 204.206 134.168V138.584C204.206 138.744 204.254 138.88 204.35 138.992C204.462 139.088 204.598 139.136 204.758 139.136H206.438C207.014 139.136 207.51 139.344 207.926 139.76C208.342 140.176 208.55 140.672 208.55 141.248V146.888C208.55 147.464 208.342 147.96 207.926 148.376C207.51 148.792 207.014 149 206.438 149H204.038C203.462 149 202.966 148.792 202.55 148.376C202.134 147.96 201.926 147.464 201.926 146.888V142.736H204.206V146.24C204.206 146.4 204.254 146.536 204.35 146.648C204.462 146.744 204.598 146.792 204.758 146.792H205.718C205.878 146.792 206.006 146.744 206.102 146.648C206.214 146.536 206.27 146.4 206.27 146.24V141.848C206.27 141.688 206.214 141.56 206.102 141.464C206.006 141.352 205.878 141.296 205.718 141.296H204.038ZM210.524 131.408H216.548V133.688H214.676V149H212.396V133.688H210.524V131.408ZM223.663 131.408H228.943V133.688H225.943V139.112H228.943V141.296H225.943V149H223.663V131.408ZM234.758 144.44H232.934L232.406 149H230.222L232.502 131.408H235.262L237.566 149H235.334L234.758 144.44ZM233.198 142.256H234.494L233.846 136.832L233.198 142.256ZM242.184 149H239.904V131.408H242.184V149ZM244.517 131.408H250.541V133.688H248.669V149H246.389V133.688H244.517V131.408ZM257.016 141.296H255.144V149H252.864V131.408H255.144V139.112H257.016V131.408H259.296V149H257.016V141.296ZM28.528 175H26.248V157.408H28.528V175ZM35.9253 167.296H35.9493L35.8533 163.672V157.408H38.0133V175H35.9733L33.5973 165.112H33.5733L33.6693 168.736V175H31.5093V157.408H33.5493L35.9253 167.296ZM48.0618 167.224V175H45.7818V157.408H50.2938C50.8698 157.408 51.3658 157.616 51.7818 158.032C52.1978 158.448 52.4058 158.944 52.4058 159.52V165.112C52.4058 165.688 52.1978 166.184 51.7818 166.6C51.3658 167.016 50.8698 167.224 50.2938 167.224H48.0618ZM48.0618 159.616V165.016H49.5738C49.7338 165.016 49.8618 164.968 49.9578 164.872C50.0698 164.76 50.1258 164.624 50.1258 164.464V160.168C50.1258 160.008 50.0698 159.88 49.9578 159.784C49.8618 159.672 49.7338 159.616 49.5738 159.616H48.0618ZM55.0977 157.408H60.3777V159.688H57.3777V165.112H60.3777V167.296H57.3777V172.72H60.3777V175H55.0977V157.408ZM64.9319 175C64.3559 175 63.8599 174.792 63.4439 174.376C63.0279 173.96 62.8199 173.464 62.8199 172.888V159.52C62.8199 158.944 63.0279 158.448 63.4439 158.032C63.8599 157.616 64.3559 157.408 64.9319 157.408H67.3319C67.9079 157.408 68.4039 157.616 68.8199 158.032C69.2359 158.448 69.4439 158.944 69.4439 159.52V172.888C69.4439 173.464 69.2359 173.96 68.8199 174.376C68.4039 174.792 67.9079 175 67.3319 175H64.9319ZM65.0999 172.24C65.0999 172.4 65.1479 172.536 65.2439 172.648C65.3559 172.744 65.4919 172.792 65.6519 172.792H66.6119C66.7719 172.792 66.8999 172.744 66.9959 172.648C67.1079 172.536 67.1639 172.4 67.1639 172.24V160.168C67.1639 160.008 67.1079 159.88 66.9959 159.784C66.8999 159.672 66.7719 159.616 66.6119 159.616H65.6519C65.4919 159.616 65.3559 159.672 65.2439 159.784C65.1479 159.88 65.0999 160.008 65.0999 160.168V172.24ZM74.6971 167.224V175H72.4171V157.408H76.9291C77.5051 157.408 78.0011 157.616 78.4171 158.032C78.8331 158.448 79.0411 158.944 79.0411 159.52V165.112C79.0411 165.688 78.8331 166.184 78.4171 166.6C78.0011 167.016 77.5051 167.224 76.9291 167.224H74.6971ZM74.6971 159.616V165.016H76.2091C76.3691 165.016 76.4971 164.968 76.5931 164.872C76.7051 164.76 76.7611 164.624 76.7611 164.464V160.168C76.7611 160.008 76.7051 159.88 76.5931 159.784C76.4971 159.672 76.3691 159.616 76.2091 159.616H74.6971ZM81.733 157.408H84.013V172.72H87.013V175H81.733V157.408ZM89.2208 157.408H94.5008V159.688H91.5008V165.112H94.5008V167.296H91.5008V172.72H94.5008V175H89.2208V157.408ZM98.695 175H96.415V172.48H98.695V175ZM110.094 167.296H108.222V175H105.942V157.408H108.222V165.112H110.094V157.408H112.374V175H110.094V167.296ZM115.352 157.408H120.632V159.688H117.632V165.112H120.632V167.296H117.632V172.72H120.632V175H115.352V157.408ZM130.146 175H127.866V157.408H130.146V175ZM135.24 167.296C134.664 167.296 134.168 167.088 133.752 166.672C133.336 166.256 133.128 165.76 133.128 165.184V159.52C133.128 158.944 133.336 158.448 133.752 158.032C134.168 157.616 134.664 157.408 135.24 157.408H137.64C138.216 157.408 138.712 157.616 139.128 158.032C139.544 158.448 139.752 158.944 139.752 159.52V163.624H137.472V160.168C137.472 160.008 137.416 159.88 137.304 159.784C137.208 159.672 137.08 159.616 136.92 159.616H135.96C135.8 159.616 135.664 159.672 135.552 159.784C135.456 159.88 135.408 160.008 135.408 160.168V164.584C135.408 164.744 135.456 164.88 135.552 164.992C135.664 165.088 135.8 165.136 135.96 165.136H137.64C138.216 165.136 138.712 165.344 139.128 165.76C139.544 166.176 139.752 166.672 139.752 167.248V172.888C139.752 173.464 139.544 173.96 139.128 174.376C138.712 174.792 138.216 175 137.64 175H135.24C134.664 175 134.168 174.792 133.752 174.376C133.336 173.96 133.128 173.464 133.128 172.888V168.736H135.408V172.24C135.408 172.4 135.456 172.536 135.552 172.648C135.664 172.744 135.8 172.792 135.96 172.792H136.92C137.08 172.792 137.208 172.744 137.304 172.648C137.416 172.536 137.472 172.4 137.472 172.24V167.848C137.472 167.688 137.416 167.56 137.304 167.464C137.208 167.352 137.08 167.296 136.92 167.296H135.24ZM150.781 165.808H154.141V172.888C154.141 173.464 153.933 173.96 153.517 174.376C153.101 174.792 152.605 175 152.029 175H149.629C149.053 175 148.557 174.792 148.141 174.376C147.725 173.96 147.517 173.464 147.517 172.888V159.52C147.517 158.944 147.725 158.448 148.141 158.032C148.557 157.616 149.053 157.408 149.629 157.408H151.981C152.557 157.408 153.053 157.616 153.469 158.032C153.885 158.448 154.093 158.944 154.093 159.52V163.888H151.861V160.168C151.861 160.008 151.805 159.88 151.693 159.784C151.597 159.672 151.469 159.616 151.309 159.616H150.349C150.189 159.616 150.053 159.672 149.941 159.784C149.845 159.88 149.797 160.008 149.797 160.168V172.24C149.797 172.4 149.845 172.536 149.941 172.648C150.053 172.744 150.189 172.792 150.349 172.792H151.309C151.469 172.792 151.597 172.744 151.693 172.648C151.805 172.536 151.861 172.4 151.861 172.24V167.992H150.781V165.808ZM159.227 175C158.651 175 158.155 174.792 157.739 174.376C157.323 173.96 157.115 173.464 157.115 172.888V159.52C157.115 158.944 157.323 158.448 157.739 158.032C158.155 157.616 158.651 157.408 159.227 157.408H161.627C162.203 157.408 162.699 157.616 163.115 158.032C163.531 158.448 163.739 158.944 163.739 159.52V172.888C163.739 173.464 163.531 173.96 163.115 174.376C162.699 174.792 162.203 175 161.627 175H159.227ZM159.395 172.24C159.395 172.4 159.443 172.536 159.539 172.648C159.651 172.744 159.787 172.792 159.947 172.792H160.907C161.067 172.792 161.195 172.744 161.291 172.648C161.403 172.536 161.459 172.4 161.459 172.24V160.168C161.459 160.008 161.403 159.88 161.291 159.784C161.195 159.672 161.067 159.616 160.907 159.616H159.947C159.787 159.616 159.651 159.672 159.539 159.784C159.443 159.88 159.395 160.008 159.395 160.168V172.24ZM168.824 175C168.248 175 167.752 174.792 167.336 174.376C166.92 173.96 166.712 173.464 166.712 172.888V159.52C166.712 158.944 166.92 158.448 167.336 158.032C167.752 157.616 168.248 157.408 168.824 157.408H171.224C171.8 157.408 172.296 157.616 172.712 158.032C173.128 158.448 173.336 158.944 173.336 159.52V172.888C173.336 173.464 173.128 173.96 172.712 174.376C172.296 174.792 171.8 175 171.224 175H168.824ZM168.992 172.24C168.992 172.4 169.04 172.536 169.136 172.648C169.248 172.744 169.384 172.792 169.544 172.792H170.504C170.664 172.792 170.792 172.744 170.888 172.648C171 172.536 171.056 172.4 171.056 172.24V160.168C171.056 160.008 171 159.88 170.888 159.784C170.792 159.672 170.664 159.616 170.504 159.616H169.544C169.384 159.616 169.248 159.672 169.136 159.784C169.04 159.88 168.992 160.008 168.992 160.168V172.24ZM176.309 175V157.408H180.821C181.397 157.408 181.893 157.616 182.309 158.032C182.725 158.448 182.933 158.944 182.933 159.52V172.888C182.933 173.464 182.725 173.96 182.309 174.376C181.893 174.792 181.397 175 180.821 175H176.309ZM178.589 159.616V172.792H180.101C180.261 172.792 180.389 172.744 180.485 172.648C180.597 172.536 180.653 172.4 180.653 172.24V160.168C180.653 160.008 180.597 159.88 180.485 159.784C180.389 159.672 180.261 159.616 180.101 159.616H178.589ZM194.587 170.44H192.763L192.235 175H190.051L192.331 157.408H195.091L197.395 175H195.163L194.587 170.44ZM193.027 168.256H194.323L193.675 162.832L193.027 168.256ZM198.242 157.408H204.266V159.688H202.394V175H200.114V159.688H198.242V157.408ZM215.269 170.44H213.445L212.917 175H210.733L213.013 157.408H215.773L218.077 175H215.845L215.269 170.44ZM213.709 168.256H215.005L214.357 162.832L213.709 168.256ZM220.415 157.408H222.695V172.72H225.695V175H220.415V157.408ZM227.903 157.408H230.183V172.72H233.183V175H227.903V157.408ZM25.6 183.408H31.624V185.688H29.752V201H27.472V185.688H25.6V183.408ZM36.9948 190.128L38.8908 183.408H41.1468L38.0988 193.416V201H35.8188V193.416L32.7948 183.408H35.0268L36.9948 190.128ZM45.238 193.224V201H42.958V183.408H47.47C48.046 183.408 48.542 183.616 48.958 184.032C49.374 184.448 49.582 184.944 49.582 185.52V191.112C49.582 191.688 49.374 192.184 48.958 192.6C48.542 193.016 48.046 193.224 47.47 193.224H45.238ZM45.238 185.616V191.016H46.75C46.91 191.016 47.038 190.968 47.134 190.872C47.246 190.76 47.302 190.624 47.302 190.464V186.168C47.302 186.008 47.246 185.88 47.134 185.784C47.038 185.672 46.91 185.616 46.75 185.616H45.238ZM52.2739 183.408H57.5539V185.688H54.5539V191.112H57.5539V193.296H54.5539V198.72H57.5539V201H52.2739V183.408ZM62.1081 193.296C61.5321 193.296 61.0361 193.088 60.6201 192.672C60.2041 192.256 59.9961 191.76 59.9961 191.184V185.52C59.9961 184.944 60.2041 184.448 60.6201 184.032C61.0361 183.616 61.5321 183.408 62.1081 183.408H64.5081C65.0841 183.408 65.5801 183.616 65.9961 184.032C66.4121 184.448 66.6201 184.944 66.6201 185.52V189.624H64.3401V186.168C64.3401 186.008 64.2841 185.88 64.1721 185.784C64.0761 185.672 63.9481 185.616 63.7881 185.616H62.8281C62.6681 185.616 62.5321 185.672 62.4201 185.784C62.3241 185.88 62.2761 186.008 62.2761 186.168V190.584C62.2761 190.744 62.3241 190.88 62.4201 190.992C62.5321 191.088 62.6681 191.136 62.8281 191.136H64.5081C65.0841 191.136 65.5801 191.344 65.9961 191.76C66.4121 192.176 66.6201 192.672 66.6201 193.248V198.888C66.6201 199.464 66.4121 199.96 65.9961 200.376C65.5801 200.792 65.0841 201 64.5081 201H62.1081C61.5321 201 61.0361 200.792 60.6201 200.376C60.2041 199.96 59.9961 199.464 59.9961 198.888V194.736H62.2761V198.24C62.2761 198.4 62.3241 198.536 62.4201 198.648C62.5321 198.744 62.6681 198.792 62.8281 198.792H63.7881C63.9481 198.792 64.0761 198.744 64.1721 198.648C64.2841 198.536 64.3401 198.4 64.3401 198.24V193.848C64.3401 193.688 64.2841 193.56 64.1721 193.464C64.0761 193.352 63.9481 193.296 63.7881 193.296H62.1081ZM76.4978 201C75.9218 201 75.4258 200.792 75.0098 200.376C74.5938 199.96 74.3858 199.464 74.3858 198.888V185.52C74.3858 184.944 74.5938 184.448 75.0098 184.032C75.4258 183.616 75.9218 183.408 76.4978 183.408H78.8978C79.4738 183.408 79.9698 183.616 80.3858 184.032C80.8018 184.448 81.0098 184.944 81.0098 185.52V198.888C81.0098 199.464 80.8018 199.96 80.3858 200.376C79.9698 200.792 79.4738 201 78.8978 201H76.4978ZM76.6658 198.24C76.6658 198.4 76.7138 198.536 76.8098 198.648C76.9218 198.744 77.0578 198.792 77.2178 198.792H78.1778C78.3378 198.792 78.4658 198.744 78.5618 198.648C78.6738 198.536 78.7298 198.4 78.7298 198.24V186.168C78.7298 186.008 78.6738 185.88 78.5618 185.784C78.4658 185.672 78.3378 185.616 78.1778 185.616H77.2178C77.0578 185.616 76.9218 185.672 76.8098 185.784C76.7138 185.88 76.6658 186.008 76.6658 186.168V198.24ZM83.983 183.408H89.263V185.688H86.263V191.112H89.263V193.296H86.263V201H83.983V183.408ZM105.858 183.408H108.114L105.354 201H103.674L101.994 192.384L100.218 201H98.6097L95.8497 183.408H98.1537L99.7617 194.136L101.442 185.712H102.498L104.25 194.136L105.858 183.408ZM110.431 183.408H115.711V185.688H112.711V191.112H115.711V193.296H112.711V198.72H115.711V201H110.431V183.408ZM122.041 196.44H120.217L119.689 201H117.505L119.785 183.408H122.545L124.849 201H122.617L122.041 196.44ZM120.481 194.256H121.777L121.129 188.832L120.481 194.256ZM129.468 193.224V201H127.188V183.408H131.7C132.276 183.408 132.772 183.616 133.188 184.032C133.604 184.448 133.812 184.944 133.812 185.52V191.112C133.812 191.688 133.604 192.184 133.188 192.6C132.772 193.016 132.276 193.224 131.7 193.224H129.468ZM129.468 185.616V191.016H130.98C131.14 191.016 131.268 190.968 131.364 190.872C131.476 190.76 131.532 190.624 131.532 190.464V186.168C131.532 186.008 131.476 185.88 131.364 185.784C131.268 185.672 131.14 185.616 130.98 185.616H129.468ZM138.616 201C138.04 201 137.544 200.792 137.128 200.376C136.712 199.96 136.504 199.464 136.504 198.888V185.52C136.504 184.944 136.712 184.448 137.128 184.032C137.544 183.616 138.04 183.408 138.616 183.408H141.016C141.592 183.408 142.088 183.616 142.504 184.032C142.92 184.448 143.128 184.944 143.128 185.52V198.888C143.128 199.464 142.92 199.96 142.504 200.376C142.088 200.792 141.592 201 141.016 201H138.616ZM138.784 198.24C138.784 198.4 138.832 198.536 138.928 198.648C139.04 198.744 139.176 198.792 139.336 198.792H140.296C140.456 198.792 140.584 198.744 140.68 198.648C140.792 198.536 140.848 198.4 140.848 198.24V186.168C140.848 186.008 140.792 185.88 140.68 185.784C140.584 185.672 140.456 185.616 140.296 185.616H139.336C139.176 185.616 139.04 185.672 138.928 185.784C138.832 185.88 138.784 186.008 138.784 186.168V198.24ZM150.517 193.296H150.541L150.445 189.672V183.408H152.605V201H150.565L148.189 191.112H148.165L148.261 194.736V201H146.101V183.408H148.141L150.517 193.296ZM157.693 193.296C157.117 193.296 156.621 193.088 156.205 192.672C155.789 192.256 155.581 191.76 155.581 191.184V185.52C155.581 184.944 155.789 184.448 156.205 184.032C156.621 183.616 157.117 183.408 157.693 183.408H160.093C160.669 183.408 161.165 183.616 161.581 184.032C161.997 184.448 162.205 184.944 162.205 185.52V189.624H159.925V186.168C159.925 186.008 159.869 185.88 159.757 185.784C159.661 185.672 159.533 185.616 159.373 185.616H158.413C158.253 185.616 158.117 185.672 158.005 185.784C157.909 185.88 157.861 186.008 157.861 186.168V190.584C157.861 190.744 157.909 190.88 158.005 190.992C158.117 191.088 158.253 191.136 158.413 191.136H160.093C160.669 191.136 161.165 191.344 161.581 191.76C161.997 192.176 162.205 192.672 162.205 193.248V198.888C162.205 199.464 161.997 199.96 161.581 200.376C161.165 200.792 160.669 201 160.093 201H157.693C157.117 201 156.621 200.792 156.205 200.376C155.789 199.96 155.581 199.464 155.581 198.888V194.736H157.861V198.24C157.861 198.4 157.909 198.536 158.005 198.648C158.117 198.744 158.253 198.792 158.413 198.792H159.373C159.533 198.792 159.661 198.744 159.757 198.648C159.869 198.536 159.925 198.4 159.925 198.24V193.848C159.925 193.688 159.869 193.56 159.757 193.464C159.661 193.352 159.533 193.296 159.373 193.296H157.693ZM166.93 201H164.65V198.48H166.93V201Z" fill="white"/>
<path d="M335.322 57.5791C335.285 57.689 335.261 57.7866 335.224 57.8721C334.907 58.6899 334.345 59.3247 333.527 59.7764C332.709 60.228 331.525 60.4478 329.951 60.4478C327.106 60.4478 325.349 59.5688 324.677 57.7988C324.445 57.2861 324.323 56.5415 324.323 55.5527C324.323 54.564 324.445 53.8071 324.677 53.2944C325.349 51.5488 327.106 50.6699 329.951 50.6699C331.513 50.6699 332.697 50.9019 333.503 51.3657C334.321 51.8174 334.895 52.4644 335.224 53.2944C335.236 53.3677 335.261 53.4409 335.297 53.5264H340.681C340.546 52.7451 340.351 52.0615 340.119 51.4756C339.35 49.5347 337.897 48.1919 336.005 47.5205C334.138 46.8491 332.282 46.6172 329.951 46.6538C327.619 46.6172 325.751 46.8491 323.859 47.5205C321.992 48.1919 320.539 49.5347 319.77 51.4756C319.306 52.5742 319.074 53.9292 319.074 55.5527C319.074 57.1763 319.306 58.5312 319.77 59.6299C320.551 61.5464 321.992 62.9014 323.859 63.585C325.751 64.2686 327.619 64.4761 329.951 64.4761C331.135 64.4761 332.197 64.415 333.161 64.293C334.125 64.1831 335.078 63.9512 336.018 63.6216C337.922 62.9502 339.35 61.644 340.119 59.7031C340.375 59.105 340.571 58.397 340.681 57.5791H335.322ZM358.082 47.1299V53.5264H348.707V47.1299H343.628V64H348.707V57.5791H358.082V64H363.135V47.1299H358.082ZM373.578 47.1299L365.302 64H370.954L371.955 61.9736H380.878L381.879 64H387.506L379.23 47.1299H373.578ZM373.908 57.9209L376.41 52.8794L378.852 57.9209H373.908ZM402.917 64H408.545L405.859 58.4946C406.177 58.2871 406.47 58.0308 406.738 57.75C407.324 57.1763 407.776 56.5171 408.093 55.7725C408.728 54.2466 408.728 52.4521 408.093 50.9263C407.458 49.4248 406.262 48.2407 404.761 47.606C403.992 47.2886 403.186 47.1299 402.344 47.1299H389.685V64H394.763V59.5811H400.745L402.917 64ZM394.763 51.1704H401.318C401.917 51.1704 402.417 51.3901 402.844 51.8174C403.271 52.2446 403.491 52.7573 403.491 53.3555C403.491 53.9536 403.284 54.4663 402.856 54.8936C402.429 55.3208 401.917 55.5283 401.318 55.5283H394.763V51.1704ZM418.365 47.1299L410.089 64H415.741L416.742 61.9736H425.665L426.666 64H432.293L424.017 47.1299H418.365ZM418.695 57.9209L421.197 52.8794L423.639 57.9209H418.695ZM449.243 57.5791C449.206 57.689 449.182 57.7866 449.145 57.8721C448.828 58.6899 448.266 59.3247 447.448 59.7764C446.63 60.228 445.446 60.4478 443.872 60.4478C441.027 60.4478 439.27 59.5688 438.598 57.7988C438.366 57.2861 438.244 56.5415 438.244 55.5527C438.244 54.564 438.366 53.8071 438.598 53.2944C439.27 51.5488 441.027 50.6699 443.872 50.6699C445.434 50.6699 446.618 50.9019 447.424 51.3657C448.242 51.8174 448.815 52.4644 449.145 53.2944C449.157 53.3677 449.182 53.4409 449.218 53.5264H454.602C454.467 52.7451 454.272 52.0615 454.04 51.4756C453.271 49.5347 451.818 48.1919 449.926 47.5205C448.059 46.8491 446.203 46.6172 443.872 46.6538C441.54 46.6172 439.672 46.8491 437.78 47.5205C435.913 48.1919 434.46 49.5347 433.691 51.4756C433.227 52.5742 432.995 53.9292 432.995 55.5527C432.995 57.1763 433.227 58.5312 433.691 59.6299C434.472 61.5464 435.913 62.9014 437.78 63.585C439.672 64.2686 441.54 64.4761 443.872 64.4761C445.056 64.4761 446.118 64.415 447.082 64.293C448.046 64.1831 448.999 63.9512 449.938 63.6216C451.843 62.9502 453.271 61.644 454.04 59.7031C454.296 59.105 454.492 58.397 454.602 57.5791H449.243ZM474.883 47.1299H456.304V51.1704H463.055V64H468.133V51.1704H474.883V47.1299ZM494.579 51.1704V47.1299H477.331V64H494.579V59.9473H482.409V57.5791H493.59V53.5264H482.409V51.1704H494.579ZM511.174 64H516.802L514.116 58.4946C514.434 58.2871 514.727 58.0308 514.995 57.75C515.581 57.1763 516.033 56.5171 516.35 55.7725C516.985 54.2466 516.985 52.4521 516.35 50.9263C515.715 49.4248 514.519 48.2407 513.018 47.606C512.249 47.2886 511.443 47.1299 510.601 47.1299H497.942V64H503.02V59.5811H509.001L511.174 64ZM503.02 51.1704H509.575C510.173 51.1704 510.674 51.3901 511.101 51.8174C511.528 52.2446 511.748 52.7573 511.748 53.3555C511.748 53.9536 511.541 54.4663 511.113 54.8936C510.686 55.3208 510.173 55.5283 509.575 55.5283H503.02V51.1704ZM524.974 64V47.1299H519.896V64H524.974ZM548.125 52.0981C548.112 51.3535 547.966 50.6699 547.697 50.0718C547.294 49.1562 546.623 48.4238 545.671 47.8745C544.218 47.0322 541.728 46.605 538.2 46.605H538.09C534.562 46.605 532.072 47.0322 530.62 47.8745C529.667 48.4238 528.996 49.1562 528.593 50.0718C528.312 50.7065 528.166 51.4512 528.166 52.3179C528.166 53.1724 528.312 53.8804 528.618 54.4541C529.155 55.4795 530.058 56.2363 531.071 56.688C531.584 56.9199 532.231 57.0908 533 57.2251C533.781 57.3594 534.55 57.4448 535.307 57.5059C536.064 57.5547 537.004 57.5913 538.115 57.6279L541.167 57.7988C541.606 57.8354 541.826 57.8843 542.204 58.0308C542.595 58.165 542.814 58.4214 542.851 58.8242C542.9 59.52 542.399 59.9961 541.35 60.228C540.666 60.3745 539.616 60.4478 538.2 60.4478H538.09C536.625 60.4478 535.551 60.3745 534.868 60.228C534.355 60.1182 533.977 59.9351 533.745 59.7031C533.525 59.4956 533.415 59.1416 533.415 58.6289V58.519H528.166V58.9463C528.178 59.7153 528.325 60.3867 528.593 60.9727C528.996 61.9004 529.667 62.645 530.62 63.1943C532.072 64.0366 534.562 64.4517 538.09 64.4517H538.2C541.667 64.4395 544.145 64.0122 545.646 63.1455C546.599 62.5962 547.27 61.8638 547.673 60.9482C547.954 60.3013 548.1 59.5444 548.1 58.7021C548.1 57.8599 547.954 57.1519 547.648 56.5781C547.111 55.5039 546.196 54.7837 545.183 54.3442C544.682 54.1123 544.035 53.9414 543.254 53.8071C542.485 53.6729 541.716 53.5752 540.947 53.5142C540.19 53.4531 539.25 53.4165 538.115 53.4043L535.124 53.2212C534.685 53.1602 534.489 53.1235 534.086 53.0137C533.696 52.9038 533.476 52.6475 533.415 52.269C533.317 51.5732 533.769 51.1094 534.77 50.853C535.441 50.6943 536.491 50.6089 537.944 50.5967H538.176C539.641 50.6089 540.715 50.6821 541.398 50.8286C541.923 50.9385 542.314 51.1216 542.546 51.3535C542.766 51.5488 542.875 51.915 542.875 52.4521V52.5254H548.125V52.0981ZM568.663 47.1299H550.083V51.1704H556.834V64H561.912V51.1704H568.663V47.1299ZM576.188 64V47.1299H571.11V64H576.188ZM595.481 57.5791C595.444 57.689 595.42 57.7866 595.383 57.8721C595.066 58.6899 594.504 59.3247 593.687 59.7764C592.869 60.228 591.685 60.4478 590.11 60.4478C587.266 60.4478 585.508 59.5688 584.836 57.7988C584.604 57.2861 584.482 56.5415 584.482 55.5527C584.482 54.564 584.604 53.8071 584.836 53.2944C585.508 51.5488 587.266 50.6699 590.11 50.6699C591.672 50.6699 592.856 50.9019 593.662 51.3657C594.48 51.8174 595.054 52.4644 595.383 53.2944C595.396 53.3677 595.42 53.4409 595.457 53.5264H600.84C600.706 52.7451 600.51 52.0615 600.278 51.4756C599.509 49.5347 598.057 48.1919 596.165 47.5205C594.297 46.8491 592.441 46.6172 590.11 46.6538C587.778 46.6172 585.911 46.8491 584.019 47.5205C582.151 48.1919 580.698 49.5347 579.929 51.4756C579.465 52.5742 579.233 53.9292 579.233 55.5527C579.233 57.1763 579.465 58.5312 579.929 59.6299C580.71 61.5464 582.151 62.9014 584.019 63.585C585.911 64.2686 587.778 64.4761 590.11 64.4761C591.294 64.4761 592.356 64.415 593.32 64.293C594.285 64.1831 595.237 63.9512 596.177 63.6216C598.081 62.9502 599.509 61.644 600.278 59.7031C600.535 59.105 600.73 58.397 600.84 57.5791H595.481Z" fill="white"/>
<path d="M329.84 101.34H331.72L329.42 116H328.02L326.62 108.82L325.14 116H323.8L321.5 101.34H323.42L324.76 110.28L326.16 103.26H327.04L328.5 110.28L329.84 101.34ZM333.451 101.34H337.851V103.24H335.351V107.76H337.851V109.58H335.351V114.1H337.851V116H333.451V101.34ZM342.926 112.2H341.406L340.966 116H339.146L341.046 101.34H343.346L345.266 116H343.406L342.926 112.2ZM341.626 110.38H342.706L342.166 105.86L341.626 110.38ZM348.915 109.52V116H347.015V101.34H350.775C351.255 101.34 351.668 101.513 352.015 101.86C352.362 102.207 352.535 102.62 352.535 103.1V107.76C352.535 108.24 352.362 108.653 352.015 109C351.668 109.347 351.255 109.52 350.775 109.52H348.915ZM348.915 103.18V107.68H350.175C350.308 107.68 350.415 107.64 350.495 107.56C350.588 107.467 350.635 107.353 350.635 107.22V103.64C350.635 103.507 350.588 103.4 350.495 103.32C350.415 103.227 350.308 103.18 350.175 103.18H348.915ZM356.338 116C355.858 116 355.445 115.827 355.098 115.48C354.752 115.133 354.578 114.72 354.578 114.24V103.1C354.578 102.62 354.752 102.207 355.098 101.86C355.445 101.513 355.858 101.34 356.338 101.34H358.338C358.818 101.34 359.232 101.513 359.578 101.86C359.925 102.207 360.098 102.62 360.098 103.1V114.24C360.098 114.72 359.925 115.133 359.578 115.48C359.232 115.827 358.818 116 358.338 116H356.338ZM356.478 113.7C356.478 113.833 356.518 113.947 356.598 114.04C356.692 114.12 356.805 114.16 356.938 114.16H357.738C357.872 114.16 357.978 114.12 358.058 114.04C358.152 113.947 358.198 113.833 358.198 113.7V103.64C358.198 103.507 358.152 103.4 358.058 103.32C357.978 103.227 357.872 103.18 357.738 103.18H356.938C356.805 103.18 356.692 103.227 356.598 103.32C356.518 103.4 356.478 103.507 356.478 103.64V113.7ZM366.056 109.58H366.076L365.996 106.56V101.34H367.796V116H366.096L364.116 107.76H364.096L364.176 110.78V116H362.376V101.34H364.076L366.056 109.58Z" fill="white"/>
<path d="M322.04 131.34H326.44V133.24H323.94V137.76H326.44V139.58H323.94V146H322.04V131.34ZM331.085 142.2H329.565L329.125 146H327.305L329.205 131.34H331.505L333.425 146H331.565L331.085 142.2ZM329.785 140.38H330.865L330.325 135.86L329.785 140.38ZM336.84 143.7C336.84 143.833 336.88 143.947 336.96 144.04C337.053 144.12 337.167 144.16 337.3 144.16H338.1C338.233 144.16 338.34 144.12 338.42 144.04C338.513 143.947 338.56 143.833 338.56 143.7V140H340.42V144.24C340.42 144.72 340.247 145.133 339.9 145.48C339.553 145.827 339.14 146 338.66 146H336.7C336.22 146 335.807 145.827 335.46 145.48C335.113 145.133 334.94 144.72 334.94 144.24V133.1C334.94 132.62 335.113 132.207 335.46 131.86C335.807 131.513 336.22 131.34 336.7 131.34H338.66C339.14 131.34 339.553 131.513 339.9 131.86C340.247 132.207 340.42 132.62 340.42 133.1V137.34H338.56V133.64C338.56 133.507 338.513 133.4 338.42 133.32C338.34 133.227 338.233 133.18 338.1 133.18H337.3C337.167 133.18 337.053 133.227 336.96 133.32C336.88 133.4 336.84 133.507 336.84 133.64V143.7ZM342.66 131.34H347.06V133.24H344.56V137.76H347.06V139.58H344.56V144.1H347.06V146H342.66V131.34ZM354.588 146H352.688V131.34H354.588V146ZM356.333 131.34H361.353V133.24H359.793V146H357.893V133.24H356.333V131.34ZM363.088 131.34H367.488V133.24H364.988V137.76H367.488V139.58H364.988V144.1H367.488V146H363.088V131.34ZM372.904 138.44L374.444 131.34H376.444V146H374.604V140.02L374.684 137.22H374.664L373.384 143.6H372.384L371.104 137.22H371.084L371.164 140.02V146H369.324V131.34H371.324L372.904 138.44Z" fill="white"/>
<path d="M323.94 173.7C323.94 173.833 323.98 173.947 324.06 174.04C324.153 174.12 324.267 174.16 324.4 174.16H325.2C325.333 174.16 325.44 174.12 325.52 174.04C325.613 173.947 325.66 173.833 325.66 173.7V170H327.52V174.24C327.52 174.72 327.347 175.133 327 175.48C326.653 175.827 326.24 176 325.76 176H323.8C323.32 176 322.907 175.827 322.56 175.48C322.213 175.133 322.04 174.72 322.04 174.24V163.1C322.04 162.62 322.213 162.207 322.56 161.86C322.907 161.513 323.32 161.34 323.8 161.34H325.76C326.24 161.34 326.653 161.513 327 161.86C327.347 162.207 327.52 162.62 327.52 163.1V167.34H325.66V163.64C325.66 163.507 325.613 163.4 325.52 163.32C325.44 163.227 325.333 163.18 325.2 163.18H324.4C324.267 163.18 324.153 163.227 324.06 163.32C323.98 163.4 323.94 163.507 323.94 163.64V173.7ZM329.76 161.34H331.66V174.1H334.16V176H329.76V161.34ZM337.364 176C336.884 176 336.471 175.827 336.124 175.48C335.777 175.133 335.604 174.72 335.604 174.24V163.1C335.604 162.62 335.777 162.207 336.124 161.86C336.471 161.513 336.884 161.34 337.364 161.34H339.364C339.844 161.34 340.257 161.513 340.604 161.86C340.951 162.207 341.124 162.62 341.124 163.1V174.24C341.124 174.72 340.951 175.133 340.604 175.48C340.257 175.827 339.844 176 339.364 176H337.364ZM337.504 173.7C337.504 173.833 337.544 173.947 337.624 174.04C337.717 174.12 337.831 174.16 337.964 174.16H338.764C338.897 174.16 339.004 174.12 339.084 174.04C339.177 173.947 339.224 173.833 339.224 173.7V163.64C339.224 163.507 339.177 163.4 339.084 163.32C339.004 163.227 338.897 163.18 338.764 163.18H337.964C337.831 163.18 337.717 163.227 337.624 163.32C337.544 163.4 337.504 163.507 337.504 163.64V173.7ZM342.569 161.34H347.589V163.24H346.029V176H344.129V163.24H342.569V161.34ZM352.784 169.58H351.224V176H349.324V161.34H351.224V167.76H352.784V161.34H354.684V176H352.784V169.58ZM356.966 161.34H361.366V163.24H358.866V167.76H361.366V169.58H358.866V174.1H361.366V176H356.966V161.34ZM364.961 169.58C364.481 169.58 364.068 169.407 363.721 169.06C363.374 168.713 363.201 168.3 363.201 167.82V163.1C363.201 162.62 363.374 162.207 363.721 161.86C364.068 161.513 364.481 161.34 364.961 161.34H366.961C367.441 161.34 367.854 161.513 368.201 161.86C368.548 162.207 368.721 162.62 368.721 163.1V166.52H366.821V163.64C366.821 163.507 366.774 163.4 366.681 163.32C366.601 163.227 366.494 163.18 366.361 163.18H365.561C365.428 163.18 365.314 163.227 365.221 163.32C365.141 163.4 365.101 163.507 365.101 163.64V167.32C365.101 167.453 365.141 167.567 365.221 167.66C365.314 167.74 365.428 167.78 365.561 167.78H366.961C367.441 167.78 367.854 167.953 368.201 168.3C368.548 168.647 368.721 169.06 368.721 169.54V174.24C368.721 174.72 368.548 175.133 368.201 175.48C367.854 175.827 367.441 176 366.961 176H364.961C364.481 176 364.068 175.827 363.721 175.48C363.374 175.133 363.201 174.72 363.201 174.24V170.78H365.101V173.7C365.101 173.833 365.141 173.947 365.221 174.04C365.314 174.12 365.428 174.16 365.561 174.16H366.361C366.494 174.16 366.601 174.12 366.681 174.04C366.774 173.947 366.821 173.833 366.821 173.7V170.04C366.821 169.907 366.774 169.8 366.681 169.72C366.601 169.627 366.494 169.58 366.361 169.58H364.961Z" fill="white"/>
<path d="M325.5 199.58H323.94V206H322.04V191.34H323.94V197.76H325.5V191.34H327.4V206H325.5V199.58ZM332.921 202.2H331.401L330.961 206H329.141L331.041 191.34H333.341L335.261 206H333.401L332.921 202.2ZM331.621 200.38H332.701L332.161 195.86L331.621 200.38ZM335.767 191.34H340.787V193.24H339.227V206H337.327V193.24H335.767V191.34Z" fill="white"/>
<path d="M325.72 259.58H325.74L325.66 256.56V251.34H327.46V266H325.76L323.78 257.76H323.76L323.84 260.78V266H322.04V251.34H323.74L325.72 259.58ZM329.74 251.34H334.14V253.24H331.64V257.76H334.14V259.58H331.64V264.1H334.14V266H329.74V251.34ZM337.875 263.7C337.875 263.833 337.915 263.947 337.995 264.04C338.088 264.12 338.202 264.16 338.335 264.16H339.135C339.268 264.16 339.375 264.12 339.455 264.04C339.548 263.947 339.595 263.833 339.595 263.7V260H341.455V264.24C341.455 264.72 341.282 265.133 340.935 265.48C340.588 265.827 340.175 266 339.695 266H337.735C337.255 266 336.842 265.827 336.495 265.48C336.148 265.133 335.975 264.72 335.975 264.24V253.1C335.975 252.62 336.148 252.207 336.495 251.86C336.842 251.513 337.255 251.34 337.735 251.34H339.695C340.175 251.34 340.588 251.513 340.935 251.86C341.282 252.207 341.455 252.62 341.455 253.1V257.34H339.595V253.64C339.595 253.507 339.548 253.4 339.455 253.32C339.375 253.227 339.268 253.18 339.135 253.18H338.335C338.202 253.18 338.088 253.227 337.995 253.32C337.915 253.4 337.875 253.507 337.875 253.64V263.7ZM347.255 257.02L350.595 266H348.475L345.955 259.06L345.595 259.86V266H343.695V251.34H345.595V256.32L348.255 251.34H350.315L347.255 257.02Z" fill="white"/>
<path d="M325.62 228.44L327.16 221.34H329.16V236H327.32V230.02L327.4 227.22H327.38L326.1 233.6H325.1L323.82 227.22H323.8L323.88 230.02V236H322.04V221.34H324.04L325.62 228.44ZM333.199 236C332.719 236 332.306 235.827 331.959 235.48C331.613 235.133 331.439 234.72 331.439 234.24V223.1C331.439 222.62 331.613 222.207 331.959 221.86C332.306 221.513 332.719 221.34 333.199 221.34H335.199C335.679 221.34 336.093 221.513 336.439 221.86C336.786 222.207 336.959 222.62 336.959 223.1V234.24C336.959 234.72 336.786 235.133 336.439 235.48C336.093 235.827 335.679 236 335.199 236H333.199ZM333.339 233.7C333.339 233.833 333.379 233.947 333.459 234.04C333.553 234.12 333.666 234.16 333.799 234.16H334.599C334.733 234.16 334.839 234.12 334.919 234.04C335.013 233.947 335.059 233.833 335.059 233.7V223.64C335.059 223.507 335.013 223.4 334.919 223.32C334.839 223.227 334.733 223.18 334.599 223.18H333.799C333.666 223.18 333.553 223.227 333.459 223.32C333.379 223.4 333.339 223.507 333.339 223.64V233.7ZM340.997 236C340.517 236 340.104 235.827 339.757 235.48C339.41 235.133 339.237 234.72 339.237 234.24V221.34H341.137V233.7C341.137 233.833 341.177 233.947 341.257 234.04C341.35 234.12 341.464 234.16 341.597 234.16H342.317C342.45 234.16 342.557 234.12 342.637 234.04C342.73 233.947 342.777 233.833 342.777 233.7V221.34H344.677V234.24C344.677 234.72 344.504 235.133 344.157 235.48C343.81 235.827 343.397 236 342.917 236H340.997ZM346.123 221.34H351.143V223.24H349.583V236H347.683V223.24H346.123V221.34ZM356.339 229.58H354.779V236H352.879V221.34H354.779V227.76H356.339V221.34H358.239V236H356.339V229.58Z" fill="white"/>
<path d="M27.8 234.58C27.32 234.58 26.9067 234.407 26.56 234.06C26.2133 233.713 26.04 233.3 26.04 232.82V228.1C26.04 227.62 26.2133 227.207 26.56 226.86C26.9067 226.513 27.32 226.34 27.8 226.34H29.8C30.28 226.34 30.6933 226.513 31.04 226.86C31.3867 227.207 31.56 227.62 31.56 228.1V231.52H29.66V228.64C29.66 228.507 29.6133 228.4 29.52 228.32C29.44 228.227 29.3333 228.18 29.2 228.18H28.4C28.2667 228.18 28.1533 228.227 28.06 228.32C27.98 228.4 27.94 228.507 27.94 228.64V232.32C27.94 232.453 27.98 232.567 28.06 232.66C28.1533 232.74 28.2667 232.78 28.4 232.78H29.8C30.28 232.78 30.6933 232.953 31.04 233.3C31.3867 233.647 31.56 234.06 31.56 234.54V239.24C31.56 239.72 31.3867 240.133 31.04 240.48C30.6933 240.827 30.28 241 29.8 241H27.8C27.32 241 26.9067 240.827 26.56 240.48C26.2133 240.133 26.04 239.72 26.04 239.24V235.78H27.94V238.7C27.94 238.833 27.98 238.947 28.06 239.04C28.1533 239.12 28.2667 239.16 28.4 239.16H29.2C29.3333 239.16 29.44 239.12 29.52 239.04C29.6133 238.947 29.66 238.833 29.66 238.7V235.04C29.66 234.907 29.6133 234.8 29.52 234.72C29.44 234.627 29.3333 234.58 29.2 234.58H27.8ZM33.8377 226.34H38.2377V228.24H35.7377V232.76H38.2377V234.58H35.7377V239.1H38.2377V241H33.8377V226.34ZM45.8328 241H43.8728L42.4328 236.06L40.9728 241H39.0328L41.3928 233.16L39.3328 226.34H41.3128L42.4528 230.56L43.6328 226.34H45.5328L43.4728 233.16L45.8328 241ZM48.5297 241H46.6297V238.9H48.5297V241ZM48.5297 234.72H46.6297V232.62H48.5297V234.72ZM57.7489 233.44L59.2889 226.34H61.2889V241H59.4489V235.02L59.5289 232.22H59.5089L58.2289 238.6H57.2289L55.9489 232.22H55.9289L56.0089 235.02V241H54.1689V226.34H56.1689L57.7489 233.44ZM66.8081 237.2H65.2881L64.8481 241H63.0281L64.9281 226.34H67.2281L69.1481 241H67.2881L66.8081 237.2ZM65.5081 235.38H66.5881L66.0481 230.86L65.5081 235.38ZM70.897 226.34H72.797V239.1H75.297V241H70.897V226.34ZM76.9369 226.34H81.3369V228.24H78.8369V232.76H81.3369V234.58H78.8369V239.1H81.3369V241H76.9369V226.34Z" fill="white"/>
<path d="M29.28 262.2H27.76L27.32 266H25.5L27.4 251.34H29.7L31.62 266H29.76L29.28 262.2ZM27.98 260.38H29.06L28.52 255.86L27.98 260.38ZM35.8545 258.34H38.6545V264.24C38.6545 264.72 38.4812 265.133 38.1345 265.48C37.7879 265.827 37.3745 266 36.8945 266H34.8945C34.4145 266 34.0012 265.827 33.6545 265.48C33.3079 265.133 33.1345 264.72 33.1345 264.24V253.1C33.1345 252.62 33.3079 252.207 33.6545 251.86C34.0012 251.513 34.4145 251.34 34.8945 251.34H36.8545C37.3345 251.34 37.7479 251.513 38.0945 251.86C38.4412 252.207 38.6145 252.62 38.6145 253.1V256.74H36.7545V253.64C36.7545 253.507 36.7079 253.4 36.6145 253.32C36.5345 253.227 36.4279 253.18 36.2945 253.18H35.4945C35.3612 253.18 35.2479 253.227 35.1545 253.32C35.0745 253.4 35.0345 253.507 35.0345 253.64V263.7C35.0345 263.833 35.0745 263.947 35.1545 264.04C35.2479 264.12 35.3612 264.16 35.4945 264.16H36.2945C36.4279 264.16 36.5345 264.12 36.6145 264.04C36.7079 263.947 36.7545 263.833 36.7545 263.7V260.16H35.8545V258.34ZM40.9322 251.34H45.3322V253.24H42.8322V257.76H45.3322V259.58H42.8322V264.1H45.3322V266H40.9322V251.34ZM48.6273 266H46.7273V263.9H48.6273V266ZM48.6273 259.72H46.7273V257.62H48.6273V259.72ZM56.1466 257.14H56.9466C57.0799 257.14 57.1866 257.1 57.2666 257.02C57.3599 256.927 57.4066 256.813 57.4066 256.68V253.64C57.4066 253.507 57.3599 253.4 57.2666 253.32C57.1866 253.227 57.0799 253.18 56.9466 253.18H56.1466C56.0132 253.18 55.8999 253.227 55.8066 253.32C55.7266 253.4 55.6866 253.507 55.6866 253.64V255.7H53.8266V253.1C53.8266 252.62 53.9999 252.207 54.3466 251.86C54.6932 251.513 55.1066 251.34 55.5866 251.34H57.5466C58.0266 251.34 58.4399 251.513 58.7866 251.86C59.1332 252.207 59.3066 252.62 59.3066 253.1V256.5C59.3066 256.78 59.2732 257.013 59.2066 257.2C59.1532 257.373 59.0799 257.52 58.9866 257.64C58.8932 257.76 58.7932 257.853 58.6866 257.92C58.5799 257.973 58.4799 258.02 58.3866 258.06C58.5732 258.127 58.7732 258.273 58.9866 258.5C59.1999 258.727 59.3066 259.1 59.3066 259.62V264.24C59.3066 264.72 59.1332 265.133 58.7866 265.48C58.4399 265.827 58.0266 266 57.5466 266H55.5866C55.1066 266 54.6932 265.827 54.3466 265.48C53.9999 265.133 53.8266 264.72 53.8266 264.24V261.62H55.6866V263.7C55.6866 263.833 55.7266 263.947 55.8066 264.04C55.8999 264.12 56.0132 264.16 56.1466 264.16H56.9466C57.0799 264.16 57.1866 264.12 57.2666 264.04C57.3599 263.947 57.4066 263.833 57.4066 263.7V259.5C57.4066 259.367 57.3599 259.26 57.2666 259.18C57.1866 259.087 57.0799 259.04 56.9466 259.04H56.1466V257.14ZM63.1016 266C62.6216 266 62.2082 265.827 61.8616 265.48C61.5149 265.133 61.3416 264.72 61.3416 264.24V253.1C61.3416 252.62 61.5149 252.207 61.8616 251.86C62.2082 251.513 62.6216 251.34 63.1016 251.34H65.1016C65.5816 251.34 65.9949 251.513 66.3416 251.86C66.6882 252.207 66.8616 252.62 66.8616 253.1V264.24C66.8616 264.72 66.6882 265.133 66.3416 265.48C65.9949 265.827 65.5816 266 65.1016 266H63.1016ZM63.2416 263.7C63.2416 263.833 63.2816 263.947 63.3616 264.04C63.4549 264.12 63.5682 264.16 63.7016 264.16H64.5016C64.6349 264.16 64.7416 264.12 64.8216 264.04C64.9149 263.947 64.9616 263.833 64.9616 263.7V253.64C64.9616 253.507 64.9149 253.4 64.8216 253.32C64.7416 253.227 64.6349 253.18 64.5016 253.18H63.7016C63.5682 253.18 63.4549 253.227 63.3616 253.32C63.2816 253.4 63.2416 253.507 63.2416 253.64V263.7Z" fill="white"/>
<path d="M29.8 276.34C30.28 276.34 30.6933 276.513 31.04 276.86C31.3867 277.207 31.56 277.62 31.56 278.1V282.76C31.56 283.147 31.44 283.493 31.2 283.8C30.9733 284.107 30.6867 284.32 30.34 284.44L32.74 291H30.7L28.42 284.52H27.94V291H26.04V276.34H29.8ZM27.94 278.18V282.68H29.2C29.3333 282.68 29.44 282.64 29.52 282.56C29.6133 282.467 29.66 282.353 29.66 282.22V278.64C29.66 278.507 29.6133 278.4 29.52 278.32C29.44 278.227 29.3333 278.18 29.2 278.18H27.94ZM37.2144 287.2H35.6944L35.2544 291H33.4344L35.3344 276.34H37.6344L39.5544 291H37.6944L37.2144 287.2ZM35.9144 285.38H36.9944L36.4544 280.86L35.9144 285.38ZM42.9689 288.7C42.9689 288.833 43.0089 288.947 43.0889 289.04C43.1822 289.12 43.2956 289.16 43.4289 289.16H44.2289C44.3622 289.16 44.4689 289.12 44.5489 289.04C44.6422 288.947 44.6889 288.833 44.6889 288.7V285H46.5489V289.24C46.5489 289.72 46.3756 290.133 46.0289 290.48C45.6822 290.827 45.2689 291 44.7889 291H42.8289C42.3489 291 41.9356 290.827 41.5889 290.48C41.2422 290.133 41.0689 289.72 41.0689 289.24V278.1C41.0689 277.62 41.2422 277.207 41.5889 276.86C41.9356 276.513 42.3489 276.34 42.8289 276.34H44.7889C45.2689 276.34 45.6822 276.513 46.0289 276.86C46.3756 277.207 46.5489 277.62 46.5489 278.1V282.34H44.6889V278.64C44.6889 278.507 44.6422 278.4 44.5489 278.32C44.4689 278.227 44.3622 278.18 44.2289 278.18H43.4289C43.2956 278.18 43.1822 278.227 43.0889 278.32C43.0089 278.4 42.9689 278.507 42.9689 278.64V288.7ZM48.7884 276.34H53.1884V278.24H50.6884V282.76H53.1884V284.58H50.6884V289.1H53.1884V291H48.7884V276.34ZM56.4836 291H54.5836V288.9H56.4836V291ZM56.4836 284.72H54.5836V282.62H56.4836V284.72ZM65.5828 284.58H64.0228V291H62.1228V276.34H64.0228V282.76H65.5828V276.34H67.4828V291H65.5828V284.58ZM71.5242 291C71.0442 291 70.6309 290.827 70.2842 290.48C69.9376 290.133 69.7642 289.72 69.7642 289.24V276.34H71.6642V288.7C71.6642 288.833 71.7042 288.947 71.7842 289.04C71.8776 289.12 71.9909 289.16 72.1242 289.16H72.8442C72.9776 289.16 73.0842 289.12 73.1642 289.04C73.2576 288.947 73.3042 288.833 73.3042 288.7V276.34H75.2042V289.24C75.2042 289.72 75.0309 290.133 74.6842 290.48C74.3376 290.827 73.9242 291 73.4442 291H71.5242ZM81.0637 283.44L82.6037 276.34H84.6037V291H82.7637V285.02L82.8437 282.22H82.8237L81.5437 288.6H80.5437L79.2637 282.22H79.2437L79.3237 285.02V291H77.4837V276.34H79.4837L81.0637 283.44ZM90.123 287.2H88.603L88.163 291H86.343L88.243 276.34H90.543L92.463 291H90.603L90.123 287.2ZM88.823 285.38H89.903L89.363 280.86L88.823 285.38ZM97.8919 284.58H97.9119L97.8319 281.56V276.34H99.6319V291H97.9319L95.9519 282.76H95.9319L96.0119 285.78V291H94.2119V276.34H95.9119L97.8919 284.58Z" fill="white"/>
<path d="M319.5 296.34H324.52V298.24H322.96V311H321.06V298.24H319.5V296.34ZM327.723 311C327.243 311 326.829 310.827 326.483 310.48C326.136 310.133 325.963 309.72 325.963 309.24V298.1C325.963 297.62 326.136 297.207 326.483 296.86C326.829 296.513 327.243 296.34 327.723 296.34H329.723C330.203 296.34 330.616 296.513 330.963 296.86C331.309 297.207 331.483 297.62 331.483 298.1V309.24C331.483 309.72 331.309 310.133 330.963 310.48C330.616 310.827 330.203 311 329.723 311H327.723ZM327.863 308.7C327.863 308.833 327.903 308.947 327.983 309.04C328.076 309.12 328.189 309.16 328.323 309.16H329.123C329.256 309.16 329.363 309.12 329.443 309.04C329.536 308.947 329.583 308.833 329.583 308.7V298.64C329.583 298.507 329.536 298.4 329.443 298.32C329.363 298.227 329.256 298.18 329.123 298.18H328.323C328.189 298.18 328.076 298.227 327.983 298.32C327.903 298.4 327.863 298.507 327.863 298.64V308.7ZM332.927 296.34H337.947V298.24H336.387V311H334.487V298.24H332.927V296.34ZM342.22 307.2H340.7L340.26 311H338.44L340.34 296.34H342.64L344.56 311H342.7L342.22 307.2ZM340.92 305.38H342L341.46 300.86L340.92 305.38ZM346.309 296.34H348.209V309.1H350.709V311H346.309V296.34ZM358.042 311H356.142V296.34H358.042V311ZM359.787 296.34H364.807V298.24H363.247V311H361.347V298.24H359.787V296.34ZM366.542 296.34H370.942V298.24H368.442V302.76H370.942V304.58H368.442V309.1H370.942V311H366.542V296.34ZM376.357 303.44L377.897 296.34H379.897V311H378.057V305.02L378.137 302.22H378.117L376.837 308.6H375.837L374.557 302.22H374.537L374.617 305.02V311H372.777V296.34H374.777L376.357 303.44Z" fill="white"/>
<path d="M401 109L555 109" stroke="#70FF00" stroke-width="10" stroke-linecap="square"/>
<path d="M400 139H542" stroke="#70FF00" stroke-width="10" stroke-linecap="square"/>
<path d="M400 169H530" stroke="#70FF00" stroke-width="10" stroke-linecap="square"/>
<path d="M400 199H514" stroke="#70FF00" stroke-width="10" stroke-linecap="square"/>
<path d="M400 229H432" stroke="#70FF00" stroke-width="10" stroke-linecap="square"/>
<path d="M400 259H416" stroke="#70FF00" stroke-width="10" stroke-linecap="square"/>
<rect x="575" y="246" width="25" height="25" rx="2" fill="#434343"/>
<rect x="575" y="126" width="25" height="25" rx="2" fill="#434343"/>
<rect x="575" y="216" width="25" height="25" rx="2" fill="#434343"/>
<rect x="575" y="186" width="25" height="25" rx="2" fill="#434343"/>
<rect x="575" y="156" width="25" height="25" rx="2" fill="#434343"/>
<rect x="575" y="96" width="25" height="25" rx="2" fill="#434343"/>
<path d="M584.46 262.36L587.76 251.34H589.58V262H590.38V263.8H589.58V266H587.84V263.8H584.46V262.36ZM587.84 262V256.36L586.28 262H587.84Z" fill="white"/>
<path d="M582.6 131.34H585.34V146H583.44V133.24H582.6V131.34ZM587.035 142.36L590.335 131.34H592.155V142H592.955V143.8H592.155V146H590.415V143.8H587.035V142.36ZM590.415 142V136.36L588.855 142H590.415Z" fill="white"/>
<path d="M588.18 228.94C588.18 228.807 588.133 228.7 588.04 228.62C587.96 228.527 587.853 228.48 587.72 228.48H586.84C586.507 228.48 586.327 228.667 586.3 229.04H584.7L585 221.34H590.06V223.24H586.68L586.56 226.74C586.613 226.713 586.693 226.693 586.8 226.68C586.92 226.653 587.027 226.64 587.12 226.64H588.32C588.8 226.64 589.213 226.813 589.56 227.16C589.907 227.507 590.08 227.92 590.08 228.4V234.24C590.08 234.72 589.907 235.133 589.56 235.48C589.213 235.827 588.8 236 588.32 236H586.36C585.88 236 585.467 235.827 585.12 235.48C584.773 235.133 584.6 234.72 584.6 234.24V231.62H586.46V233.7C586.46 233.833 586.5 233.947 586.58 234.04C586.673 234.12 586.787 234.16 586.92 234.16H587.72C587.853 234.16 587.96 234.12 588.04 234.04C588.133 233.947 588.18 233.833 588.18 233.7V228.94Z" fill="white"/>
<path d="M588.52 199.78H586.66C586.18 199.78 585.767 199.607 585.42 199.26C585.073 198.913 584.9 198.5 584.9 198.02V193.1C584.9 192.62 585.073 192.207 585.42 191.86C585.767 191.513 586.18 191.34 586.66 191.34H588.66C589.14 191.34 589.553 191.513 589.9 191.86C590.247 192.207 590.42 192.62 590.42 193.1V204.24C590.42 204.72 590.247 205.133 589.9 205.48C589.553 205.827 589.14 206 588.66 206H586.7C586.22 206 585.807 205.827 585.46 205.48C585.113 205.133 584.94 204.72 584.94 204.24V201.62H586.8V203.7C586.8 203.833 586.84 203.947 586.92 204.04C587.013 204.12 587.127 204.16 587.26 204.16H588.06C588.193 204.16 588.3 204.12 588.38 204.04C588.473 203.947 588.52 203.833 588.52 203.7V199.78ZM586.8 197.5C586.8 197.633 586.84 197.747 586.92 197.84C587.013 197.92 587.127 197.96 587.26 197.96H588.52V193.64C588.52 193.507 588.473 193.4 588.38 193.32C588.3 193.227 588.193 193.18 588.06 193.18H587.26C587.127 193.18 587.013 193.227 586.92 193.32C586.84 193.4 586.8 193.507 586.8 193.64V197.5Z" fill="white"/>
<path d="M583.6 161.34H586.34V176H584.44V163.24H583.6V161.34ZM588.175 161.34H590.915V176H589.015V163.24H588.175V161.34Z" fill="white"/>
<path d="M582.6 101.34H585.34V116H583.44V103.24H582.6V101.34ZM590.755 108.94C590.755 108.807 590.708 108.7 590.615 108.62C590.535 108.527 590.428 108.48 590.295 108.48H589.415C589.082 108.48 588.902 108.667 588.875 109.04H587.275L587.575 101.34H592.635V103.24H589.255L589.135 106.74C589.188 106.713 589.268 106.693 589.375 106.68C589.495 106.653 589.602 106.64 589.695 106.64H590.895C591.375 106.64 591.788 106.813 592.135 107.16C592.482 107.507 592.655 107.92 592.655 108.4V114.24C592.655 114.72 592.482 115.133 592.135 115.48C591.788 115.827 591.375 116 590.895 116H588.935C588.455 116 588.042 115.827 587.695 115.48C587.348 115.133 587.175 114.72 587.175 114.24V111.62H589.035V113.7C589.035 113.833 589.075 113.947 589.155 114.04C589.248 114.12 589.362 114.16 589.495 114.16H590.295C590.428 114.16 590.535 114.12 590.615 114.04C590.708 113.947 590.755 113.833 590.755 113.7V108.94Z" fill="white"/>
<rect x="575" y="291" width="25" height="25" rx="2" fill="#70FF00"/>
<path d="M584.18 303.94C584.18 303.807 584.133 303.7 584.04 303.62C583.96 303.527 583.853 303.48 583.72 303.48H582.84C582.507 303.48 582.327 303.667 582.3 304.04H580.7L581 296.34H586.06V298.24H582.68L582.56 301.74C582.613 301.713 582.693 301.693 582.8 301.68C582.92 301.653 583.027 301.64 583.12 301.64H584.32C584.8 301.64 585.213 301.813 585.56 302.16C585.907 302.507 586.08 302.92 586.08 303.4V309.24C586.08 309.72 585.907 310.133 585.56 310.48C585.213 310.827 584.8 311 584.32 311H582.36C581.88 311 581.467 310.827 581.12 310.48C580.773 310.133 580.6 309.72 580.6 309.24V306.62H582.46V308.7C582.46 308.833 582.5 308.947 582.58 309.04C582.673 309.12 582.787 309.16 582.92 309.16H583.72C583.853 309.16 583.96 309.12 584.04 309.04C584.133 308.947 584.18 308.833 584.18 308.7V303.94ZM589.875 302.36H591.735C592.215 302.36 592.628 302.533 592.975 302.88C593.322 303.227 593.495 303.64 593.495 304.12V309.24C593.495 309.72 593.322 310.133 592.975 310.48C592.628 310.827 592.215 311 591.735 311H589.735C589.255 311 588.842 310.827 588.495 310.48C588.148 310.133 587.975 309.72 587.975 309.24V298.1C587.975 297.62 588.148 297.207 588.495 296.86C588.842 296.513 589.255 296.34 589.735 296.34H591.695C592.175 296.34 592.588 296.513 592.935 296.86C593.282 297.207 593.455 297.62 593.455 298.1V300.7H591.595V298.64C591.595 298.507 591.548 298.4 591.455 298.32C591.375 298.227 591.268 298.18 591.135 298.18H590.335C590.202 298.18 590.088 298.227 589.995 298.32C589.915 298.4 589.875 298.507 589.875 298.64V302.36ZM591.595 304.64C591.595 304.507 591.548 304.4 591.455 304.32C591.375 304.227 591.268 304.18 591.135 304.18H589.875V308.7C589.875 308.833 589.915 308.947 589.995 309.04C590.088 309.12 590.202 309.16 590.335 309.16H591.135C591.268 309.16 591.375 309.12 591.455 309.04C591.548 308.947 591.595 308.833 591.595 308.7V304.64Z" fill="#222222"/>
<line x1="288.25" x2="288.25" y2="333" stroke="#3A3A3A" stroke-width="0.5"/>
<defs>
<filter id="filter0_d_411_322" x="46.2712" y="337.5" width="610.229" height="23" filterUnits="userSpaceOnUse" color-interpolation-filters="sRGB">
<feFlood flood-opacity="0" result="BackgroundImageFix"/>
<feColorMatrix in="SourceAlpha" type="matrix" values="0 0 0 0 0 0 0 0 0 0 0 0 0 0 0 0 0 0 127 0" result="hardAlpha"/>
<feOffset dy="4"/>
<feGaussianBlur stdDeviation="2"/>
<feComposite in2="hardAlpha" operator="out"/>
<feColorMatrix type="matrix" values="0 0 0 0 0 0 0 0 0 0 0 0 0 0 0 0 0 0 0.25 0"/>
<feBlend mode="normal" in2="BackgroundImageFix" result="effect1_dropShadow_411_322"/>
<feBlend mode="normal" in="SourceGraphic" in2="effect1_dropShadow_411_322" result="shape"/>
</filter>
<filter id="filter1_d_411_322" x="0" y="0" width="656" height="360" filterUnits="userSpaceOnUse" color-interpolation-filters="sRGB">
<feFlood flood-opacity="0" result="BackgroundImageFix"/>
<feColorMatrix in="SourceAlpha" type="matrix" values="0 0 0 0 0 0 0 0 0 0 0 0 0 0 0 0 0 0 127 0" result="hardAlpha"/>
<feOffset dy="4"/>
<feGaussianBlur stdDeviation="2"/>
<feComposite in2="hardAlpha" operator="out"/>
<feColorMatrix type="matrix" values="0 0 0 0 0 0 0 0 0 0 0 0 0 0 0 0 0 0 0.25 0"/>
<feBlend mode="normal" in2="BackgroundImageFix" result="effect1_dropShadow_411_322"/>
<feBlend mode="normal" in="SourceGraphic" in2="effect1_dropShadow_411_322" result="shape"/>
</filter>
<filter id="filter2_b_411_322" x="28.4904" y="40.485" width="190.278" height="30.1599" filterUnits="userSpaceOnUse" color-interpolation-filters="sRGB">
<feFlood flood-opacity="0" result="BackgroundImageFix"/>
<feGaussianBlur in="BackgroundImage" stdDeviation="3.0661"/>
<feComposite in2="SourceAlpha" operator="in" result="effect1_backgroundBlur_411_322"/>
<feBlend mode="normal" in="SourceGraphic" in2="effect1_backgroundBlur_411_322" result="shape"/>
</filter>
</defs>
</svg>
