<svg width="657" height="361" viewBox="0 0 657 361" fill="none" xmlns="http://www.w3.org/2000/svg">
<g filter="url(#filter0_d_690_461)">
<path d="M61.1977 338.597L51.3511 348.597C50.1061 349.861 51.0018 352 52.7761 352H650C651.105 352 652 351.105 652 350V340C652 338.895 651.105 338 650 338H62.6228C62.087 338 61.5736 338.215 61.1977 338.597Z" fill="#2A2A2A"/>
<path d="M61.1977 338.597L51.3511 348.597C50.1061 349.861 51.0018 352 52.7761 352H650C651.105 352 652 351.105 652 350V340C652 338.895 651.105 338 650 338H62.6228C62.087 338 61.5736 338.215 61.1977 338.597Z" stroke="#2A2A2A"/>
</g>
<g filter="url(#filter1_d_690_461)">
<path d="M4 63.4118V347C4 349.761 6.23858 352 9 352H38.4289C39.755 352 41.0268 351.473 41.9645 350.536L58.0355 334.464C58.9732 333.527 60.245 333 61.5711 333H647C649.761 333 652 330.761 652 328V44.5711C652 43.245 651.473 41.9732 650.536 41.0355L610.964 1.46446C610.027 0.526782 608.755 0 607.429 0H9C6.23858 0 4 2.23858 4 5V63.4118Z" fill="#2A2A2A"/>
</g>
<g filter="url(#filter2_b_690_461)">
<path d="M52.4692 47.1299L47.269 57.5791L42.0811 47.1299H35.7212V64H40.7993V55.0522L45.0474 64H49.5029L53.751 55.0522V64H58.8291V47.1299H52.4692ZM67.5874 64V47.1299H62.5093V64H67.5874ZM78.0059 47.1299L69.7295 64H75.3813L76.3823 61.9736H85.3057L86.3066 64H91.9341L83.6577 47.1299H78.0059ZM78.3354 57.9209L80.8379 52.8794L83.2793 57.9209H78.3354Z" fill="#70FF00"/>
</g>
<path d="M30.544 112.928L32.392 104.408H34.792V122H32.584V114.824L32.68 111.464H32.656L31.12 119.12H29.92L28.384 111.464H28.36L28.456 114.824V122H26.248V104.408H28.648L30.544 112.928ZM39.5671 122H37.2871V104.408H39.5671V122ZM45.9563 117.44H44.1323L43.6043 122H41.4203L43.7003 104.408H46.4603L48.7643 122H46.5323L45.9563 117.44ZM44.3963 115.256H45.6923L45.0443 109.832L44.3963 115.256ZM57.2155 122H54.9355V104.408H57.2155V122ZM61.8288 114.296C61.2528 114.296 60.7568 114.088 60.3408 113.672C59.9248 113.256 59.7168 112.76 59.7168 112.184V106.52C59.7168 105.944 59.9248 105.448 60.3408 105.032C60.7568 104.616 61.2528 104.408 61.8288 104.408H64.2288C64.8048 104.408 65.3008 104.616 65.7168 105.032C66.1328 105.448 66.3408 105.944 66.3408 106.52V110.624H64.0608V107.168C64.0608 107.008 64.0048 106.88 63.8928 106.784C63.7968 106.672 63.6688 106.616 63.5088 106.616H62.5488C62.3888 106.616 62.2528 106.672 62.1408 106.784C62.0448 106.88 61.9967 107.008 61.9967 107.168V111.584C61.9967 111.744 62.0448 111.88 62.1408 111.992C62.2528 112.088 62.3888 112.136 62.5488 112.136H64.2288C64.8048 112.136 65.3008 112.344 65.7168 112.76C66.1328 113.176 66.3408 113.672 66.3408 114.248V119.888C66.3408 120.464 66.1328 120.96 65.7168 121.376C65.3008 121.792 64.8048 122 64.2288 122H61.8288C61.2528 122 60.7568 121.792 60.3408 121.376C59.9248 120.96 59.7168 120.464 59.7168 119.888V115.736H61.9967V119.24C61.9967 119.4 62.0448 119.536 62.1408 119.648C62.2528 119.744 62.3888 119.792 62.5488 119.792H63.5088C63.6688 119.792 63.7968 119.744 63.8928 119.648C64.0048 119.536 64.0608 119.4 64.0608 119.24V114.848C64.0608 114.688 64.0048 114.56 63.8928 114.464C63.7968 114.352 63.6688 114.296 63.5088 114.296H61.8288ZM77.0344 117.44H75.2104L74.6824 122H72.4984L74.7784 104.408H77.5384L79.8424 122H77.6104L77.0344 117.44ZM75.4744 115.256H76.7704L76.1224 109.832L75.4744 115.256ZM89.2776 112.808H92.6376V119.888C92.6376 120.464 92.4296 120.96 92.0136 121.376C91.5976 121.792 91.1016 122 90.5256 122H88.1256C87.5496 122 87.0536 121.792 86.6376 121.376C86.2216 120.96 86.0136 120.464 86.0136 119.888V106.52C86.0136 105.944 86.2216 105.448 86.6376 105.032C87.0536 104.616 87.5496 104.408 88.1256 104.408H90.4776C91.0536 104.408 91.5496 104.616 91.9656 105.032C92.3816 105.448 92.5896 105.944 92.5896 106.52V110.888H90.3576V107.168C90.3576 107.008 90.3016 106.88 90.1896 106.784C90.0936 106.672 89.9656 106.616 89.8056 106.616H88.8456C88.6856 106.616 88.5496 106.672 88.4376 106.784C88.3416 106.88 88.2936 107.008 88.2936 107.168V119.24C88.2936 119.4 88.3416 119.536 88.4376 119.648C88.5496 119.744 88.6856 119.792 88.8456 119.792H89.8056C89.9656 119.792 90.0936 119.744 90.1896 119.648C90.3016 119.536 90.3576 119.4 90.3576 119.24V114.992H89.2776V112.808ZM97.4108 122H95.1308V104.408H97.4108V122ZM104.424 104.408C105 104.408 105.496 104.616 105.912 105.032C106.328 105.448 106.536 105.944 106.536 106.52V112.112C106.536 112.576 106.392 112.992 106.104 113.36C105.832 113.728 105.488 113.984 105.072 114.128L107.952 122H105.504L102.768 114.224H102.192V122H99.9121V104.408H104.424ZM102.192 106.616V112.016H103.704C103.864 112.016 103.992 111.968 104.088 111.872C104.2 111.76 104.256 111.624 104.256 111.464V107.168C104.256 107.008 104.2 106.88 104.088 106.784C103.992 106.672 103.864 106.616 103.704 106.616H102.192ZM109.193 104.408H111.473V119.72H114.473V122H109.193V104.408ZM129.874 104.408H132.13L129.37 122H127.69L126.01 113.384L124.234 122H122.626L119.866 104.408H122.17L123.778 115.136L125.458 106.712H126.514L128.266 115.136L129.874 104.408ZM136.247 122H133.967V104.408H136.247V122ZM138.1 104.408H144.124V106.688H142.252V122H139.972V106.688H138.1V104.408ZM150.119 114.296H148.247V122H145.967V104.408H148.247V112.112H150.119V104.408H152.399V122H150.119V114.296ZM163.097 117.44H161.273L160.745 122H158.561L160.841 104.408H163.601L165.905 122H163.673L163.097 117.44ZM161.537 115.256H162.833L162.185 109.832L161.537 115.256ZM172.076 104.408H174.356V119.72H177.356V122H172.076V104.408ZM181.196 122C180.62 122 180.124 121.792 179.708 121.376C179.292 120.96 179.084 120.464 179.084 119.888V106.52C179.084 105.944 179.292 105.448 179.708 105.032C180.124 104.616 180.62 104.408 181.196 104.408H183.596C184.172 104.408 184.668 104.616 185.084 105.032C185.5 105.448 185.708 105.944 185.708 106.52V119.888C185.708 120.464 185.5 120.96 185.084 121.376C184.668 121.792 184.172 122 183.596 122H181.196ZM181.364 119.24C181.364 119.4 181.412 119.536 181.508 119.648C181.62 119.744 181.756 119.792 181.916 119.792H182.876C183.036 119.792 183.164 119.744 183.26 119.648C183.372 119.536 183.428 119.4 183.428 119.24V107.168C183.428 107.008 183.372 106.88 183.26 106.784C183.164 106.672 183.036 106.616 182.876 106.616H181.916C181.756 106.616 181.62 106.672 181.508 106.784C181.412 106.88 181.364 107.008 181.364 107.168V119.24ZM197.046 104.408H199.302L196.542 122H194.862L193.182 113.384L191.406 122H189.798L187.038 104.408H189.342L190.95 115.136L192.63 106.712H193.686L195.438 115.136L197.046 104.408ZM207.563 114.296C206.987 114.296 206.491 114.088 206.075 113.672C205.659 113.256 205.451 112.76 205.451 112.184V106.52C205.451 105.944 205.659 105.448 206.075 105.032C206.491 104.616 206.987 104.408 207.563 104.408H209.963C210.539 104.408 211.035 104.616 211.451 105.032C211.867 105.448 212.075 105.944 212.075 106.52V110.624H209.795V107.168C209.795 107.008 209.739 106.88 209.627 106.784C209.531 106.672 209.403 106.616 209.243 106.616H208.283C208.123 106.616 207.987 106.672 207.875 106.784C207.779 106.88 207.731 107.008 207.731 107.168V111.584C207.731 111.744 207.779 111.88 207.875 111.992C207.987 112.088 208.123 112.136 208.283 112.136H209.963C210.539 112.136 211.035 112.344 211.451 112.76C211.867 113.176 212.075 113.672 212.075 114.248V119.888C212.075 120.464 211.867 120.96 211.451 121.376C211.035 121.792 210.539 122 209.963 122H207.563C206.987 122 206.491 121.792 206.075 121.376C205.659 120.96 205.451 120.464 205.451 119.888V115.736H207.731V119.24C207.731 119.4 207.779 119.536 207.875 119.648C207.987 119.744 208.123 119.792 208.283 119.792H209.243C209.403 119.792 209.531 119.744 209.627 119.648C209.739 119.536 209.795 119.4 209.795 119.24V114.848C209.795 114.688 209.739 114.56 209.627 114.464C209.531 114.352 209.403 114.296 209.243 114.296H207.563ZM216.68 122C216.104 122 215.608 121.792 215.192 121.376C214.776 120.96 214.568 120.464 214.568 119.888V106.52C214.568 105.944 214.776 105.448 215.192 105.032C215.608 104.616 216.104 104.408 216.68 104.408H219.08C219.656 104.408 220.152 104.616 220.568 105.032C220.984 105.448 221.192 105.944 221.192 106.52V119.888C221.192 120.464 220.984 120.96 220.568 121.376C220.152 121.792 219.656 122 219.08 122H216.68ZM216.848 119.24C216.848 119.4 216.896 119.536 216.992 119.648C217.104 119.744 217.24 119.792 217.4 119.792H218.36C218.52 119.792 218.648 119.744 218.744 119.648C218.856 119.536 218.912 119.4 218.912 119.24V107.168C218.912 107.008 218.856 106.88 218.744 106.784C218.648 106.672 218.52 106.616 218.36 106.616H217.4C217.24 106.616 217.104 106.672 216.992 106.784C216.896 106.88 216.848 107.008 216.848 107.168V119.24ZM225.965 119.24C225.965 119.4 226.014 119.536 226.11 119.648C226.222 119.744 226.358 119.792 226.518 119.792H227.478C227.638 119.792 227.766 119.744 227.862 119.648C227.974 119.536 228.03 119.4 228.03 119.24V114.8H230.262V119.888C230.262 120.464 230.054 120.96 229.638 121.376C229.222 121.792 228.726 122 228.15 122H225.798C225.222 122 224.726 121.792 224.31 121.376C223.894 120.96 223.686 120.464 223.686 119.888V106.52C223.686 105.944 223.894 105.448 224.31 105.032C224.726 104.616 225.222 104.408 225.798 104.408H228.15C228.726 104.408 229.222 104.616 229.638 105.032C230.054 105.448 230.262 105.944 230.262 106.52V111.608H228.03V107.168C228.03 107.008 227.974 106.88 227.862 106.784C227.766 106.672 227.638 106.616 227.478 106.616H226.518C226.358 106.616 226.222 106.672 226.11 106.784C226.014 106.88 225.965 107.008 225.965 107.168V119.24ZM234.989 122H232.709V104.408H234.989V122ZM241.378 117.44H239.554L239.026 122H236.842L239.122 104.408H241.882L244.186 122H241.954L241.378 117.44ZM239.818 115.256H241.114L240.466 109.832L239.818 115.256ZM246.045 104.408H248.325V119.72H251.325V122H246.045V104.408ZM30.76 128.408C31.336 128.408 31.832 128.616 32.248 129.032C32.664 129.448 32.872 129.944 32.872 130.52V136.112C32.872 136.576 32.728 136.992 32.44 137.36C32.168 137.728 31.824 137.984 31.408 138.128L34.288 146H31.84L29.104 138.224H28.528V146H26.248V128.408H30.76ZM28.528 130.616V136.016H30.04C30.2 136.016 30.328 135.968 30.424 135.872C30.536 135.76 30.592 135.624 30.592 135.464V131.168C30.592 131.008 30.536 130.88 30.424 130.784C30.328 130.672 30.2 130.616 30.04 130.616H28.528ZM39.4173 141.44H37.5933L37.0653 146H34.8813L37.1613 128.408H39.9213L42.2253 146H39.9933L39.4173 141.44ZM37.8573 139.256H39.1533L38.5053 133.832L37.8573 139.256ZM42.5922 128.408H48.6162V130.688H46.7442V146H44.4642V130.688H42.5922V128.408ZM52.7389 146H50.4589V128.408H52.7389V146ZM59.6562 138.296H59.6802L59.5842 134.672V128.408H61.7442V146H59.7042L57.3282 136.112H57.3042L57.4002 139.736V146H55.2402V128.408H57.2802L59.6562 138.296ZM67.5042 136.808H70.8642V143.888C70.8642 144.464 70.6562 144.96 70.2402 145.376C69.8242 145.792 69.3282 146 68.7522 146H66.3522C65.7762 146 65.2802 145.792 64.8642 145.376C64.4482 144.96 64.2402 144.464 64.2402 143.888V130.52C64.2402 129.944 64.4482 129.448 64.8642 129.032C65.2802 128.616 65.7762 128.408 66.3522 128.408H68.7042C69.2802 128.408 69.7762 128.616 70.1922 129.032C70.6082 129.448 70.8162 129.944 70.8162 130.52V134.888H68.5842V131.168C68.5842 131.008 68.5282 130.88 68.4162 130.784C68.3202 130.672 68.1922 130.616 68.0322 130.616H67.0722C66.9122 130.616 66.7762 130.672 66.6642 130.784C66.5682 130.88 66.5202 131.008 66.5202 131.168V143.24C66.5202 143.4 66.5682 143.536 66.6642 143.648C66.7762 143.744 66.9122 143.792 67.0722 143.792H68.0322C68.1922 143.792 68.3202 143.744 68.4162 143.648C68.5282 143.536 68.5842 143.4 68.5842 143.24V138.992H67.5042V136.808ZM75.1094 143.48V145.28C75.1094 145.488 75.0934 145.72 75.0614 145.976C75.0294 146.216 74.9574 146.448 74.8454 146.672C74.7494 146.896 74.6054 147.096 74.4134 147.272C74.2214 147.464 73.9654 147.6 73.6454 147.68L73.1894 146.888C73.3014 146.856 73.4054 146.808 73.5014 146.744C73.5974 146.664 73.6774 146.568 73.7414 146.456C73.8214 146.344 73.8694 146.192 73.8854 146H72.8294V143.48H75.1094ZM85.2844 141.44H83.4604L82.9324 146H80.7484L83.0284 128.408H85.7884L88.0924 146H85.8604L85.2844 141.44ZM83.7244 139.256H85.0204L84.3724 133.832L83.7244 139.256ZM96.5436 143.24C96.5436 143.4 96.5916 143.536 96.6876 143.648C96.7996 143.744 96.9356 143.792 97.0956 143.792H98.0556C98.2156 143.792 98.3436 143.744 98.4396 143.648C98.5516 143.536 98.6076 143.4 98.6076 143.24V138.8H100.84V143.888C100.84 144.464 100.632 144.96 100.216 145.376C99.7996 145.792 99.3036 146 98.7276 146H96.3756C95.7996 146 95.3036 145.792 94.8876 145.376C94.4716 144.96 94.2636 144.464 94.2636 143.888V130.52C94.2636 129.944 94.4716 129.448 94.8876 129.032C95.3036 128.616 95.7996 128.408 96.3756 128.408H98.7276C99.3036 128.408 99.7996 128.616 100.216 129.032C100.632 129.448 100.84 129.944 100.84 130.52V135.608H98.6076V131.168C98.6076 131.008 98.5516 130.88 98.4396 130.784C98.3436 130.672 98.2156 130.616 98.0556 130.616H97.0956C96.9356 130.616 96.7996 130.672 96.6876 130.784C96.5916 130.88 96.5436 131.008 96.5436 131.168V143.24ZM105.399 146C104.823 146 104.327 145.792 103.911 145.376C103.495 144.96 103.287 144.464 103.287 143.888V128.408H105.567V143.24C105.567 143.4 105.615 143.536 105.711 143.648C105.823 143.744 105.959 143.792 106.119 143.792H106.983C107.143 143.792 107.271 143.744 107.367 143.648C107.479 143.536 107.535 143.4 107.535 143.24V128.408H109.815V143.888C109.815 144.464 109.607 144.96 109.191 145.376C108.775 145.792 108.279 146 107.703 146H105.399ZM116.727 138.296H116.751L116.655 134.672V128.408H118.815V146H116.775L114.399 136.112H114.375L114.471 139.736V146H112.311V128.408H114.351L116.727 138.296ZM125.727 138.296H125.751L125.655 134.672V128.408H127.815V146H125.775L123.399 136.112H123.375L123.471 139.736V146H121.311V128.408H123.351L125.727 138.296ZM132.59 146H130.311V128.408H132.59V146ZM139.508 138.296H139.532L139.436 134.672V128.408H141.596V146H139.556L137.18 136.112H137.156L137.252 139.736V146H135.092V128.408H137.132L139.508 138.296ZM147.356 136.808H150.716V143.888C150.716 144.464 150.508 144.96 150.092 145.376C149.676 145.792 149.18 146 148.604 146H146.204C145.628 146 145.132 145.792 144.716 145.376C144.3 144.96 144.092 144.464 144.092 143.888V130.52C144.092 129.944 144.3 129.448 144.716 129.032C145.132 128.616 145.628 128.408 146.204 128.408H148.556C149.132 128.408 149.628 128.616 150.044 129.032C150.46 129.448 150.668 129.944 150.668 130.52V134.888H148.436V131.168C148.436 131.008 148.38 130.88 148.268 130.784C148.172 130.672 148.044 130.616 147.884 130.616H146.924C146.764 130.616 146.628 130.672 146.516 130.784C146.42 130.88 146.372 131.008 146.372 131.168V143.24C146.372 143.4 146.42 143.536 146.516 143.648C146.628 143.744 146.764 143.792 146.924 143.792H147.884C148.044 143.792 148.172 143.744 148.268 143.648C148.38 143.536 148.436 143.4 148.436 143.24V138.992H147.356V136.808ZM161.409 141.44H159.585L159.057 146H156.873L159.153 128.408H161.913L164.217 146H161.985L161.409 141.44ZM159.849 139.256H161.145L160.497 133.832L159.849 139.256ZM170.492 138.296H170.516L170.42 134.672V128.408H172.58V146H170.54L168.164 136.112H168.14L168.236 139.736V146H166.076V128.408H168.116L170.492 138.296ZM175.076 146V128.408H179.588C180.164 128.408 180.66 128.616 181.076 129.032C181.492 129.448 181.7 129.944 181.7 130.52V143.888C181.7 144.464 181.492 144.96 181.076 145.376C180.66 145.792 180.164 146 179.588 146H175.076ZM177.356 130.616V143.792H178.868C179.028 143.792 179.156 143.744 179.252 143.648C179.364 143.536 179.42 143.4 179.42 143.24V131.168C179.42 131.008 179.364 130.88 179.252 130.784C179.156 130.672 179.028 130.616 178.868 130.616H177.356ZM190.786 143.24C190.786 143.4 190.834 143.536 190.93 143.648C191.042 143.744 191.178 143.792 191.338 143.792H192.298C192.458 143.792 192.586 143.744 192.682 143.648C192.794 143.536 192.85 143.4 192.85 143.24V138.8H195.082V143.888C195.082 144.464 194.874 144.96 194.458 145.376C194.042 145.792 193.546 146 192.97 146H190.618C190.042 146 189.546 145.792 189.13 145.376C188.714 144.96 188.506 144.464 188.506 143.888V130.52C188.506 129.944 188.714 129.448 189.13 129.032C189.546 128.616 190.042 128.408 190.618 128.408H192.97C193.546 128.408 194.042 128.616 194.458 129.032C194.874 129.448 195.082 129.944 195.082 130.52V135.608H192.85V131.168C192.85 131.008 192.794 130.88 192.682 130.784C192.586 130.672 192.458 130.616 192.298 130.616H191.338C191.178 130.616 191.042 130.672 190.93 130.784C190.834 130.88 190.786 131.008 190.786 131.168V143.24ZM199.641 146C199.065 146 198.569 145.792 198.153 145.376C197.737 144.96 197.529 144.464 197.529 143.888V130.52C197.529 129.944 197.737 129.448 198.153 129.032C198.569 128.616 199.065 128.408 199.641 128.408H202.041C202.617 128.408 203.113 128.616 203.529 129.032C203.945 129.448 204.153 129.944 204.153 130.52V143.888C204.153 144.464 203.945 144.96 203.529 145.376C203.113 145.792 202.617 146 202.041 146H199.641ZM199.809 143.24C199.809 143.4 199.857 143.536 199.953 143.648C200.065 143.744 200.201 143.792 200.361 143.792H201.321C201.481 143.792 201.609 143.744 201.705 143.648C201.817 143.536 201.873 143.4 201.873 143.24V131.168C201.873 131.008 201.817 130.88 201.705 130.784C201.609 130.672 201.481 130.616 201.321 130.616H200.361C200.201 130.616 200.065 130.672 199.953 130.784C199.857 130.88 199.809 131.008 199.809 131.168V143.24ZM206.646 128.408H208.926V143.72H211.926V146H206.646V128.408ZM213.654 146V128.408H218.166C218.742 128.408 219.238 128.616 219.654 129.032C220.07 129.448 220.278 129.944 220.278 130.52V143.888C220.278 144.464 220.07 144.96 219.654 145.376C219.238 145.792 218.742 146 218.166 146H213.654ZM215.934 130.616V143.792H217.446C217.606 143.792 217.734 143.744 217.83 143.648C217.942 143.536 217.998 143.4 217.998 143.24V131.168C217.998 131.008 217.942 130.88 217.83 130.784C217.734 130.672 217.606 130.616 217.446 130.616H215.934ZM222.531 136.112H226.803V138.296H222.531V136.112ZM32.8 167.888C32.8 168.464 32.592 168.96 32.176 169.376C31.76 169.792 31.264 170 30.688 170H26.248V152.408H30.688C31.264 152.408 31.76 152.616 32.176 153.032C32.592 153.448 32.8 153.944 32.8 154.52V159.608C32.8 159.928 32.76 160.192 32.68 160.4C32.616 160.608 32.528 160.776 32.416 160.904C32.32 161.016 32.216 161.096 32.104 161.144C31.992 161.192 31.888 161.216 31.792 161.216C31.888 161.232 31.992 161.264 32.104 161.312C32.216 161.36 32.32 161.448 32.416 161.576C32.528 161.688 32.616 161.848 32.68 162.056C32.76 162.248 32.8 162.504 32.8 162.824V167.888ZM28.528 154.616V160.112H29.968C30.128 160.112 30.256 160.064 30.352 159.968C30.464 159.856 30.52 159.72 30.52 159.56V155.168C30.52 155.008 30.464 154.88 30.352 154.784C30.256 154.672 30.128 154.616 29.968 154.616H28.528ZM28.528 162.296V167.792H29.968C30.128 167.792 30.256 167.744 30.352 167.648C30.464 167.536 30.52 167.4 30.52 167.24V162.848C30.52 162.688 30.464 162.56 30.352 162.464C30.256 162.352 30.128 162.296 29.968 162.296H28.528ZM35.1308 152.408H37.4108V167.72H40.4108V170H35.1308V152.408ZM44.2506 170C43.6746 170 43.1786 169.792 42.7626 169.376C42.3466 168.96 42.1386 168.464 42.1386 167.888V154.52C42.1386 153.944 42.3466 153.448 42.7626 153.032C43.1786 152.616 43.6746 152.408 44.2506 152.408H46.6506C47.2266 152.408 47.7226 152.616 48.1386 153.032C48.5546 153.448 48.7626 153.944 48.7626 154.52V167.888C48.7626 168.464 48.5546 168.96 48.1386 169.376C47.7226 169.792 47.2266 170 46.6506 170H44.2506ZM44.4186 167.24C44.4186 167.4 44.4666 167.536 44.5626 167.648C44.6746 167.744 44.8106 167.792 44.9706 167.792H45.9306C46.0906 167.792 46.2186 167.744 46.3146 167.648C46.4266 167.536 46.4826 167.4 46.4826 167.24V155.168C46.4826 155.008 46.4266 154.88 46.3146 154.784C46.2186 154.672 46.0906 154.616 45.9306 154.616H44.9706C44.8106 154.616 44.6746 154.672 44.5626 154.784C44.4666 154.88 44.4186 155.008 44.4186 155.168V167.24ZM53.3678 170C52.7918 170 52.2958 169.792 51.8798 169.376C51.4638 168.96 51.2558 168.464 51.2558 167.888V154.52C51.2558 153.944 51.4638 153.448 51.8798 153.032C52.2958 152.616 52.7918 152.408 53.3678 152.408H55.7678C56.3438 152.408 56.8398 152.616 57.2558 153.032C57.6718 153.448 57.8798 153.944 57.8798 154.52V167.888C57.8798 168.464 57.6718 168.96 57.2558 169.376C56.8398 169.792 56.3438 170 55.7678 170H53.3678ZM53.5358 167.24C53.5358 167.4 53.5838 167.536 53.6798 167.648C53.7918 167.744 53.9278 167.792 54.0878 167.792H55.0478C55.2078 167.792 55.3358 167.744 55.4318 167.648C55.5438 167.536 55.5998 167.4 55.5998 167.24V155.168C55.5998 155.008 55.5438 154.88 55.4318 154.784C55.3358 154.672 55.2078 154.616 55.0478 154.616H54.0878C53.9278 154.616 53.7918 154.672 53.6798 154.784C53.5838 154.88 53.5358 155.008 53.5358 155.168V167.24ZM60.373 170V152.408H64.885C65.461 152.408 65.957 152.616 66.373 153.032C66.789 153.448 66.997 153.944 66.997 154.52V167.888C66.997 168.464 66.789 168.96 66.373 169.376C65.957 169.792 65.461 170 64.885 170H60.373ZM62.653 154.616V167.792H64.165C64.325 167.792 64.453 167.744 64.549 167.648C64.661 167.536 64.717 167.4 64.717 167.24V155.168C64.717 155.008 64.661 154.88 64.549 154.784C64.453 154.672 64.325 154.616 64.165 154.616H62.653ZM69.4902 152.408H74.7702V154.688H71.7702V160.112H74.7702V162.296H71.7702V167.72H74.7702V170H69.4902V152.408ZM76.7324 170V152.408H81.2444C81.8204 152.408 82.3164 152.616 82.7324 153.032C83.1484 153.448 83.3564 153.944 83.3564 154.52V167.888C83.3564 168.464 83.1484 168.96 82.7324 169.376C82.3164 169.792 81.8204 170 81.2444 170H76.7324ZM79.0124 154.616V167.792H80.5244C80.6844 167.792 80.8124 167.744 80.9084 167.648C81.0204 167.536 81.0764 167.4 81.0764 167.24V155.168C81.0764 155.008 81.0204 154.88 80.9084 154.784C80.8124 154.672 80.6844 154.616 80.5244 154.616H79.0124ZM94.4341 159.224L98.4421 170H95.8981L92.8741 161.672L92.4421 162.632V170H90.1621V152.408H92.4421V158.384L95.6341 152.408H98.1061L94.4341 159.224ZM101.981 170H99.7011V152.408H101.981V170ZM104.482 152.408H106.762V167.72H109.762V170H104.482V152.408ZM111.49 152.408H113.77V167.72H116.77V170H111.49V152.408ZM118.498 152.408H123.778V154.688H120.778V160.112H123.778V162.296H120.778V167.72H123.778V170H118.498V152.408ZM130.252 152.408C130.828 152.408 131.324 152.616 131.74 153.032C132.156 153.448 132.364 153.944 132.364 154.52V160.112C132.364 160.576 132.22 160.992 131.932 161.36C131.66 161.728 131.316 161.984 130.9 162.128L133.78 170H131.332L128.596 162.224H128.02V170H125.74V152.408H130.252ZM128.02 154.616V160.016H129.532C129.692 160.016 129.82 159.968 129.916 159.872C130.028 159.76 130.084 159.624 130.084 159.464V155.168C130.084 155.008 130.028 154.88 129.916 154.784C129.82 154.672 129.692 154.616 129.532 154.616H128.02ZM136.773 170H134.493V167.48H136.773V170Z" fill="white"/>
<path d="M335.322 57.5791C335.285 57.689 335.261 57.7866 335.224 57.8721C334.907 58.6899 334.345 59.3247 333.527 59.7764C332.709 60.228 331.525 60.4478 329.951 60.4478C327.106 60.4478 325.349 59.5688 324.677 57.7988C324.445 57.2861 324.323 56.5415 324.323 55.5527C324.323 54.564 324.445 53.8071 324.677 53.2944C325.349 51.5488 327.106 50.6699 329.951 50.6699C331.513 50.6699 332.697 50.9019 333.503 51.3657C334.321 51.8174 334.895 52.4644 335.224 53.2944C335.236 53.3677 335.261 53.4409 335.297 53.5264H340.681C340.546 52.7451 340.351 52.0615 340.119 51.4756C339.35 49.5347 337.897 48.1919 336.005 47.5205C334.138 46.8491 332.282 46.6172 329.951 46.6538C327.619 46.6172 325.751 46.8491 323.859 47.5205C321.992 48.1919 320.539 49.5347 319.77 51.4756C319.306 52.5742 319.074 53.9292 319.074 55.5527C319.074 57.1763 319.306 58.5312 319.77 59.6299C320.551 61.5464 321.992 62.9014 323.859 63.585C325.751 64.2686 327.619 64.4761 329.951 64.4761C331.135 64.4761 332.197 64.415 333.161 64.293C334.125 64.1831 335.078 63.9512 336.018 63.6216C337.922 62.9502 339.35 61.644 340.119 59.7031C340.375 59.105 340.571 58.397 340.681 57.5791H335.322ZM358.082 47.1299V53.5264H348.707V47.1299H343.628V64H348.707V57.5791H358.082V64H363.135V47.1299H358.082ZM373.578 47.1299L365.302 64H370.954L371.955 61.9736H380.878L381.879 64H387.506L379.23 47.1299H373.578ZM373.908 57.9209L376.41 52.8794L378.852 57.9209H373.908ZM402.917 64H408.545L405.859 58.4946C406.177 58.2871 406.47 58.0308 406.738 57.75C407.324 57.1763 407.776 56.5171 408.093 55.7725C408.728 54.2466 408.728 52.4521 408.093 50.9263C407.458 49.4248 406.262 48.2407 404.761 47.606C403.992 47.2886 403.186 47.1299 402.344 47.1299H389.685V64H394.763V59.5811H400.745L402.917 64ZM394.763 51.1704H401.318C401.917 51.1704 402.417 51.3901 402.844 51.8174C403.271 52.2446 403.491 52.7573 403.491 53.3555C403.491 53.9536 403.284 54.4663 402.856 54.8936C402.429 55.3208 401.917 55.5283 401.318 55.5283H394.763V51.1704ZM418.365 47.1299L410.089 64H415.741L416.742 61.9736H425.665L426.666 64H432.293L424.017 47.1299H418.365ZM418.695 57.9209L421.197 52.8794L423.639 57.9209H418.695ZM449.243 57.5791C449.206 57.689 449.182 57.7866 449.145 57.8721C448.828 58.6899 448.266 59.3247 447.448 59.7764C446.63 60.228 445.446 60.4478 443.872 60.4478C441.027 60.4478 439.27 59.5688 438.598 57.7988C438.366 57.2861 438.244 56.5415 438.244 55.5527C438.244 54.564 438.366 53.8071 438.598 53.2944C439.27 51.5488 441.027 50.6699 443.872 50.6699C445.434 50.6699 446.618 50.9019 447.424 51.3657C448.242 51.8174 448.815 52.4644 449.145 53.2944C449.157 53.3677 449.182 53.4409 449.218 53.5264H454.602C454.467 52.7451 454.272 52.0615 454.04 51.4756C453.271 49.5347 451.818 48.1919 449.926 47.5205C448.059 46.8491 446.203 46.6172 443.872 46.6538C441.54 46.6172 439.672 46.8491 437.78 47.5205C435.913 48.1919 434.46 49.5347 433.691 51.4756C433.227 52.5742 432.995 53.9292 432.995 55.5527C432.995 57.1763 433.227 58.5312 433.691 59.6299C434.472 61.5464 435.913 62.9014 437.78 63.585C439.672 64.2686 441.54 64.4761 443.872 64.4761C445.056 64.4761 446.118 64.415 447.082 64.293C448.046 64.1831 448.999 63.9512 449.938 63.6216C451.843 62.9502 453.271 61.644 454.04 59.7031C454.296 59.105 454.492 58.397 454.602 57.5791H449.243ZM474.883 47.1299H456.304V51.1704H463.055V64H468.133V51.1704H474.883V47.1299ZM494.579 51.1704V47.1299H477.331V64H494.579V59.9473H482.409V57.5791H493.59V53.5264H482.409V51.1704H494.579ZM511.174 64H516.802L514.116 58.4946C514.434 58.2871 514.727 58.0308 514.995 57.75C515.581 57.1763 516.033 56.5171 516.35 55.7725C516.985 54.2466 516.985 52.4521 516.35 50.9263C515.715 49.4248 514.519 48.2407 513.018 47.606C512.249 47.2886 511.443 47.1299 510.601 47.1299H497.942V64H503.02V59.5811H509.001L511.174 64ZM503.02 51.1704H509.575C510.173 51.1704 510.674 51.3901 511.101 51.8174C511.528 52.2446 511.748 52.7573 511.748 53.3555C511.748 53.9536 511.541 54.4663 511.113 54.8936C510.686 55.3208 510.173 55.5283 509.575 55.5283H503.02V51.1704ZM524.974 64V47.1299H519.896V64H524.974ZM548.125 52.0981C548.112 51.3535 547.966 50.6699 547.697 50.0718C547.294 49.1562 546.623 48.4238 545.671 47.8745C544.218 47.0322 541.728 46.605 538.2 46.605H538.09C534.562 46.605 532.072 47.0322 530.62 47.8745C529.667 48.4238 528.996 49.1562 528.593 50.0718C528.312 50.7065 528.166 51.4512 528.166 52.3179C528.166 53.1724 528.312 53.8804 528.618 54.4541C529.155 55.4795 530.058 56.2363 531.071 56.688C531.584 56.9199 532.231 57.0908 533 57.2251C533.781 57.3594 534.55 57.4448 535.307 57.5059C536.064 57.5547 537.004 57.5913 538.115 57.6279L541.167 57.7988C541.606 57.8354 541.826 57.8843 542.204 58.0308C542.595 58.165 542.814 58.4214 542.851 58.8242C542.9 59.52 542.399 59.9961 541.35 60.228C540.666 60.3745 539.616 60.4478 538.2 60.4478H538.09C536.625 60.4478 535.551 60.3745 534.868 60.228C534.355 60.1182 533.977 59.9351 533.745 59.7031C533.525 59.4956 533.415 59.1416 533.415 58.6289V58.519H528.166V58.9463C528.178 59.7153 528.325 60.3867 528.593 60.9727C528.996 61.9004 529.667 62.645 530.62 63.1943C532.072 64.0366 534.562 64.4517 538.09 64.4517H538.2C541.667 64.4395 544.145 64.0122 545.646 63.1455C546.599 62.5962 547.27 61.8638 547.673 60.9482C547.954 60.3013 548.1 59.5444 548.1 58.7021C548.1 57.8599 547.954 57.1519 547.648 56.5781C547.111 55.5039 546.196 54.7837 545.183 54.3442C544.682 54.1123 544.035 53.9414 543.254 53.8071C542.485 53.6729 541.716 53.5752 540.947 53.5142C540.19 53.4531 539.25 53.4165 538.115 53.4043L535.124 53.2212C534.685 53.1602 534.489 53.1235 534.086 53.0137C533.696 52.9038 533.476 52.6475 533.415 52.269C533.317 51.5732 533.769 51.1094 534.77 50.853C535.441 50.6943 536.491 50.6089 537.944 50.5967H538.176C539.641 50.6089 540.715 50.6821 541.398 50.8286C541.923 50.9385 542.314 51.1216 542.546 51.3535C542.766 51.5488 542.875 51.915 542.875 52.4521V52.5254H548.125V52.0981ZM568.663 47.1299H550.083V51.1704H556.834V64H561.912V51.1704H568.663V47.1299ZM576.188 64V47.1299H571.11V64H576.188ZM595.481 57.5791C595.444 57.689 595.42 57.7866 595.383 57.8721C595.066 58.6899 594.504 59.3247 593.687 59.7764C592.869 60.228 591.685 60.4478 590.11 60.4478C587.266 60.4478 585.508 59.5688 584.836 57.7988C584.604 57.2861 584.482 56.5415 584.482 55.5527C584.482 54.564 584.604 53.8071 584.836 53.2944C585.508 51.5488 587.266 50.6699 590.11 50.6699C591.672 50.6699 592.856 50.9019 593.662 51.3657C594.48 51.8174 595.054 52.4644 595.383 53.2944C595.396 53.3677 595.42 53.4409 595.457 53.5264H600.84C600.706 52.7451 600.51 52.0615 600.278 51.4756C599.509 49.5347 598.057 48.1919 596.165 47.5205C594.297 46.8491 592.441 46.6172 590.11 46.6538C587.778 46.6172 585.911 46.8491 584.019 47.5205C582.151 48.1919 580.698 49.5347 579.929 51.4756C579.465 52.5742 579.233 53.9292 579.233 55.5527C579.233 57.1763 579.465 58.5312 579.929 59.6299C580.71 61.5464 582.151 62.9014 584.019 63.585C585.911 64.2686 587.778 64.4761 590.11 64.4761C591.294 64.4761 592.356 64.415 593.32 64.293C594.285 64.1831 595.237 63.9512 596.177 63.6216C598.081 62.9502 599.509 61.644 600.278 59.7031C600.535 59.105 600.73 58.397 600.84 57.5791H595.481Z" fill="white"/>
<path d="M329.84 101.34H331.72L329.42 116H328.02L326.62 108.82L325.14 116H323.8L321.5 101.34H323.42L324.76 110.28L326.16 103.26H327.04L328.5 110.28L329.84 101.34ZM333.451 101.34H337.851V103.24H335.351V107.76H337.851V109.58H335.351V114.1H337.851V116H333.451V101.34ZM342.926 112.2H341.406L340.966 116H339.146L341.046 101.34H343.346L345.266 116H343.406L342.926 112.2ZM341.626 110.38H342.706L342.166 105.86L341.626 110.38ZM348.915 109.52V116H347.015V101.34H350.775C351.255 101.34 351.668 101.513 352.015 101.86C352.362 102.207 352.535 102.62 352.535 103.1V107.76C352.535 108.24 352.362 108.653 352.015 109C351.668 109.347 351.255 109.52 350.775 109.52H348.915ZM348.915 103.18V107.68H350.175C350.308 107.68 350.415 107.64 350.495 107.56C350.588 107.467 350.635 107.353 350.635 107.22V103.64C350.635 103.507 350.588 103.4 350.495 103.32C350.415 103.227 350.308 103.18 350.175 103.18H348.915ZM356.338 116C355.858 116 355.445 115.827 355.098 115.48C354.752 115.133 354.578 114.72 354.578 114.24V103.1C354.578 102.62 354.752 102.207 355.098 101.86C355.445 101.513 355.858 101.34 356.338 101.34H358.338C358.818 101.34 359.232 101.513 359.578 101.86C359.925 102.207 360.098 102.62 360.098 103.1V114.24C360.098 114.72 359.925 115.133 359.578 115.48C359.232 115.827 358.818 116 358.338 116H356.338ZM356.478 113.7C356.478 113.833 356.518 113.947 356.598 114.04C356.692 114.12 356.805 114.16 356.938 114.16H357.738C357.872 114.16 357.978 114.12 358.058 114.04C358.152 113.947 358.198 113.833 358.198 113.7V103.64C358.198 103.507 358.152 103.4 358.058 103.32C357.978 103.227 357.872 103.18 357.738 103.18H356.938C356.805 103.18 356.692 103.227 356.598 103.32C356.518 103.4 356.478 103.507 356.478 103.64V113.7ZM366.056 109.58H366.076L365.996 106.56V101.34H367.796V116H366.096L364.116 107.76H364.096L364.176 110.78V116H362.376V101.34H364.076L366.056 109.58Z" fill="white"/>
<path d="M322.04 131.34H326.44V133.24H323.94V137.76H326.44V139.58H323.94V146H322.04V131.34ZM331.085 142.2H329.565L329.125 146H327.305L329.205 131.34H331.505L333.425 146H331.565L331.085 142.2ZM329.785 140.38H330.865L330.325 135.86L329.785 140.38ZM336.84 143.7C336.84 143.833 336.88 143.947 336.96 144.04C337.053 144.12 337.167 144.16 337.3 144.16H338.1C338.233 144.16 338.34 144.12 338.42 144.04C338.513 143.947 338.56 143.833 338.56 143.7V140H340.42V144.24C340.42 144.72 340.247 145.133 339.9 145.48C339.553 145.827 339.14 146 338.66 146H336.7C336.22 146 335.807 145.827 335.46 145.48C335.113 145.133 334.94 144.72 334.94 144.24V133.1C334.94 132.62 335.113 132.207 335.46 131.86C335.807 131.513 336.22 131.34 336.7 131.34H338.66C339.14 131.34 339.553 131.513 339.9 131.86C340.247 132.207 340.42 132.62 340.42 133.1V137.34H338.56V133.64C338.56 133.507 338.513 133.4 338.42 133.32C338.34 133.227 338.233 133.18 338.1 133.18H337.3C337.167 133.18 337.053 133.227 336.96 133.32C336.88 133.4 336.84 133.507 336.84 133.64V143.7ZM342.66 131.34H347.06V133.24H344.56V137.76H347.06V139.58H344.56V144.1H347.06V146H342.66V131.34ZM354.588 146H352.688V131.34H354.588V146ZM356.333 131.34H361.353V133.24H359.793V146H357.893V133.24H356.333V131.34ZM363.088 131.34H367.488V133.24H364.988V137.76H367.488V139.58H364.988V144.1H367.488V146H363.088V131.34ZM372.904 138.44L374.444 131.34H376.444V146H374.604V140.02L374.684 137.22H374.664L373.384 143.6H372.384L371.104 137.22H371.084L371.164 140.02V146H369.324V131.34H371.324L372.904 138.44Z" fill="white"/>
<path d="M323.94 173.7C323.94 173.833 323.98 173.947 324.06 174.04C324.153 174.12 324.267 174.16 324.4 174.16H325.2C325.333 174.16 325.44 174.12 325.52 174.04C325.613 173.947 325.66 173.833 325.66 173.7V170H327.52V174.24C327.52 174.72 327.347 175.133 327 175.48C326.653 175.827 326.24 176 325.76 176H323.8C323.32 176 322.907 175.827 322.56 175.48C322.213 175.133 322.04 174.72 322.04 174.24V163.1C322.04 162.62 322.213 162.207 322.56 161.86C322.907 161.513 323.32 161.34 323.8 161.34H325.76C326.24 161.34 326.653 161.513 327 161.86C327.347 162.207 327.52 162.62 327.52 163.1V167.34H325.66V163.64C325.66 163.507 325.613 163.4 325.52 163.32C325.44 163.227 325.333 163.18 325.2 163.18H324.4C324.267 163.18 324.153 163.227 324.06 163.32C323.98 163.4 323.94 163.507 323.94 163.64V173.7ZM329.76 161.34H331.66V174.1H334.16V176H329.76V161.34ZM337.364 176C336.884 176 336.471 175.827 336.124 175.48C335.777 175.133 335.604 174.72 335.604 174.24V163.1C335.604 162.62 335.777 162.207 336.124 161.86C336.471 161.513 336.884 161.34 337.364 161.34H339.364C339.844 161.34 340.257 161.513 340.604 161.86C340.951 162.207 341.124 162.62 341.124 163.1V174.24C341.124 174.72 340.951 175.133 340.604 175.48C340.257 175.827 339.844 176 339.364 176H337.364ZM337.504 173.7C337.504 173.833 337.544 173.947 337.624 174.04C337.717 174.12 337.831 174.16 337.964 174.16H338.764C338.897 174.16 339.004 174.12 339.084 174.04C339.177 173.947 339.224 173.833 339.224 173.7V163.64C339.224 163.507 339.177 163.4 339.084 163.32C339.004 163.227 338.897 163.18 338.764 163.18H337.964C337.831 163.18 337.717 163.227 337.624 163.32C337.544 163.4 337.504 163.507 337.504 163.64V173.7ZM342.569 161.34H347.589V163.24H346.029V176H344.129V163.24H342.569V161.34ZM352.784 169.58H351.224V176H349.324V161.34H351.224V167.76H352.784V161.34H354.684V176H352.784V169.58ZM356.966 161.34H361.366V163.24H358.866V167.76H361.366V169.58H358.866V174.1H361.366V176H356.966V161.34ZM364.961 169.58C364.481 169.58 364.068 169.407 363.721 169.06C363.374 168.713 363.201 168.3 363.201 167.82V163.1C363.201 162.62 363.374 162.207 363.721 161.86C364.068 161.513 364.481 161.34 364.961 161.34H366.961C367.441 161.34 367.854 161.513 368.201 161.86C368.548 162.207 368.721 162.62 368.721 163.1V166.52H366.821V163.64C366.821 163.507 366.774 163.4 366.681 163.32C366.601 163.227 366.494 163.18 366.361 163.18H365.561C365.428 163.18 365.314 163.227 365.221 163.32C365.141 163.4 365.101 163.507 365.101 163.64V167.32C365.101 167.453 365.141 167.567 365.221 167.66C365.314 167.74 365.428 167.78 365.561 167.78H366.961C367.441 167.78 367.854 167.953 368.201 168.3C368.548 168.647 368.721 169.06 368.721 169.54V174.24C368.721 174.72 368.548 175.133 368.201 175.48C367.854 175.827 367.441 176 366.961 176H364.961C364.481 176 364.068 175.827 363.721 175.48C363.374 175.133 363.201 174.72 363.201 174.24V170.78H365.101V173.7C365.101 173.833 365.141 173.947 365.221 174.04C365.314 174.12 365.428 174.16 365.561 174.16H366.361C366.494 174.16 366.601 174.12 366.681 174.04C366.774 173.947 366.821 173.833 366.821 173.7V170.04C366.821 169.907 366.774 169.8 366.681 169.72C366.601 169.627 366.494 169.58 366.361 169.58H364.961Z" fill="white"/>
<path d="M325.5 199.58H323.94V206H322.04V191.34H323.94V197.76H325.5V191.34H327.4V206H325.5V199.58ZM332.921 202.2H331.401L330.961 206H329.141L331.041 191.34H333.341L335.261 206H333.401L332.921 202.2ZM331.621 200.38H332.701L332.161 195.86L331.621 200.38ZM335.767 191.34H340.787V193.24H339.227V206H337.327V193.24H335.767V191.34Z" fill="white"/>
<path d="M325.72 259.58H325.74L325.66 256.56V251.34H327.46V266H325.76L323.78 257.76H323.76L323.84 260.78V266H322.04V251.34H323.74L325.72 259.58ZM329.74 251.34H334.14V253.24H331.64V257.76H334.14V259.58H331.64V264.1H334.14V266H329.74V251.34ZM337.875 263.7C337.875 263.833 337.915 263.947 337.995 264.04C338.088 264.12 338.202 264.16 338.335 264.16H339.135C339.268 264.16 339.375 264.12 339.455 264.04C339.548 263.947 339.595 263.833 339.595 263.7V260H341.455V264.24C341.455 264.72 341.282 265.133 340.935 265.48C340.588 265.827 340.175 266 339.695 266H337.735C337.255 266 336.842 265.827 336.495 265.48C336.148 265.133 335.975 264.72 335.975 264.24V253.1C335.975 252.62 336.148 252.207 336.495 251.86C336.842 251.513 337.255 251.34 337.735 251.34H339.695C340.175 251.34 340.588 251.513 340.935 251.86C341.282 252.207 341.455 252.62 341.455 253.1V257.34H339.595V253.64C339.595 253.507 339.548 253.4 339.455 253.32C339.375 253.227 339.268 253.18 339.135 253.18H338.335C338.202 253.18 338.088 253.227 337.995 253.32C337.915 253.4 337.875 253.507 337.875 253.64V263.7ZM347.255 257.02L350.595 266H348.475L345.955 259.06L345.595 259.86V266H343.695V251.34H345.595V256.32L348.255 251.34H350.315L347.255 257.02Z" fill="white"/>
<path d="M325.62 228.44L327.16 221.34H329.16V236H327.32V230.02L327.4 227.22H327.38L326.1 233.6H325.1L323.82 227.22H323.8L323.88 230.02V236H322.04V221.34H324.04L325.62 228.44ZM333.199 236C332.719 236 332.306 235.827 331.959 235.48C331.613 235.133 331.439 234.72 331.439 234.24V223.1C331.439 222.62 331.613 222.207 331.959 221.86C332.306 221.513 332.719 221.34 333.199 221.34H335.199C335.679 221.34 336.093 221.513 336.439 221.86C336.786 222.207 336.959 222.62 336.959 223.1V234.24C336.959 234.72 336.786 235.133 336.439 235.48C336.093 235.827 335.679 236 335.199 236H333.199ZM333.339 233.7C333.339 233.833 333.379 233.947 333.459 234.04C333.553 234.12 333.666 234.16 333.799 234.16H334.599C334.733 234.16 334.839 234.12 334.919 234.04C335.013 233.947 335.059 233.833 335.059 233.7V223.64C335.059 223.507 335.013 223.4 334.919 223.32C334.839 223.227 334.733 223.18 334.599 223.18H333.799C333.666 223.18 333.553 223.227 333.459 223.32C333.379 223.4 333.339 223.507 333.339 223.64V233.7ZM340.997 236C340.517 236 340.104 235.827 339.757 235.48C339.41 235.133 339.237 234.72 339.237 234.24V221.34H341.137V233.7C341.137 233.833 341.177 233.947 341.257 234.04C341.35 234.12 341.464 234.16 341.597 234.16H342.317C342.45 234.16 342.557 234.12 342.637 234.04C342.73 233.947 342.777 233.833 342.777 233.7V221.34H344.677V234.24C344.677 234.72 344.504 235.133 344.157 235.48C343.81 235.827 343.397 236 342.917 236H340.997ZM346.123 221.34H351.143V223.24H349.583V236H347.683V223.24H346.123V221.34ZM356.339 229.58H354.779V236H352.879V221.34H354.779V227.76H356.339V221.34H358.239V236H356.339V229.58Z" fill="white"/>
<path d="M27.8 234.58C27.32 234.58 26.9067 234.407 26.56 234.06C26.2133 233.713 26.04 233.3 26.04 232.82V228.1C26.04 227.62 26.2133 227.207 26.56 226.86C26.9067 226.513 27.32 226.34 27.8 226.34H29.8C30.28 226.34 30.6933 226.513 31.04 226.86C31.3867 227.207 31.56 227.62 31.56 228.1V231.52H29.66V228.64C29.66 228.507 29.6133 228.4 29.52 228.32C29.44 228.227 29.3333 228.18 29.2 228.18H28.4C28.2667 228.18 28.1533 228.227 28.06 228.32C27.98 228.4 27.94 228.507 27.94 228.64V232.32C27.94 232.453 27.98 232.567 28.06 232.66C28.1533 232.74 28.2667 232.78 28.4 232.78H29.8C30.28 232.78 30.6933 232.953 31.04 233.3C31.3867 233.647 31.56 234.06 31.56 234.54V239.24C31.56 239.72 31.3867 240.133 31.04 240.48C30.6933 240.827 30.28 241 29.8 241H27.8C27.32 241 26.9067 240.827 26.56 240.48C26.2133 240.133 26.04 239.72 26.04 239.24V235.78H27.94V238.7C27.94 238.833 27.98 238.947 28.06 239.04C28.1533 239.12 28.2667 239.16 28.4 239.16H29.2C29.3333 239.16 29.44 239.12 29.52 239.04C29.6133 238.947 29.66 238.833 29.66 238.7V235.04C29.66 234.907 29.6133 234.8 29.52 234.72C29.44 234.627 29.3333 234.58 29.2 234.58H27.8ZM33.8377 226.34H38.2377V228.24H35.7377V232.76H38.2377V234.58H35.7377V239.1H38.2377V241H33.8377V226.34ZM45.8328 241H43.8728L42.4328 236.06L40.9728 241H39.0328L41.3928 233.16L39.3328 226.34H41.3128L42.4528 230.56L43.6328 226.34H45.5328L43.4728 233.16L45.8328 241ZM48.5297 241H46.6297V238.9H48.5297V241ZM48.5297 234.72H46.6297V232.62H48.5297V234.72ZM54.1689 226.34H58.5689V228.24H56.0689V232.76H58.5689V234.58H56.0689V241H54.1689V226.34ZM60.4041 226.34H64.8041V228.24H62.3041V232.76H64.8041V234.58H62.3041V239.1H64.8041V241H60.4041V226.34ZM70.2192 233.44L71.7592 226.34H73.7592V241H71.9192V235.02L71.9992 232.22H71.9792L70.6992 238.6H69.6992L68.4192 232.22H68.3992L68.4792 235.02V241H66.6392V226.34H68.6392L70.2192 233.44ZM79.2784 237.2H77.7584L77.3184 241H75.4984L77.3984 226.34H79.6984L81.6184 241H79.7584L79.2784 237.2ZM77.9784 235.38H79.0584L78.5184 230.86L77.9784 235.38ZM83.3673 226.34H85.2673V239.1H87.7673V241H83.3673V226.34ZM89.4072 226.34H93.8072V228.24H91.3072V232.76H93.8072V234.58H91.3072V239.1H93.8072V241H89.4072V226.34Z" fill="white"/>
<path d="M29.28 262.2H27.76L27.32 266H25.5L27.4 251.34H29.7L31.62 266H29.76L29.28 262.2ZM27.98 260.38H29.06L28.52 255.86L27.98 260.38ZM35.8545 258.34H38.6545V264.24C38.6545 264.72 38.4812 265.133 38.1345 265.48C37.7879 265.827 37.3745 266 36.8945 266H34.8945C34.4145 266 34.0012 265.827 33.6545 265.48C33.3079 265.133 33.1345 264.72 33.1345 264.24V253.1C33.1345 252.62 33.3079 252.207 33.6545 251.86C34.0012 251.513 34.4145 251.34 34.8945 251.34H36.8545C37.3345 251.34 37.7479 251.513 38.0945 251.86C38.4412 252.207 38.6145 252.62 38.6145 253.1V256.74H36.7545V253.64C36.7545 253.507 36.7079 253.4 36.6145 253.32C36.5345 253.227 36.4279 253.18 36.2945 253.18H35.4945C35.3612 253.18 35.2479 253.227 35.1545 253.32C35.0745 253.4 35.0345 253.507 35.0345 253.64V263.7C35.0345 263.833 35.0745 263.947 35.1545 264.04C35.2479 264.12 35.3612 264.16 35.4945 264.16H36.2945C36.4279 264.16 36.5345 264.12 36.6145 264.04C36.7079 263.947 36.7545 263.833 36.7545 263.7V260.16H35.8545V258.34ZM40.9322 251.34H45.3322V253.24H42.8322V257.76H45.3322V259.58H42.8322V264.1H45.3322V266H40.9322V251.34ZM48.6273 266H46.7273V263.9H48.6273V266ZM48.6273 259.72H46.7273V257.62H48.6273V259.72ZM53.7266 263.08C53.7266 262.693 53.7799 262.333 53.8866 262C53.9932 261.653 54.1266 261.347 54.2866 261.08L57.0266 256.26C57.0799 256.167 57.1199 256.067 57.1466 255.96C57.1732 255.84 57.1866 255.687 57.1866 255.5V253.64C57.1866 253.507 57.1399 253.4 57.0466 253.32C56.9666 253.227 56.8599 253.18 56.7266 253.18H56.0866C55.9532 253.18 55.8399 253.227 55.7466 253.32C55.6666 253.4 55.6266 253.507 55.6266 253.64V255.7H53.7666V253.1C53.7666 252.62 53.9399 252.207 54.2866 251.86C54.6332 251.513 55.0466 251.34 55.5266 251.34H57.3266C57.8066 251.34 58.2199 251.513 58.5666 251.86C58.9132 252.207 59.0866 252.62 59.0866 253.1V255.4C59.0866 255.933 59.0266 256.353 58.9066 256.66C58.7866 256.967 58.6132 257.293 58.3866 257.64L55.8666 261.92C55.7732 262.067 55.7066 262.22 55.6666 262.38C55.6399 262.527 55.6266 262.673 55.6266 262.82V264.1H59.0866V266H53.7266V263.08ZM64.0714 258.94C64.0714 258.807 64.0247 258.7 63.9314 258.62C63.8514 258.527 63.7447 258.48 63.6114 258.48H62.7314C62.3981 258.48 62.2181 258.667 62.1914 259.04H60.5914L60.8914 251.34H65.9514V253.24H62.5714L62.4514 256.74C62.5047 256.713 62.5847 256.693 62.6914 256.68C62.8114 256.653 62.9181 256.64 63.0114 256.64H64.2114C64.6914 256.64 65.1047 256.813 65.4514 257.16C65.7981 257.507 65.9714 257.92 65.9714 258.4V264.24C65.9714 264.72 65.7981 265.133 65.4514 265.48C65.1047 265.827 64.6914 266 64.2114 266H62.2514C61.7714 266 61.3581 265.827 61.0114 265.48C60.6647 265.133 60.4914 264.72 60.4914 264.24V261.62H62.3514V263.7C62.3514 263.833 62.3914 263.947 62.4714 264.04C62.5647 264.12 62.6781 264.16 62.8114 264.16H63.6114C63.7447 264.16 63.8514 264.12 63.9314 264.04C64.0247 263.947 64.0714 263.833 64.0714 263.7V258.94Z" fill="white"/>
<path d="M29.8 276.34C30.28 276.34 30.6933 276.513 31.04 276.86C31.3867 277.207 31.56 277.62 31.56 278.1V282.76C31.56 283.147 31.44 283.493 31.2 283.8C30.9733 284.107 30.6867 284.32 30.34 284.44L32.74 291H30.7L28.42 284.52H27.94V291H26.04V276.34H29.8ZM27.94 278.18V282.68H29.2C29.3333 282.68 29.44 282.64 29.52 282.56C29.6133 282.467 29.66 282.353 29.66 282.22V278.64C29.66 278.507 29.6133 278.4 29.52 278.32C29.44 278.227 29.3333 278.18 29.2 278.18H27.94ZM37.2144 287.2H35.6944L35.2544 291H33.4344L35.3344 276.34H37.6344L39.5544 291H37.6944L37.2144 287.2ZM35.9144 285.38H36.9944L36.4544 280.86L35.9144 285.38ZM42.9689 288.7C42.9689 288.833 43.0089 288.947 43.0889 289.04C43.1822 289.12 43.2956 289.16 43.4289 289.16H44.2289C44.3622 289.16 44.4689 289.12 44.5489 289.04C44.6422 288.947 44.6889 288.833 44.6889 288.7V285H46.5489V289.24C46.5489 289.72 46.3756 290.133 46.0289 290.48C45.6822 290.827 45.2689 291 44.7889 291H42.8289C42.3489 291 41.9356 290.827 41.5889 290.48C41.2422 290.133 41.0689 289.72 41.0689 289.24V278.1C41.0689 277.62 41.2422 277.207 41.5889 276.86C41.9356 276.513 42.3489 276.34 42.8289 276.34H44.7889C45.2689 276.34 45.6822 276.513 46.0289 276.86C46.3756 277.207 46.5489 277.62 46.5489 278.1V282.34H44.6889V278.64C44.6889 278.507 44.6422 278.4 44.5489 278.32C44.4689 278.227 44.3622 278.18 44.2289 278.18H43.4289C43.2956 278.18 43.1822 278.227 43.0889 278.32C43.0089 278.4 42.9689 278.507 42.9689 278.64V288.7ZM48.7884 276.34H53.1884V278.24H50.6884V282.76H53.1884V284.58H50.6884V289.1H53.1884V291H48.7884V276.34ZM56.4836 291H54.5836V288.9H56.4836V291ZM56.4836 284.72H54.5836V282.62H56.4836V284.72ZM65.5828 284.58H64.0228V291H62.1228V276.34H64.0228V282.76H65.5828V276.34H67.4828V291H65.5828V284.58ZM71.5242 291C71.0442 291 70.6309 290.827 70.2842 290.48C69.9376 290.133 69.7642 289.72 69.7642 289.24V276.34H71.6642V288.7C71.6642 288.833 71.7042 288.947 71.7842 289.04C71.8776 289.12 71.9909 289.16 72.1242 289.16H72.8442C72.9776 289.16 73.0842 289.12 73.1642 289.04C73.2576 288.947 73.3042 288.833 73.3042 288.7V276.34H75.2042V289.24C75.2042 289.72 75.0309 290.133 74.6842 290.48C74.3376 290.827 73.9242 291 73.4442 291H71.5242ZM81.0637 283.44L82.6037 276.34H84.6037V291H82.7637V285.02L82.8437 282.22H82.8237L81.5437 288.6H80.5437L79.2637 282.22H79.2437L79.3237 285.02V291H77.4837V276.34H79.4837L81.0637 283.44ZM90.123 287.2H88.603L88.163 291H86.343L88.243 276.34H90.543L92.463 291H90.603L90.123 287.2ZM88.823 285.38H89.903L89.363 280.86L88.823 285.38ZM97.8919 284.58H97.9119L97.8319 281.56V276.34H99.6319V291H97.9319L95.9519 282.76H95.9319L96.0119 285.78V291H94.2119V276.34H95.9119L97.8919 284.58Z" fill="white"/>
<path d="M319.5 296.34H324.52V298.24H322.96V311H321.06V298.24H319.5V296.34ZM327.723 311C327.243 311 326.829 310.827 326.483 310.48C326.136 310.133 325.963 309.72 325.963 309.24V298.1C325.963 297.62 326.136 297.207 326.483 296.86C326.829 296.513 327.243 296.34 327.723 296.34H329.723C330.203 296.34 330.616 296.513 330.963 296.86C331.309 297.207 331.483 297.62 331.483 298.1V309.24C331.483 309.72 331.309 310.133 330.963 310.48C330.616 310.827 330.203 311 329.723 311H327.723ZM327.863 308.7C327.863 308.833 327.903 308.947 327.983 309.04C328.076 309.12 328.189 309.16 328.323 309.16H329.123C329.256 309.16 329.363 309.12 329.443 309.04C329.536 308.947 329.583 308.833 329.583 308.7V298.64C329.583 298.507 329.536 298.4 329.443 298.32C329.363 298.227 329.256 298.18 329.123 298.18H328.323C328.189 298.18 328.076 298.227 327.983 298.32C327.903 298.4 327.863 298.507 327.863 298.64V308.7ZM332.927 296.34H337.947V298.24H336.387V311H334.487V298.24H332.927V296.34ZM342.22 307.2H340.7L340.26 311H338.44L340.34 296.34H342.64L344.56 311H342.7L342.22 307.2ZM340.92 305.38H342L341.46 300.86L340.92 305.38ZM346.309 296.34H348.209V309.1H350.709V311H346.309V296.34ZM358.042 311H356.142V296.34H358.042V311ZM359.787 296.34H364.807V298.24H363.247V311H361.347V298.24H359.787V296.34ZM366.542 296.34H370.942V298.24H368.442V302.76H370.942V304.58H368.442V309.1H370.942V311H366.542V296.34ZM376.357 303.44L377.897 296.34H379.897V311H378.057V305.02L378.137 302.22H378.117L376.837 308.6H375.837L374.557 302.22H374.537L374.617 305.02V311H372.777V296.34H374.777L376.357 303.44Z" fill="white"/>
<path d="M401 109H432" stroke="#70FF00" stroke-width="10" stroke-linecap="square"/>
<path d="M400 139H555" stroke="#70FF00" stroke-width="10" stroke-linecap="square"/>
<path d="M400 169H530" stroke="#70FF00" stroke-width="10" stroke-linecap="square"/>
<path d="M400 199H514" stroke="#70FF00" stroke-width="10" stroke-linecap="square"/>
<path d="M400 229H432" stroke="#70FF00" stroke-width="10" stroke-linecap="square"/>
<path d="M400 259H416" stroke="#70FF00" stroke-width="10" stroke-linecap="square"/>
<rect x="575" y="246" width="25" height="25" rx="2" fill="#434343"/>
<rect x="575" y="126" width="25" height="25" rx="2" fill="#434343"/>
<rect x="575" y="216" width="25" height="25" rx="2" fill="#434343"/>
<rect x="575" y="186" width="25" height="25" rx="2" fill="#434343"/>
<rect x="575" y="156" width="25" height="25" rx="2" fill="#434343"/>
<rect x="575" y="96" width="25" height="25" rx="2" fill="#434343"/>
<path d="M584.46 262.36L587.76 251.34H589.58V262H590.38V263.8H589.58V266H587.84V263.8H584.46V262.36ZM587.84 262V256.36L586.28 262H587.84Z" fill="white"/>
<path d="M582.6 131.34H585.34V146H583.44V133.24H582.6V131.34ZM590.755 138.94C590.755 138.807 590.708 138.7 590.615 138.62C590.535 138.527 590.428 138.48 590.295 138.48H589.415C589.082 138.48 588.902 138.667 588.875 139.04H587.275L587.575 131.34H592.635V133.24H589.255L589.135 136.74C589.188 136.713 589.268 136.693 589.375 136.68C589.495 136.653 589.602 136.64 589.695 136.64H590.895C591.375 136.64 591.788 136.813 592.135 137.16C592.482 137.507 592.655 137.92 592.655 138.4V144.24C592.655 144.72 592.482 145.133 592.135 145.48C591.788 145.827 591.375 146 590.895 146H588.935C588.455 146 588.042 145.827 587.695 145.48C587.348 145.133 587.175 144.72 587.175 144.24V141.62H589.035V143.7C589.035 143.833 589.075 143.947 589.155 144.04C589.248 144.12 589.362 144.16 589.495 144.16H590.295C590.428 144.16 590.535 144.12 590.615 144.04C590.708 143.947 590.755 143.833 590.755 143.7V138.94Z" fill="white"/>
<path d="M588.18 228.94C588.18 228.807 588.133 228.7 588.04 228.62C587.96 228.527 587.853 228.48 587.72 228.48H586.84C586.507 228.48 586.327 228.667 586.3 229.04H584.7L585 221.34H590.06V223.24H586.68L586.56 226.74C586.613 226.713 586.693 226.693 586.8 226.68C586.92 226.653 587.027 226.64 587.12 226.64H588.32C588.8 226.64 589.213 226.813 589.56 227.16C589.907 227.507 590.08 227.92 590.08 228.4V234.24C590.08 234.72 589.907 235.133 589.56 235.48C589.213 235.827 588.8 236 588.32 236H586.36C585.88 236 585.467 235.827 585.12 235.48C584.773 235.133 584.6 234.72 584.6 234.24V231.62H586.46V233.7C586.46 233.833 586.5 233.947 586.58 234.04C586.673 234.12 586.787 234.16 586.92 234.16H587.72C587.853 234.16 587.96 234.12 588.04 234.04C588.133 233.947 588.18 233.833 588.18 233.7V228.94Z" fill="white"/>
<path d="M588.52 199.78H586.66C586.18 199.78 585.767 199.607 585.42 199.26C585.073 198.913 584.9 198.5 584.9 198.02V193.1C584.9 192.62 585.073 192.207 585.42 191.86C585.767 191.513 586.18 191.34 586.66 191.34H588.66C589.14 191.34 589.553 191.513 589.9 191.86C590.247 192.207 590.42 192.62 590.42 193.1V204.24C590.42 204.72 590.247 205.133 589.9 205.48C589.553 205.827 589.14 206 588.66 206H586.7C586.22 206 585.807 205.827 585.46 205.48C585.113 205.133 584.94 204.72 584.94 204.24V201.62H586.8V203.7C586.8 203.833 586.84 203.947 586.92 204.04C587.013 204.12 587.127 204.16 587.26 204.16H588.06C588.193 204.16 588.3 204.12 588.38 204.04C588.473 203.947 588.52 203.833 588.52 203.7V199.78ZM586.8 197.5C586.8 197.633 586.84 197.747 586.92 197.84C587.013 197.92 587.127 197.96 587.26 197.96H588.52V193.64C588.52 193.507 588.473 193.4 588.38 193.32C588.3 193.227 588.193 193.18 588.06 193.18H587.26C587.127 193.18 587.013 193.227 586.92 193.32C586.84 193.4 586.8 193.507 586.8 193.64V197.5Z" fill="white"/>
<path d="M583.6 161.34H586.34V176H584.44V163.24H583.6V161.34ZM588.175 161.34H590.915V176H589.015V163.24H588.175V161.34Z" fill="white"/>
<path d="M588.18 108.94C588.18 108.807 588.133 108.7 588.04 108.62C587.96 108.527 587.853 108.48 587.72 108.48H586.84C586.507 108.48 586.327 108.667 586.3 109.04H584.7L585 101.34H590.06V103.24H586.68L586.56 106.74C586.613 106.713 586.693 106.693 586.8 106.68C586.92 106.653 587.027 106.64 587.12 106.64H588.32C588.8 106.64 589.213 106.813 589.56 107.16C589.907 107.507 590.08 107.92 590.08 108.4V114.24C590.08 114.72 589.907 115.133 589.56 115.48C589.213 115.827 588.8 116 588.32 116H586.36C585.88 116 585.467 115.827 585.12 115.48C584.773 115.133 584.6 114.72 584.6 114.24V111.62H586.46V113.7C586.46 113.833 586.5 113.947 586.58 114.04C586.673 114.12 586.787 114.16 586.92 114.16H587.72C587.853 114.16 587.96 114.12 588.04 114.04C588.133 113.947 588.18 113.833 588.18 113.7V108.94Z" fill="white"/>
<rect x="575" y="291" width="25" height="25" rx="2" fill="#70FF00"/>
<path d="M580.46 307.36L583.76 296.34H585.58V307H586.38V308.8H585.58V311H583.84V308.8H580.46V307.36ZM583.84 307V301.36L582.28 307H583.84ZM591.654 304.78H589.794C589.314 304.78 588.9 304.607 588.554 304.26C588.207 303.913 588.034 303.5 588.034 303.02V298.1C588.034 297.62 588.207 297.207 588.554 296.86C588.9 296.513 589.314 296.34 589.794 296.34H591.794C592.274 296.34 592.687 296.513 593.034 296.86C593.38 297.207 593.554 297.62 593.554 298.1V309.24C593.554 309.72 593.38 310.133 593.034 310.48C592.687 310.827 592.274 311 591.794 311H589.834C589.354 311 588.94 310.827 588.594 310.48C588.247 310.133 588.074 309.72 588.074 309.24V306.62H589.934V308.7C589.934 308.833 589.974 308.947 590.054 309.04C590.147 309.12 590.26 309.16 590.394 309.16H591.194C591.327 309.16 591.434 309.12 591.514 309.04C591.607 308.947 591.654 308.833 591.654 308.7V304.78ZM589.934 302.5C589.934 302.633 589.974 302.747 590.054 302.84C590.147 302.92 590.26 302.96 590.394 302.96H591.654V298.64C591.654 298.507 591.607 298.4 591.514 298.32C591.434 298.227 591.327 298.18 591.194 298.18H590.394C590.26 298.18 590.147 298.227 590.054 298.32C589.974 298.4 589.934 298.507 589.934 298.64V302.5Z" fill="#222222"/>
<line x1="288.25" x2="288.25" y2="333" stroke="#3A3A3A" stroke-width="0.5"/>
<defs>
<filter id="filter0_d_690_461" x="46.2711" y="337.5" width="610.229" height="23" filterUnits="userSpaceOnUse" color-interpolation-filters="sRGB">
<feFlood flood-opacity="0" result="BackgroundImageFix"/>
<feColorMatrix in="SourceAlpha" type="matrix" values="0 0 0 0 0 0 0 0 0 0 0 0 0 0 0 0 0 0 127 0" result="hardAlpha"/>
<feOffset dy="4"/>
<feGaussianBlur stdDeviation="2"/>
<feComposite in2="hardAlpha" operator="out"/>
<feColorMatrix type="matrix" values="0 0 0 0 0 0 0 0 0 0 0 0 0 0 0 0 0 0 0.25 0"/>
<feBlend mode="normal" in2="BackgroundImageFix" result="effect1_dropShadow_690_461"/>
<feBlend mode="normal" in="SourceGraphic" in2="effect1_dropShadow_690_461" result="shape"/>
</filter>
<filter id="filter1_d_690_461" x="0" y="0" width="656" height="360" filterUnits="userSpaceOnUse" color-interpolation-filters="sRGB">
<feFlood flood-opacity="0" result="BackgroundImageFix"/>
<feColorMatrix in="SourceAlpha" type="matrix" values="0 0 0 0 0 0 0 0 0 0 0 0 0 0 0 0 0 0 127 0" result="hardAlpha"/>
<feOffset dy="4"/>
<feGaussianBlur stdDeviation="2"/>
<feComposite in2="hardAlpha" operator="out"/>
<feColorMatrix type="matrix" values="0 0 0 0 0 0 0 0 0 0 0 0 0 0 0 0 0 0 0.25 0"/>
<feBlend mode="normal" in2="BackgroundImageFix" result="effect1_dropShadow_690_461"/>
<feBlend mode="normal" in="SourceGraphic" in2="effect1_dropShadow_690_461" result="shape"/>
</filter>
<filter id="filter2_b_690_461" x="29.589" y="40.9977" width="68.4773" height="29.1345" filterUnits="userSpaceOnUse" color-interpolation-filters="sRGB">
<feFlood flood-opacity="0" result="BackgroundImageFix"/>
<feGaussianBlur in="BackgroundImage" stdDeviation="3.0661"/>
<feComposite in2="SourceAlpha" operator="in" result="effect1_backgroundBlur_690_461"/>
<feBlend mode="normal" in="SourceGraphic" in2="effect1_backgroundBlur_690_461" result="shape"/>
</filter>
</defs>
</svg>
