<svg width="25" height="19" viewBox="0 0 25 19" fill="none" xmlns="http://www.w3.org/2000/svg">
<path d="M21.1743 2.4959C19.0966 0.801741 15.8111 0.514742 15.6723 0.502567C15.4529 0.483433 15.2446 0.609539 15.1546 0.813047C15.1511 0.820005 14.9677 1.36008 14.7903 1.88103C17.2049 2.30979 18.8454 3.26123 18.9329 3.31342C19.3426 3.55519 19.4797 4.08831 19.2406 4.50316C19.082 4.77972 18.7949 4.93452 18.5 4.93452C18.3534 4.93452 18.206 4.89713 18.0706 4.81712C18.0466 4.80233 15.6397 3.41256 12.5017 3.41256C9.36286 3.41256 6.95514 4.8032 6.93114 4.81712C6.52229 5.05802 5.99771 4.91626 5.76029 4.50055C5.52286 4.08657 5.66086 3.55519 6.06886 3.31342C6.15629 3.26123 7.80286 2.30631 10.2243 1.87842C10.0374 1.35139 9.84886 0.820005 9.84543 0.813047C9.75543 0.608669 9.54714 0.479955 9.32771 0.502567C9.18886 0.513873 5.90343 0.800872 3.79829 2.51852C2.69771 3.54997 0.5 9.58043 0.5 14.7942C0.5 14.8864 0.523143 14.976 0.568571 15.056C2.08657 17.7608 6.22486 18.4687 7.16771 18.4991C7.17371 18.5 7.17886 18.5 7.184 18.5C7.35029 18.5 7.50714 18.4191 7.60571 18.2826L8.62571 16.8806C6.38857 16.3336 5.20571 15.4735 5.13457 15.4204C4.754 15.136 4.67171 14.5916 4.952 14.2046C5.23143 13.8193 5.76629 13.7341 6.14686 14.0167C6.17857 14.0376 8.36171 15.5883 12.5 15.5883C16.6546 15.5883 18.8317 14.0315 18.8531 14.0159C19.2337 13.7358 19.7703 13.8202 20.0489 14.2081C20.3266 14.5942 20.246 15.1352 19.8671 15.4187C19.796 15.4717 18.6191 16.3301 16.3871 16.8772L17.3943 18.2817C17.4929 18.4191 17.6497 18.4991 17.816 18.4991C17.822 18.4991 17.8271 18.4991 17.8323 18.4983C18.776 18.4678 22.9143 17.7599 24.4314 15.0551C24.4769 14.9751 24.5 14.8856 24.5 14.7934C24.5 9.58043 22.3023 3.54997 21.1743 2.4959ZM9.07143 12.9792C8.12429 12.9792 7.35714 12.006 7.35714 10.805C7.35714 9.60391 8.12429 8.63072 9.07143 8.63072C10.0186 8.63072 10.7857 9.60391 10.7857 10.805C10.7857 12.006 10.0186 12.9792 9.07143 12.9792ZM15.9286 12.9792C14.9814 12.9792 14.2143 12.006 14.2143 10.805C14.2143 9.60391 14.9814 8.63072 15.9286 8.63072C16.8757 8.63072 17.6429 9.60391 17.6429 10.805C17.6429 12.006 16.8757 12.9792 15.9286 12.9792Z" fill="black"/>
</svg>
