<svg width="16" height="12" viewBox="0 0 16 12" fill="none" xmlns="http://www.w3.org/2000/svg">
<path d="M13.7829 1.3306C12.3977 0.201161 10.2074 0.00982819 10.1149 0.00171105C9.96857 -0.0110445 9.82971 0.0730261 9.76971 0.208698C9.76743 0.213337 9.64514 0.573389 9.52686 0.920687C11.1366 1.20653 12.2303 1.84082 12.2886 1.87561C12.5617 2.03679 12.6531 2.39221 12.4937 2.66877C12.388 2.85315 12.1966 2.95635 12 2.95635C11.9023 2.95635 11.804 2.93142 11.7137 2.87808C11.6977 2.86822 10.0931 1.94171 8.00114 1.94171C5.90857 1.94171 4.30343 2.8688 4.28743 2.87808C4.01486 3.03868 3.66514 2.94417 3.50686 2.66703C3.34857 2.39105 3.44057 2.03679 3.71257 1.87561C3.77086 1.84082 4.86857 1.20421 6.48286 0.918948C6.35829 0.567592 6.23257 0.213337 6.23029 0.208698C6.17029 0.0724463 6.03143 -0.0133636 5.88514 0.00171105C5.79257 0.00924839 3.60229 0.200581 2.19886 1.34568C1.46514 2.03331 0 6.05362 0 9.52949C0 9.59095 0.0154286 9.65067 0.0457143 9.70401C1.05771 11.5072 3.81657 11.9791 4.44514 11.9994C4.44914 12 4.45257 12 4.456 12C4.56686 12 4.67143 11.9461 4.73714 11.8551L5.41714 10.9204C3.92571 10.5557 3.13714 9.98231 3.08971 9.94694C2.836 9.75735 2.78114 9.3944 2.968 9.13639C3.15429 8.87954 3.51086 8.82272 3.76457 9.01115C3.78571 9.02507 5.24114 10.0588 8 10.0588C10.7697 10.0588 12.2211 9.02101 12.2354 9.01057C12.4891 8.82388 12.8469 8.88012 13.0326 9.13871C13.2177 9.39614 13.164 9.75677 12.9114 9.94578C12.864 9.98115 12.0794 10.5534 10.5914 10.9181L11.2629 11.8545C11.3286 11.9461 11.4331 11.9994 11.544 11.9994C11.548 11.9994 11.5514 11.9994 11.5549 11.9988C12.184 11.9785 14.9429 11.5066 15.9543 9.70343C15.9846 9.65009 16 9.59037 16 9.52891C16 6.05362 14.5349 2.03331 13.7829 1.3306ZM5.71429 8.31946C5.08286 8.31946 4.57143 7.67067 4.57143 6.86997C4.57143 6.06927 5.08286 5.42048 5.71429 5.42048C6.34571 5.42048 6.85714 6.06927 6.85714 6.86997C6.85714 7.67067 6.34571 8.31946 5.71429 8.31946ZM10.2857 8.31946C9.65429 8.31946 9.14286 7.67067 9.14286 6.86997C9.14286 6.06927 9.65429 5.42048 10.2857 5.42048C10.9171 5.42048 11.4286 6.06927 11.4286 6.86997C11.4286 7.67067 10.9171 8.31946 10.2857 8.31946Z" fill="white"/>
</svg>
