<svg width="233" height="73" viewBox="0 0 233 73" fill="none" xmlns="http://www.w3.org/2000/svg">
<path d="M65.4375 18.7344V20.7344H67.4375V18.7344H65.4375ZM65.4375 3.21875H67.4375V1.21875H65.4375V3.21875ZM0.609375 3.21875V1.21875H-1.39062V3.21875H0.609375ZM0.609375 68H-1.39062V70H0.609375V68ZM20.1094 68V70H22.1094V68H20.1094ZM20.1094 43.3438V41.3438H18.1094V43.3438H20.1094ZM61.5938 43.3438V45.3438H63.5938V43.3438H61.5938ZM61.5938 27.7812H63.5938V25.7812H61.5938V27.7812ZM20.1094 27.7812H18.1094V29.7812H20.1094V27.7812ZM20.1094 18.7344V16.7344H18.1094V18.7344H20.1094ZM67.4375 18.7344V3.21875H63.4375V18.7344H67.4375ZM65.4375 1.21875H0.609375V5.21875H65.4375V1.21875ZM-1.39062 3.21875V68H2.60938V3.21875H-1.39062ZM0.609375 70H20.1094V66H0.609375V70ZM22.1094 68V43.3438H18.1094V68H22.1094ZM20.1094 45.3438H61.5938V41.3438H20.1094V45.3438ZM63.5938 43.3438V27.7812H59.5938V43.3438H63.5938ZM61.5938 25.7812H20.1094V29.7812H61.5938V25.7812ZM22.1094 27.7812V18.7344H18.1094V27.7812H22.1094ZM20.1094 20.7344H65.4375V16.7344H20.1094V20.7344ZM94.0312 3.21875V1.21875H92.7847L92.2357 2.33786L94.0312 3.21875ZM62.25 68L60.4544 67.1191L59.0411 70H62.25V68ZM83.9531 68V70H85.1959L85.7463 68.8858L83.9531 68ZM87.7969 60.2188V58.2188H86.5541L86.0037 59.333L87.7969 60.2188ZM122.062 60.2188L123.856 59.333L123.305 58.2188H122.062V60.2188ZM125.906 68L124.113 68.8858L124.663 70H125.906V68ZM147.516 68V70H150.725L149.311 67.1191L147.516 68ZM115.734 3.21875L117.53 2.33786L116.981 1.21875H115.734V3.21875ZM95.2969 44.6562L93.5054 43.767L92.0713 46.6562H95.2969V44.6562ZM104.906 25.2969L106.706 24.4252L104.928 20.7539L103.115 24.4077L104.906 25.2969ZM114.281 44.6562V46.6562H117.472L116.081 43.7846L114.281 44.6562ZM92.2357 2.33786L60.4544 67.1191L64.0456 68.8809L95.8268 4.09964L92.2357 2.33786ZM62.25 70H83.9531V66H62.25V70ZM85.7463 68.8858L89.59 61.1045L86.0037 59.333L82.16 67.1142L85.7463 68.8858ZM87.7969 62.2188H122.062V58.2188H87.7969V62.2188ZM120.269 61.1045L124.113 68.8858L127.699 67.1142L123.856 59.333L120.269 61.1045ZM125.906 70H147.516V66H125.906V70ZM149.311 67.1191L117.53 2.33786L113.939 4.09964L145.72 68.8809L149.311 67.1191ZM115.734 1.21875H94.0312V5.21875H115.734V1.21875ZM97.0883 45.5455L106.698 26.1861L103.115 24.4077L93.5054 43.767L97.0883 45.5455ZM103.106 26.1686L112.481 45.5279L116.081 43.7846L106.706 24.4252L103.106 26.1686ZM114.281 42.6562H95.2969V46.6562H114.281V42.6562ZM230.062 51.5L228.216 50.7322L228.209 50.748L228.203 50.7639L230.062 51.5ZM230.062 20L228.201 20.7313L228.209 20.7511L228.217 20.7707L230.062 20ZM191.016 0.6875L190.993 2.68737L191.016 2.68763L191.038 2.68737L191.016 0.6875ZM151.922 20L153.764 20.7779L153.773 20.7576L153.781 20.7371L151.922 20ZM151.922 51.3125L153.774 50.5575L153.769 50.546L153.764 50.5346L151.922 51.3125ZM167.672 66.3594L167.003 68.2442L167.01 68.2468L167.018 68.2493L167.672 66.3594ZM203.672 69.0781L203.467 67.0887L203.457 67.0897L203.447 67.0909L203.672 69.0781ZM213.844 66.7344L215.258 65.3202L214.257 64.3188L212.98 64.9307L213.844 66.7344ZM219.516 72.4062L218.101 73.8205L219.519 75.2377L220.933 73.8174L219.516 72.4062ZM230.484 61.3906L231.902 62.8018L233.31 61.3876L231.899 59.9764L230.484 61.3906ZM226.734 57.6406L225.11 56.4742L224.119 57.8539L225.32 59.0548L226.734 57.6406ZM170.766 44.2812L172.632 43.5633L172.612 43.5095L172.588 43.4569L170.766 44.2812ZM170.766 27.0312L172.588 27.8556L172.613 27.8009L172.634 27.7449L170.766 27.0312ZM204.656 19.5781L203.658 21.3114L203.67 21.3178L204.656 19.5781ZM211.266 27.0312L209.407 27.7693L209.409 27.776L209.412 27.7827L211.266 27.0312ZM212.484 34.4844L210.485 34.5423L210.486 34.5568L210.486 34.5712L212.484 34.4844ZM211.828 42.6406L210.414 44.0548L212.897 46.5381L213.766 43.1354L211.828 42.6406ZM205.594 36.4062L207.008 34.992L205.591 33.5748L204.177 34.995L205.594 36.4062ZM194.578 47.4688L193.161 46.0575L191.753 47.4717L193.164 48.883L194.578 47.4688ZM200.531 53.4219L200.976 55.3718L204.505 54.567L201.945 52.0077L200.531 53.4219ZM231.909 52.2678C233.777 47.7753 234.639 42.2918 234.687 35.8587L230.688 35.8288C230.642 41.9582 229.817 46.8809 228.216 50.7322L231.909 52.2678ZM234.687 35.8587C234.736 29.3932 233.822 23.812 231.908 19.2293L228.217 20.7707C229.866 24.7193 230.733 29.7318 230.688 35.8288L234.687 35.8587ZM231.924 19.2687C226.322 5.00786 212.209 -1.55076 190.993 -1.31237L191.038 2.68737C211.541 2.45701 223.491 8.74214 228.201 20.7313L231.924 19.2687ZM191.038 -1.31237C169.819 -1.55079 155.713 5.00896 150.063 19.2629L153.781 20.7371C158.537 8.74104 170.493 2.45704 190.993 2.68737L191.038 -1.31237ZM150.079 19.2221C148.164 23.7579 147.25 29.2442 147.25 35.6562H151.25C151.25 29.5996 152.117 24.6796 153.764 20.7779L150.079 19.2221ZM147.25 35.6562C147.25 42.0683 148.164 47.5546 150.079 52.0904L153.764 50.5346C152.117 46.6329 151.25 41.7129 151.25 35.6562H147.25ZM150.07 52.0675C153.288 59.963 159.208 65.4783 167.003 68.2442L168.341 64.4745C161.604 62.0842 156.555 57.3807 153.774 50.5575L150.07 52.0675ZM167.018 68.2493C170.791 69.5554 174.573 70.4777 178.412 71.0121L178.963 67.0504C175.395 66.5535 171.866 65.6946 168.326 64.4694L167.018 68.2493ZM178.412 71.0121C182.215 71.5418 186.386 71.8281 191.016 71.8281V67.8281C186.551 67.8281 182.566 67.552 178.963 67.0504L178.412 71.0121ZM191.016 71.8281C194.986 71.8281 199.28 71.5889 203.897 71.0654L203.447 67.0909C198.97 67.5986 194.826 67.8281 191.016 67.8281V71.8281ZM203.877 71.0676C208.509 70.59 212.151 69.763 214.708 68.538L212.98 64.9307C211.036 65.862 207.928 66.6287 203.467 67.0887L203.877 71.0676ZM212.43 68.1486L218.101 73.8205L220.93 70.992L215.258 65.3202L212.43 68.1486ZM220.933 73.8174L231.902 62.8018L229.067 59.9794L218.098 70.9951L220.933 73.8174ZM231.899 59.9764L228.149 56.2264L225.32 59.0548L229.07 62.8048L231.899 59.9764ZM228.359 58.807C229.771 56.8404 230.974 54.6325 231.922 52.2361L228.203 50.7639C227.37 52.8675 226.323 54.7846 225.11 56.4742L228.359 58.807ZM191.016 52.3594C180.426 52.3594 174.768 49.1168 172.632 43.5633L168.899 44.9992C171.919 52.852 179.762 56.3594 191.016 56.3594V52.3594ZM172.588 43.4569C171.868 41.8656 171.406 39.3364 171.406 35.6562H167.406C167.406 39.5698 167.882 42.7594 168.943 45.1056L172.588 43.4569ZM171.406 35.6562C171.406 31.9761 171.868 29.4469 172.588 27.8556L168.943 26.2069C167.882 28.5531 167.406 31.7427 167.406 35.6562H171.406ZM172.634 27.7449C174.772 22.147 180.428 18.9062 191.016 18.9062V14.9062C179.76 14.9062 171.915 18.4155 168.897 26.3176L172.634 27.7449ZM191.016 18.9062C196.876 18.9062 201.01 19.7863 203.658 21.3114L205.654 17.8449C202.115 15.8074 197.155 14.9062 191.016 14.9062V18.9062ZM203.67 21.3178C206.436 22.8871 208.319 25.0288 209.407 27.7693L213.124 26.2932C211.681 22.6587 209.157 19.8317 205.643 17.8385L203.67 21.3178ZM209.412 27.7827C209.987 29.2005 210.395 31.4141 210.485 34.5423L214.484 34.4264C214.387 31.0859 213.951 28.3308 213.119 26.2798L209.412 27.7827ZM210.486 34.5712C210.621 37.6721 210.391 40.1848 209.89 42.1459L213.766 43.1354C214.39 40.6902 214.629 37.7654 214.482 34.3975L210.486 34.5712ZM213.242 41.2264L207.008 34.992L204.18 37.8205L210.414 44.0548L213.242 41.2264ZM204.177 34.995L193.161 46.0575L195.995 48.88L207.011 37.8175L204.177 34.995ZM193.164 48.883L199.117 54.8361L201.945 52.0077L195.992 46.0545L193.164 48.883ZM200.087 51.4719C197.592 52.0408 194.559 52.3594 191.016 52.3594V56.3594C194.785 56.3594 198.127 56.0217 200.976 55.3718L200.087 51.4719Z" fill="white"/>
</svg>
