<svg width="406" height="415" viewBox="0 0 406 415" fill="none" xmlns="http://www.w3.org/2000/svg">
<path d="M40.1115 256.229C49.2794 278.761 63.3143 299.018 81.2245 315.568L138.095 254.784C129.14 246.509 122.122 236.381 117.538 225.114L40.1115 256.229Z" fill="white"/>
<path d="M358.129 158.467C352.126 131.244 339.323 105.96 320.9 84.9479L257.933 139.474C267.144 149.98 273.546 162.622 276.547 176.234L358.129 158.467Z" fill="white"/>
<path d="M303.407 67.7399C276.951 45.2976 244.104 31.6234 209.452 28.6255C174.799 25.6275 140.069 33.4553 110.109 51.0166C80.1478 68.5779 56.451 94.9965 42.325 126.586C28.199 158.175 24.3486 193.359 31.3111 227.227L113.138 210.614C109.657 193.679 111.582 176.087 118.645 160.293C125.708 144.498 137.557 131.289 152.537 122.508C167.517 113.728 184.882 109.814 202.209 111.313C219.535 112.812 235.958 119.649 249.186 130.87L303.407 67.7399Z" fill="#0E0E0E"/>
<path d="M202.934 359.811C230.946 358.481 258.17 350.164 282.095 335.627L238.53 264.813C226.567 272.082 212.956 276.241 198.95 276.905L202.934 359.811Z" fill="white"/>
<path d="M107.464 335.965C125.371 346.75 145.159 354.093 165.796 357.611L179.915 275.805C169.597 274.046 159.703 270.375 150.749 264.983L107.464 335.965Z" fill="#0E0E0E"/>
<path d="M361.846 186.878C362.903 211.337 358.503 235.725 348.962 258.295C339.421 280.865 324.975 301.059 306.659 317.429L250.812 255.714C259.97 247.529 267.193 237.433 271.964 226.148C276.734 214.862 278.934 202.668 278.406 190.439L361.846 186.878Z" fill="#0E0E0E"/>
<path d="M56.6064 20.7051V7.75586H50.6006L50.5713 7.72656L50.542 7.75586L36.3477 19.9287V25.5684H50.542V28H56.6064V25.5684H58.6426V20.7051H56.6064ZM50.542 20.7051H42.9248L50.542 14.1719V20.7051ZM81.8018 20.7051V7.75586H75.7959L75.7666 7.72656L75.7373 7.75586L61.543 19.9287V25.5684H75.7373V28H81.8018V25.5684H83.8379V20.7051H81.8018ZM75.7373 20.7051H68.1201L75.7373 14.1719V20.7051ZM116.65 22.1553C116.313 21.3936 115.771 20.7783 115.024 20.3242C114.351 19.9287 113.677 19.6504 113.018 19.4893C112.358 19.3281 111.348 19.2402 109.985 19.2402C108.652 19.2402 107.671 19.3135 107.056 19.46C106.455 19.6064 105.84 19.8408 105.225 20.1631C103.716 20.998 102.969 22.2725 102.969 24.0156C102.983 24.6309 103.115 25.1875 103.335 25.6855C103.643 26.4473 104.185 27.0625 104.946 27.5166C105.635 27.9414 106.294 28.2197 106.938 28.3662C107.598 28.5273 108.608 28.6006 109.985 28.6006C111.318 28.6006 112.285 28.5273 112.9 28.3809C113.53 28.249 114.131 28 114.731 27.6631C116.24 26.8428 116.987 25.5684 116.987 23.8545C116.958 23.2246 116.841 22.6533 116.65 22.1553ZM109.985 25.2754C108.096 25.2754 107.158 24.8506 107.173 24.0156C107.173 23.5615 107.451 23.21 107.993 22.9609C108.535 22.7119 109.209 22.5947 109.985 22.5947C111.846 22.5947 112.783 23.0195 112.783 23.8545C112.783 24.3086 112.505 24.6602 111.948 24.9092C111.406 25.1582 110.747 25.2754 109.985 25.2754ZM98.3252 15.5488C99.8047 14.7285 100.552 13.4541 100.537 11.7402C100.552 11.0957 100.435 10.5244 100.215 10.0264C99.8926 9.26465 99.3506 8.64941 98.5889 8.19531C97.9004 7.7998 97.2412 7.52148 96.582 7.36035C95.9375 7.19922 94.9268 7.12598 93.5498 7.12598C92.2314 7.12598 91.2646 7.19922 90.6348 7.3457C90.0049 7.49219 89.4043 7.72656 88.8037 8.04883C87.3096 8.86914 86.5625 10.1436 86.5625 11.8574C86.5771 12.502 86.6943 13.0732 86.8848 13.5713C87.207 14.333 87.749 14.9482 88.5107 15.4023C89.1992 15.8271 89.8584 16.1055 90.5176 16.2666C91.1768 16.4131 92.1875 16.4863 93.5498 16.4863C94.8682 16.4863 95.835 16.4131 96.4648 16.2812C97.0947 16.1348 97.71 15.8857 98.3252 15.5488ZM90.7666 11.8574C90.7666 11.418 91.0449 11.0811 91.5869 10.8467C92.1289 10.5977 92.7881 10.4805 93.5498 10.4805C95.4102 10.4805 96.3477 10.9053 96.3477 11.7402C96.3477 12.1943 96.0693 12.5459 95.5273 12.7803C94.9854 13 94.3262 13.1172 93.5498 13.1172C91.6895 13.1172 90.7666 12.6924 90.7666 11.8574ZM106.03 7.72656L91.6309 28H97.6074L112.007 7.72656H106.03Z" fill="#0E0E0E"/>
<path d="M250.669 374.756C249.717 376.235 248.12 377.246 246.289 377.363V381.626H249.746V395H255.796V374.756H250.669ZM284.829 379.971C283.906 377.642 282.163 376.03 279.893 375.225C277.622 374.419 275.425 374.141 272.627 374.185C269.814 374.141 267.588 374.419 265.317 375.225C263.047 376.03 261.333 377.642 260.41 379.971C259.854 381.289 259.575 382.915 259.575 384.863C259.575 386.812 259.854 388.438 260.41 389.756C261.333 392.056 263.047 393.682 265.317 394.502C267.588 395.322 269.829 395.615 272.627 395.571C274.048 395.586 275.322 395.527 276.465 395.366C277.622 395.22 278.765 394.956 279.907 394.561C282.192 393.784 283.906 392.173 284.829 389.844C285.371 388.525 285.635 386.885 285.649 384.922C285.664 382.959 285.386 381.304 284.829 379.971ZM266.284 382.153C267.09 380.059 269.199 379.004 272.627 379.004C274.839 379.004 276.465 379.414 277.534 380.234L265.933 385.786C265.786 384.219 265.903 383.018 266.284 382.153ZM278.955 387.646C278.574 388.628 277.9 389.39 276.919 389.932C275.938 390.474 274.517 390.737 272.627 390.737C270.503 390.737 268.892 390.327 267.764 389.507L279.307 383.984C279.438 385.581 279.321 386.812 278.955 387.646ZM318.594 389.155C318.257 388.394 317.715 387.778 316.968 387.324C316.294 386.929 315.62 386.65 314.961 386.489C314.302 386.328 313.291 386.24 311.929 386.24C310.596 386.24 309.614 386.313 308.999 386.46C308.398 386.606 307.783 386.841 307.168 387.163C305.659 387.998 304.912 389.272 304.912 391.016C304.927 391.631 305.059 392.188 305.278 392.686C305.586 393.447 306.128 394.062 306.89 394.517C307.578 394.941 308.237 395.22 308.882 395.366C309.541 395.527 310.552 395.601 311.929 395.601C313.262 395.601 314.229 395.527 314.844 395.381C315.474 395.249 316.074 395 316.675 394.663C318.184 393.843 318.931 392.568 318.931 390.854C318.901 390.225 318.784 389.653 318.594 389.155ZM311.929 392.275C310.039 392.275 309.102 391.851 309.116 391.016C309.116 390.562 309.395 390.21 309.937 389.961C310.479 389.712 311.152 389.595 311.929 389.595C313.789 389.595 314.727 390.02 314.727 390.854C314.727 391.309 314.448 391.66 313.892 391.909C313.35 392.158 312.69 392.275 311.929 392.275ZM300.269 382.549C301.748 381.729 302.495 380.454 302.48 378.74C302.495 378.096 302.378 377.524 302.158 377.026C301.836 376.265 301.294 375.649 300.532 375.195C299.844 374.8 299.185 374.521 298.525 374.36C297.881 374.199 296.87 374.126 295.493 374.126C294.175 374.126 293.208 374.199 292.578 374.346C291.948 374.492 291.348 374.727 290.747 375.049C289.253 375.869 288.506 377.144 288.506 378.857C288.521 379.502 288.638 380.073 288.828 380.571C289.15 381.333 289.692 381.948 290.454 382.402C291.143 382.827 291.802 383.105 292.461 383.267C293.12 383.413 294.131 383.486 295.493 383.486C296.812 383.486 297.778 383.413 298.408 383.281C299.038 383.135 299.653 382.886 300.269 382.549ZM292.71 378.857C292.71 378.418 292.988 378.081 293.53 377.847C294.072 377.598 294.731 377.48 295.493 377.48C297.354 377.48 298.291 377.905 298.291 378.74C298.291 379.194 298.013 379.546 297.471 379.78C296.929 380 296.27 380.117 295.493 380.117C293.633 380.117 292.71 379.692 292.71 378.857ZM307.974 374.727L293.574 395H299.551L313.95 374.727H307.974Z" fill="white"/>
<path d="M152.595 393.493C152.111 392.395 151.335 391.516 150.236 390.856C148.493 389.787 145.593 389.26 141.535 389.26C139.294 389.26 137.463 389.421 136.071 389.743V387.604H152.478V382.756H129.978V394.724H136.159C136.408 394.387 136.906 394.138 137.668 393.977C138.43 393.815 139.719 393.728 141.535 393.728C143.615 393.728 145.036 393.918 145.812 394.313C146.589 394.709 146.984 395.354 146.984 396.276C146.984 396.994 146.838 397.551 146.545 397.932C145.974 398.693 144.509 399.104 141.535 399.104C138.049 399.089 136.232 398.4 136.071 397.023H129.978C129.978 398.371 130.271 399.44 130.871 400.246C131.472 401.052 132.263 401.711 133.215 402.253C134.885 403.146 137.653 403.601 141.535 403.601C145.593 403.586 148.493 403.073 150.236 402.033C151.335 401.374 152.111 400.495 152.595 399.396C152.917 398.62 153.078 397.58 153.078 396.306C153.078 395.192 152.917 394.255 152.595 393.493ZM186.066 397.155C185.729 396.394 185.188 395.778 184.44 395.324C183.767 394.929 183.093 394.65 182.434 394.489C181.774 394.328 180.764 394.24 179.401 394.24C178.068 394.24 177.087 394.313 176.472 394.46C175.871 394.606 175.256 394.841 174.641 395.163C173.132 395.998 172.385 397.272 172.385 399.016C172.399 399.631 172.531 400.188 172.751 400.686C173.059 401.447 173.601 402.062 174.362 402.517C175.051 402.941 175.71 403.22 176.354 403.366C177.014 403.527 178.024 403.601 179.401 403.601C180.734 403.601 181.701 403.527 182.316 403.381C182.946 403.249 183.547 403 184.147 402.663C185.656 401.843 186.403 400.568 186.403 398.854C186.374 398.225 186.257 397.653 186.066 397.155ZM179.401 400.275C177.512 400.275 176.574 399.851 176.589 399.016C176.589 398.562 176.867 398.21 177.409 397.961C177.951 397.712 178.625 397.595 179.401 397.595C181.262 397.595 182.199 398.02 182.199 398.854C182.199 399.309 181.921 399.66 181.364 399.909C180.822 400.158 180.163 400.275 179.401 400.275ZM167.741 390.549C169.221 389.729 169.968 388.454 169.953 386.74C169.968 386.096 169.851 385.524 169.631 385.026C169.309 384.265 168.767 383.649 168.005 383.195C167.316 382.8 166.657 382.521 165.998 382.36C165.354 382.199 164.343 382.126 162.966 382.126C161.647 382.126 160.681 382.199 160.051 382.346C159.421 382.492 158.82 382.727 158.22 383.049C156.726 383.869 155.979 385.144 155.979 386.857C155.993 387.502 156.11 388.073 156.301 388.571C156.623 389.333 157.165 389.948 157.927 390.402C158.615 390.827 159.274 391.105 159.934 391.267C160.593 391.413 161.604 391.486 162.966 391.486C164.284 391.486 165.251 391.413 165.881 391.281C166.511 391.135 167.126 390.886 167.741 390.549ZM160.183 386.857C160.183 386.418 160.461 386.081 161.003 385.847C161.545 385.598 162.204 385.48 162.966 385.48C164.826 385.48 165.764 385.905 165.764 386.74C165.764 387.194 165.485 387.546 164.943 387.78C164.401 388 163.742 388.117 162.966 388.117C161.105 388.117 160.183 387.692 160.183 386.857ZM175.446 382.727L161.047 403H167.023L181.423 382.727H175.446Z" fill="#0E0E0E"/>
<path d="M331.669 310.756C330.717 312.235 329.12 313.246 327.289 313.363V317.626H330.746V331H336.796V310.756H331.669ZM360.937 319.413C359.193 318.373 356.293 317.86 352.235 317.86C349.555 317.86 347.738 318.256 346.786 319.062C346.786 317.611 346.918 316.82 347.328 316.161C347.548 315.824 347.87 315.59 348.31 315.443C349.188 315.15 350.287 315.004 352.235 315.004C354.301 315.004 355.722 315.15 356.498 315.429C357.274 315.707 357.67 316.249 357.67 317.055H363.793C363.778 315.971 363.617 315.077 363.31 314.374C362.826 313.275 362.035 312.396 360.937 311.737C359.193 310.683 356.293 310.155 352.235 310.155C348.485 310.155 345.761 310.8 344.047 311.913C343.183 312.455 342.509 313.173 342.011 314.066C341.513 314.96 341.161 315.912 340.971 316.923C340.78 317.934 340.692 319.12 340.692 320.497V321.303C340.692 322.313 340.722 323.178 340.78 323.925C340.897 325.39 341.293 327.045 341.996 328.1C342.699 329.14 343.812 330.165 345.438 330.736C347.064 331.278 349.306 331.63 352.235 331.63C356.293 331.63 359.193 331.117 360.937 330.077C362.035 329.389 362.826 328.495 363.31 327.396C363.617 326.708 363.778 325.814 363.793 324.73C363.778 323.676 363.617 322.782 363.31 322.064C362.826 320.966 362.035 320.072 360.937 319.413ZM352.235 326.767C348.529 326.767 346.786 326.137 346.786 324.745C346.786 323.354 348.529 322.724 352.235 322.724C354.301 322.724 355.692 322.855 356.425 323.119C357.157 323.368 357.567 323.91 357.67 324.73C357.567 325.565 357.157 326.122 356.425 326.386C355.692 326.635 354.301 326.767 352.235 326.767ZM396.811 325.155C396.474 324.394 395.932 323.778 395.185 323.324C394.511 322.929 393.837 322.65 393.178 322.489C392.519 322.328 391.508 322.24 390.146 322.24C388.812 322.24 387.831 322.313 387.216 322.46C386.615 322.606 386 322.841 385.385 323.163C383.876 323.998 383.129 325.272 383.129 327.016C383.144 327.631 383.275 328.188 383.495 328.686C383.803 329.447 384.345 330.062 385.106 330.517C385.795 330.941 386.454 331.22 387.099 331.366C387.758 331.527 388.769 331.601 390.146 331.601C391.479 331.601 392.445 331.527 393.061 331.381C393.69 331.249 394.291 331 394.892 330.663C396.4 329.843 397.147 328.568 397.147 326.854C397.118 326.225 397.001 325.653 396.811 325.155ZM390.146 328.275C388.256 328.275 387.318 327.851 387.333 327.016C387.333 326.562 387.611 326.21 388.153 325.961C388.695 325.712 389.369 325.595 390.146 325.595C392.006 325.595 392.943 326.02 392.943 326.854C392.943 327.309 392.665 327.66 392.108 327.909C391.566 328.158 390.907 328.275 390.146 328.275ZM378.485 318.549C379.965 317.729 380.712 316.454 380.697 314.74C380.712 314.096 380.595 313.524 380.375 313.026C380.053 312.265 379.511 311.649 378.749 311.195C378.061 310.8 377.401 310.521 376.742 310.36C376.098 310.199 375.087 310.126 373.71 310.126C372.392 310.126 371.425 310.199 370.795 310.346C370.165 310.492 369.564 310.727 368.964 311.049C367.47 311.869 366.723 313.144 366.723 314.857C366.737 315.502 366.854 316.073 367.045 316.571C367.367 317.333 367.909 317.948 368.671 318.402C369.359 318.827 370.019 319.105 370.678 319.267C371.337 319.413 372.348 319.486 373.71 319.486C375.028 319.486 375.995 319.413 376.625 319.281C377.255 319.135 377.87 318.886 378.485 318.549ZM370.927 314.857C370.927 314.418 371.205 314.081 371.747 313.847C372.289 313.598 372.948 313.48 373.71 313.48C375.57 313.48 376.508 313.905 376.508 314.74C376.508 315.194 376.229 315.546 375.688 315.78C375.146 316 374.486 316.117 373.71 316.117C371.85 316.117 370.927 315.692 370.927 314.857ZM386.19 310.727L371.791 331H377.768L392.167 310.727H386.19Z" fill="#0E0E0E"/>
<path d="M330.669 50.7559C329.717 52.2354 328.12 53.2461 326.289 53.3633V57.626H329.746V71H335.796V50.7559H330.669ZM364.829 55.9707C363.906 53.6416 362.163 52.0303 359.893 51.2246C357.622 50.4189 355.425 50.1406 352.627 50.1846C349.814 50.1406 347.588 50.4189 345.317 51.2246C343.047 52.0303 341.333 53.6416 340.41 55.9707C339.854 57.2891 339.575 58.915 339.575 60.8633C339.575 62.8115 339.854 64.4375 340.41 65.7559C341.333 68.0557 343.047 69.6816 345.317 70.502C347.588 71.3223 349.829 71.6152 352.627 71.5713C354.048 71.5859 355.322 71.5273 356.465 71.3662C357.622 71.2197 358.765 70.9561 359.907 70.5605C362.192 69.7842 363.906 68.1729 364.829 65.8438C365.371 64.5254 365.635 62.8848 365.649 60.9219C365.664 58.959 365.386 57.3037 364.829 55.9707ZM346.284 58.1533C347.09 56.0586 349.199 55.0039 352.627 55.0039C354.839 55.0039 356.465 55.4141 357.534 56.2344L345.933 61.7861C345.786 60.2188 345.903 59.0176 346.284 58.1533ZM358.955 63.6465C358.574 64.6279 357.9 65.3896 356.919 65.9316C355.938 66.4736 354.517 66.7373 352.627 66.7373C350.503 66.7373 348.892 66.3271 347.764 65.5068L359.307 59.9844C359.438 61.5811 359.321 62.8115 358.955 63.6465ZM398.594 65.1553C398.257 64.3936 397.715 63.7783 396.968 63.3242C396.294 62.9287 395.62 62.6504 394.961 62.4893C394.302 62.3281 393.291 62.2402 391.929 62.2402C390.596 62.2402 389.614 62.3135 388.999 62.46C388.398 62.6064 387.783 62.8408 387.168 63.1631C385.659 63.998 384.912 65.2725 384.912 67.0156C384.927 67.6309 385.059 68.1875 385.278 68.6855C385.586 69.4473 386.128 70.0625 386.89 70.5166C387.578 70.9414 388.237 71.2197 388.882 71.3662C389.541 71.5273 390.552 71.6006 391.929 71.6006C393.262 71.6006 394.229 71.5273 394.844 71.3809C395.474 71.249 396.074 71 396.675 70.6631C398.184 69.8428 398.931 68.5684 398.931 66.8545C398.901 66.2246 398.784 65.6533 398.594 65.1553ZM391.929 68.2754C390.039 68.2754 389.102 67.8506 389.116 67.0156C389.116 66.5615 389.395 66.21 389.937 65.9609C390.479 65.7119 391.152 65.5947 391.929 65.5947C393.789 65.5947 394.727 66.0195 394.727 66.8545C394.727 67.3086 394.448 67.6602 393.892 67.9092C393.35 68.1582 392.69 68.2754 391.929 68.2754ZM380.269 58.5488C381.748 57.7285 382.495 56.4541 382.48 54.7402C382.495 54.0957 382.378 53.5244 382.158 53.0264C381.836 52.2646 381.294 51.6494 380.532 51.1953C379.844 50.7998 379.185 50.5215 378.525 50.3604C377.881 50.1992 376.87 50.126 375.493 50.126C374.175 50.126 373.208 50.1992 372.578 50.3457C371.948 50.4922 371.348 50.7266 370.747 51.0488C369.253 51.8691 368.506 53.1436 368.506 54.8574C368.521 55.502 368.638 56.0732 368.828 56.5713C369.15 57.333 369.692 57.9482 370.454 58.4023C371.143 58.8271 371.802 59.1055 372.461 59.2666C373.12 59.4131 374.131 59.4863 375.493 59.4863C376.812 59.4863 377.778 59.4131 378.408 59.2812C379.038 59.1348 379.653 58.8857 380.269 58.5488ZM372.71 54.8574C372.71 54.418 372.988 54.0811 373.53 53.8467C374.072 53.5977 374.731 53.4805 375.493 53.4805C377.354 53.4805 378.291 53.9053 378.291 54.7402C378.291 55.1943 378.013 55.5459 377.471 55.7803C376.929 56 376.27 56.1172 375.493 56.1172C373.633 56.1172 372.71 55.6924 372.71 54.8574ZM387.974 50.7266L373.574 71H379.551L393.95 50.7266H387.974Z" fill="white"/>
<path d="M22.4121 332.321C22.9688 332.102 23.4375 331.677 23.833 331.076C24.2285 330.461 24.4189 329.729 24.4189 328.864C24.4189 328.41 24.3896 327.985 24.3457 327.604C24.2432 326.843 23.8623 325.788 23.2324 325.041C22.6025 324.294 21.4746 323.518 19.9365 323.005C18.3984 322.492 16.0986 322.185 13.2861 322.185C11.8945 322.185 10.6201 322.258 9.49219 322.404C7.22168 322.697 5.77148 323.195 4.64355 323.942C3.53027 324.66 2.98828 325.363 2.59277 326.315C2.22656 327.268 2.15332 327.941 2.15332 328.864C2.15332 329.729 2.34375 330.461 2.73926 331.076C3.13477 331.677 3.61816 332.102 4.1748 332.321C3.53027 332.585 2.95898 333.083 2.47559 333.801C1.99219 334.519 1.74316 335.5 1.74316 336.76C1.74316 339.045 2.66602 340.744 4.02832 341.74C4.7168 342.238 5.58105 342.634 6.62109 342.927C7.66113 343.22 8.70117 343.41 9.72656 343.513C10.7666 343.615 11.9531 343.659 13.2861 343.659C14.6191 343.659 15.8057 343.615 16.8311 343.513C17.8711 343.41 18.8965 343.22 19.9365 342.927C20.9766 342.634 21.8408 342.238 22.5293 341.74C23.8916 340.744 24.8438 339.045 24.8438 336.76C24.8438 335.5 24.5947 334.519 24.1113 333.801C23.6279 333.083 23.0566 332.585 22.4121 332.321ZM18.75 336.76C18.75 338.21 17.1387 338.796 13.2861 338.796C9.46289 338.796 7.83691 338.21 7.83691 336.76C7.83691 336.071 8.24707 335.603 9.08203 335.354C9.91699 335.09 11.3086 334.958 13.2861 334.958C15.2637 334.958 16.6699 335.09 17.5049 335.354C18.3398 335.603 18.75 336.071 18.75 336.76ZM18.75 328.864C18.75 329.201 18.6914 329.494 18.5742 329.729C18.3545 330.183 17.71 330.476 17.1826 330.637C16.9336 330.71 16.5381 330.783 16.0254 330.827C15.5127 330.871 15.1025 330.886 14.7656 330.9C14.4434 330.915 13.9453 330.915 13.2861 330.915C12.627 330.915 12.1436 330.915 11.8066 330.9C11.4697 330.886 11.0596 330.871 10.5469 330.827C10.0342 330.783 9.65332 330.71 9.38965 330.637C9.12598 330.563 8.84766 330.446 8.56934 330.3C8.02734 329.992 7.83691 329.553 7.83691 328.864C7.83691 328.439 7.9834 328.059 8.34961 327.824C8.74512 327.575 9.03809 327.399 9.63867 327.282L10.4004 327.15C10.6055 327.121 10.8984 327.092 11.2646 327.077C11.6309 327.048 11.8799 327.033 12.0117 327.033H12.7295H13.2861H13.8428H14.5605C14.6924 327.033 14.9414 327.048 15.3076 327.077C15.6738 327.092 15.9668 327.121 16.1572 327.15C16.5674 327.209 17.3145 327.326 17.666 327.502C18.2666 327.766 18.8232 328.176 18.75 328.864ZM57.832 337.155C57.4951 336.394 56.9531 335.778 56.2061 335.324C55.5322 334.929 54.8584 334.65 54.1992 334.489C53.54 334.328 52.5293 334.24 51.167 334.24C49.834 334.24 48.8525 334.313 48.2373 334.46C47.6367 334.606 47.0215 334.841 46.4062 335.163C44.8975 335.998 44.1504 337.272 44.1504 339.016C44.165 339.631 44.2969 340.188 44.5166 340.686C44.8242 341.447 45.3662 342.062 46.1279 342.517C46.8164 342.941 47.4756 343.22 48.1201 343.366C48.7793 343.527 49.79 343.601 51.167 343.601C52.5 343.601 53.4668 343.527 54.082 343.381C54.7119 343.249 55.3125 343 55.9131 342.663C57.4219 341.843 58.1689 340.568 58.1689 338.854C58.1396 338.225 58.0225 337.653 57.832 337.155ZM51.167 340.275C49.2773 340.275 48.3398 339.851 48.3545 339.016C48.3545 338.562 48.6328 338.21 49.1748 337.961C49.7168 337.712 50.3906 337.595 51.167 337.595C53.0273 337.595 53.9648 338.02 53.9648 338.854C53.9648 339.309 53.6865 339.66 53.1299 339.909C52.5879 340.158 51.9287 340.275 51.167 340.275ZM39.5068 330.549C40.9863 329.729 41.7334 328.454 41.7188 326.74C41.7334 326.096 41.6162 325.524 41.3965 325.026C41.0742 324.265 40.5322 323.649 39.7705 323.195C39.082 322.8 38.4229 322.521 37.7637 322.36C37.1191 322.199 36.1084 322.126 34.7314 322.126C33.4131 322.126 32.4463 322.199 31.8164 322.346C31.1865 322.492 30.5859 322.727 29.9854 323.049C28.4912 323.869 27.7441 325.144 27.7441 326.857C27.7588 327.502 27.876 328.073 28.0664 328.571C28.3887 329.333 28.9307 329.948 29.6924 330.402C30.3809 330.827 31.04 331.105 31.6992 331.267C32.3584 331.413 33.3691 331.486 34.7314 331.486C36.0498 331.486 37.0166 331.413 37.6465 331.281C38.2764 331.135 38.8916 330.886 39.5068 330.549ZM31.9482 326.857C31.9482 326.418 32.2266 326.081 32.7686 325.847C33.3105 325.598 33.9697 325.48 34.7314 325.48C36.5918 325.48 37.5293 325.905 37.5293 326.74C37.5293 327.194 37.251 327.546 36.709 327.78C36.167 328 35.5078 328.117 34.7314 328.117C32.8711 328.117 31.9482 327.692 31.9482 326.857ZM47.2119 322.727L32.8125 343H38.7891L53.1885 322.727H47.2119Z" fill="white"/>
</svg>
