<svg width="27" height="27" viewBox="0 0 27 27" fill="none" xmlns="http://www.w3.org/2000/svg">
<path d="M26.4977 18.7463L26.4977 18.7455C26.4664 17.5344 26.4738 16.3258 26.4812 15.1088C26.4845 14.5731 26.4878 14.0357 26.4878 13.4958V13.4851V13.4743V13.4635V13.4527V13.442V13.4312V13.4204V13.4097V13.3989V13.3881V13.3774V13.3666V13.3558V13.345V13.3343V13.3235V13.3127V13.302V13.2912V13.2804V13.2697V13.2589V13.2481V13.2373V13.2266V13.2158V13.205V13.1943V13.1835V13.1727V13.1619V13.1512V13.1404V13.1296V13.1189V13.1081V13.0973V13.0866V13.0758V13.065V13.0542V13.0435V13.0327V13.0219V13.0112V13.0004V12.9896V12.9789V12.9681V12.9573V12.9465V12.9358V12.925V12.9142V12.9035V12.8927V12.8819V12.8712V12.8604V12.8496V12.8388V12.8281V12.8173V12.8065V12.7958V12.785V12.7742V12.7635V12.7527V12.7419V12.7311V12.7204V12.7096V12.6988V12.6881V12.6773V12.6665V12.6558V12.645V12.6342V12.6235V12.6127V12.6019V12.5911V12.5804V12.5696V12.5588V12.5481V12.5373V12.5265V12.5158V12.505V12.4942V12.4834V12.4727V12.4619V12.4511V12.4404V12.4296V12.4188V12.4081V12.3973V12.3865V12.3758V12.365V12.3542V12.3434V12.3327V12.3219V12.3111V12.3004V12.2896V12.2788V12.2681V12.2573V12.2465V12.2358V12.225V12.2142V12.2035V12.1927V12.1819V12.1711V12.1604V12.1496V12.1388V12.1281V12.1173V12.1065V12.0958V12.085V12.0742V12.0635V12.0527V12.0419V12.0312V12.0204V12.0096V11.9989V11.9881V11.9773V11.9665V11.9558V11.945V11.9342V11.9235V11.9127V11.9019V11.8912V11.8804V11.8696V11.8589V11.8481V11.8373V11.8266V11.8158V11.805V11.7943V11.7835V11.7727V11.762V11.7512V11.7404V11.7297V11.7189V11.7081V11.6974V11.6866V11.6758V11.6651V11.6543V11.6435V11.6328V11.622V11.6112V11.6005V11.5897V11.5789V11.5682V11.5574V11.5466V11.5359V11.5251V11.5143V11.5036V11.4928V11.482V11.4713V11.4605V11.4497V11.439V11.4282V11.4174V11.4067V11.3959V11.3851V11.3744V11.3636V11.3528V11.3421V11.3313V11.3205V11.3098V11.299V11.2882V11.2775V11.2667V11.2559V11.2452V11.2344V11.2236V11.2129V11.2021V11.1913V11.1806V11.1698V11.1591V11.1483V11.1375V11.1268V11.116V11.1052V11.0945V11.0837V11.0729V11.0622V11.0514V11.0406V11.0299V11.0191V11.0083V10.9976V10.9868V10.9761V10.9653V10.9545V10.9438V10.933V10.9222V10.9115V10.9007V10.8899V10.8792V10.8684V10.8577V10.8469V10.8361V10.8254V10.8146V10.8038V10.7931V10.7823V10.7715V10.7608V10.75V10.7393V10.7285V10.7177V10.707V10.6962V10.6854V10.6747V10.6639V10.6532V10.6424V10.6316V10.6209V10.6101V10.5993V10.5886V10.5778V10.5671V10.5563V10.5455V10.5348V10.524V10.5132V10.5025V10.4917V10.481V10.4702V10.4594V10.4487V10.4379V10.4272V10.4164V10.4056V10.3949V10.3841V10.3733V10.3626V10.3518V10.3411V10.3303V10.3195V10.3088V10.298V10.2873V10.2765V10.2657V10.255V10.2442V10.2335V10.2227V10.2119V10.2012V10.1904V10.1797V10.1689V10.1581V10.1474V10.1366V10.1259V10.1151V10.1043V10.0936V10.0828V10.0721V10.0613V10.0506V10.0398V10.029V10.0183V10.0075V9.99676V9.986V9.97524V9.96449V9.95373V9.94297V9.93221V9.92145V9.9107V9.89994V9.88918V9.87842V9.86766V9.85691V9.84615V9.83539V9.82464V9.81388V9.80312V9.79236V9.78161V9.77085V9.76009V9.74934V9.73858V9.72782V9.71707V9.70631V9.69555V9.6848V9.67404V9.66329V9.65253V9.64177V9.63102V9.62026V9.60951V9.59875V9.58799V9.57724V9.56648V9.55573V9.54497V9.53422V9.52346V9.51271V9.50195V9.4912V9.48044V9.46969V9.45893V9.44818V9.43743V9.42667V9.41592V9.40516V9.39441V9.38366V9.3729V9.36215V9.35139V9.34064V9.32989V9.31913V9.30838V9.29763V9.28687V9.27612V9.26537V9.25461V9.24386V9.23311V9.22236V9.2116V9.20085V9.1901V9.17935V9.1686V9.15784V9.14709V9.13634V9.12559V9.11484V9.10408V9.09333V9.08258V9.07183V9.06108V9.05033V9.03958V9.02882V9.01807V9.00732V8.99657V8.98582V8.97507V8.96432V8.95357V8.94282V8.93207V8.92132V8.91057V8.89982V8.88907V8.87832V8.86757V8.85682V8.84607V8.83532V8.82457V8.81383V8.80308V8.79233V8.78158V8.77083V8.76008V8.74933V8.73858V8.72784V8.71709V8.70634V8.69559V8.68484V8.6741V8.66335V8.6526V8.64185V8.63111V8.62036V8.60961V8.59886V8.58812V8.57737V8.56662V8.55588V8.54513V8.53438V8.52364V8.51289V8.50215V8.4914V8.48065V8.46991V8.45916V8.44842V8.43767V8.42693V8.41618V8.40544V8.39469V8.38394V8.3732V8.36246V8.35171V8.34097V8.33022V8.31948V8.30873V8.29799V8.28725V8.2765V8.26576V8.25501V8.24427V8.23353V8.22278V8.21204V8.2013V8.19055V8.17981V8.16907V8.15833V8.14758V8.13684V8.1261V8.11536V8.10461V8.09387V8.08313V8.07239V8.06165V8.0509V8.04016V8.02942V8.01868V8.00794V7.9972V7.98646C26.4878 6.43227 26.0319 5.00491 25.0852 3.76501L25.0849 3.76462C23.4124 1.57881 21.1314 0.538103 18.4341 0.516671C16.0807 0.49506 13.7234 0.49918 11.3704 0.503293C10.4305 0.504936 9.49129 0.506578 8.55328 0.506574L8.55127 0.506582C7.23137 0.511879 5.94564 0.771922 4.75423 1.39435L4.7532 1.39489C3.41916 2.09578 2.35047 2.99904 1.61658 4.13672C0.881019 5.27701 0.5 6.62482 0.5 8.18286V8.20402V8.22517V8.24633V8.26749V8.28864V8.3098V8.33096V8.35211V8.37327V8.39443V8.41558V8.43674V8.45789V8.47905V8.5002V8.52136V8.54251V8.56367V8.58482V8.60598V8.62713V8.64829V8.66944V8.6906V8.71175V8.73291V8.75406V8.77521V8.79637V8.81752V8.83868V8.85983V8.88098V8.90214V8.92329V8.94444V8.9656V8.98675V9.0079V9.02906V9.05021V9.07136V9.09251V9.11367V9.13482V9.15597V9.17712V9.19827V9.21943V9.24058V9.26173V9.28288V9.30403V9.32519V9.34634V9.36749V9.38864V9.40979V9.43094V9.45209V9.47324V9.49439V9.51554V9.5367V9.55785V9.579V9.60015V9.6213V9.64245V9.6636V9.68475V9.7059V9.72705V9.7482V9.76935V9.7905V9.81165V9.8328V9.85394V9.87509V9.89624V9.91739V9.93854V9.95969V9.98084V10.002V10.0231V10.0443V10.0654V10.0866V10.1077V10.1289V10.15V10.1712V10.1923V10.2135V10.2346V10.2558V10.2769V10.2981V10.3192V10.3404V10.3615V10.3827V10.4038V10.4249V10.4461V10.4672V10.4884V10.5095V10.5307V10.5518V10.573V10.5941V10.6153V10.6364V10.6576V10.6787V10.6999V10.721V10.7422V10.7633V10.7844V10.8056V10.8267V10.8479V10.869V10.8902V10.9113V10.9325V10.9536V10.9748V10.9959V11.0171V11.0382V11.0593V11.0805V11.1016V11.1228V11.1439V11.1651V11.1862V11.2074V11.2285V11.2497V11.2708V11.2919V11.3131V11.3342V11.3554V11.3765V11.3977V11.4188V11.44V11.4611V11.4822V11.5034V11.5245V11.5457V11.5668V11.588V11.6091V11.6303V11.6514V11.6725V11.6937V11.7148V11.736V11.7571V11.7783V11.7994V11.8206V11.8417V11.8628V11.884V11.9051V11.9263V11.9474V11.9686V11.9897V12.0108V12.032V12.0531V12.0743V12.0954V12.1166V12.1377V12.1588V12.18V12.2011V12.2223V12.2434V12.2646V12.2857V12.3069V12.328V12.3491V12.3703V12.3914V12.4126V12.4337V12.4549V12.476V12.4971V12.5183V12.5394V12.5606V12.5817V12.6029V12.624V12.6451V12.6663V12.6874V12.7086V12.7297V12.7509V12.772V12.7931V12.8143V12.8354V12.8566V12.8777V12.8988V12.92V12.9411V12.9623V12.9834V13.0046V13.0257V13.0468V13.068V13.0891V13.1103V13.1314V13.1526V13.1737V13.1948V13.216V13.2371V13.2583V13.2794V13.3006V13.3217V13.3428V13.364V13.3851V13.4063V13.4274V13.4486V13.4697V13.4908V13.512V13.5331V13.5543V13.5754V13.5965V13.6177V13.6388V13.66V13.6811V13.7023V13.7234V13.7445V13.7657V13.7868V13.808V13.8291V13.8503V13.8714V13.8925V13.9137V13.9348V13.956V13.9771V13.9983V14.0194V14.0405V14.0617V14.0828V14.104V14.1251V14.1462V14.1674V14.1885V14.2097V14.2308V14.252V14.2731V14.2942V14.3154V14.3365V14.3577V14.3788V14.4V14.4211V14.4422V14.4634V14.4845V14.5057V14.5268V14.548V14.5691V14.5902V14.6114V14.6325V14.6537V14.6748V14.696V14.7171V14.7382V14.7594V14.7805V14.8017V14.8228V14.844V14.8651V14.8862V14.9074V14.9285V14.9497V14.9708V14.992V15.0131V15.0342V15.0554V15.0765V15.0977V15.1188V15.14V15.1611V15.1823V15.2034V15.2245V15.2457V15.2668V15.288V15.3091V15.3303V15.3514V15.3725V15.3937V15.4148V15.436V15.4571V15.4783V15.4994V15.5206V15.5417V15.5628V15.584V15.6051V15.6263V15.6474V15.6686V15.6897V15.7109V15.732V15.7531V15.7743V15.7954V15.8166V15.8377V15.8589V15.88V15.9012V15.9223V15.9434V15.9646V15.9857V16.0069V16.028V16.0492V16.0703V16.0915V16.1126V16.1338V16.1549V16.176V16.1972V16.2183V16.2395V16.2606V16.2818V16.3029V16.3241V16.3452V16.3664V16.3875V16.4087V16.4298V16.4509V16.4721V16.4932V16.5144V16.5355V16.5567V16.5778V16.599V16.6201V16.6413V16.6624V16.6836V16.7047V16.7259V16.747V16.7681V16.7893V16.8104V16.8316V16.8527V16.8739V16.895V16.9162V16.9373V16.9585V16.9796V17.0008V17.0219V17.0431V17.0642V17.0854V17.1065V17.1277V17.1488V17.17V17.1911V17.2123V17.2334V17.2546V17.2757V17.2969V17.318V17.3392V17.3603V17.3814V17.4026V17.4237V17.4449V17.466V17.4872V17.5083V17.5295V17.5506V17.5718V17.5929V17.6141V17.6353V17.6564V17.6776V17.6987V17.7199V17.741V17.7622V17.7833V17.8045V17.8256V17.8468V17.8679V17.8891V17.9102V17.9314V17.9525V17.9737V17.9948V18.016V18.0371V18.0583V18.0794V18.1006V18.1217V18.1429V18.164V18.1852V18.2063V18.2275V18.2487V18.2698V18.291V18.3121V18.3333V18.3544V18.3756V18.3967V18.4179V18.439V18.4602V18.4813V18.5025V18.5237V18.5448V18.566V18.5871V18.6083V18.6294V18.6506V18.6717V18.6929V18.714V18.7352V18.7564V18.7775V18.7987V18.8198V18.841V18.8621V18.8833V18.9045V18.9256V18.9468V18.9679V18.9891V19.0102C0.5 20.4724 0.906665 21.8344 1.76211 23.0325L1.76243 23.0329C3.3634 25.2698 5.61351 26.4115 8.32171 26.4648L8.32192 26.4648C10.8155 26.513 13.3142 26.5014 15.8047 26.4898C16.708 26.4856 17.6103 26.4814 18.5108 26.48C19.6653 26.4799 20.78 26.2381 21.8364 25.7849L21.8367 25.7847C24.4757 24.6505 26.5791 22.0861 26.4977 18.7463ZM3.90573 21.0761L3.90563 21.0759C3.53127 20.4641 3.35935 19.7812 3.35935 19.0354V19.0246V19.0138V19.0029V18.9921V18.9813V18.9704V18.9596V18.9488V18.938V18.9271V18.9163V18.9055V18.8946V18.8838V18.873V18.8622V18.8513V18.8405V18.8297V18.8189V18.808V18.7972V18.7864V18.7755V18.7647V18.7539V18.7431V18.7322V18.7214V18.7106V18.6998V18.6889V18.6781V18.6673V18.6565V18.6456V18.6348V18.624V18.6132V18.6023V18.5915V18.5807V18.5699V18.559V18.5482V18.5374V18.5266V18.5157V18.5049V18.4941V18.4833V18.4724V18.4616V18.4508V18.44V18.4291V18.4183V18.4075V18.3967V18.3858V18.375V18.3642V18.3534V18.3426V18.3317V18.3209V18.3101V18.2993V18.2884V18.2776V18.2668V18.256V18.2452V18.2343V18.2235V18.2127V18.2019V18.191V18.1802V18.1694V18.1586V18.1478V18.1369V18.1261V18.1153V18.1045V18.0936V18.0828V18.072V18.0612V18.0504V18.0395V18.0287V18.0179V18.0071V17.9963V17.9854V17.9746V17.9638V17.953V17.9422V17.9313V17.9205V17.9097V17.8989V17.8881V17.8772V17.8664V17.8556V17.8448V17.834V17.8231V17.8123V17.8015V17.7907V17.7799V17.7691V17.7582V17.7474V17.7366V17.7258V17.715V17.7041V17.6933V17.6825V17.6717V17.6609V17.65V17.6392V17.6284V17.6176V17.6068V17.596V17.5851V17.5743V17.5635V17.5527V17.5419V17.531V17.5202V17.5094V17.4986V17.4878V17.477V17.4661V17.4553V17.4445V17.4337V17.4229V17.4121V17.4012V17.3904V17.3796V17.3688V17.358V17.3472V17.3363V17.3255V17.3147V17.3039V17.2931V17.2823V17.2714V17.2606V17.2498V17.239V17.2282V17.2174V17.2065V17.1957V17.1849V17.1741V17.1633V17.1525V17.1416V17.1308V17.12V17.1092V17.0984V17.0876V17.0767V17.0659V17.0551V17.0443V17.0335V17.0227V17.0119V17.001V16.9902V16.9794V16.9686V16.9578V16.947V16.9361V16.9253V16.9145V16.9037V16.8929V16.8821V16.8713V16.8604V16.8496V16.8388V16.828V16.8172V16.8064V16.7955V16.7847V16.7739V16.7631V16.7523V16.7415V16.7307V16.7198V16.709V16.6982V16.6874V16.6766V16.6658V16.655V16.6441V16.6333V16.6225V16.6117V16.6009V16.5901V16.5792V16.5684V16.5576V16.5468V16.536V16.5252V16.5144V16.5035V16.4927V16.4819V16.4711V16.4603V16.4495V16.4387V16.4278V16.417V16.4062V16.3954V16.3846V16.3738V16.363V16.3521V16.3413V16.3305V16.3197V16.3089V16.2981V16.2873V16.2764V16.2656V16.2548V16.244V16.2332V16.2224V16.2115V16.2007V16.1899V16.1791V16.1683V16.1575V16.1467V16.1358V16.125V16.1142V16.1034V16.0926V16.0818V16.071V16.0601V16.0493V16.0385V16.0277V16.0169V16.0061V15.9953V15.9844V15.9736V15.9628V15.952V15.9412V15.9304V15.9196V15.9087V15.8979V15.8871V15.8763V15.8655V15.8547V15.8438V15.833V15.8222V15.8114V15.8006V15.7898V15.779V15.7681V15.7573V15.7465V15.7357V15.7249V15.7141V15.7033V15.6924V15.6816V15.6708V15.66V15.6492V15.6384V15.6275V15.6167V15.6059V15.5951V15.5843V15.5735V15.5627V15.5518V15.541V15.5302V15.5194V15.5086V15.4978V15.4869V15.4761V15.4653V15.4545V15.4437V15.4329V15.422V15.4112V15.4004V15.3896V15.3788V15.368V15.3572V15.3463V15.3355V15.3247V15.3139V15.3031V15.2923V15.2814V15.2706V15.2598V15.249V15.2382V15.2274V15.2165V15.2057V15.1949V15.1841V15.1733V15.1625V15.1516V15.1408V15.13V15.1192V15.1084V15.0976V15.0867V15.0759V15.0651V15.0543V15.0435V15.0326V15.0218V15.011V15.0002V14.9894V14.9786V14.9677V14.9569V14.9461V14.9353V14.9245V14.9137V14.9028V14.892V14.8812V14.8704V14.8596V14.8487V14.8379V14.8271V14.8163V14.8055V14.7946V14.7838V14.773V14.7622V14.7514V14.7406V14.7297V14.7189V14.7081V14.6973V14.6865V14.6756V14.6648V14.654V14.6432V14.6324V14.6215V14.6107V14.5999V14.5891V14.5783V14.5674V14.5566V14.5458V14.535V14.5242V14.5133V14.5025V14.4917V14.4809V14.4701V14.4592V14.4484V14.4376V14.4268V14.416V14.4051V14.3943V14.3835V14.3727V14.3618V14.351V14.3402V14.3294V14.3186V14.3077V14.2969V14.2861V14.2753V14.2644V14.2536V14.2428V14.232V14.2212V14.2103V14.1995V14.1887V14.1779V14.167V14.1562V14.1454V14.1346V14.1238V14.1129V14.1021V14.0913V14.0805V14.0696V14.0588V14.048V14.0372V14.0263V14.0155V14.0047V13.9939V13.983V13.9722V13.9614V13.9506V13.9397V13.9289V13.9181V13.9073V13.8964V13.8856V13.8748V13.864V13.8531V13.8423V13.8315V13.8207V13.8098V13.799V13.7882V13.7774V13.7665V13.7557V13.7449V13.734V13.7232V13.7124V13.7016V13.6907V13.6799V13.6691V13.6583V13.6474V13.6366V13.6258V13.6149V13.6041V13.5933V13.5825V13.5716V13.5608V13.55V13.5391V13.5283V13.5175V13.5067V13.4958C3.35935 12.9832 3.36338 12.4669 3.36744 11.9482C3.37699 10.7271 3.38664 9.49269 3.34396 8.26205C3.27208 5.95532 4.80951 4.37112 6.51557 3.73635L6.51592 3.73622C7.14467 3.50175 7.78073 3.36989 8.43235 3.36989L8.43309 3.36989C9.22905 3.36871 10.0244 3.3664 10.8194 3.3641C13.4003 3.35663 15.9769 3.34917 18.5545 3.37993L18.5552 3.37994C20.3205 3.39851 21.7727 4.09963 22.8341 5.53343C23.367 6.25872 23.6234 7.08019 23.6234 7.99149C23.6234 9.06278 23.6221 10.1347 23.6207 11.2069C23.6175 13.7104 23.6143 16.2158 23.6285 18.7203C23.6331 19.8027 23.3719 20.6747 22.8948 21.3838C22.4156 22.0961 21.6963 22.677 20.7334 23.1368C20.0539 23.4603 19.3219 23.6167 18.5605 23.6167L18.559 23.6167C17.8802 23.6187 17.2018 23.6216 16.5238 23.6244C13.8158 23.6357 11.114 23.6469 8.4147 23.6067C6.46917 23.5739 4.93447 22.7589 3.90573 21.0761Z" fill="black" stroke="black"/>
<path d="M13.5226 19.334L13.5218 19.334C10.0005 19.334 7.15198 16.5267 7.14649 13.0233L13.5226 19.334ZM13.5226 19.334C17.0324 19.3285 19.8871 16.5123 19.8871 13.0376L19.8871 13.0368M13.5226 19.334L19.8871 13.0368M19.8871 13.0368C19.8816 9.5574 17.0218 6.74598 13.5114 6.75123M19.8871 13.0368L13.5114 6.75123M13.5114 6.75123C10.0135 6.75144 7.14101 9.56596 7.14649 13.0233L13.5114 6.75123ZM13.5218 16.4707L13.5207 16.4707C11.5773 16.4751 10.0106 14.9286 10.0058 13.037C10.0061 11.1538 11.575 9.60951 13.5218 9.60951C15.4564 9.60951 17.0183 11.1572 17.0227 13.0287C17.0271 14.9197 15.4653 16.4707 13.5218 16.4707Z" fill="black" stroke="black"/>
<path d="M20.0669 5.48865C20.7472 5.48865 21.3014 6.06779 21.3014 6.77786C21.2964 7.48793 20.7371 8.06204 20.0568 8.057C19.3867 8.05196 18.8374 7.47786 18.8374 6.7829C18.8324 6.07282 19.3867 5.48865 20.0669 5.48865Z" fill="black"/>
</svg>
