<svg width="16" height="16" viewBox="0 0 16 16" fill="none" xmlns="http://www.w3.org/2000/svg">
<path d="M15.9922 7.99733C15.9922 9.11895 15.9696 10.2438 15.9986 11.3654C16.047 13.3508 14.799 14.885 13.2091 15.5682C12.5706 15.8422 11.8998 15.9872 11.2065 15.9872C9.03612 15.9905 6.86255 16.0195 4.6922 15.9776C3.05719 15.9453 1.71241 15.262 0.748173 13.9148C0.241866 13.2058 0 12.4 0 11.5266C0 9.21564 0 6.90795 0 4.59703C0 2.71156 0.919091 1.39334 2.55088 0.53601C3.26036 0.165361 4.0311 0.00743271 4.8341 0.00420968C6.93995 0.00420968 9.04902 -0.00868246 11.1549 0.0106557C12.7899 0.0235479 14.154 0.648816 15.1602 1.96381C15.7213 2.69866 15.9922 3.5431 15.9922 4.47133C15.9922 5.64452 15.9922 6.82092 15.9922 7.99733ZM1.18998 7.99733C1.18998 9.18018 1.18998 10.3598 1.18998 11.5427C1.18998 12.0712 1.31253 12.5676 1.58664 13.0156C2.30579 14.192 3.39258 14.7657 4.74058 14.7883C6.90447 14.8205 9.07159 14.8012 11.2387 14.7947C11.7708 14.7947 12.2868 14.6851 12.7673 14.4563C14.0766 13.831 14.8087 12.8351 14.8022 11.3396C14.7893 9.05126 14.799 6.76291 14.799 4.47456C14.799 3.82673 14.6152 3.23369 14.2314 2.71156C13.4897 1.70919 12.4642 1.21607 11.2387 1.20318C9.07804 1.17739 6.91737 1.19351 4.7567 1.19673C4.29554 1.19673 3.85051 1.2902 3.41838 1.45135C2.23162 1.89291 1.12871 3.0113 1.18031 4.65827C1.21901 5.77344 1.18998 6.88538 1.18998 7.99733Z" fill="white"/>
<path d="M8.01412 11.4137C5.93407 11.4137 4.25714 9.7571 4.25391 7.69436C4.25069 5.66385 5.94052 4.00077 8.00767 4.00077C10.0813 3.99754 11.7647 5.65741 11.7679 7.70403C11.7679 9.74743 10.0877 11.4105 8.01412 11.4137ZM8.01412 10.2212C9.42985 10.2212 10.5779 9.08994 10.5747 7.69759C10.5715 6.31813 9.4234 5.19007 8.01412 5.19007C6.5984 5.19007 5.44389 6.3149 5.44389 7.70403C5.44712 9.09638 6.5984 10.2244 8.01412 10.2212Z" fill="white"/>
<path d="M12.2029 2.87274C12.6383 2.87274 12.993 3.24339 12.993 3.69784C12.9898 4.15229 12.6318 4.51971 12.1965 4.51649C11.7675 4.51327 11.416 4.14584 11.416 3.70106C11.4128 3.24661 11.7675 2.87274 12.2029 2.87274Z" fill="white"/>
</svg>
