<svg width="25" height="26" viewBox="0 0 25 26" fill="none" xmlns="http://www.w3.org/2000/svg">
<g clip-path="url(#clip0_589_438)">
<path d="M0 4.81446C0 2.60532 1.79086 0.814453 4 0.814453H21C23.2091 0.814453 25 2.60531 25 4.81445V21.9467C25 24.1559 23.2091 25.9467 21 25.9467H4C1.79086 25.9467 0 24.1559 0 21.9467V4.81446Z" fill="black"/>
<path d="M23.1545 0.814453H1.84549C1.35603 0.814453 0.886626 1.00992 0.540531 1.35784C0.194435 1.70577 0 2.17766 0 2.6697V24.0915C0 24.5835 0.194435 25.0554 0.540531 25.4033C0.886626 25.7513 1.35603 25.9467 1.84549 25.9467H23.1545C23.644 25.9467 24.1134 25.7513 24.4595 25.4033C24.8056 25.0554 25 24.5835 25 24.0915V2.6697C25 2.17766 24.8056 1.70577 24.4595 1.35784C24.1134 1.00992 23.644 0.814453 23.1545 0.814453ZM7.45139 22.224H3.69271V10.2216H7.45139V22.224ZM5.56944 8.55834C5.14309 8.55592 4.72699 8.4266 4.37368 8.18668C4.02037 7.94676 3.74567 7.60701 3.58425 7.21029C3.42283 6.81358 3.38192 6.37768 3.4667 5.95762C3.55147 5.53756 3.75813 5.15215 4.06058 4.85005C4.36303 4.54794 4.74772 4.34268 5.16611 4.26015C5.5845 4.17763 6.01783 4.22155 6.41141 4.38636C6.80499 4.55118 7.14119 4.82951 7.37757 5.18623C7.61395 5.54294 7.73992 5.96206 7.73958 6.39068C7.74361 6.67764 7.69012 6.96248 7.5823 7.22821C7.47449 7.49395 7.31456 7.73515 7.11205 7.93743C6.90954 8.13971 6.66859 8.29893 6.40357 8.40561C6.13854 8.51228 5.85486 8.56422 5.56944 8.55834ZM21.3056 22.2345H17.5486V15.6774C17.5486 13.7436 16.7309 13.1467 15.6753 13.1467C14.5608 13.1467 13.467 13.9914 13.467 15.7263V22.2345H9.70833V10.2303H13.3229V11.8936H13.3715C13.7344 11.1553 15.0052 9.89349 16.9444 9.89349C19.0417 9.89349 21.3073 11.1449 21.3073 14.81L21.3056 22.2345Z" fill="#70FF00"/>
</g>
<defs>
<clipPath id="clip0_589_438">
<path d="M0 4.81446C0 2.60532 1.79086 0.814453 4 0.814453H21C23.2091 0.814453 25 2.60531 25 4.81445V21.9467C25 24.1559 23.2091 25.9467 21 25.9467H4C1.79086 25.9467 0 24.1559 0 21.9467V4.81446Z" fill="white"/>
</clipPath>
</defs>
</svg>
