<svg width="77" height="34" viewBox="0 0 77 34" fill="none" xmlns="http://www.w3.org/2000/svg">
<path d="M17.3516 3.93066C16.7422 2.48926 15.6055 1.35254 14.1641 0.743164C13.4023 0.438477 12.6289 0.286133 11.832 0.286133H0.792969V16.4814H5.66797V12.2393H11.832C12.6406 12.2393 13.4141 12.0869 14.1641 11.7822C15.6055 11.1729 16.7422 10.0244 17.3516 8.58301C17.9609 7.11816 17.9609 5.39551 17.3516 3.93066ZM10.8477 8.34863H5.66797V4.16504H10.8477C11.4219 4.16504 11.9141 4.37598 12.3242 4.78613C12.7344 5.19629 12.9453 5.68848 12.9453 6.2627C12.9453 6.83691 12.7344 7.3291 12.3242 7.73926C11.9141 8.14941 11.4219 8.34863 10.8477 8.34863ZM24.8984 0.286133L16.9531 16.4814H22.3789L23.3398 14.5361H31.9062L32.8672 16.4814H38.2695L30.3242 0.286133H24.8984ZM25.2148 10.6455L27.6172 5.80566L29.9609 10.6455H25.2148ZM51.2422 16.6221C52.4492 16.3291 53.4688 15.8604 54.3125 15.2041C55.2852 14.4658 56.0117 13.4932 56.4922 12.3096C56.9609 11.1963 57.1953 9.88379 57.1953 8.37207V0.286133H52.3203V8.37207C52.3203 8.96973 52.2617 9.48535 52.1445 9.94238C51.9219 10.8447 51.6641 11.3838 51.1016 11.8057C50.5508 12.2158 50.2109 12.3799 49.5195 12.4854C49.1797 12.5439 48.9102 12.5674 48.7227 12.5791C48.5469 12.5908 48.2891 12.5908 47.9727 12.5908C47.6562 12.5908 47.3984 12.5908 47.2109 12.5791C47.0352 12.5674 46.7656 12.5439 46.4141 12.4854C46.0625 12.4268 45.7812 12.3564 45.5586 12.2627C45.1367 12.0635 44.4805 11.6299 44.1523 11.0557C43.8359 10.4814 43.5781 9.55566 43.5781 8.37207V0.286133H38.7148V8.37207C38.7148 9.88379 38.9492 11.1963 39.4297 12.333C39.9102 13.4932 40.6484 14.4541 41.6445 15.2041C43.1562 16.376 45.2656 16.9619 47.9727 16.9619C49.2031 16.9619 50.293 16.8447 51.2422 16.6221ZM65.0586 12.5908V0.286133H60.1836V16.4814H76.3906V12.5908H65.0586ZM22.2643 33.9326C23.6998 33.9531 24.862 33.7891 25.7506 33.4404C26.9059 32.9961 27.6989 32.2305 28.1295 31.1436C28.2799 30.7949 28.3893 30.3848 28.4508 29.9131L28.4782 29.7012H25.1354L25.0944 29.8447C25.0807 29.8994 25.067 29.9473 25.0465 29.9814L25.0329 29.9951C24.9235 30.3301 24.7594 30.5625 24.3561 30.8564C23.9528 31.1504 23.2282 31.3145 22.2643 31.3145C20.7536 31.3145 19.8239 30.8564 19.4752 29.9404C19.3659 29.667 19.3112 29.2705 19.3043 28.751C19.3043 28.2246 19.359 27.835 19.4752 27.5752V27.5615C19.8307 26.6523 20.7604 26.2012 22.2643 26.2012C23.2145 26.2012 23.9254 26.3721 24.3288 26.6523C24.7321 26.9258 24.903 27.1855 25.0465 27.5615V27.5752L25.0944 27.6709L25.1354 27.8008H28.4782L28.4508 27.5889C28.3756 27.1309 28.2731 26.7344 28.1295 26.3994C27.6989 25.3125 26.9059 24.5469 25.7506 24.0889C24.8414 23.7334 23.6793 23.5625 22.2643 23.583C20.8493 23.5625 19.6871 23.7334 18.778 24.0889C17.6227 24.5469 16.8297 25.3193 16.3991 26.4131C16.1256 27.0488 15.9889 27.8281 15.9889 28.7578C15.9957 29.6875 16.1325 30.4668 16.3991 31.1025C16.8297 32.1895 17.6227 32.9551 18.778 33.4131C19.6461 33.7617 20.733 33.9326 22.0524 33.9326H22.2643ZM22.2643 23.9453C25.3268 23.9111 27.0631 24.7246 27.7946 26.5361V26.5498C27.9108 26.8027 27.9928 27.0967 28.0475 27.4316H25.3883C25.3883 27.4248 25.3883 27.418 25.3883 27.418C24.9782 26.3311 23.9801 25.8389 22.2643 25.8389C20.5895 25.8389 19.5504 26.3652 19.1403 27.418C18.9967 27.7393 18.9284 28.1836 18.9284 28.7578C18.9284 29.3252 18.9967 29.7695 19.1403 30.0771C19.5504 31.1436 20.5895 31.6768 22.2643 31.6768C23.9938 31.6768 24.9987 31.1846 25.3883 30.1182C25.3952 30.1113 25.402 30.0908 25.402 30.0635H28.0612C27.9996 30.4326 27.9108 30.7471 27.7946 31.0068C27.4391 31.9092 26.817 32.5654 25.9284 32.9756C25.0465 33.3857 23.8229 33.5771 22.2643 33.5498C19.2018 33.6045 17.4655 32.7705 16.734 30.959C16.4811 30.3711 16.358 29.6396 16.358 28.7578C16.358 27.876 16.4811 27.1377 16.734 26.5498V26.5361C17.445 24.7861 19.1334 23.9453 22.0661 23.9453H22.2643ZM40.9286 31.0342H34.0995V30.0635H40.3544V27.4316H34.0995V26.4814H40.9286V23.8359H30.8934V33.666H40.9286V31.0342ZM31.2557 24.2119H40.5526V26.1055H33.7304V27.8008H39.9921V29.7012H33.7304V31.3965H40.5526V33.2969H31.2557V24.2119ZM49.462 33.9463C50.8976 33.9531 52.0597 33.7891 52.9484 33.4541C54.1036 33.0098 54.8966 32.2373 55.3273 31.1436C55.5939 30.5078 55.7306 29.7285 55.7306 28.792C55.7306 27.8418 55.5939 27.0488 55.3273 26.4131C54.8966 25.3262 54.1036 24.5605 52.9484 24.1025C52.0392 23.7471 50.8771 23.5762 49.462 23.5967C48.047 23.5762 46.8849 23.7471 45.9757 24.1025C44.8204 24.5605 44.0275 25.3262 43.5968 26.4131C43.3234 27.0557 43.1866 27.8418 43.1866 28.7715C43.1935 29.7012 43.3302 30.4805 43.5968 31.1162C44.0275 32.2031 44.8204 32.9688 45.9757 33.4268C46.8439 33.7754 47.9308 33.9463 49.2501 33.9463H49.462ZM49.462 23.959C52.5245 23.9248 54.2609 24.7383 54.9923 26.5498C55.2452 27.1377 55.3683 27.876 55.3683 28.7715C55.3683 29.667 55.2452 30.4121 54.9923 31.0068V31.0205C54.6437 31.8955 54.0489 32.5381 53.1945 32.9482C52.34 33.3584 51.171 33.5635 49.6739 33.5635H49.462C46.3995 33.5977 44.6632 32.7842 43.9318 30.9727C43.6788 30.3848 43.5558 29.6465 43.5558 28.7646C43.5558 27.876 43.6788 27.1377 43.9318 26.5498C44.6427 24.7793 46.3312 23.959 49.2638 23.959H49.462ZM52.5861 30.1387C52.7159 29.8174 52.7843 29.3662 52.7843 28.7783C52.7843 28.1904 52.7159 27.7393 52.5861 27.4316C52.1759 26.3447 51.1779 25.8525 49.462 25.8525C47.7872 25.8525 46.7482 26.3789 46.338 27.4316C46.2013 27.7529 46.1329 28.1973 46.1261 28.7715C46.1261 29.3389 46.1945 29.7832 46.338 30.0908C46.7482 31.1572 47.7872 31.6904 49.462 31.6904C51.1915 31.6904 52.1964 31.2051 52.5861 30.1387ZM52.2443 27.5752V27.5889C52.3605 27.8486 52.4152 28.2451 52.4152 28.7852C52.4152 29.3252 52.3605 29.7285 52.2443 29.9951L52.2306 30.0088C52.1212 30.3438 51.9571 30.583 51.5538 30.8633C51.1505 31.1436 50.4259 31.3145 49.462 31.3145C47.9513 31.3145 47.0216 30.8633 46.673 29.9541C46.5636 29.6875 46.5089 29.291 46.5021 28.7646C46.5021 28.2383 46.5568 27.8486 46.673 27.5889V27.5752C47.0284 26.666 47.9581 26.2148 49.462 26.2148C50.4122 26.2148 51.1232 26.3857 51.5265 26.666C51.9298 26.9395 52.1007 27.1992 52.2443 27.5752Z" fill="white"/>
</svg>
