<svg width="228" height="35" viewBox="0 0 228 35" fill="none" xmlns="http://www.w3.org/2000/svg">
<path d="M18.7344 5.52734C18.3008 4.4375 17.6562 3.53516 16.7891 2.79688C15.957 2.08203 14.9609 1.56641 13.7891 1.22656C12.7227 0.945312 11.5273 0.804688 10.1797 0.804688H0.148438V17H10.1797C11.5273 17 12.7344 16.8477 13.7891 16.543C14.9609 16.2266 15.957 15.7109 16.7891 15.0078C17.6562 14.2695 18.3008 13.3672 18.7344 12.2773C19.1211 11.2812 19.3086 10.1562 19.3086 8.90234C19.3086 7.64844 19.1211 6.52344 18.7344 5.52734ZM9.875 13.1094H5.02344V4.68359H9.875C12.8164 4.68359 14.457 6.07812 14.457 8.89062C14.457 11.668 12.8164 13.1094 9.875 13.1094ZM38.5039 4.68359V0.804688H21.9453V17H38.5039V13.1094H26.8203V10.8359H37.5547V6.94531H26.8203V4.68359H38.5039ZM55.9883 10.8359L47.1875 0.804688H41.4922V17H46.3672V7.76562L54.5469 17H60.8398V0.804688H55.9883V10.8359ZM69.0547 17V0.804688H64.1797V17H69.0547ZM91.0391 5.57422C91.0273 4.85938 90.8867 4.20312 90.6289 3.62891C90.2422 2.75 89.5977 2.04688 88.6836 1.51953C87.2891 0.710938 84.8984 0.300781 81.5117 0.300781H81.4062C78.0195 0.300781 75.6289 0.710938 74.2344 1.51953C73.3203 2.04688 72.6758 2.75 72.2891 3.62891C72.0195 4.23828 71.8789 4.95312 71.8789 5.78516C71.8789 6.60547 72.0195 7.28516 72.3125 7.83594C72.8281 8.82031 73.6953 9.54688 74.668 9.98047C75.1602 10.2031 75.7812 10.3672 76.5195 10.4961C77.2695 10.625 78.0078 10.707 78.7344 10.7656C79.4609 10.8125 80.3633 10.8477 81.4297 10.8828L84.3594 11.0469C84.7812 11.082 84.9922 11.1289 85.3555 11.2695C85.7305 11.3984 85.9414 11.6445 85.9766 12.0312C86.0234 12.6992 85.543 13.1562 84.5352 13.3789C83.8789 13.5195 82.8711 13.5898 81.5117 13.5898H81.4062C80 13.5898 78.9688 13.5195 78.3125 13.3789C77.8203 13.2734 77.457 13.0977 77.2344 12.875C77.0234 12.6758 76.918 12.3359 76.918 11.8438V11.7383H71.8789V12.1484C71.8906 12.8867 72.0312 13.5312 72.2891 14.0938C72.6758 14.9844 73.3203 15.6992 74.2344 16.2266C75.6289 17.0352 78.0195 17.4336 81.4062 17.4336H81.5117C84.8398 17.4219 87.2188 17.0117 88.6602 16.1797C89.5742 15.6523 90.2188 14.9492 90.6055 14.0703C90.875 13.4492 91.0156 12.7227 91.0156 11.9141C91.0156 11.1055 90.875 10.4258 90.582 9.875C90.0664 8.84375 89.1875 8.15234 88.2148 7.73047C87.7344 7.50781 87.1133 7.34375 86.3633 7.21484C85.625 7.08594 84.8867 6.99219 84.1484 6.93359C83.4219 6.875 82.5195 6.83984 81.4297 6.82812L78.5586 6.65234C78.1367 6.59375 77.9492 6.55859 77.5625 6.45312C77.1875 6.34766 76.9766 6.10156 76.918 5.73828C76.8242 5.07031 77.2578 4.625 78.2188 4.37891C78.8633 4.22656 79.8711 4.14453 81.2656 4.13281H81.4883C82.8945 4.14453 83.9258 4.21484 84.582 4.35547C85.0859 4.46094 85.4609 4.63672 85.6836 4.85938C85.8945 5.04688 86 5.39844 86 5.91406V5.98438H91.0391V5.57422ZM117.852 0.804688L112.859 10.8359L107.879 0.804688H101.773V17H106.648V8.41016L110.727 17H115.004L119.082 8.41016V17H123.957V0.804688H117.852ZM143.809 4.68359V0.804688H127.25V17H143.809V13.1094H132.125V10.8359H142.859V6.94531H132.125V4.68359H143.809ZM164.363 13.1094H153.957L164.363 4.68359V0.804688H146.223V4.68359H156.641L146.223 13.1094V17H164.363V13.1094ZM180.992 0.804688V6.94531H171.992V0.804688H167.117V17H171.992V10.8359H180.992V17H185.844V0.804688H180.992ZM195.629 0.804688L187.684 17H193.109L194.07 15.0547H202.637L203.598 17H209L201.055 0.804688H195.629ZM195.945 11.1641L198.348 6.32422L200.691 11.1641H195.945ZM215.727 13.1094V0.804688H210.852V17H227.059V13.1094H215.727ZM49.2809 33.6787V34.1846H51.9538V34C51.947 30.7939 51.9333 29.126 51.9264 29.0029V28.8184H45.7809V31.4639H47.6335C47.1618 31.7031 46.5124 31.8193 45.6852 31.8193C44.1745 31.8193 43.2448 31.3682 42.8962 30.459C42.7868 30.1855 42.7321 29.7891 42.7253 29.2695C42.7253 28.7432 42.78 28.3535 42.8962 28.0938V28.0801C43.2516 27.1709 44.1813 26.7197 45.6852 26.7197C46.6149 26.7197 47.3259 26.877 47.7155 27.1504C48.1052 27.417 48.2966 27.6699 48.4401 28.0254L48.488 28.1348H51.8718L51.8307 27.9092C51.7692 27.5332 51.6735 27.2051 51.5505 26.918C51.1198 25.8311 50.3268 25.0654 49.1716 24.6074C48.2624 24.252 47.1003 24.0811 45.6852 24.1016C44.2702 24.0811 43.1081 24.252 42.1989 24.6074C41.0436 25.0654 40.2507 25.8311 39.82 26.918C39.5466 27.5605 39.4098 28.3467 39.4098 29.2764C39.4167 30.2061 39.5534 30.9854 39.82 31.6211C40.0046 32.1064 40.2712 32.5234 40.6198 32.8857C40.9684 33.248 41.3376 33.5215 41.7204 33.7129C42.1032 33.9043 42.5407 34.0547 43.0329 34.1709C43.5319 34.2871 43.9762 34.3623 44.3727 34.3965C44.7761 34.4307 45.2136 34.4512 45.6852 34.4512C47.2438 34.4512 48.4401 34.1914 49.2809 33.6787ZM45.6852 24.4639C48.7477 24.4297 50.4841 25.2432 51.2155 27.0547V27.0684C51.3044 27.2666 51.3727 27.499 51.4274 27.7588H48.7204C48.2829 26.8223 47.2712 26.3574 45.6852 26.3574C44.0104 26.3574 42.9714 26.8838 42.5612 27.9365C42.4245 28.2578 42.3561 28.7021 42.3493 29.2764C42.3493 29.8438 42.4177 30.2881 42.5612 30.5957C42.9714 31.6621 44.0104 32.1953 45.6852 32.1953C46.9157 32.1953 47.7907 31.9355 48.3171 31.4092L48.6384 31.0879H46.1501V29.2012H51.5641C51.571 29.7822 51.5846 31.3203 51.5915 33.8154H49.6637V32.9609L49.3698 33.1729C48.5016 33.8086 47.4011 34.082 45.6852 34.082C45.2409 34.082 44.8239 34.0684 44.4479 34.0342C44.072 34 43.6481 33.9385 43.1764 33.8359C42.7116 33.7334 42.3014 33.5898 41.9391 33.4053C41.5768 33.2207 41.235 32.9678 40.9069 32.6396C40.5856 32.3115 40.3327 31.9219 40.155 31.4775C39.902 30.8896 39.779 30.1582 39.779 29.2764C39.779 28.3945 39.902 27.6562 40.155 27.0684V27.0547C40.8659 25.3047 42.5544 24.4639 45.487 24.4639H45.6852ZM61.8066 24.3545H58.4228L53.6034 34.1846H57.1786L57.7323 33.0498H62.5107L63.0712 34.1846H66.6259L61.8066 24.3545ZM62.7363 32.6807H57.5136L56.953 33.8154H54.1913L58.6484 24.7305H61.5878L66.038 33.8154H63.2968L62.7363 32.6807ZM60.1181 27.3486L58.4228 30.7803H61.7792L60.1181 27.3486ZM60.1181 28.1758L61.1913 30.418H59.0107L60.1181 28.1758ZM81.8039 34.1846V24.3545H77.9552L75.1525 29.9941L72.3566 24.3545H68.508V34.1846H71.714V29.8164L73.7853 34.1846H76.5265L78.5978 29.8164V34.1846H81.8039ZM78.9669 28.1758L76.2873 33.8154H74.0246L71.3449 28.1758V33.8154H68.8703V24.7305H72.131L75.1525 30.8213L78.1808 24.7305H81.4416V33.8154H78.9669V28.1758ZM94.6918 31.5527H87.8627V30.582H94.1176V27.9502H87.8627V27H94.6918V24.3545H84.6566V34.1846H94.6918V31.5527ZM85.0189 24.7305H94.3158V26.624H87.4936V28.3193H93.7553V30.2197H87.4936V31.915H94.3158V33.8154H85.0189V24.7305ZM105.508 33.918C106.226 33.7197 106.835 33.4053 107.327 32.9746C107.86 32.5303 108.256 31.9766 108.516 31.3135C108.749 30.7051 108.865 30.0283 108.865 29.2764C108.865 28.5244 108.749 27.8477 108.516 27.2393C108.256 26.5762 107.86 26.0156 107.327 25.5713C106.835 25.1406 106.226 24.8262 105.508 24.6211C104.88 24.4434 104.162 24.3545 103.362 24.3545H97.3327V34.1846H103.362C104.169 34.1846 104.886 34.0957 105.508 33.918ZM97.695 24.7305H103.362C104.128 24.7305 104.811 24.8125 105.406 24.9834C106.069 25.168 106.63 25.4619 107.088 25.8516C107.573 26.2617 107.942 26.7676 108.181 27.376C108.393 27.9297 108.503 28.5586 108.503 29.2695C108.503 29.9736 108.393 30.6094 108.181 31.1699C107.935 31.7783 107.573 32.291 107.088 32.7012C106.63 33.0908 106.069 33.3848 105.406 33.5693C104.811 33.7334 104.128 33.8154 103.362 33.8154H97.695V24.7305ZM105.283 31.2588C105.789 30.8008 106.042 30.1377 106.042 29.2695C106.042 28.3877 105.782 27.7246 105.269 27.2803C104.784 26.8428 104.093 26.624 103.184 26.624H100.17V31.915H103.184C104.087 31.915 104.784 31.6963 105.283 31.2588ZM100.539 27H103.184C103.998 27 104.613 27.1846 105.03 27.5469C105.461 27.9297 105.673 28.5039 105.673 29.2695C105.679 30.7939 104.845 31.5527 103.184 31.5527H100.539V27ZM121.356 31.5527H114.527V30.582H120.782V27.9502H114.527V27H121.356V24.3545H111.321V34.1846H121.356V31.5527ZM111.683 24.7305H120.98V26.624H114.158V28.3193H120.42V30.2197H114.158V31.915H120.98V33.8154H111.683V24.7305ZM135.687 24.3545H132.118L129.329 30.083L126.588 24.3545H123.013L127.777 34.1846H130.881L135.687 24.3545ZM123.601 24.7305H126.349L129.329 30.917L132.337 24.7305H135.099L130.649 33.8154H127.996L123.601 24.7305ZM149.308 34.4512C150.744 34.4717 151.906 34.3076 152.795 33.959C153.95 33.5146 154.743 32.749 155.173 31.6621C155.324 31.3135 155.433 30.9033 155.495 30.4316L155.522 30.2197H152.179L152.138 30.3633C152.125 30.418 152.111 30.4658 152.09 30.5L152.077 30.5137C151.967 30.8486 151.803 31.0811 151.4 31.375C150.997 31.6689 150.272 31.833 149.308 31.833C147.797 31.833 146.868 31.375 146.519 30.459C146.41 30.1855 146.355 29.7891 146.348 29.2695C146.348 28.7432 146.403 28.3535 146.519 28.0938V28.0801C146.875 27.1709 147.804 26.7197 149.308 26.7197C150.258 26.7197 150.969 26.8906 151.373 27.1709C151.776 27.4443 151.947 27.7041 152.09 28.0801V28.0938L152.138 28.1895L152.179 28.3193H155.522L155.495 28.1074C155.42 27.6494 155.317 27.2529 155.173 26.918C154.743 25.8311 153.95 25.0654 152.795 24.6074C151.885 24.252 150.723 24.0811 149.308 24.1016C147.893 24.0811 146.731 24.252 145.822 24.6074C144.667 25.0654 143.874 25.8379 143.443 26.9316C143.17 27.5674 143.033 28.3467 143.033 29.2764C143.04 30.2061 143.176 30.9854 143.443 31.6211C143.874 32.708 144.667 33.4736 145.822 33.9316C146.69 34.2803 147.777 34.4512 149.096 34.4512H149.308ZM149.308 24.4639C152.371 24.4297 154.107 25.2432 154.838 27.0547V27.0684C154.955 27.3213 155.037 27.6152 155.091 27.9502H152.432C152.432 27.9434 152.432 27.9365 152.432 27.9365C152.022 26.8496 151.024 26.3574 149.308 26.3574C147.633 26.3574 146.594 26.8838 146.184 27.9365C146.041 28.2578 145.972 28.7021 145.972 29.2764C145.972 29.8438 146.041 30.2881 146.184 30.5957C146.594 31.6621 147.633 32.1953 149.308 32.1953C151.038 32.1953 152.043 31.7031 152.432 30.6367C152.439 30.6299 152.446 30.6094 152.446 30.582H155.105C155.044 30.9512 154.955 31.2656 154.838 31.5254C154.483 32.4277 153.861 33.084 152.972 33.4941C152.09 33.9043 150.867 34.0957 149.308 34.0684C146.246 34.123 144.509 33.2891 143.778 31.4775C143.525 30.8896 143.402 30.1582 143.402 29.2764C143.402 28.3945 143.525 27.6562 143.778 27.0684V27.0547C144.489 25.3047 146.177 24.4639 149.11 24.4639H149.308ZM164.22 27H168V24.3545H157.233V27H161.014V34.1846H164.22V27ZM161.376 26.6377H157.602V24.7305H167.638V26.6377H163.857V33.8154H161.376V26.6377ZM176.055 34.4648C177.49 34.4717 178.652 34.3076 179.541 33.9727C180.696 33.5283 181.489 32.7559 181.92 31.6621C182.187 31.0264 182.323 30.2471 182.323 29.3105C182.323 28.3604 182.187 27.5674 181.92 26.9316C181.489 25.8447 180.696 25.0791 179.541 24.6211C178.632 24.2656 177.47 24.0947 176.055 24.1152C174.64 24.0947 173.478 24.2656 172.568 24.6211C171.413 25.0791 170.62 25.8447 170.19 26.9316C169.916 27.5742 169.779 28.3604 169.779 29.29C169.786 30.2197 169.923 30.999 170.19 31.6348C170.62 32.7217 171.413 33.4873 172.568 33.9453C173.437 34.2939 174.524 34.4648 175.843 34.4648H176.055ZM176.055 24.4775C179.117 24.4434 180.854 25.2568 181.585 27.0684C181.838 27.6562 181.961 28.3945 181.961 29.29C181.961 30.1855 181.838 30.9307 181.585 31.5254V31.5391C181.236 32.4141 180.642 33.0566 179.787 33.4668C178.933 33.877 177.764 34.082 176.267 34.082H176.055C172.992 34.1162 171.256 33.3027 170.525 31.4912C170.272 30.9033 170.149 30.165 170.149 29.2832C170.149 28.3945 170.272 27.6562 170.525 27.0684C171.235 25.2979 172.924 24.4775 175.857 24.4775H176.055ZM179.179 30.6572C179.309 30.3359 179.377 29.8848 179.377 29.2969C179.377 28.709 179.309 28.2578 179.179 27.9502C178.769 26.8633 177.771 26.3711 176.055 26.3711C174.38 26.3711 173.341 26.8975 172.931 27.9502C172.794 28.2715 172.726 28.7158 172.719 29.29C172.719 29.8574 172.787 30.3018 172.931 30.6094C173.341 31.6758 174.38 32.209 176.055 32.209C177.784 32.209 178.789 31.7236 179.179 30.6572ZM178.837 28.0938V28.1074C178.953 28.3672 179.008 28.7637 179.008 29.3037C179.008 29.8438 178.953 30.2471 178.837 30.5137L178.823 30.5273C178.714 30.8623 178.55 31.1016 178.147 31.3818C177.743 31.6621 177.019 31.833 176.055 31.833C174.544 31.833 173.614 31.3818 173.266 30.4727C173.156 30.2061 173.102 29.8096 173.095 29.2832C173.095 28.7568 173.15 28.3672 173.266 28.1074V28.0938C173.621 27.1846 174.551 26.7334 176.055 26.7334C177.005 26.7334 177.716 26.9043 178.119 27.1846C178.523 27.458 178.693 27.7178 178.837 28.0938Z" fill="white"/>
</svg>
