<svg width="228" height="35" viewBox="0 0 228 35" fill="none" xmlns="http://www.w3.org/2000/svg">
<path d="M73.543 17.4814H78.9453L76.3672 12.1963C76.6719 11.9971 76.9531 11.751 77.2109 11.4814C77.7734 10.9307 78.207 10.2979 78.5117 9.58301C79.1211 8.11816 79.1211 6.39551 78.5117 4.93066C77.9023 3.48926 76.7539 2.35254 75.3125 1.74316C74.5742 1.43848 73.8008 1.28613 72.9922 1.28613H60.8398V17.4814H65.7148V13.2393H71.457L73.543 17.4814ZM65.7148 5.16504H72.0078C72.582 5.16504 73.0625 5.37598 73.4727 5.78613C73.8828 6.19629 74.0938 6.68848 74.0938 7.2627C74.0938 7.83691 73.8945 8.3291 73.4844 8.73926C73.0742 9.14941 72.582 9.34863 72.0078 9.34863H65.7148V5.16504ZM101.258 13.3564C101.691 12.3135 101.902 11.0127 101.914 9.44238C101.926 7.87207 101.703 6.54785 101.258 5.48145C100.52 3.61816 99.125 2.3291 97.3086 1.68457C95.5156 1.04004 93.7344 0.817383 91.4961 0.852539C89.2578 0.817383 87.4648 1.04004 85.6484 1.68457C83.8555 2.3291 82.4609 3.61816 81.7227 5.48145C81.2773 6.53613 81.0547 7.83691 81.0547 9.39551C81.0547 10.9541 81.2773 12.2549 81.7227 13.3096C82.4727 15.1494 83.8555 16.4502 85.6484 17.0947C87.4648 17.7393 89.2578 17.9736 91.4961 17.9385C92.6328 17.9502 93.6523 17.9033 94.5781 17.7744C95.5039 17.6572 96.418 17.4463 97.3203 17.1299C99.1484 16.5088 100.52 15.2432 101.258 13.3564ZM96.5586 7.23926C96.7695 7.75488 96.875 8.49316 96.875 9.4541C96.875 10.4033 96.7695 11.1299 96.5586 11.6221C96.2539 12.4072 95.7148 13.0166 94.9297 13.4385C94.1445 13.8604 93.0078 14.0713 91.4961 14.0713C88.7656 14.0713 87.0781 13.2275 86.4336 11.5518C86.2109 11.0596 86.0938 10.3447 86.0938 9.39551C86.0938 8.44629 86.2109 7.73145 86.4336 7.23926C87.0781 5.55176 88.7656 4.70801 91.4961 4.70801C92.9961 4.70801 94.1328 4.93066 94.9062 5.37598C95.6914 5.82129 96.2422 6.44238 96.5586 7.23926ZM120.699 1.28613L115.707 11.3174L110.727 1.28613H104.621V17.4814H109.496V8.8916L113.574 17.4814H117.852L121.93 8.8916V17.4814H126.805V1.28613H120.699ZM136.555 1.28613L128.609 17.4814H134.035L134.996 15.5361H143.562L144.523 17.4814H149.926L141.98 1.28613H136.555ZM136.871 11.6455L139.273 6.80566L141.617 11.6455H136.871ZM166.273 11.3174L157.473 1.28613H151.777V17.4814H156.652V8.24707L164.832 17.4814H171.125V1.28613H166.273V11.3174ZM12.5827 34.666V24.8359H9.37668V30.3936L4.50266 24.8359H0.920624V34.666H4.12668V29.5801L8.63156 34.666H12.5827ZM3.75754 28.6025V34.2969H1.28293V25.2119H4.33176L9.73898 31.3711V25.2119H12.1999V34.2969H8.80246L3.75754 28.6025ZM18.6347 34.666V31.0635H24.6777V28.4316H18.6347V27.4814H25.2519V24.8359H15.4287V34.666H18.6347ZM15.791 34.2969V25.2119H24.8759V27.1191H18.2656V28.8008H24.3154V30.7012H18.2656V34.2969H15.791ZM33.8811 27.4814H37.6613V24.8359H26.8947V27.4814H30.675V34.666H33.8811V27.4814ZM31.0373 27.1191H27.2639V25.2119H37.299V27.1191H33.5187V34.2969H31.0373V27.1191ZM52.8962 24.8359H49.5124L44.693 34.666H48.2682L48.822 33.5312H53.6003L54.1608 34.666H57.7155L52.8962 24.8359ZM53.8259 33.1621H48.6032L48.0427 34.2969H45.2809L49.738 25.2119H52.6774L57.1276 34.2969H54.3864L53.8259 33.1621ZM51.2077 27.8301L49.5124 31.2617H52.8688L51.2077 27.8301ZM51.2077 28.6572L52.2809 30.8994H50.1003L51.2077 28.6572ZM69.0175 31.46C69.1679 31.3574 69.3046 31.2412 69.4208 31.1182C69.7558 30.7695 70.0224 30.3799 70.207 29.9424C70.5966 29.0332 70.5966 28.001 70.207 27.0918C69.831 26.21 69.1405 25.5059 68.245 25.1299C67.8007 24.9316 67.3222 24.8359 66.8163 24.8359H59.5566V34.666H62.7626V32.1846H65.8114L67.0282 34.666H70.5829L69.0175 31.46ZM66.037 31.8223H62.3935V34.2969H59.9189V25.2119H66.8163C67.2675 25.2119 67.6982 25.2939 68.1083 25.4648C68.9081 25.7998 69.537 26.4424 69.872 27.2285C70.207 28.0488 70.207 28.9854 69.872 29.8057C69.7011 30.1953 69.4618 30.5508 69.1542 30.8584C69.0175 31.002 68.8603 31.1318 68.6825 31.248L68.5527 31.3438L69.995 34.2969H67.2538L66.037 31.8223ZM66.2421 29.915C66.6386 29.915 66.9736 29.7783 67.247 29.5049C67.5204 29.2314 67.6571 28.9033 67.6571 28.5137C67.6571 28.124 67.5204 27.7959 67.2402 27.5293C66.9667 27.2559 66.6318 27.1191 66.2421 27.1191H62.3935V29.915H66.2421ZM62.7626 27.4814H66.2421C66.5361 27.4814 66.7821 27.584 66.9804 27.7822C67.1786 27.9805 67.2812 28.2266 67.2812 28.5205C67.2812 28.8076 67.1786 29.0537 66.9736 29.252C66.7753 29.4502 66.5292 29.5527 66.2421 29.5527H62.7626V27.4814ZM79.3078 27.4814H83.088V24.8359H72.3214V27.4814H76.1017V34.666H79.3078V27.4814ZM76.464 27.1191H72.6906V25.2119H82.7257V27.1191H78.9455V34.2969H76.464V27.1191ZM88.4428 24.8359H85.2367V34.666H88.4428V24.8359ZM85.599 25.2119H88.0736V34.2969H85.599V25.2119ZM96.7848 34.9121C98.7604 34.9121 100.182 34.6592 101.05 34.1602C101.611 33.832 102.014 33.3945 102.254 32.8408C102.424 32.4648 102.506 32.0205 102.506 31.5146C102.506 31.0088 102.418 30.585 102.24 30.2363C101.85 29.4912 101.18 28.9785 100.237 28.7119C99.5192 28.5137 98.3639 28.3975 96.7575 28.3633C96.6413 28.3564 96.4772 28.3428 96.2516 28.3359C95.7252 28.3154 95.3356 28.2949 95.0758 28.2676C94.5836 28.2129 94.3239 28.1309 94.2897 27.8848C94.2555 27.6045 94.4606 27.4131 94.9049 27.2969C95.2672 27.2148 95.8346 27.1738 96.6002 27.1738H96.6413H96.7711H96.7985C97.5846 27.1738 98.1588 27.208 98.5348 27.2832C98.8014 27.3379 98.9928 27.4199 99.0954 27.5361C99.1774 27.6113 99.2184 27.7754 99.2184 28.0146V28.2402H102.52V27.8164C102.513 27.3721 102.424 26.9688 102.267 26.6133C102.028 26.0596 101.625 25.6152 101.064 25.2803C100.223 24.7949 98.8014 24.5557 96.7848 24.5557H96.7233C94.7067 24.5557 93.2848 24.7949 92.444 25.2803C91.8834 25.6152 91.4801 26.0596 91.2409 26.6133C91.07 26.9961 90.9879 27.4336 90.9879 27.9326C90.9879 28.4453 91.0768 28.8691 91.2545 29.2178C91.6442 29.9561 92.3141 30.4619 93.2575 30.7285C93.9752 30.9336 95.1305 31.0566 96.737 31.0908C96.8395 31.0908 97.0104 31.0977 97.2428 31.1045C97.7692 31.1387 98.1588 31.166 98.4186 31.1934C98.945 31.248 99.1842 31.3301 99.2047 31.5967C99.2047 31.6855 99.2116 31.7334 99.1295 31.8633C99.0543 31.9932 98.8424 32.1094 98.5075 32.1846C98.1315 32.2734 97.5573 32.3145 96.7848 32.3145H96.737H96.6959C95.9098 32.3076 95.3356 32.2666 94.9596 32.1846C94.6998 32.1299 94.5153 32.0479 94.4127 31.9453C94.3307 31.8633 94.2897 31.7061 94.2897 31.4736V31.2344H90.9879V31.6514V31.665C90.9948 32.1094 91.0836 32.5127 91.2409 32.8682C91.4801 33.4219 91.8834 33.8594 92.444 34.1875C93.2848 34.6729 94.7067 34.9121 96.7233 34.9121H96.7848ZM91.3502 31.6514V31.5967H93.9274C93.9342 31.8633 94.0163 32.0684 94.1666 32.2119C94.3239 32.3623 94.5563 32.4717 94.8776 32.5469C95.2809 32.6357 95.8825 32.6768 96.6959 32.6768H96.737H96.7848C97.5846 32.6699 98.1862 32.6221 98.5895 32.5332C99.3551 32.3691 99.6012 31.9795 99.567 31.5693C99.5465 31.2891 99.3961 31.0771 99.1227 30.9746C98.8561 30.8721 98.7262 30.8447 98.4596 30.8242C98.193 30.7969 97.7897 30.7695 97.2565 30.7422C97.0377 30.7354 96.8737 30.7285 96.7575 30.7285C95.151 30.6807 93.9684 30.5508 93.2096 30.332C92.4577 30.1064 91.9176 29.6826 91.5895 29.0469C91.4323 28.7529 91.3502 28.377 91.3502 27.9326C91.3502 27.4883 91.4254 27.0918 91.5758 26.7568C91.7877 26.2783 92.1364 25.8955 92.6354 25.6084C93.4079 25.1504 94.775 24.918 96.7233 24.918H96.7848C98.733 24.9248 100.1 25.1504 100.873 25.6084C101.365 25.9023 101.72 26.2852 101.932 26.7568C102.076 27.0645 102.151 27.4131 102.158 27.8164V27.8711H99.5807C99.5739 27.6113 99.4987 27.4131 99.3551 27.2695C99.1979 27.1123 98.9518 26.9961 98.6168 26.9346C98.2135 26.8457 97.612 26.7979 96.7985 26.7979H96.7711H96.6413H96.6002C95.8004 26.8047 95.2057 26.8594 94.8229 26.9482C94.1598 27.1055 93.8659 27.4404 93.9274 27.9463C93.9616 28.1992 94.1325 28.3906 94.3854 28.4932C94.652 28.582 94.7682 28.5957 95.0348 28.6299H95.0485C95.3082 28.6572 95.7047 28.6777 96.2379 28.6982C96.4635 28.7051 96.6344 28.7188 96.737 28.7256C98.3434 28.7598 99.526 28.8896 100.278 29.1152C101.037 29.334 101.577 29.7646 101.905 30.4072C102.062 30.7012 102.144 31.0703 102.144 31.5146C102.144 31.959 102.069 32.3555 101.919 32.6904C101.707 33.1689 101.358 33.5518 100.859 33.8389C100.059 34.3105 98.6989 34.5498 96.7848 34.5498H96.7233C94.775 34.5498 93.4079 34.3242 92.6354 33.8662C92.1364 33.5723 91.7809 33.1895 91.5758 32.7178C91.4323 32.4102 91.3571 32.0547 91.3502 31.6514ZM111.361 27.4814H115.141V24.8359H104.375V27.4814H108.155V34.666H111.361V27.4814ZM108.517 27.1191H104.744V25.2119H114.779V27.1191H110.999V34.2969H108.517V27.1191ZM122.574 24.8359L115.588 34.666H118.821L125.808 24.8359H122.574ZM118.637 34.2969H116.299L122.752 25.1982H125.09L118.637 34.2969ZM135.927 34.3994C136.645 34.2012 137.253 33.8867 137.745 33.4561C138.279 33.0117 138.675 32.458 138.935 31.7949C139.167 31.1865 139.284 30.5098 139.284 29.7578C139.284 29.0059 139.167 28.3291 138.935 27.7207C138.675 27.0576 138.279 26.4971 137.745 26.0527C137.253 25.6221 136.645 25.3076 135.927 25.1025C135.298 24.9248 134.58 24.8359 133.781 24.8359H127.751V34.666H133.781C134.587 34.666 135.305 34.5771 135.927 34.3994ZM128.114 25.2119H133.781C134.546 25.2119 135.23 25.2939 135.825 25.4648C136.488 25.6494 137.048 25.9434 137.506 26.333C137.992 26.7432 138.361 27.249 138.6 27.8574C138.812 28.4111 138.921 29.04 138.921 29.751C138.921 30.4551 138.812 31.0908 138.6 31.6514C138.354 32.2598 137.992 32.7725 137.506 33.1826C137.048 33.5723 136.488 33.8662 135.825 34.0508C135.23 34.2148 134.546 34.2969 133.781 34.2969H128.114V25.2119ZM135.702 31.7402C136.207 31.2822 136.46 30.6191 136.46 29.751C136.46 28.8691 136.201 28.2061 135.688 27.7617C135.202 27.3242 134.512 27.1055 133.603 27.1055H130.588V32.3965H133.603C134.505 32.3965 135.202 32.1777 135.702 31.7402ZM130.957 27.4814H133.603C134.416 27.4814 135.032 27.666 135.449 28.0283C135.879 28.4111 136.091 28.9854 136.091 29.751C136.098 31.2754 135.264 32.0342 133.603 32.0342H130.957V27.4814ZM151.775 32.0342H144.946V31.0635H151.201V28.4316H144.946V27.4814H151.775V24.8359H141.74V34.666H151.775V32.0342ZM142.102 25.2119H151.399V27.1055H144.577V28.8008H150.838V30.7012H144.577V32.3965H151.399V34.2969H142.102V25.2119ZM159.919 34.9121C161.894 34.9121 163.316 34.6592 164.184 34.1602C164.745 33.832 165.148 33.3945 165.388 32.8408C165.558 32.4648 165.64 32.0205 165.64 31.5146C165.64 31.0088 165.552 30.585 165.374 30.2363C164.984 29.4912 164.314 28.9785 163.371 28.7119C162.653 28.5137 161.498 28.3975 159.891 28.3633C159.775 28.3564 159.611 28.3428 159.386 28.3359C158.859 28.3154 158.47 28.2949 158.21 28.2676C157.718 28.2129 157.458 28.1309 157.424 27.8848C157.389 27.6045 157.595 27.4131 158.039 27.2969C158.401 27.2148 158.969 27.1738 159.734 27.1738H159.775H159.905H159.932C160.719 27.1738 161.293 27.208 161.669 27.2832C161.935 27.3379 162.127 27.4199 162.229 27.5361C162.311 27.6113 162.352 27.7754 162.352 28.0146V28.2402H165.654V27.8164C165.647 27.3721 165.558 26.9688 165.401 26.6133C165.162 26.0596 164.759 25.6152 164.198 25.2803C163.357 24.7949 161.935 24.5557 159.919 24.5557H159.857C157.841 24.5557 156.419 24.7949 155.578 25.2803C155.017 25.6152 154.614 26.0596 154.375 26.6133C154.204 26.9961 154.122 27.4336 154.122 27.9326C154.122 28.4453 154.211 28.8691 154.389 29.2178C154.778 29.9561 155.448 30.4619 156.391 30.7285C157.109 30.9336 158.264 31.0566 159.871 31.0908C159.973 31.0908 160.144 31.0977 160.377 31.1045C160.903 31.1387 161.293 31.166 161.553 31.1934C162.079 31.248 162.318 31.3301 162.339 31.5967C162.339 31.6855 162.346 31.7334 162.264 31.8633C162.188 31.9932 161.976 32.1094 161.641 32.1846C161.265 32.2734 160.691 32.3145 159.919 32.3145H159.871H159.83C159.044 32.3076 158.47 32.2666 158.094 32.1846C157.834 32.1299 157.649 32.0479 157.547 31.9453C157.465 31.8633 157.424 31.7061 157.424 31.4736V31.2344H154.122V31.6514V31.665C154.129 32.1094 154.218 32.5127 154.375 32.8682C154.614 33.4219 155.017 33.8594 155.578 34.1875C156.419 34.6729 157.841 34.9121 159.857 34.9121H159.919ZM154.484 31.6514V31.5967H157.061C157.068 31.8633 157.15 32.0684 157.301 32.2119C157.458 32.3623 157.69 32.4717 158.012 32.5469C158.415 32.6357 159.016 32.6768 159.83 32.6768H159.871H159.919C160.719 32.6699 161.32 32.6221 161.723 32.5332C162.489 32.3691 162.735 31.9795 162.701 31.5693C162.681 31.2891 162.53 31.0771 162.257 30.9746C161.99 30.8721 161.86 30.8447 161.594 30.8242C161.327 30.7969 160.924 30.7695 160.39 30.7422C160.172 30.7354 160.008 30.7285 159.891 30.7285C158.285 30.6807 157.102 30.5508 156.344 30.332C155.592 30.1064 155.052 29.6826 154.723 29.0469C154.566 28.7529 154.484 28.377 154.484 27.9326C154.484 27.4883 154.559 27.0918 154.71 26.7568C154.922 26.2783 155.27 25.8955 155.769 25.6084C156.542 25.1504 157.909 24.918 159.857 24.918H159.919C161.867 24.9248 163.234 25.1504 164.007 25.6084C164.499 25.9023 164.854 26.2852 165.066 26.7568C165.21 27.0645 165.285 27.4131 165.292 27.8164V27.8711H162.715C162.708 27.6113 162.633 27.4131 162.489 27.2695C162.332 27.1123 162.086 26.9961 161.751 26.9346C161.348 26.8457 160.746 26.7979 159.932 26.7979H159.905H159.775H159.734C158.934 26.8047 158.34 26.8594 157.957 26.9482C157.294 27.1055 157 27.4404 157.061 27.9463C157.096 28.1992 157.266 28.3906 157.519 28.4932C157.786 28.582 157.902 28.5957 158.169 28.6299H158.182C158.442 28.6572 158.839 28.6777 159.372 28.6982C159.598 28.7051 159.768 28.7188 159.871 28.7256C161.477 28.7598 162.66 28.8896 163.412 29.1152C164.171 29.334 164.711 29.7646 165.039 30.4072C165.196 30.7012 165.278 31.0703 165.278 31.5146C165.278 31.959 165.203 32.3555 165.053 32.6904C164.841 33.1689 164.492 33.5518 163.993 33.8389C163.193 34.3105 161.833 34.5498 159.919 34.5498H159.857C157.909 34.5498 156.542 34.3242 155.769 33.8662C155.27 33.5723 154.915 33.1895 154.71 32.7178C154.566 32.4102 154.491 32.0547 154.484 31.6514ZM171.419 24.8359H168.213V34.666H171.419V24.8359ZM168.575 25.2119H171.05V34.2969H168.575V25.2119ZM183.746 34.1602V34.666H186.419V34.4814C186.412 31.2754 186.399 29.6074 186.392 29.4844V29.2998H180.246V31.9453H182.099C181.627 32.1846 180.978 32.3008 180.151 32.3008C178.64 32.3008 177.71 31.8496 177.362 30.9404C177.252 30.667 177.198 30.2705 177.191 29.751C177.191 29.2246 177.245 28.835 177.362 28.5752V28.5615C177.717 27.6523 178.647 27.2012 180.151 27.2012C181.08 27.2012 181.791 27.3584 182.181 27.6318C182.571 27.8984 182.762 28.1514 182.906 28.5068L182.953 28.6162H186.337L186.296 28.3906C186.235 28.0146 186.139 27.6865 186.016 27.3994C185.585 26.3125 184.792 25.5469 183.637 25.0889C182.728 24.7334 181.566 24.5625 180.151 24.583C178.736 24.5625 177.574 24.7334 176.664 25.0889C175.509 25.5469 174.716 26.3125 174.285 27.3994C174.012 28.042 173.875 28.8281 173.875 29.7578C173.882 30.6875 174.019 31.4668 174.285 32.1025C174.47 32.5879 174.737 33.0049 175.085 33.3672C175.434 33.7295 175.803 34.0029 176.186 34.1943C176.569 34.3857 177.006 34.5361 177.498 34.6523C177.997 34.7686 178.442 34.8438 178.838 34.8779C179.242 34.9121 179.679 34.9326 180.151 34.9326C181.709 34.9326 182.906 34.6729 183.746 34.1602ZM180.151 24.9453C183.213 24.9111 184.95 25.7246 185.681 27.5361V27.5498C185.77 27.748 185.838 27.9805 185.893 28.2402H183.186C182.748 27.3037 181.737 26.8389 180.151 26.8389C178.476 26.8389 177.437 27.3652 177.027 28.418C176.89 28.7393 176.822 29.1836 176.815 29.7578C176.815 30.3252 176.883 30.7695 177.027 31.0771C177.437 32.1436 178.476 32.6768 180.151 32.6768C181.381 32.6768 182.256 32.417 182.783 31.8906L183.104 31.5693H180.616V29.6826H186.03C186.036 30.2637 186.05 31.8018 186.057 34.2969H184.129V33.4424L183.835 33.6543C182.967 34.29 181.867 34.5635 180.151 34.5635C179.706 34.5635 179.289 34.5498 178.913 34.5156C178.537 34.4814 178.114 34.4199 177.642 34.3174C177.177 34.2148 176.767 34.0713 176.405 33.8867C176.042 33.7021 175.701 33.4492 175.372 33.1211C175.051 32.793 174.798 32.4033 174.62 31.959C174.367 31.3711 174.244 30.6396 174.244 29.7578C174.244 28.876 174.367 28.1377 174.62 27.5498V27.5361C175.331 25.7861 177.02 24.9453 179.952 24.9453H180.151ZM200.715 34.666V24.8359H197.509V30.3936L192.635 24.8359H189.053V34.666H192.259V29.5801L196.764 34.666H200.715ZM191.89 28.6025V34.2969H189.416V25.2119H192.464L197.872 31.3711V25.2119H200.333V34.2969H196.935L191.89 28.6025ZM213.596 32.0342H206.767V31.0635H213.022V28.4316H206.767V27.4814H213.596V24.8359H203.561V34.666H213.596V32.0342ZM203.924 25.2119H213.221V27.1055H206.398V28.8008H212.66V30.7012H206.398V32.3965H213.221V34.2969H203.924V25.2119ZM225.644 31.46C225.794 31.3574 225.931 31.2412 226.047 31.1182C226.382 30.7695 226.648 30.3799 226.833 29.9424C227.223 29.0332 227.223 28.001 226.833 27.0918C226.457 26.21 225.767 25.5059 224.871 25.1299C224.427 24.9316 223.948 24.8359 223.442 24.8359H216.183V34.666H219.389V32.1846H222.438L223.654 34.666H227.209L225.644 31.46ZM222.663 31.8223H219.02V34.2969H216.545V25.2119H223.442C223.894 25.2119 224.324 25.2939 224.734 25.4648C225.534 25.7998 226.163 26.4424 226.498 27.2285C226.833 28.0488 226.833 28.9854 226.498 29.8057C226.327 30.1953 226.088 30.5508 225.78 30.8584C225.644 31.002 225.486 31.1318 225.309 31.248L225.179 31.3438L226.621 34.2969H223.88L222.663 31.8223ZM222.868 29.915C223.265 29.915 223.6 29.7783 223.873 29.5049C224.147 29.2314 224.283 28.9033 224.283 28.5137C224.283 28.124 224.147 27.7959 223.866 27.5293C223.593 27.2559 223.258 27.1191 222.868 27.1191H219.02V29.915H222.868ZM219.389 27.4814H222.868C223.162 27.4814 223.408 27.584 223.606 27.7822C223.805 27.9805 223.907 28.2266 223.907 28.5205C223.907 28.8076 223.805 29.0537 223.6 29.252C223.401 29.4502 223.155 29.5527 222.868 29.5527H219.389V27.4814Z" fill="white"/>
</svg>
