<svg width="208" height="35" viewBox="0 0 208 35" fill="none" xmlns="http://www.w3.org/2000/svg">
<path d="M8.76172 1.06934L0.816406 17.2646H6.24219L7.20312 15.3193H15.7695L16.7305 17.2646H22.1328L14.1875 1.06934H8.76172ZM9.07812 11.4287L11.4805 6.58887L13.8242 11.4287H9.07812ZM28.8594 13.374V1.06934H23.9844V17.2646H40.1914V13.374H28.8594ZM58.8711 4.94824V1.06934H42.3125V17.2646H58.8711V13.374H47.1875V11.1006H57.9219V7.20996H47.1875V4.94824H58.8711ZM81.207 1.06934H74.7266L70.8359 5.47559L66.9453 1.06934H60.4766L67.6016 9.15527L60.4766 17.2646H66.9453L70.8359 12.8467L74.7266 17.2646H81.207L74.082 9.15527L81.207 1.06934ZM111.301 17.2646L111.254 8.72168H101.316V12.5889H105.16C104.305 13.4326 102.875 13.8545 100.859 13.8545C98.1289 13.8545 96.4414 13.0107 95.7969 11.3115C95.5742 10.8193 95.457 10.1045 95.457 9.15527C95.457 8.20605 95.5742 7.47949 95.7969 6.9873C96.4414 5.31152 98.1289 4.46777 100.859 4.46777C102.324 4.46777 103.449 4.67871 104.223 5.10059C105.008 5.51074 105.559 6.1084 105.875 6.87012H111.078C110.973 6.24902 110.82 5.69824 110.621 5.24121C109.883 3.37793 108.488 2.08887 106.672 1.44434C104.879 0.799805 103.098 0.577148 100.859 0.612305C98.6211 0.577148 96.8281 0.799805 95.0117 1.44434C93.2188 2.08887 91.8242 3.37793 91.0859 5.24121C90.6406 6.2959 90.418 7.59668 90.418 9.15527C90.418 10.7139 90.6406 12.0146 91.0859 13.0693C91.8359 14.9092 93.207 16.21 95.0234 16.8545C95.9375 17.1709 96.8516 17.3936 97.7773 17.5225C98.7031 17.6514 99.7227 17.7217 100.859 17.7217C103.637 17.7217 105.746 17.335 107.34 16.1162V17.2646H111.301ZM126.969 17.2646H132.371L129.793 11.9795C130.098 11.7803 130.379 11.5342 130.637 11.2646C131.199 10.7139 131.633 10.0811 131.938 9.36621C132.547 7.90137 132.547 6.17871 131.938 4.71387C131.328 3.27246 130.18 2.13574 128.738 1.52637C128 1.22168 127.227 1.06934 126.418 1.06934H114.266V17.2646H119.141V13.0225H124.883L126.969 17.2646ZM119.141 4.94824H125.434C126.008 4.94824 126.488 5.15918 126.898 5.56934C127.309 5.97949 127.52 6.47168 127.52 7.0459C127.52 7.62012 127.32 8.1123 126.91 8.52246C126.5 8.93262 126.008 9.13184 125.434 9.13184H119.141V4.94824ZM154.684 13.1396C155.117 12.0967 155.328 10.7959 155.34 9.22559C155.352 7.65527 155.129 6.33105 154.684 5.26465C153.945 3.40137 152.551 2.1123 150.734 1.46777C148.941 0.823242 147.16 0.600586 144.922 0.635742C142.684 0.600586 140.891 0.823242 139.074 1.46777C137.281 2.1123 135.887 3.40137 135.148 5.26465C134.703 6.31934 134.48 7.62012 134.48 9.17871C134.48 10.7373 134.703 12.0381 135.148 13.0928C135.898 14.9326 137.281 16.2334 139.074 16.8779C140.891 17.5225 142.684 17.7568 144.922 17.7217C146.059 17.7334 147.078 17.6865 148.004 17.5576C148.93 17.4404 149.844 17.2295 150.746 16.9131C152.574 16.292 153.945 15.0264 154.684 13.1396ZM149.984 7.02246C150.195 7.53809 150.301 8.27637 150.301 9.2373C150.301 10.1865 150.195 10.9131 149.984 11.4053C149.68 12.1904 149.141 12.7998 148.355 13.2217C147.57 13.6436 146.434 13.8545 144.922 13.8545C142.191 13.8545 140.504 13.0107 139.859 11.335C139.637 10.8428 139.52 10.1279 139.52 9.17871C139.52 8.22949 139.637 7.51465 139.859 7.02246C140.504 5.33496 142.191 4.49121 144.922 4.49121C146.422 4.49121 147.559 4.71387 148.332 5.15918C149.117 5.60449 149.668 6.22559 149.984 7.02246ZM172.543 11.1006L163.742 1.06934H158.047V17.2646H162.922V8.03027L171.102 17.2646H177.395V1.06934H172.543V11.1006ZM185.609 17.2646V1.06934H180.734V17.2646H185.609ZM207.043 1.06934H199.93L193.789 6.7998V1.06934H191.34H188.914L188.938 17.2646H191.363H193.789V13.4678L195.852 11.5342L200.727 17.2646H207.113L199.402 8.21777L207.043 1.06934ZM86.5211 34.7158C87.9567 34.7363 89.1188 34.5723 90.0075 34.2236C91.1627 33.7793 91.9557 33.0137 92.3864 31.9268C92.5368 31.5781 92.6461 31.168 92.7077 30.6963L92.735 30.4844H89.3922L89.3512 30.6279C89.3375 30.6826 89.3239 30.7305 89.3034 30.7646L89.2897 30.7783C89.1803 31.1133 89.0163 31.3457 88.6129 31.6396C88.2096 31.9336 87.485 32.0977 86.5211 32.0977C85.0104 32.0977 84.0807 31.6396 83.7321 30.7236C83.6227 30.4502 83.568 30.0537 83.5612 29.5342C83.5612 29.0078 83.6159 28.6182 83.7321 28.3584V28.3447C84.0875 27.4355 85.0172 26.9844 86.5211 26.9844C87.4713 26.9844 88.1823 27.1553 88.5856 27.4355C88.9889 27.709 89.1598 27.9688 89.3034 28.3447V28.3584L89.3512 28.4541L89.3922 28.584H92.735L92.7077 28.3721C92.6325 27.9141 92.5299 27.5176 92.3864 27.1826C91.9557 26.0957 91.1627 25.3301 90.0075 24.8721C89.0983 24.5166 87.9362 24.3457 86.5211 24.3662C85.1061 24.3457 83.944 24.5166 83.0348 24.8721C81.8795 25.3301 81.0866 26.1025 80.6559 27.1963C80.3825 27.832 80.2457 28.6113 80.2457 29.541C80.2526 30.4707 80.3893 31.25 80.6559 31.8857C81.0866 32.9727 81.8795 33.7383 83.0348 34.1963C83.903 34.5449 84.9899 34.7158 86.3092 34.7158H86.5211ZM86.5211 24.7285C89.5836 24.6943 91.32 25.5078 92.0514 27.3193V27.333C92.1676 27.5859 92.2496 27.8799 92.3043 28.2148H89.6452C89.6452 28.208 89.6452 28.2012 89.6452 28.2012C89.235 27.1143 88.237 26.6221 86.5211 26.6221C84.8463 26.6221 83.8073 27.1484 83.3971 28.2012C83.2536 28.5225 83.1852 28.9668 83.1852 29.541C83.1852 30.1084 83.2536 30.5527 83.3971 30.8604C83.8073 31.9268 84.8463 32.46 86.5211 32.46C88.2506 32.46 89.2555 31.9678 89.6452 30.9014C89.652 30.8945 89.6588 30.874 89.6588 30.8467H92.318C92.2565 31.2158 92.1676 31.5303 92.0514 31.79C91.6959 32.6924 91.0739 33.3486 90.1852 33.7588C89.3034 34.1689 88.0797 34.3604 86.5211 34.333C83.4586 34.3877 81.7223 33.5537 80.9909 31.7422C80.7379 31.1543 80.6149 30.4229 80.6149 29.541C80.6149 28.6592 80.7379 27.9209 80.9909 27.333V27.3193C81.7018 25.5693 83.3903 24.7285 86.3229 24.7285H86.5211ZM108.446 34.4492V24.6191H104.598L101.795 30.2588L98.9989 24.6191H95.1503V34.4492H98.3563V30.0811L100.428 34.4492H103.169L105.24 30.0811V34.4492H108.446ZM105.609 28.4404L102.93 34.0801H100.667L97.9872 28.4404V34.0801H95.5126V24.9951H98.7733L101.795 31.0859L104.823 24.9951H108.084V34.0801H105.609V28.4404ZM117.205 34.7295C118.641 34.7363 119.803 34.5723 120.692 34.2373C121.847 33.793 122.64 33.0205 123.07 31.9268C123.337 31.291 123.474 30.5117 123.474 29.5752C123.474 28.625 123.337 27.832 123.07 27.1963C122.64 26.1094 121.847 25.3438 120.692 24.8857C119.782 24.5303 118.62 24.3594 117.205 24.3799C115.79 24.3594 114.628 24.5303 113.719 24.8857C112.564 25.3438 111.771 26.1094 111.34 27.1963C111.067 27.8389 110.93 28.625 110.93 29.5547C110.937 30.4844 111.073 31.2637 111.34 31.8994C111.771 32.9863 112.564 33.752 113.719 34.21C114.587 34.5586 115.674 34.7295 116.993 34.7295H117.205ZM117.205 24.7422C120.268 24.708 122.004 25.5215 122.735 27.333C122.988 27.9209 123.111 28.6592 123.111 29.5547C123.111 30.4502 122.988 31.1953 122.735 31.79V31.8037C122.387 32.6787 121.792 33.3213 120.938 33.7314C120.083 34.1416 118.914 34.3467 117.417 34.3467H117.205C114.143 34.3809 112.406 33.5674 111.675 31.7559C111.422 31.168 111.299 30.4297 111.299 29.5479C111.299 28.6592 111.422 27.9209 111.675 27.333C112.386 25.5625 114.074 24.7422 117.007 24.7422H117.205ZM120.329 30.9219C120.459 30.6006 120.527 30.1494 120.527 29.5615C120.527 28.9736 120.459 28.5225 120.329 28.2148C119.919 27.1279 118.921 26.6357 117.205 26.6357C115.53 26.6357 114.491 27.1621 114.081 28.2148C113.944 28.5361 113.876 28.9805 113.869 29.5547C113.869 30.1221 113.938 30.5664 114.081 30.874C114.491 31.9404 115.53 32.4736 117.205 32.4736C118.935 32.4736 119.94 31.9883 120.329 30.9219ZM119.987 28.3584V28.3721C120.104 28.6318 120.158 29.0283 120.158 29.5684C120.158 30.1084 120.104 30.5117 119.987 30.7783L119.974 30.792C119.864 31.127 119.7 31.3662 119.297 31.6465C118.894 31.9268 118.169 32.0977 117.205 32.0977C115.694 32.0977 114.765 31.6465 114.416 30.7373C114.307 30.4707 114.252 30.0742 114.245 29.5479C114.245 29.0215 114.3 28.6318 114.416 28.3721V28.3584C114.772 27.4492 115.701 26.998 117.205 26.998C118.155 26.998 118.866 27.1689 119.27 27.4492C119.673 27.7227 119.844 27.9824 119.987 28.3584Z" fill="white"/>
</svg>
