<svg width="25" height="19" viewBox="0 0 25 19" fill="none" xmlns="http://www.w3.org/2000/svg">
<path d="M22.4539 0.658909C22.4539 0.658909 24.6741 -0.120233 24.489 1.77197C24.4274 2.55112 23.8724 5.27812 23.4406 8.22775L21.9605 16.9653C21.9605 16.9653 21.8372 18.2453 20.7271 18.4679C19.617 18.6905 17.9519 17.6888 17.6435 17.4662C17.3968 17.2992 13.0182 14.7948 11.4764 13.5705C11.0446 13.2365 10.5513 12.5687 11.538 11.7895L18.0136 6.22425C18.7536 5.5564 19.4937 3.99812 16.4101 5.89033L7.77606 11.1774C7.77606 11.1774 6.78932 11.7339 4.9392 11.233L0.930527 10.12C0.930527 10.12 -0.549595 9.28518 1.97894 8.45034C8.14612 5.83463 15.7317 3.16328 22.4539 0.658909Z" fill="black"/>
</svg>
