<svg width="40" height="40" viewBox="0 0 40 40" fill="none" xmlns="http://www.w3.org/2000/svg">
<rect width="40" height="40" rx="4" fill="#70FF00"/>
<path d="M30.4256 9.7058C30.4256 9.7058 33.8046 8.98567 33.5901 11.296C33.5187 12.2473 32.5082 15.6456 32.0079 19.247L30.4256 30.3783C30.4256 30.3783 30.13 31.6967 28.8434 31.9685C27.5568 32.2403 26.0363 30.6501 25.6789 30.3783C25.393 30.1745 19.5545 27.1026 17.7676 25.6077C17.2672 25.2 16.624 24.9688 17.7676 24.0175L25.6789 16.0666C26.5366 15.2511 27.6704 13.7562 24.0966 16.0666L13.0208 22.4273C13.0208 22.4273 12.0005 23.0389 9.85631 22.4273L5.10954 20.8371C5.10954 20.8371 3.76128 20.2663 6.69179 19.247C13.8394 16.0533 22.6348 12.7636 30.4256 9.7058Z" fill="black"/>
</svg>
