<svg width="25" height="26" viewBox="0 0 25 26" fill="none" xmlns="http://www.w3.org/2000/svg">
<rect y="0.814453" width="25" height="25.1323" rx="4" fill="#70FF00"/>
<path d="M19.0161 6.9134C19.0161 6.9134 21.1279 6.46094 20.9939 7.91253C20.9492 8.51025 20.3177 10.6454 20.005 12.9082L19.0161 19.9021C19.0161 19.9021 18.8313 20.7304 18.0272 20.9012C17.223 21.072 16.2727 20.0729 16.0493 19.9021C15.8706 19.774 12.2216 17.8439 11.1048 16.9047C10.7921 16.6485 10.39 16.5033 11.1048 15.9056L16.0493 10.9099C16.5854 10.3976 17.2941 9.45832 15.0604 10.9099L8.13806 14.9064C8.13806 14.9064 7.50038 15.2907 6.16024 14.9064L3.19351 13.9073C3.19351 13.9073 2.35085 13.5486 4.18242 12.9082C8.64966 10.9016 14.1468 8.83461 19.0161 6.9134Z" fill="black"/>
</svg>
