<svg width="26" height="20" viewBox="0 0 26 20" fill="none" xmlns="http://www.w3.org/2000/svg">
<path fill-rule="evenodd" clip-rule="evenodd" d="M25.5 2.80814C24.5625 3.20003 23.5536 3.46394 22.4954 3.58311C23.5757 2.97369 24.4053 2.00916 24.7954 0.859894C23.7857 1.42453 22.6646 1.83322 21.4738 2.05475C20.5193 1.09823 19.1586 0.5 17.655 0.5C14.7661 0.5 12.4236 2.70417 12.4236 5.42258C12.4236 5.80807 12.4704 6.18397 12.5596 6.54466C8.2113 6.33992 4.35681 4.37968 1.77638 1.40134C1.32591 2.12833 1.06838 2.9737 1.06838 3.87584C1.06838 5.58335 1.99057 7.09011 3.39552 7.97306C2.53708 7.94747 1.73133 7.72593 1.02503 7.35723V7.41881C1.02503 9.80453 2.82946 11.7936 5.2212 12.247C4.78263 12.359 4.32026 12.4198 3.84344 12.4198C3.50602 12.4198 3.17794 12.3886 2.85836 12.331C3.52386 14.2864 5.45664 15.71 7.74553 15.75C5.95555 17.0696 3.6998 17.8574 1.24857 17.8574C0.825293 17.8574 0.408823 17.8342 0 17.7878C2.31525 19.1842 5.06481 20 8.01921 20C17.6414 20 22.9034 12.4989 22.9034 5.99442C22.9034 5.78088 22.8992 5.56815 22.8881 5.35781C23.9115 4.66201 24.7988 3.79505 25.5 2.80814Z" fill="black"/>
</svg>
