<svg width="17" height="13" viewBox="0 0 17 13" fill="none" xmlns="http://www.w3.org/2000/svg">
<path fill-rule="evenodd" clip-rule="evenodd" d="M17 1.53876C16.375 1.80002 15.7024 1.97596 14.997 2.05541C15.7172 1.64912 16.2702 1.00611 16.5303 0.239929C15.8571 0.616355 15.1097 0.888811 14.3159 1.0365C13.6796 0.398819 12.7724 0 11.77 0C9.84404 0 8.28241 1.46944 8.28241 3.28172C8.28241 3.53872 8.31358 3.78931 8.37308 4.02977C5.4742 3.89328 2.90454 2.58646 1.18425 0.600893C0.883941 1.08555 0.712253 1.64913 0.712253 2.25056C0.712253 3.3889 1.32704 4.39341 2.26368 4.98204C1.69139 4.96498 1.15422 4.81729 0.683353 4.57149V4.61254C0.683353 6.20302 1.88631 7.52904 3.4808 7.83135C3.18842 7.906 2.88017 7.94652 2.5623 7.94652C2.33734 7.94652 2.11862 7.92572 1.90557 7.88733C2.34924 9.19096 3.63776 10.14 5.16369 10.1667C3.97037 11.0464 2.46653 11.5716 0.832377 11.5716C0.550196 11.5716 0.272549 11.5561 0 11.5252C1.5435 12.4562 3.37654 13 5.34614 13C11.7609 13 15.2689 7.9993 15.2689 3.66294C15.2689 3.52059 15.2661 3.37877 15.2588 3.23854C15.941 2.77467 16.5325 2.1967 17 1.53876Z" fill="white"/>
</svg>
