<svg width="288" height="388" viewBox="0 0 288 388" fill="none" xmlns="http://www.w3.org/2000/svg">
<g filter="url(#filter0_d_951_541)">
<path d="M152.407 365.56L142.15 376.607C140.957 377.892 141.877 379.98 143.63 379.968L282.014 379.009C283.113 379.001 284 378.108 284 377.009V366.921C284 365.816 283.105 364.921 282 364.921H153.872C153.316 364.921 152.785 365.153 152.407 365.56Z" fill="#2A2A2A"/>
</g>
<g filter="url(#filter1_d_951_541)">
<path d="M4 65.3439V375C4 377.761 6.23858 380 9 380H40H132.747C134.18 380 135.543 379.385 136.493 378.312L149.507 363.593C150.457 362.519 151.82 361.905 153.253 361.905H279C281.761 361.905 284 359.666 284 356.905V65.3439V5C284 2.23858 281.761 0 279 0H9C6.23858 0 4 2.23858 4 5V65.3439Z" fill="#2A2A2A"/>
</g>
<defs>
<filter id="filter0_d_951_541" x="137.612" y="364.921" width="150.388" height="23.0469" filterUnits="userSpaceOnUse" color-interpolation-filters="sRGB">
<feFlood flood-opacity="0" result="BackgroundImageFix"/>
<feColorMatrix in="SourceAlpha" type="matrix" values="0 0 0 0 0 0 0 0 0 0 0 0 0 0 0 0 0 0 127 0" result="hardAlpha"/>
<feOffset dy="4"/>
<feGaussianBlur stdDeviation="2"/>
<feComposite in2="hardAlpha" operator="out"/>
<feColorMatrix type="matrix" values="0 0 0 0 0 0 0 0 0 0 0 0 0 0 0 0 0 0 0.25 0"/>
<feBlend mode="normal" in2="BackgroundImageFix" result="effect1_dropShadow_951_541"/>
<feBlend mode="normal" in="SourceGraphic" in2="effect1_dropShadow_951_541" result="shape"/>
</filter>
<filter id="filter1_d_951_541" x="0" y="0" width="288" height="388" filterUnits="userSpaceOnUse" color-interpolation-filters="sRGB">
<feFlood flood-opacity="0" result="BackgroundImageFix"/>
<feColorMatrix in="SourceAlpha" type="matrix" values="0 0 0 0 0 0 0 0 0 0 0 0 0 0 0 0 0 0 127 0" result="hardAlpha"/>
<feOffset dy="4"/>
<feGaussianBlur stdDeviation="2"/>
<feComposite in2="hardAlpha" operator="out"/>
<feColorMatrix type="matrix" values="0 0 0 0 0 0 0 0 0 0 0 0 0 0 0 0 0 0 0.25 0"/>
<feBlend mode="normal" in2="BackgroundImageFix" result="effect1_dropShadow_951_541"/>
<feBlend mode="normal" in="SourceGraphic" in2="effect1_dropShadow_951_541" result="shape"/>
</filter>
</defs>
</svg>
