<svg width="1665" height="839" viewBox="0 0 1665 839" fill="none" xmlns="http://www.w3.org/2000/svg">
<g opacity="0.1">
<path d="M258 117.791H119.802V176.186L1 295.41V1H258V117.791Z" stroke="white"/>
<path d="M258 838H1V421.933L119.802 302.709V363.538H258V477.895H119.802V599.552V721.209H258V838Z" stroke="white"/>
<path d="M1 324.608L119.802 205.384V241.881V278.378L1 397.602V361.105V324.608Z" stroke="white"/>
<path d="M365 838L474.592 3H547.653L596.361 355.988L656.925 382.767L723 838H608.537L574.442 626.207H503.816L474.592 838H365Z" stroke="white"/>
<path d="M608.537 331.644L656.925 355.988L632.731 179.494L608.537 3H567.136L608.537 331.644Z" stroke="white"/>
<path d="M1083.11 1H857V838H971.269V475.462H990.719L1124.44 838H1165.77L1063.66 563.055L1083.11 455.997L1117.14 441.398L1175.49 383.003V103.192L1129.3 52.0959L1083.11 1Z" stroke="white"/>
<path d="M1185.22 838H1246L1182.79 646.999L1119.58 455.997L1095.26 468.163L1087.97 509.526L1078.24 563.055L1185.22 838Z" stroke="white"/>
<path d="M1348 833V3H1399.05V679.657L1348 833Z" stroke="white"/>
<path d="M1454.95 411.915L1457.38 833H1379.6L1430.65 679.657V3H1450.09L1552.18 411.915V3H1664V833H1559.48L1454.95 411.915Z" stroke="white"/>
<path d="M516 512H565L540.5 303L516 512Z" stroke="white"/>
<path d="M971 359V115H1046.78L1059 129.64V346.8L1041.89 359H971Z" stroke="white"/>
</g>
</svg>
