<svg width="1034" height="235" viewBox="0 0 1034 235" fill="none" xmlns="http://www.w3.org/2000/svg">
<path d="M32.8038 203.64L32.0445 204.291L32.0946 204.349L32.153 204.399L32.8038 203.64ZM56.1638 203.64L56.8709 204.347L56.1638 203.64ZM58.4038 139V138H57.4038V139H58.4038ZM88.1637 139H89.1637V138H88.1637V139ZM8.80375 8.75999L9.51086 9.4671L9.51086 9.4671L8.80375 8.75999ZM79.8438 8.75999L79.1367 9.4671V9.4671L79.8438 8.75999ZM88.1637 96.44V97.44H89.1637V96.44H88.1637ZM58.4038 96.44H57.4038V97.44H58.4038V96.44ZM56.1638 32.12L55.4045 32.7708L55.4546 32.8292L55.513 32.8793L56.1638 32.12ZM32.8038 32.12L33.5109 32.8271V32.8271L32.8038 32.12ZM29.8838 198.2C29.8838 200.55 30.5955 202.6 32.0445 204.291L33.563 202.989C32.452 201.693 31.8838 200.116 31.8838 198.2H29.8838ZM32.153 204.399C33.8434 205.848 35.8935 206.56 38.2438 206.56V204.56C36.3273 204.56 34.7508 203.992 33.4545 202.881L32.153 204.399ZM38.2438 206.56H51.0438V204.56H38.2438V206.56ZM51.0438 206.56C53.3913 206.56 55.3701 205.848 56.8709 204.347L55.4566 202.933C54.3974 203.992 52.9628 204.56 51.0438 204.56V206.56ZM56.8709 204.347C58.5539 202.664 59.4038 200.596 59.4038 198.2H57.4038C57.4038 200.071 56.7603 201.629 55.4566 202.933L56.8709 204.347ZM59.4038 198.2V139H57.4038V198.2H59.4038ZM58.4038 140H88.1637V138H58.4038V140ZM87.1637 139V206.84H89.1637V139H87.1637ZM87.1637 206.84C87.1637 214.248 84.5003 220.609 79.1367 225.973L80.5509 227.387C86.2806 221.657 89.1637 214.792 89.1637 206.84H87.1637ZM79.1367 225.973C73.773 231.337 67.4122 234 60.0038 234V236C67.9553 236 74.8212 233.117 80.5509 227.387L79.1367 225.973ZM60.0038 234H28.6437V236H60.0038V234ZM28.6437 234C21.2353 234 14.8745 231.337 9.51086 225.973L8.09664 227.387C13.8264 233.117 20.6922 236 28.6437 236V234ZM9.51086 225.973C4.14723 220.609 1.48375 214.248 1.48375 206.84H-0.516251C-0.516251 214.792 2.36693 221.657 8.09664 227.387L9.51086 225.973ZM1.48375 206.84V28.6H-0.516251V206.84H1.48375ZM1.48375 28.6C1.48375 21.1915 4.14723 14.8307 9.51086 9.4671L8.09664 8.05289C2.36693 13.7826 -0.516251 20.6485 -0.516251 28.6H1.48375ZM9.51086 9.4671C14.8745 4.10347 21.2353 1.43999 28.6437 1.43999V-0.560013C20.6922 -0.560013 13.8264 2.32317 8.09664 8.05289L9.51086 9.4671ZM28.6437 1.43999H60.0038V-0.560013H28.6437V1.43999ZM60.0038 1.43999C67.4122 1.43999 73.773 4.10347 79.1367 9.4671L80.5509 8.05289C74.8212 2.32317 67.9553 -0.560013 60.0038 -0.560013V1.43999ZM79.1367 9.4671C84.5003 14.8307 87.1637 21.1915 87.1637 28.6H89.1637C89.1637 20.6485 86.2806 13.7826 80.5509 8.05289L79.1367 9.4671ZM87.1637 28.6V96.44H89.1637V28.6H87.1637ZM88.1637 95.44H58.4038V97.44H88.1637V95.44ZM59.4038 96.44V37.24H57.4038V96.44H59.4038ZM59.4038 37.24C59.4038 34.8427 58.5499 32.8482 56.8145 31.3607L55.513 32.8793C56.7643 33.9518 57.4038 35.3706 57.4038 37.24H59.4038ZM56.923 31.4692C55.4356 29.7338 53.4411 28.88 51.0438 28.88V30.88C52.9131 30.88 54.3319 31.5195 55.4045 32.7708L56.923 31.4692ZM51.0438 28.88H38.2438V30.88H51.0438V28.88ZM38.2438 28.88C35.8482 28.88 33.7796 29.7299 32.0966 31.4129L33.5109 32.8271C34.8145 31.5234 36.3726 30.88 38.2438 30.88V28.88ZM32.0966 31.4129C30.5959 32.9136 29.8838 34.8924 29.8838 37.24H31.8838C31.8838 35.3209 32.4516 33.8864 33.5109 32.8271L32.0966 31.4129ZM29.8838 37.24V198.2H31.8838V37.24H29.8838ZM129.116 8.75999L129.823 9.4671V9.4671L129.116 8.75999ZM200.796 8.75999L200.089 9.4671V9.4671L200.796 8.75999ZM153.116 203.64L152.357 204.291L152.407 204.349L152.465 204.399L153.116 203.64ZM176.476 203.64L177.183 204.347L176.476 203.64ZM176.476 32.12L175.717 32.7708L175.767 32.8292L175.825 32.8793L176.476 32.12ZM153.116 32.12L153.823 32.8271V32.8271L153.116 32.12ZM148.956 234C141.548 234 135.187 231.337 129.823 225.973L128.409 227.387C134.139 233.117 141.005 236 148.956 236V234ZM129.823 225.973C124.46 220.609 121.796 214.248 121.796 206.84H119.796C119.796 214.792 122.679 221.657 128.409 227.387L129.823 225.973ZM121.796 206.84V28.6H119.796V206.84H121.796ZM121.796 28.6C121.796 21.1915 124.46 14.8307 129.823 9.4671L128.409 8.05289C122.679 13.7826 119.796 20.6485 119.796 28.6H121.796ZM129.823 9.4671C135.187 4.10347 141.548 1.43999 148.956 1.43999V-0.560013C141.005 -0.560013 134.139 2.32317 128.409 8.05289L129.823 9.4671ZM148.956 1.43999H180.956V-0.560013H148.956V1.43999ZM180.956 1.43999C188.365 1.43999 194.726 4.10347 200.089 9.4671L201.503 8.05289C195.774 2.32317 188.908 -0.560013 180.956 -0.560013V1.43999ZM200.089 9.4671C205.453 14.8307 208.116 21.1915 208.116 28.6H210.116C210.116 20.6485 207.233 13.7826 201.503 8.05289L200.089 9.4671ZM208.116 28.6V206.84H210.116V28.6H208.116ZM208.116 206.84C208.116 214.248 205.453 220.609 200.089 225.973L201.503 227.387C207.233 221.657 210.116 214.792 210.116 206.84H208.116ZM200.089 225.973C194.726 231.337 188.365 234 180.956 234V236C188.908 236 195.774 233.117 201.503 227.387L200.089 225.973ZM180.956 234H148.956V236H180.956V234ZM150.196 198.2C150.196 200.55 150.908 202.6 152.357 204.291L153.876 202.989C152.764 201.693 152.196 200.116 152.196 198.2H150.196ZM152.465 204.399C154.156 205.848 156.206 206.56 158.556 206.56V204.56C156.64 204.56 155.063 203.992 153.767 202.881L152.465 204.399ZM158.556 206.56H171.356V204.56H158.556V206.56ZM171.356 206.56C173.704 206.56 175.683 205.848 177.183 204.347L175.769 202.933C174.71 203.992 173.275 204.56 171.356 204.56V206.56ZM177.183 204.347C178.866 202.664 179.716 200.596 179.716 198.2H177.716C177.716 200.071 177.073 201.629 175.769 202.933L177.183 204.347ZM179.716 198.2V37.24H177.716V198.2H179.716ZM179.716 37.24C179.716 34.8427 178.862 32.8482 177.127 31.3607L175.825 32.8793C177.077 33.9518 177.716 35.3706 177.716 37.24H179.716ZM177.236 31.4692C175.748 29.7338 173.754 28.88 171.356 28.88V30.88C173.226 30.88 174.644 31.5195 175.717 32.7708L177.236 31.4692ZM171.356 28.88H158.556V30.88H171.356V28.88ZM158.556 28.88C156.161 28.88 154.092 29.7299 152.409 31.4129L153.823 32.8271C155.127 31.5234 156.685 30.88 158.556 30.88V28.88ZM152.409 31.4129C150.908 32.9136 150.196 34.8924 150.196 37.24H152.196C152.196 35.3209 152.764 33.8864 153.823 32.8271L152.409 31.4129ZM150.196 37.24V198.2H152.196V37.24H150.196ZM299.639 114.04L298.663 114.257L300.616 114.252L299.639 114.04ZM324.279 0.439987V-0.560013H323.472L323.301 0.228014L324.279 0.439987ZM356.279 0.439987H357.279V-0.560013H356.279V0.439987ZM356.279 235V236H357.279V235H356.279ZM326.839 235H325.839V236H326.839V235ZM326.839 139.32L325.839 139.291L325.839 139.306V139.32H326.839ZM328.119 94.52L329.118 94.5486L329.148 93.52H328.119V94.52ZM327.799 94.52V93.52H326.979L326.818 94.3233L327.799 94.52ZM307.319 196.6V197.6H308.138L308.299 196.797L307.319 196.6ZM291.319 196.6L290.338 196.797L290.499 197.6H291.319V196.6ZM270.839 94.52L271.819 94.3233L271.658 93.52H270.839V94.52ZM270.519 94.52V93.52H269.49L269.519 94.5486L270.519 94.52ZM271.799 139.32H272.799V139.306L272.798 139.291L271.799 139.32ZM271.799 235V236H272.799V235H271.799ZM242.359 235H241.359V236H242.359V235ZM242.359 0.439987V-0.560013H241.359V0.439987H242.359ZM274.359 0.439987L275.335 0.222765L275.161 -0.560013H274.359V0.439987ZM300.616 114.252L325.256 0.65196L323.301 0.228014L298.661 113.828L300.616 114.252ZM324.279 1.43999H356.279V-0.560013H324.279V1.43999ZM355.279 0.439987V235H357.279V0.439987H355.279ZM356.279 234H326.839V236H356.279V234ZM327.839 235V139.32H325.839V235H327.839ZM327.838 139.349L329.118 94.5486L327.119 94.4914L325.839 139.291L327.838 139.349ZM328.119 93.52H327.799V95.52H328.119V93.52ZM326.818 94.3233L306.338 196.403L308.299 196.797L328.779 94.7167L326.818 94.3233ZM307.319 195.6H291.319V197.6H307.319V195.6ZM292.299 196.403L271.819 94.3233L269.858 94.7167L290.338 196.797L292.299 196.403ZM270.839 93.52H270.519V95.52H270.839V93.52ZM269.519 94.5486L270.799 139.349L272.798 139.291L271.518 94.4914L269.519 94.5486ZM270.799 139.32V235H272.799V139.32H270.799ZM271.799 234H242.359V236H271.799V234ZM243.359 235V0.439987H241.359V235H243.359ZM242.359 1.43999H274.359V-0.560013H242.359V1.43999ZM273.383 0.657209L298.663 114.257L300.615 113.823L275.335 0.222765L273.383 0.657209ZM446.826 114.04L445.85 114.257L447.804 114.252L446.826 114.04ZM471.466 0.439987V-0.560013H470.66L470.489 0.228014L471.466 0.439987ZM503.466 0.439987H504.466V-0.560013H503.466V0.439987ZM503.466 235V236H504.466V235H503.466ZM474.026 235H473.026V236H474.026V235ZM474.026 139.32L473.027 139.291L473.026 139.306V139.32H474.026ZM475.306 94.52L476.306 94.5486L476.335 93.52H475.306V94.52ZM474.986 94.52V93.52H474.167L474.006 94.3233L474.986 94.52ZM454.506 196.6V197.6H455.326L455.487 196.797L454.506 196.6ZM438.506 196.6L437.526 196.797L437.687 197.6H438.506V196.6ZM418.026 94.52L419.007 94.3233L418.846 93.52H418.026V94.52ZM417.706 94.52V93.52H416.677L416.707 94.5486L417.706 94.52ZM418.986 139.32H419.986V139.306L419.986 139.291L418.986 139.32ZM418.986 235V236H419.986V235H418.986ZM389.546 235H388.546V236H389.546V235ZM389.546 0.439987V-0.560013H388.546V0.439987H389.546ZM421.546 0.439987L422.522 0.222765L422.348 -0.560013H421.546V0.439987ZM447.804 114.252L472.444 0.65196L470.489 0.228014L445.849 113.828L447.804 114.252ZM471.466 1.43999H503.466V-0.560013H471.466V1.43999ZM502.466 0.439987V235H504.466V0.439987H502.466ZM503.466 234H474.026V236H503.466V234ZM475.026 235V139.32H473.026V235H475.026ZM475.026 139.349L476.306 94.5486L474.307 94.4914L473.027 139.291L475.026 139.349ZM475.306 93.52H474.986V95.52H475.306V93.52ZM474.006 94.3233L453.526 196.403L455.487 196.797L475.967 94.7167L474.006 94.3233ZM454.506 195.6H438.506V197.6H454.506V195.6ZM439.487 196.403L419.007 94.3233L417.046 94.7167L437.526 196.797L439.487 196.403ZM418.026 93.52H417.706V95.52H418.026V93.52ZM416.707 94.5486L417.987 139.349L419.986 139.291L418.706 94.4914L416.707 94.5486ZM417.986 139.32V235H419.986V139.32H417.986ZM418.986 234H389.546V236H418.986V234ZM390.546 235V0.439987H388.546V235H390.546ZM389.546 1.43999H421.546V-0.560013H389.546V1.43999ZM420.57 0.657209L445.85 114.257L447.802 113.823L422.522 0.222765L420.57 0.657209ZM536.734 0.439987V-0.560013H535.734V0.439987H536.734ZM567.134 0.439987H568.134V-0.560013H567.134V0.439987ZM569.054 203.64L568.294 204.291L568.345 204.349L568.403 204.399L569.054 203.64ZM591.134 203.64L591.841 204.347L591.134 203.64ZM593.374 0.439987V-0.560013H592.374V0.439987H593.374ZM623.774 0.439987H624.774V-0.560013H623.774V0.439987ZM564.894 234C557.485 234 551.125 231.337 545.761 225.973L544.347 227.387C550.076 233.117 556.942 236 564.894 236V234ZM545.761 225.973C540.397 220.609 537.734 214.248 537.734 206.84H535.734C535.734 214.792 538.617 221.657 544.347 227.387L545.761 225.973ZM537.734 206.84V0.439987H535.734V206.84H537.734ZM536.734 1.43999H567.134V-0.560013H536.734V1.43999ZM566.134 0.439987V198.2H568.134V0.439987H566.134ZM566.134 198.2C566.134 200.55 566.846 202.6 568.294 204.291L569.813 202.989C568.702 201.693 568.134 200.116 568.134 198.2H566.134ZM568.403 204.399C570.093 205.848 572.143 206.56 574.494 206.56V204.56C572.577 204.56 571.001 203.992 569.705 202.881L568.403 204.399ZM574.494 206.56H586.014V204.56H574.494V206.56ZM586.014 206.56C588.361 206.56 590.34 205.848 591.841 204.347L590.427 202.933C589.367 203.992 587.933 204.56 586.014 204.56V206.56ZM591.841 204.347C593.524 202.664 594.374 200.596 594.374 198.2H592.374C592.374 200.071 591.73 201.629 590.427 202.933L591.841 204.347ZM594.374 198.2V0.439987H592.374V198.2H594.374ZM593.374 1.43999H623.774V-0.560013H593.374V1.43999ZM622.774 0.439987V206.84H624.774V0.439987H622.774ZM622.774 206.84C622.774 214.248 620.11 220.609 614.747 225.973L616.161 227.387C621.891 221.657 624.774 214.792 624.774 206.84H622.774ZM614.747 225.973C609.383 231.337 603.022 234 595.614 234V236C603.565 236 610.431 233.117 616.161 227.387L614.747 225.973ZM595.614 234H564.894V236H595.614V234ZM715.926 132.28L714.954 132.514L715.138 133.28H715.926V132.28ZM716.246 132.28V133.28H717.273L717.246 132.254L716.246 132.28ZM714.966 83.96H713.966V83.9732L713.967 83.9865L714.966 83.96ZM714.966 0.439987V-0.560013H713.966V0.439987H714.966ZM743.766 0.439987H744.766V-0.560013H743.766V0.439987ZM743.766 235V236H744.766V235H743.766ZM716.566 235L715.594 235.234L715.778 236H716.566V235ZM684.886 103.16L685.859 102.926L685.674 102.16H684.886V103.16ZM684.566 103.16V102.16H683.539L683.567 103.186L684.566 103.16ZM685.846 151.48H686.846V151.467L686.846 151.454L685.846 151.48ZM685.846 235V236H686.846V235H685.846ZM657.046 235H656.046V236H657.046V235ZM657.046 0.439987V-0.560013H656.046V0.439987H657.046ZM684.246 0.439987L685.219 0.206347L685.034 -0.560013H684.246V0.439987ZM715.926 133.28H716.246V131.28H715.926V133.28ZM717.246 132.254L715.966 83.9335L713.967 83.9865L715.247 132.306L717.246 132.254ZM715.966 83.96V0.439987H713.966V83.96H715.966ZM714.966 1.43999H743.766V-0.560013H714.966V1.43999ZM742.766 0.439987V235H744.766V0.439987H742.766ZM743.766 234H716.566V236H743.766V234ZM717.539 234.766L685.859 102.926L683.914 103.394L715.594 235.234L717.539 234.766ZM684.886 102.16H684.566V104.16H684.886V102.16ZM683.567 103.186L684.847 151.506L686.846 151.454L685.566 103.134L683.567 103.186ZM684.846 151.48V235H686.846V151.48H684.846ZM685.846 234H657.046V236H685.846V234ZM658.046 235V0.439987H656.046V235H658.046ZM657.046 1.43999H684.246V-0.560013H657.046V1.43999ZM683.274 0.673628L714.954 132.514L716.899 132.046L685.219 0.206347L683.274 0.673628ZM807.446 235V236H808.446V235H807.446ZM777.046 235H776.046V236H777.046V235ZM777.046 0.439987V-0.560013H776.046V0.439987H777.046ZM807.446 0.439987H808.446V-0.560013H807.446V0.439987ZM807.446 234H777.046V236H807.446V234ZM778.046 235V0.439987H776.046V235H778.046ZM777.046 1.43999H807.446V-0.560013H777.046V1.43999ZM806.446 0.439987V235H808.446V0.439987H806.446ZM832.156 0.439987V-0.560013H831.156V0.439987H832.156ZM912.476 0.439987H913.476V-0.560013H912.476V0.439987ZM912.476 30.84V31.84H913.476V30.84H912.476ZM887.516 30.84V29.84H886.516V30.84H887.516ZM887.516 235V236H888.516V235H887.516ZM857.116 235H856.116V236H857.116V235ZM857.116 30.84H858.116V29.84H857.116V30.84ZM832.156 30.84H831.156V31.84H832.156V30.84ZM832.156 1.43999H912.476V-0.560013H832.156V1.43999ZM911.476 0.439987V30.84H913.476V0.439987H911.476ZM912.476 29.84H887.516V31.84H912.476V29.84ZM886.516 30.84V235H888.516V30.84H886.516ZM887.516 234H857.116V236H887.516V234ZM858.116 235V30.84H856.116V235H858.116ZM857.116 29.84H832.156V31.84H857.116V29.84ZM833.156 30.84V0.439987H831.156V30.84H833.156ZM977.686 90.04L976.727 90.3211L977.704 93.6592L978.649 90.3115L977.686 90.04ZM1002.97 0.439987V-0.560013H1002.21L1002 0.168446L1002.97 0.439987ZM1033.05 0.439987L1034 0.731331L1034.4 -0.560013H1033.05V0.439987ZM992.406 133.88L991.45 133.589L991.406 133.731V133.88H992.406ZM992.406 235V236H993.406V235H992.406ZM962.006 235H961.006V236H962.006V235ZM962.006 133.88H963.006V133.732L962.964 133.591L962.006 133.88ZM921.686 0.439987V-0.560013H920.339L920.729 0.72923L921.686 0.439987ZM951.446 0.439987L952.406 0.158935L952.195 -0.560013H951.446V0.439987ZM978.649 90.3115L1003.93 0.711529L1002 0.168446L976.724 89.7685L978.649 90.3115ZM1002.97 1.43999H1033.05V-0.560013H1002.97V1.43999ZM1032.09 0.148643L991.45 133.589L993.363 134.171L1034 0.731331L1032.09 0.148643ZM991.406 133.88V235H993.406V133.88H991.406ZM992.406 234H962.006V236H992.406V234ZM963.006 235V133.88H961.006V235H963.006ZM962.964 133.591L922.643 0.150744L920.729 0.72923L961.049 134.169L962.964 133.591ZM921.686 1.43999H951.446V-0.560013H921.686V1.43999ZM950.487 0.72104L976.727 90.3211L978.646 89.7589L952.406 0.158935L950.487 0.72104Z" fill="#777777"/>
</svg>
