<svg width="1192" height="184" viewBox="0 0 1192 184" fill="none" xmlns="http://www.w3.org/2000/svg">
<path d="M25.7969 159.5L25.0376 160.151L25.0877 160.209L25.1461 160.259L25.7969 159.5ZM44.0469 159.5L44.754 160.207L44.0469 159.5ZM45.7969 109V108L44.7969 108V109L45.7969 109ZM69.0469 109H70.0469V108H69.0469V109ZM7.04687 7.25L7.75398 7.9571V7.9571L7.04687 7.25ZM62.5469 7.25L61.8398 7.9571L61.8398 7.9571L62.5469 7.25ZM69.0469 75.75V76.75H70.0469V75.75H69.0469ZM45.7969 75.75L44.7969 75.75V76.75L45.7969 76.75V75.75ZM44.0469 25.5L43.2876 26.1508L43.3377 26.2092L43.3961 26.2593L44.0469 25.5ZM25.7969 25.5L26.504 26.2071L26.504 26.2071L25.7969 25.5ZM23.2969 155.25C23.2969 157.134 23.8687 158.787 25.0376 160.151L26.5561 158.849C25.7251 157.88 25.2969 156.7 25.2969 155.25H23.2969ZM25.1461 160.259C26.5099 161.428 28.1633 162 30.0469 162L30.0469 160C28.5971 160 27.4172 159.572 26.4477 158.741L25.1461 160.259ZM30.0469 162L40.0469 162L40.0469 160L30.0469 160L30.0469 162ZM40.0469 162C41.9278 162 43.5332 161.428 44.754 160.207L43.3398 158.793C42.5605 159.572 41.4993 160 40.0469 160L40.0469 162ZM44.754 160.207C46.1103 158.851 46.7969 157.179 46.7969 155.25H44.7969C44.7969 156.654 44.3168 157.816 43.3398 158.793L44.754 160.207ZM46.7969 155.25L46.7969 109L44.7969 109L44.7969 155.25H46.7969ZM45.7969 110L69.0469 110V108L45.7969 108L45.7969 110ZM68.0469 109L68.0469 162H70.0469L70.0469 109L68.0469 109ZM68.0469 162C68.0469 167.729 65.9901 172.643 61.8398 176.793L63.254 178.207C67.7704 173.691 70.0469 168.271 70.0469 162H68.0469ZM61.8398 176.793C57.6895 180.943 52.7754 183 47.0469 183V185C53.3184 185 58.7376 182.723 63.254 178.207L61.8398 176.793ZM47.0469 183L22.5469 183V185L47.0469 185V183ZM22.5469 183C16.8184 183 11.9043 180.943 7.75398 176.793L6.33977 178.207C10.8561 182.723 16.2754 185 22.5469 185V183ZM7.75398 176.793C3.60369 172.643 1.54687 167.729 1.54687 162H-0.453125C-0.453125 168.271 1.82339 173.691 6.33977 178.207L7.75398 176.793ZM1.54687 162L1.54687 22.75L-0.453125 22.75L-0.453125 162H1.54687ZM1.54687 22.75C1.54687 17.0215 3.60369 12.1074 7.75398 7.9571L6.33977 6.54289C1.82339 11.0593 -0.453125 16.4785 -0.453125 22.75L1.54687 22.75ZM7.75398 7.9571C11.9043 3.80681 16.8184 1.74999 22.5469 1.74999L22.5469 -0.25001C16.2754 -0.25001 10.8561 2.02651 6.33977 6.54289L7.75398 7.9571ZM22.5469 1.74999L47.0469 1.74999V-0.25001L22.5469 -0.25001L22.5469 1.74999ZM47.0469 1.74999C52.7754 1.74999 57.6895 3.80681 61.8398 7.9571L63.254 6.54289C58.7376 2.02651 53.3184 -0.25001 47.0469 -0.25001V1.74999ZM61.8398 7.9571C65.9901 12.1074 68.0469 17.0215 68.0469 22.75L70.0469 22.75C70.0469 16.4785 67.7704 11.0593 63.254 6.54289L61.8398 7.9571ZM68.0469 22.75L68.0469 75.75L70.0469 75.75L70.0469 22.75L68.0469 22.75ZM69.0469 74.75L45.7969 74.75L45.7969 76.75L69.0469 76.75V74.75ZM46.7969 75.75L46.7969 29.5L44.7969 29.5L44.7969 75.75L46.7969 75.75ZM46.7969 29.5C46.7969 27.5694 46.1064 25.9482 44.6977 24.7407L43.3961 26.2593C44.3207 27.0518 44.7969 28.0973 44.7969 29.5L46.7969 29.5ZM44.8061 24.8492C43.5987 23.4405 41.9775 22.75 40.0469 22.75L40.0469 24.75C41.4496 24.75 42.4951 25.2261 43.2876 26.1508L44.8061 24.8492ZM40.0469 22.75L30.0469 22.75L30.0469 24.75L40.0469 24.75L40.0469 22.75ZM30.0469 22.75C28.118 22.75 26.4461 23.4366 25.0898 24.7929L26.504 26.2071C27.481 25.2301 28.6424 24.75 30.0469 24.75L30.0469 22.75ZM25.0898 24.7929C23.869 26.0136 23.2969 27.6191 23.2969 29.5L25.2969 29.5C25.2969 28.0476 25.7247 26.9864 26.504 26.2071L25.0898 24.7929ZM23.2969 29.5L23.2969 155.25H25.2969L25.2969 29.5L23.2969 29.5ZM136.35 70.75L135.39 71.0311L136.368 74.3692L137.312 71.0215L136.35 70.75ZM156.1 0.74999L156.1 -0.25001L155.343 -0.25001L155.137 0.478448L156.1 0.74999ZM179.6 0.74999L180.556 1.04133L180.95 -0.25001L179.6 -0.25001L179.6 0.74999ZM147.85 105L146.893 104.709L146.85 104.851V105H147.85ZM147.85 184V185H148.85V184H147.85ZM124.1 184H123.1V185H124.1V184ZM124.1 105L125.1 105V104.852L125.057 104.711L124.1 105ZM92.5996 0.74999V-0.25001L91.2528 -0.25001L91.6424 1.03923L92.5996 0.74999ZM115.85 0.74999L116.809 0.468937L116.599 -0.25001L115.85 -0.25001L115.85 0.74999ZM137.312 71.0215L157.062 1.02153L155.137 0.478448L135.387 70.4785L137.312 71.0215ZM156.1 1.74999L179.6 1.74999L179.6 -0.25001L156.1 -0.25001L156.1 1.74999ZM178.643 0.458646L146.893 104.709L148.806 105.291L180.556 1.04133L178.643 0.458646ZM146.85 105L146.85 184L148.85 184L148.85 105H146.85ZM147.85 183L124.1 183L124.1 185L147.85 185L147.85 183ZM125.1 184L125.1 105L123.1 105L123.1 184H125.1ZM125.057 104.711L93.5569 0.460747L91.6424 1.03923L123.142 105.289L125.057 104.711ZM92.5996 1.74999L115.85 1.74999L115.85 -0.25001L92.5996 -0.25001V1.74999ZM114.89 1.03104L135.39 71.0311L137.309 70.4689L116.809 0.468937L114.89 1.03104ZM267.717 177.5L268.424 178.207L267.717 177.5ZM205.967 184H204.967V185H205.967V184ZM205.967 0.74999L205.967 -0.25001L204.967 -0.25001L204.967 0.74999L205.967 0.74999ZM267.717 7.25L267.01 7.9571L267.717 7.25ZM272.967 84L272.033 83.641L272.021 83.6731L272.011 83.7059L272.967 84ZM270.217 89.25L269.464 88.5915L269.458 88.5992L270.217 89.25ZM263.717 92.5V91.5L263.552 93.4864L263.717 92.5ZM270.217 96.25L269.417 96.85L269.459 96.9069L269.51 96.9571L270.217 96.25ZM272.967 101.25L272.011 101.544L272.025 101.59L272.044 101.635L272.967 101.25ZM229.717 23.75V22.75L228.717 22.75V23.75L229.717 23.75ZM229.717 81L228.717 81V82L229.717 82V81ZM248.717 79.5L249.424 80.2071L249.424 80.2071L248.717 79.5ZM248.717 25.5L247.958 26.1508L248.008 26.2092L248.066 26.2593L248.717 25.5ZM229.717 103.75V102.75L228.717 102.75V103.75L229.717 103.75ZM229.717 161H228.717V162H229.717V161ZM248.717 159.5L249.424 160.207L248.717 159.5ZM248.717 105.5L247.958 106.151L248.008 106.209L248.066 106.259L248.717 105.5ZM273.217 162C273.217 167.729 271.16 172.643 267.01 176.793L268.424 178.207C272.94 173.691 275.217 168.271 275.217 162L273.217 162ZM267.01 176.793C262.859 180.943 257.945 183 252.217 183V185C258.488 185 263.908 182.723 268.424 178.207L267.01 176.793ZM252.217 183L205.967 183L205.967 185L252.217 185V183ZM206.967 184L206.967 0.74999L204.967 0.74999L204.967 184H206.967ZM205.967 1.74999L252.217 1.74999V-0.25001L205.967 -0.25001L205.967 1.74999ZM252.217 1.74999C257.945 1.74999 262.859 3.80681 267.01 7.9571L268.424 6.54289C263.908 2.02651 258.488 -0.25001 252.217 -0.25001V1.74999ZM267.01 7.9571C271.16 12.1074 273.217 17.0215 273.217 22.75L275.217 22.75C275.217 16.4785 272.94 11.0593 268.424 6.54289L267.01 7.9571ZM273.217 22.75L273.217 75.75H275.217L275.217 22.75L273.217 22.75ZM273.217 75.75C273.217 79.0097 272.808 81.6272 272.033 83.641L273.9 84.359C274.792 82.0395 275.217 79.157 275.217 75.75H273.217ZM272.011 83.7059C271.375 85.7743 270.516 87.3892 269.464 88.5915L270.969 89.9085C272.251 88.4442 273.226 86.559 273.923 84.2941L272.011 83.7059ZM269.458 88.5992C268.536 89.6738 267.572 90.4025 266.573 90.8308L267.361 92.6691C268.695 92.0975 269.897 91.1596 270.976 89.9008L269.458 88.5992ZM266.573 90.8308C265.498 91.2913 264.55 91.5 263.717 91.5V93.5C264.883 93.5 266.102 93.2087 267.361 92.6691L266.573 90.8308ZM263.552 93.4864C264.457 93.6371 265.462 93.9431 266.573 94.4191L267.361 92.5808C266.138 92.0569 264.977 91.6962 263.881 91.5136L263.552 93.4864ZM266.573 94.4191C267.536 94.8318 268.49 95.6141 269.417 96.85L271.017 95.65C269.944 94.2192 268.731 93.1682 267.361 92.5808L266.573 94.4191ZM269.51 96.9571C270.526 97.9734 271.375 99.4779 272.011 101.544L273.923 100.956C273.225 98.6887 272.241 96.8599 270.924 95.5429L269.51 96.9571ZM272.044 101.635C272.806 103.465 273.217 105.985 273.217 109.25H275.217C275.217 105.848 274.794 103.035 273.89 100.865L272.044 101.635ZM273.217 109.25L273.217 162L275.217 162L275.217 109.25H273.217ZM228.717 23.75L228.717 81L230.717 81L230.717 23.75L228.717 23.75ZM229.717 82L244.717 82V80L229.717 80L229.717 82ZM244.717 82C246.598 82 248.203 81.4278 249.424 80.2071L248.01 78.7929C247.23 79.5722 246.169 80 244.717 80V82ZM249.424 80.2071C250.78 78.8508 251.467 77.1788 251.467 75.25H249.467C249.467 76.6545 248.987 77.8159 248.01 78.7929L249.424 80.2071ZM251.467 75.25L251.467 29.5L249.467 29.5L249.467 75.25H251.467ZM251.467 29.5C251.467 27.5694 250.776 25.9482 249.368 24.7407L248.066 26.2593C248.991 27.0518 249.467 28.0973 249.467 29.5L251.467 29.5ZM249.476 24.8492C248.269 23.4405 246.647 22.75 244.717 22.75V24.75C246.12 24.75 247.165 25.2261 247.958 26.1508L249.476 24.8492ZM244.717 22.75L229.717 22.75L229.717 24.75L244.717 24.75V22.75ZM228.717 103.75L228.717 161H230.717L230.717 103.75L228.717 103.75ZM229.717 162L244.717 162V160L229.717 160L229.717 162ZM244.717 162C246.598 162 248.203 161.428 249.424 160.207L248.01 158.793C247.23 159.572 246.169 160 244.717 160V162ZM249.424 160.207C250.78 158.851 251.467 157.179 251.467 155.25L249.467 155.25C249.467 156.654 248.987 157.816 248.01 158.793L249.424 160.207ZM251.467 155.25L251.467 109.5H249.467L249.467 155.25L251.467 155.25ZM251.467 109.5C251.467 107.569 250.776 105.948 249.368 104.741L248.066 106.259C248.991 107.052 249.467 108.097 249.467 109.5H251.467ZM249.476 104.849C248.269 103.441 246.647 102.75 244.717 102.75V104.75C246.12 104.75 247.165 105.226 247.958 106.151L249.476 104.849ZM244.717 102.75L229.717 102.75L229.717 104.75L244.717 104.75V102.75ZM310.996 0.74999V-0.25001L309.996 -0.25001V0.74999L310.996 0.74999ZM365.996 0.74999L366.996 0.74999V-0.25001L365.996 -0.25001V0.74999ZM365.996 24.5V25.5L366.996 25.5V24.5L365.996 24.5ZM334.746 24.5V23.5L333.746 23.5V24.5L334.746 24.5ZM334.746 81H333.746V82H334.746V81ZM365.996 81H366.996V80H365.996V81ZM365.996 103.75V104.75H366.996V103.75H365.996ZM334.746 103.75V102.75H333.746V103.75H334.746ZM334.746 160.25H333.746V161.25H334.746V160.25ZM365.996 160.25H366.996V159.25H365.996V160.25ZM365.996 184V185H366.996V184H365.996ZM310.996 184H309.996V185H310.996V184ZM310.996 1.74999L365.996 1.74999V-0.25001L310.996 -0.25001V1.74999ZM364.996 0.74999L364.996 24.5L366.996 24.5L366.996 0.74999L364.996 0.74999ZM365.996 23.5L334.746 23.5V25.5L365.996 25.5V23.5ZM333.746 24.5L333.746 81H335.746L335.746 24.5L333.746 24.5ZM334.746 82L365.996 82V80L334.746 80V82ZM364.996 81L364.996 103.75L366.996 103.75L366.996 81L364.996 81ZM365.996 102.75L334.746 102.75V104.75L365.996 104.75V102.75ZM333.746 103.75L333.746 160.25H335.746L335.746 103.75H333.746ZM334.746 161.25L365.996 161.25V159.25L334.746 159.25V161.25ZM364.996 160.25L364.996 184H366.996L366.996 160.25H364.996ZM365.996 183L310.996 183V185L365.996 185V183ZM311.996 184L311.996 0.74999L309.996 0.74999L309.996 184H311.996ZM461.436 7.25L460.728 7.9571V7.9571L461.436 7.25ZM463.436 94L462.648 93.3837L462.64 93.3945L462.631 93.4056L463.436 94ZM452.686 102L452.358 101.055L451.397 101.388L451.746 102.344L452.686 102ZM482.686 184V185L484.116 185L483.625 183.656L482.686 184ZM457.186 184L456.242 184.332L456.477 185H457.186V184ZM428.686 103L429.629 102.668L429.394 102L428.686 102V103ZM422.686 103V102H421.686V103H422.686ZM422.686 184V185H423.686V184H422.686ZM398.936 184H397.936V185H398.936V184ZM398.936 0.74999V-0.25001L397.936 -0.25001V0.74999L398.936 0.74999ZM422.686 23.75V22.75L421.686 22.75V23.75L422.686 23.75ZM422.686 80H421.686V81H422.686V80ZM442.436 78.5L441.728 77.7929V77.7929L442.436 78.5ZM442.436 25.5L441.676 26.1508L441.726 26.2092L441.785 26.2593L442.436 25.5ZM445.936 1.74999C451.664 1.74999 456.578 3.80681 460.728 7.9571L462.143 6.54289C457.626 2.02651 452.207 -0.25001 445.936 -0.25001V1.74999ZM460.728 7.9571C464.879 12.1074 466.936 17.0215 466.936 22.75L468.936 22.75C468.936 16.4785 466.659 11.0593 462.143 6.54289L460.728 7.9571ZM466.936 22.75L466.936 81H468.936L468.936 22.75L466.936 22.75ZM466.936 81C466.936 85.6082 465.511 89.7249 462.648 93.3837L464.223 94.6163C467.36 90.6084 468.936 86.0584 468.936 81H466.936ZM462.631 93.4056C459.913 97.0834 456.493 99.6238 452.358 101.055L453.013 102.945C457.545 101.376 461.291 98.5833 464.24 94.5944L462.631 93.4056ZM451.746 102.344L481.746 184.344L483.625 183.656L453.625 101.656L451.746 102.344ZM482.686 183L457.186 183V185L482.686 185V183ZM458.129 183.668L429.629 102.668L427.742 103.332L456.242 184.332L458.129 183.668ZM428.686 102L422.686 102V104L428.686 104V102ZM421.686 103L421.686 184H423.686L423.686 103H421.686ZM422.686 183L398.936 183V185L422.686 185V183ZM399.936 184L399.936 0.74999L397.936 0.74999L397.936 184H399.936ZM398.936 1.74999L445.936 1.74999V-0.25001L398.936 -0.25001V1.74999ZM421.686 23.75L421.686 80H423.686L423.686 23.75L421.686 23.75ZM422.686 81L438.436 81V79L422.686 79V81ZM438.436 81C440.316 81 441.922 80.4278 443.143 79.2071L441.728 77.7929C440.949 78.5722 439.888 79 438.436 79V81ZM443.143 79.2071C444.499 77.8508 445.186 76.1789 445.186 74.25L443.186 74.25C443.186 75.6545 442.705 76.8159 441.728 77.7929L443.143 79.2071ZM445.186 74.25L445.186 29.5L443.186 29.5L443.186 74.25L445.186 74.25ZM445.186 29.5C445.186 27.5694 444.495 25.9482 443.086 24.7407L441.785 26.2593C442.709 27.0518 443.186 28.0973 443.186 29.5L445.186 29.5ZM443.195 24.8492C441.987 23.4405 440.366 22.75 438.436 22.75V24.75C439.838 24.75 440.884 25.2261 441.676 26.1508L443.195 24.8492ZM438.436 22.75L422.686 22.75V24.75L438.436 24.75V22.75ZM572.037 97.25L571.33 97.9571L572.037 97.25ZM572.037 7.25L572.744 7.9571V7.9571L572.037 7.25ZM628.037 7.25L627.33 7.9571V7.9571L628.037 7.25ZM634.537 65.5V66.5H635.537V65.5H634.537ZM610.787 65.5H609.787V66.5H610.787V65.5ZM609.037 25.5L608.278 26.1508L608.328 26.2092L608.386 26.2593L609.037 25.5ZM590.787 25.5L591.494 26.2071V26.2071L590.787 25.5ZM590.787 79.75L590.028 80.4008L590.078 80.4592L590.136 80.5092L590.787 79.75ZM565.537 118.75V117.75L564.537 117.75V118.75L565.537 118.75ZM589.287 118.75H590.287V117.75H589.287V118.75ZM590.787 159.5L590.028 160.151L590.078 160.209L590.136 160.259L590.787 159.5ZM609.037 159.5L609.744 160.207L609.037 159.5ZM609.037 105.5L608.278 106.151L608.328 106.209L608.386 106.259L609.037 105.5ZM587.537 102.75C581.809 102.75 576.895 100.693 572.744 96.5429L571.33 97.9571C575.846 102.473 581.266 104.75 587.537 104.75V102.75ZM572.744 96.5429C568.594 92.3926 566.537 87.4785 566.537 81.75L564.537 81.75C564.537 88.0215 566.814 93.4407 571.33 97.9571L572.744 96.5429ZM566.537 81.75L566.537 22.75L564.537 22.75L564.537 81.75L566.537 81.75ZM566.537 22.75C566.537 17.0215 568.594 12.1074 572.744 7.9571L571.33 6.54289C566.814 11.0593 564.537 16.4785 564.537 22.75L566.537 22.75ZM572.744 7.9571C576.895 3.80681 581.809 1.74999 587.537 1.74999V-0.25001C581.266 -0.25001 575.846 2.02651 571.33 6.54289L572.744 7.9571ZM587.537 1.74999L612.537 1.74999V-0.25001L587.537 -0.25001V1.74999ZM612.537 1.74999C618.266 1.74999 623.18 3.80681 627.33 7.9571L628.744 6.54289C624.228 2.02651 618.809 -0.25001 612.537 -0.25001V1.74999ZM627.33 7.9571C631.48 12.1074 633.537 17.0215 633.537 22.75L635.537 22.75C635.537 16.4785 633.261 11.0593 628.744 6.54289L627.33 7.9571ZM633.537 22.75L633.537 65.5H635.537L635.537 22.75L633.537 22.75ZM634.537 64.5L610.787 64.5V66.5L634.537 66.5V64.5ZM611.787 65.5L611.787 29.5L609.787 29.5L609.787 65.5H611.787ZM611.787 29.5C611.787 27.5694 611.097 25.9482 609.688 24.7407L608.386 26.2593C609.311 27.0518 609.787 28.0973 609.787 29.5L611.787 29.5ZM609.796 24.8492C608.589 23.4405 606.968 22.75 605.037 22.75V24.75C606.44 24.75 607.485 25.2261 608.278 26.1508L609.796 24.8492ZM605.037 22.75L595.037 22.75V24.75L605.037 24.75V22.75ZM595.037 22.75C593.108 22.75 591.436 23.4366 590.08 24.7929L591.494 26.2071C592.471 25.2301 593.633 24.75 595.037 24.75V22.75ZM590.08 24.7929C588.859 26.0136 588.287 27.6191 588.287 29.5L590.287 29.5C590.287 28.0476 590.715 26.9864 591.494 26.2071L590.08 24.7929ZM588.287 29.5L588.287 75.5L590.287 75.5L590.287 29.5L588.287 29.5ZM588.287 75.5C588.287 77.3836 588.859 79.037 590.028 80.4008L591.546 79.0992C590.715 78.1297 590.287 76.9497 590.287 75.5L588.287 75.5ZM590.136 80.5092C591.5 81.6782 593.154 82.25 595.037 82.25V80.25C593.587 80.25 592.407 79.8218 591.438 78.9907L590.136 80.5092ZM595.037 82.25L612.537 82.25V80.25L595.037 80.25V82.25ZM612.537 82.25C618.266 82.25 623.18 84.3068 627.33 88.4571L628.744 87.0429C624.228 82.5265 618.809 80.25 612.537 80.25V82.25ZM627.33 88.4571C631.48 92.6074 633.537 97.5215 633.537 103.25H635.537C635.537 96.9785 633.261 91.5593 628.744 87.0429L627.33 88.4571ZM633.537 103.25L633.537 162L635.537 162L635.537 103.25H633.537ZM633.537 162C633.537 167.729 631.48 172.643 627.33 176.793L628.744 178.207C633.261 173.691 635.537 168.271 635.537 162L633.537 162ZM627.33 176.793C623.18 180.943 618.266 183 612.537 183V185C618.809 185 624.228 182.723 628.744 178.207L627.33 176.793ZM612.537 183L587.537 183V185L612.537 185V183ZM587.537 183C581.809 183 576.895 180.943 572.744 176.793L571.33 178.207C575.846 182.723 581.266 185 587.537 185V183ZM572.744 176.793C568.594 172.643 566.537 167.729 566.537 162H564.537C564.537 168.271 566.814 173.691 571.33 178.207L572.744 176.793ZM566.537 162L566.537 118.75L564.537 118.75L564.537 162H566.537ZM565.537 119.75L589.287 119.75V117.75L565.537 117.75V119.75ZM588.287 118.75L588.287 155.25H590.287L590.287 118.75L588.287 118.75ZM588.287 155.25C588.287 157.134 588.859 158.787 590.028 160.151L591.546 158.849C590.715 157.88 590.287 156.7 590.287 155.25H588.287ZM590.136 160.259C591.5 161.428 593.154 162 595.037 162V160C593.587 160 592.407 159.572 591.438 158.741L590.136 160.259ZM595.037 162L605.037 162V160L595.037 160V162ZM605.037 162C606.918 162 608.523 161.428 609.744 160.207L608.33 158.793C607.551 159.572 606.49 160 605.037 160V162ZM609.744 160.207C611.101 158.851 611.787 157.179 611.787 155.25L609.787 155.25C609.787 156.654 609.307 157.816 608.33 158.793L609.744 160.207ZM611.787 155.25L611.787 109.5H609.787L609.787 155.25L611.787 155.25ZM611.787 109.5C611.787 107.569 611.097 105.948 609.688 104.741L608.386 106.259C609.311 107.052 609.787 108.097 609.787 109.5H611.787ZM609.796 104.849C608.589 103.441 606.968 102.75 605.037 102.75V104.75C606.44 104.75 607.485 105.226 608.278 106.151L609.796 104.849ZM605.037 102.75L587.537 102.75V104.75L605.037 104.75V102.75ZM717.758 89.5L716.782 89.7172L718.735 89.712L717.758 89.5ZM737.008 0.74999V-0.25001L736.201 -0.25001L736.031 0.538017L737.008 0.74999ZM762.008 0.74999L763.008 0.74999V-0.25001L762.008 -0.25001V0.74999ZM762.008 184V185L763.008 185V184L762.008 184ZM739.008 184L738.008 184V185L739.008 185V184ZM739.008 109.25L738.008 109.221L738.008 109.236V109.25H739.008ZM740.008 74.25L741.007 74.2786L741.037 73.25L740.008 73.25V74.25ZM739.758 74.25V73.25H738.939L738.777 74.0533L739.758 74.25ZM723.758 154V155H724.577L724.738 154.197L723.758 154ZM711.258 154L710.277 154.197L710.439 155H711.258V154ZM695.258 74.25L696.238 74.0533L696.077 73.25H695.258V74.25ZM695.008 74.25V73.25H693.979L694.008 74.2786L695.008 74.25ZM696.008 109.25L697.008 109.25V109.236L697.007 109.221L696.008 109.25ZM696.008 184V185H697.008V184H696.008ZM673.008 184H672.008V185H673.008V184ZM673.008 0.74999V-0.25001L672.008 -0.25001V0.74999L673.008 0.74999ZM698.008 0.74999L698.984 0.532768L698.81 -0.25001L698.008 -0.25001V0.74999ZM718.735 89.712L737.985 0.961963L736.031 0.538017L716.781 89.288L718.735 89.712ZM737.008 1.74999L762.008 1.74999V-0.25001L737.008 -0.25001V1.74999ZM761.008 0.74999L761.008 184L763.008 184L763.008 0.74999L761.008 0.74999ZM762.008 183L739.008 183V185L762.008 185V183ZM740.008 184L740.008 109.25H738.008L738.008 184L740.008 184ZM740.007 109.279L741.007 74.2786L739.008 74.2214L738.008 109.221L740.007 109.279ZM740.008 73.25H739.758V75.25H740.008V73.25ZM738.777 74.0533L722.777 153.803L724.738 154.197L740.738 74.4467L738.777 74.0533ZM723.758 153L711.258 153V155L723.758 155V153ZM712.238 153.803L696.238 74.0533L694.277 74.4467L710.277 154.197L712.238 153.803ZM695.258 73.25H695.008V75.25H695.258V73.25ZM694.008 74.2786L695.008 109.279L697.007 109.221L696.007 74.2214L694.008 74.2786ZM695.008 109.25L695.008 184H697.008L697.008 109.25L695.008 109.25ZM696.008 183L673.008 183V185L696.008 185V183ZM674.008 184L674.008 0.74999L672.008 0.74999L672.008 184H674.008ZM673.008 1.74999L698.008 1.74999V-0.25001L673.008 -0.25001V1.74999ZM697.032 0.967212L716.782 89.7172L718.734 89.2828L698.984 0.532768L697.032 0.967212ZM806.998 7.25L807.705 7.9571V7.9571L806.998 7.25ZM862.998 7.25L862.291 7.9571V7.9571L862.998 7.25ZM825.748 159.5L824.989 160.151L825.039 160.209L825.097 160.259L825.748 159.5ZM843.998 159.5L844.705 160.207L843.998 159.5ZM843.998 25.5L843.239 26.1508L843.289 26.2092L843.347 26.2593L843.998 25.5ZM825.748 25.5L826.455 26.2071V26.2071L825.748 25.5ZM822.498 183C816.77 183 811.855 180.943 807.705 176.793L806.291 178.207C810.807 182.723 816.227 185 822.498 185V183ZM807.705 176.793C803.555 172.643 801.498 167.729 801.498 162H799.498C799.498 168.271 801.775 173.691 806.291 178.207L807.705 176.793ZM801.498 162L801.498 22.75L799.498 22.75L799.498 162H801.498ZM801.498 22.75C801.498 17.0215 803.555 12.1074 807.705 7.9571L806.291 6.54289C801.775 11.0593 799.498 16.4785 799.498 22.75L801.498 22.75ZM807.705 7.9571C811.855 3.80681 816.77 1.74999 822.498 1.74999V-0.25001C816.227 -0.25001 810.807 2.02651 806.291 6.54289L807.705 7.9571ZM822.498 1.74999L847.498 1.74999V-0.25001L822.498 -0.25001V1.74999ZM847.498 1.74999C853.227 1.74999 858.141 3.80681 862.291 7.9571L863.705 6.54289C859.189 2.02651 853.77 -0.25001 847.498 -0.25001V1.74999ZM862.291 7.9571C866.441 12.1074 868.498 17.0215 868.498 22.75L870.498 22.75C870.498 16.4785 868.222 11.0593 863.705 6.54289L862.291 7.9571ZM868.498 22.75L868.498 162H870.498L870.498 22.75L868.498 22.75ZM868.498 162C868.498 167.729 866.441 172.643 862.291 176.793L863.705 178.207C868.222 173.691 870.498 168.271 870.498 162H868.498ZM862.291 176.793C858.141 180.943 853.227 183 847.498 183V185C853.77 185 859.189 182.723 863.705 178.207L862.291 176.793ZM847.498 183L822.498 183V185L847.498 185V183ZM823.248 155.25C823.248 157.134 823.82 158.787 824.989 160.151L826.507 158.849C825.676 157.88 825.248 156.7 825.248 155.25H823.248ZM825.097 160.259C826.461 161.428 828.114 162 829.998 162V160C828.548 160 827.368 159.572 826.399 158.741L825.097 160.259ZM829.998 162L839.998 162V160L829.998 160V162ZM839.998 162C841.879 162 843.484 161.428 844.705 160.207L843.291 158.793C842.512 159.572 841.45 160 839.998 160V162ZM844.705 160.207C846.061 158.851 846.748 157.179 846.748 155.25H844.748C844.748 156.654 844.268 157.816 843.291 158.793L844.705 160.207ZM846.748 155.25L846.748 29.5L844.748 29.5L844.748 155.25H846.748ZM846.748 29.5C846.748 27.5694 846.058 25.9482 844.649 24.7407L843.347 26.2593C844.272 27.0518 844.748 28.0973 844.748 29.5L846.748 29.5ZM844.757 24.8492C843.55 23.4405 841.929 22.75 839.998 22.75V24.75C841.401 24.75 842.446 25.2261 843.239 26.1508L844.757 24.8492ZM839.998 22.75L829.998 22.75V24.75L839.998 24.75V22.75ZM829.998 22.75C828.069 22.75 826.397 23.4366 825.041 24.7929L826.455 26.2071C827.432 25.2301 828.594 24.75 829.998 24.75V22.75ZM825.041 24.7929C823.82 26.0136 823.248 27.6191 823.248 29.5L825.248 29.5C825.248 28.0476 825.676 26.9864 826.455 26.2071L825.041 24.7929ZM823.248 29.5L823.248 155.25H825.248L825.248 29.5L823.248 29.5ZM952.469 71.75L951.588 71.2757L951.374 71.6743L951.531 72.0986L952.469 71.75ZM994.219 184V185L995.658 185L995.156 183.651L994.219 184ZM967.719 184L966.779 184.341L967.018 185H967.719V184ZM936.219 97.25L937.159 96.9087L936.318 94.593L935.307 96.8396L936.219 97.25ZM931.719 107.25L930.807 106.84L930.719 107.035V107.25H931.719ZM931.719 184V185H932.719V184H931.719ZM907.969 184L906.969 184V185L907.969 185V184ZM907.969 0.74999V-0.25001L906.969 -0.25001V0.74999L907.969 0.74999ZM931.719 0.74999L932.719 0.74999V-0.25001L931.719 -0.25001V0.74999ZM931.719 63H930.719L932.601 63.4711L931.719 63ZM964.969 0.74999V-0.25001L964.369 -0.25001L964.087 0.27885L964.969 0.74999ZM990.719 0.74999L991.599 1.22427L992.393 -0.25001L990.719 -0.25001V0.74999ZM951.531 72.0986L993.281 184.349L995.156 183.651L953.406 71.4014L951.531 72.0986ZM994.219 183L967.719 183V185L994.219 185V183ZM968.659 183.659L937.159 96.9087L935.279 97.5913L966.779 184.341L968.659 183.659ZM935.307 96.8396L930.807 106.84L932.631 107.66L937.131 97.6604L935.307 96.8396ZM930.719 107.25L930.719 184L932.719 184L932.719 107.25H930.719ZM931.719 183L907.969 183V185L931.719 185V183ZM908.969 184L908.969 0.74999L906.969 0.74999L906.969 184L908.969 184ZM907.969 1.74999L931.719 1.74999V-0.25001L907.969 -0.25001V1.74999ZM930.719 0.74999L930.719 63H932.719L932.719 0.74999L930.719 0.74999ZM932.601 63.4711L965.851 1.22113L964.087 0.27885L930.837 62.5289L932.601 63.4711ZM964.969 1.74999L990.719 1.74999V-0.25001L964.969 -0.25001V1.74999ZM989.838 0.275705L951.588 71.2757L953.349 72.2243L991.599 1.22427L989.838 0.275705ZM1019.83 0.74999V-0.25001L1018.83 -0.25001V0.74999L1019.83 0.74999ZM1074.83 0.74999L1075.83 0.74999V-0.25001L1074.83 -0.25001V0.74999ZM1074.83 24.5V25.5L1075.83 25.5V24.5L1074.83 24.5ZM1043.58 24.5V23.5L1042.58 23.5V24.5L1043.58 24.5ZM1043.58 81H1042.58V82H1043.58V81ZM1074.83 81H1075.83V80H1074.83V81ZM1074.83 103.75V104.75H1075.83V103.75H1074.83ZM1043.58 103.75V102.75H1042.58V103.75H1043.58ZM1043.58 160.25L1042.58 160.25V161.25L1043.58 161.25V160.25ZM1074.83 160.25L1075.83 160.25V159.25L1074.83 159.25V160.25ZM1074.83 184V185L1075.83 185V184L1074.83 184ZM1019.83 184L1018.83 184V185L1019.83 185V184ZM1019.83 1.74999L1074.83 1.74999V-0.25001L1019.83 -0.25001V1.74999ZM1073.83 0.74999V24.5L1075.83 24.5V0.74999L1073.83 0.74999ZM1074.83 23.5L1043.58 23.5V25.5L1074.83 25.5V23.5ZM1042.58 24.5L1042.58 81H1044.58L1044.58 24.5L1042.58 24.5ZM1043.58 82L1074.83 82V80L1043.58 80V82ZM1073.83 81L1073.83 103.75H1075.83L1075.83 81H1073.83ZM1074.83 102.75L1043.58 102.75V104.75L1074.83 104.75V102.75ZM1042.58 103.75L1042.58 160.25L1044.58 160.25L1044.58 103.75H1042.58ZM1043.58 161.25L1074.83 161.25V159.25L1043.58 159.25V161.25ZM1073.83 160.25V184L1075.83 184V160.25L1073.83 160.25ZM1074.83 183L1019.83 183V185L1074.83 185V183ZM1020.83 184L1020.83 0.74999L1018.83 0.74999L1018.83 184L1020.83 184ZM1170.27 7.25L1169.57 7.9571V7.9571L1170.27 7.25ZM1172.27 94L1171.49 93.3837L1171.48 93.3945L1171.47 93.4056L1172.27 94ZM1161.52 102L1161.2 101.055L1160.23 101.388L1160.58 102.344L1161.52 102ZM1191.52 184V185H1192.95L1192.46 183.656L1191.52 184ZM1166.02 184L1165.08 184.332L1165.32 185H1166.02V184ZM1137.52 103L1138.47 102.668L1138.23 102H1137.52V103ZM1131.52 103V102H1130.52V103H1131.52ZM1131.52 184V185H1132.52V184H1131.52ZM1107.77 184L1106.77 184V185L1107.77 185V184ZM1107.77 0.74999V-0.25001L1106.77 -0.25001V0.74999L1107.77 0.74999ZM1131.52 23.75V22.75L1130.52 22.75V23.75L1131.52 23.75ZM1131.52 80H1130.52V81H1131.52V80ZM1151.27 78.5L1150.57 77.7929V77.7929L1151.27 78.5ZM1151.27 25.5L1150.51 26.1508L1150.56 26.2092L1150.62 26.2593L1151.27 25.5ZM1154.77 1.74999C1160.5 1.74999 1165.42 3.80681 1169.57 7.9571L1170.98 6.54289C1166.46 2.02651 1161.04 -0.25001 1154.77 -0.25001V1.74999ZM1169.57 7.9571C1173.72 12.1074 1175.77 17.0215 1175.77 22.75L1177.77 22.75C1177.77 16.4785 1175.5 11.0593 1170.98 6.54289L1169.57 7.9571ZM1175.77 22.75L1175.77 81L1177.77 81L1177.77 22.75L1175.77 22.75ZM1175.77 81C1175.77 85.6082 1174.35 89.7249 1171.49 93.3837L1173.06 94.6163C1176.2 90.6084 1177.77 86.0584 1177.77 81L1175.77 81ZM1171.47 93.4056C1168.75 97.0834 1165.33 99.6238 1161.2 101.055L1161.85 102.945C1166.38 101.376 1170.13 98.5833 1173.08 94.5944L1171.47 93.4056ZM1160.58 102.344L1190.58 184.344L1192.46 183.656L1162.46 101.656L1160.58 102.344ZM1191.52 183L1166.02 183V185L1191.52 185V183ZM1166.97 183.668L1138.47 102.668L1136.58 103.332L1165.08 184.332L1166.97 183.668ZM1137.52 102L1131.52 102V104L1137.52 104V102ZM1130.52 103L1130.52 184L1132.52 184L1132.52 103H1130.52ZM1131.52 183L1107.77 183V185L1131.52 185V183ZM1108.77 184L1108.77 0.74999L1106.77 0.74999L1106.77 184L1108.77 184ZM1107.77 1.74999L1154.77 1.74999V-0.25001L1107.77 -0.25001V1.74999ZM1130.52 23.75L1130.52 80H1132.52L1132.52 23.75L1130.52 23.75ZM1131.52 81L1147.27 81V79L1131.52 79V81ZM1147.27 81C1149.15 81 1150.76 80.4278 1151.98 79.2071L1150.57 77.7929C1149.79 78.5722 1148.73 79 1147.27 79V81ZM1151.98 79.2071C1153.34 77.8508 1154.02 76.1789 1154.02 74.25L1152.02 74.25C1152.02 75.6545 1151.54 76.8159 1150.57 77.7929L1151.98 79.2071ZM1154.02 74.25V29.5L1152.02 29.5V74.25L1154.02 74.25ZM1154.02 29.5C1154.02 27.5694 1153.33 25.9482 1151.92 24.7407L1150.62 26.2593C1151.55 27.0518 1152.02 28.0973 1152.02 29.5L1154.02 29.5ZM1152.03 24.8492C1150.83 23.4405 1149.2 22.75 1147.27 22.75V24.75C1148.68 24.75 1149.72 25.2261 1150.51 26.1508L1152.03 24.8492ZM1147.27 22.75L1131.52 22.75V24.75L1147.27 24.75V22.75Z" fill="white"/>
</svg>
