<svg width="779" height="129" viewBox="0 0 779 129" fill="none" xmlns="http://www.w3.org/2000/svg">
<path d="M103.145 32.9659H79" stroke="#2E2E2E" stroke-width="5"/>
<path d="M170.854 42.6526H157" stroke="#2E2E2E" stroke-width="2"/>
<path d="M253.535 78.0674H239.285" stroke="#2E2E2E" stroke-width="3"/>
<path d="M337.054 76.9171H312.117" stroke="#2E2E2E" stroke-width="4"/>
<path d="M61.371 90.514L60.6117 91.1648L60.6618 91.2232L60.7202 91.2733L61.371 90.514ZM69.182 90.514L69.8891 91.2211L69.182 90.514ZM69.931 68.9V67.9H68.931V68.9H69.931ZM79.882 68.9H80.882V67.9H79.882V68.9ZM53.346 25.351L54.0531 26.0581L54.0531 26.0581L53.346 25.351ZM77.1 25.351L76.3929 26.0581V26.0581L77.1 25.351ZM79.882 54.669V55.669H80.882V54.669H79.882ZM69.931 54.669H68.931V55.669H69.931V54.669ZM69.182 33.162L68.4227 33.8128L68.4728 33.8712L68.5312 33.9213L69.182 33.162ZM61.371 33.162L62.0781 33.8691L62.0781 33.8691L61.371 33.162ZM59.729 88.695C59.729 89.6253 60.0148 90.4683 60.6117 91.1648L62.1303 89.8632C61.8712 89.561 61.729 89.1914 61.729 88.695H59.729ZM60.7202 91.2733C61.4167 91.8702 62.2597 92.156 63.19 92.156V90.156C62.6936 90.156 62.324 90.0138 62.0218 89.7547L60.7202 91.2733ZM63.19 92.156H67.47V90.156H63.19V92.156ZM67.47 92.156C68.3976 92.156 69.2404 91.8698 69.8891 91.2211L68.4749 89.8069C68.2676 90.0142 67.9691 90.156 67.47 90.156V92.156ZM69.8891 91.2211C70.5781 90.5321 70.931 89.6705 70.931 88.695H68.931C68.931 89.1461 68.7846 89.4972 68.4749 89.8069L69.8891 91.2211ZM70.931 88.695V68.9H68.931V88.695H70.931ZM69.931 69.9H79.882V67.9H69.931V69.9ZM78.882 68.9V91.584H80.882V68.9H78.882ZM78.882 91.584C78.882 93.8805 78.0645 95.8393 76.3929 97.5109L77.8071 98.9251C79.8448 96.8874 80.882 94.4235 80.882 91.584H78.882ZM76.3929 97.5109C74.7213 99.1825 72.7625 100 70.466 100V102C73.3055 102 75.7694 100.963 77.8071 98.9251L76.3929 97.5109ZM70.466 100H59.98V102H70.466V100ZM59.98 100C57.6835 100 55.7247 99.1825 54.0531 97.5109L52.6389 98.9251C54.6766 100.963 57.1405 102 59.98 102V100ZM54.0531 97.5109C52.3815 95.8393 51.564 93.8805 51.564 91.584H49.564C49.564 94.4235 50.6012 96.8874 52.6389 98.9251L54.0531 97.5109ZM51.564 91.584V31.985H49.564V91.584H51.564ZM51.564 31.985C51.564 29.6885 52.3815 27.7297 54.0531 26.0581L52.6389 24.6439C50.6012 26.6816 49.564 29.1455 49.564 31.985H51.564ZM54.0531 26.0581C55.7247 24.3865 57.6835 23.569 59.98 23.569V21.569C57.1405 21.569 54.6766 22.6062 52.6389 24.6439L54.0531 26.0581ZM59.98 23.569H70.466V21.569H59.98V23.569ZM70.466 23.569C72.7625 23.569 74.7213 24.3865 76.3929 26.0581L77.8071 24.6439C75.7694 22.6062 73.3055 21.569 70.466 21.569V23.569ZM76.3929 26.0581C78.0645 27.7297 78.882 29.6885 78.882 31.985H80.882C80.882 29.1455 79.8448 26.6816 77.8071 24.6439L76.3929 26.0581ZM78.882 31.985V54.669H80.882V31.985H78.882ZM79.882 53.669H69.931V55.669H79.882V53.669ZM70.931 54.669V34.874H68.931V54.669H70.931ZM70.931 34.874C70.931 33.8967 70.5742 33.0382 69.8328 32.4027L68.5312 33.9213C68.7885 34.1418 68.931 34.4246 68.931 34.874H70.931ZM69.9413 32.5112C69.3058 31.7698 68.4473 31.413 67.47 31.413V33.413C67.9194 33.413 68.2022 33.5555 68.4227 33.8128L69.9413 32.5112ZM67.47 31.413H63.19V33.413H67.47V31.413ZM63.19 31.413C62.2145 31.413 61.3529 31.7659 60.6639 32.4549L62.0781 33.8691C62.3878 33.5594 62.7389 33.413 63.19 33.413V31.413ZM60.6639 32.4549C60.0152 33.1036 59.729 33.9464 59.729 34.874H61.729C61.729 34.3749 61.8708 34.0764 62.0781 33.8691L60.6639 32.4549ZM59.729 34.874V88.695H61.729V34.874H59.729ZM138.648 52.529L137.688 52.8101L138.665 56.1482L139.61 52.8005L138.648 52.529ZM147.101 22.569V21.569H146.344L146.138 22.2975L147.101 22.569ZM157.159 22.569L158.115 22.8603L158.508 21.569H157.159V22.569ZM143.57 67.188L142.613 66.8967L142.57 67.0391V67.188H143.57ZM143.57 101V102H144.57V101H143.57ZM133.405 101H132.405V102H133.405V101ZM133.405 67.188H134.405V67.0402L134.362 66.8988L133.405 67.188ZM119.923 22.569V21.569H118.576L118.965 22.8582L119.923 22.569ZM129.874 22.569L130.833 22.2879L130.623 21.569H129.874V22.569ZM139.61 52.8005L148.063 22.8405L146.138 22.2975L137.685 52.2575L139.61 52.8005ZM147.101 23.569H157.159V21.569H147.101V23.569ZM156.202 22.2777L142.613 66.8967L144.526 67.4793L158.115 22.8603L156.202 22.2777ZM142.57 67.188V101H144.57V67.188H142.57ZM143.57 100H133.405V102H143.57V100ZM134.405 101V67.188H132.405V101H134.405ZM134.362 66.8988L120.88 22.2798L118.965 22.8582L132.447 67.4772L134.362 66.8988ZM119.923 23.569H129.874V21.569H119.923V23.569ZM128.914 22.85L137.688 52.8101L139.607 52.2479L130.833 22.2879L128.914 22.85ZM224.833 98.218L225.54 98.9251L224.833 98.218ZM198.404 101H197.404V102H198.404V101ZM198.404 22.569V21.569H197.404V22.569H198.404ZM224.833 25.351L224.126 26.0581V26.0581L224.833 25.351ZM227.08 58.2L226.146 57.841L226.134 57.8731L226.124 57.9059L227.08 58.2ZM225.903 60.447L225.15 59.7885L225.143 59.7962L225.903 60.447ZM223.121 61.838V60.838L222.956 62.8244L223.121 61.838ZM225.903 63.443L225.103 64.043L225.145 64.0999L225.196 64.1501L225.903 63.443ZM227.08 65.583L226.124 65.8771L226.138 65.9231L226.157 65.9676L227.08 65.583ZM208.569 32.413V31.413H207.569V32.413H208.569ZM208.569 56.916H207.569V57.916H208.569V56.916ZM216.701 56.274L217.408 56.9811L216.701 56.274ZM216.701 33.162L215.941 33.8128L215.992 33.8712L216.05 33.9213L216.701 33.162ZM208.569 66.653V65.653H207.569V66.653H208.569ZM208.569 91.156H207.569V92.156H208.569V91.156ZM216.701 90.514L217.408 91.2211L216.701 90.514ZM216.701 67.402L215.941 68.0528L215.992 68.1112L216.05 68.1613L216.701 67.402ZM226.615 91.584C226.615 93.8805 225.797 95.8393 224.126 97.5109L225.54 98.9251C227.578 96.8874 228.615 94.4235 228.615 91.584H226.615ZM224.126 97.5109C222.454 99.1825 220.495 100 218.199 100V102C221.038 102 223.502 100.963 225.54 98.9251L224.126 97.5109ZM218.199 100H198.404V102H218.199V100ZM199.404 101V22.569H197.404V101H199.404ZM198.404 23.569H218.199V21.569H198.404V23.569ZM218.199 23.569C220.495 23.569 222.454 24.3865 224.126 26.0581L225.54 24.6439C223.502 22.6062 221.038 21.569 218.199 21.569V23.569ZM224.126 26.0581C225.797 27.7297 226.615 29.6885 226.615 31.985H228.615C228.615 29.1455 227.578 26.6816 225.54 24.6439L224.126 26.0581ZM226.615 31.985V54.669H228.615V31.985H226.615ZM226.615 54.669C226.615 56.022 226.444 57.0665 226.146 57.841L228.013 58.559C228.429 57.4788 228.615 56.1693 228.615 54.669H226.615ZM226.124 57.9059C225.869 58.735 225.535 59.3488 225.15 59.7885L226.655 61.1055C227.269 60.4038 227.72 59.5197 228.036 58.4941L226.124 57.9059ZM225.143 59.7962C224.794 60.2034 224.45 60.4555 224.118 60.5979L224.906 62.4361C225.572 62.1505 226.155 61.6892 226.662 61.0978L225.143 59.7962ZM224.118 60.5979C223.711 60.7723 223.382 60.838 223.121 60.838V62.838C223.715 62.838 224.314 62.6897 224.906 62.4361L224.118 60.5979ZM222.956 62.8244C223.289 62.8798 223.674 62.9951 224.118 63.1851L224.906 61.3469C224.35 61.1089 223.809 60.9389 223.285 60.8516L222.956 62.8244ZM224.118 63.1851C224.413 63.3118 224.748 63.5698 225.103 64.043L226.703 62.843C226.202 62.1748 225.609 61.6482 224.906 61.3469L224.118 63.1851ZM225.196 64.1501C225.545 64.4991 225.87 65.0503 226.124 65.8771L228.036 65.2889C227.719 64.2611 227.259 63.3855 226.61 62.7359L225.196 64.1501ZM226.157 65.9676C226.443 66.6542 226.615 67.6486 226.615 69.007H228.615C228.615 67.5121 228.43 66.2238 228.003 65.1984L226.157 65.9676ZM226.615 69.007V91.584H228.615V69.007H226.615ZM207.569 32.413V56.916H209.569V32.413H207.569ZM208.569 57.916H214.989V55.916H208.569V57.916ZM214.989 57.916C215.916 57.916 216.759 57.6298 217.408 56.9811L215.994 55.5669C215.786 55.7742 215.488 55.916 214.989 55.916V57.916ZM217.408 56.9811C218.097 56.2921 218.45 55.4305 218.45 54.455H216.45C216.45 54.9061 216.303 55.2572 215.994 55.5669L217.408 56.9811ZM218.45 54.455V34.874H216.45V54.455H218.45ZM218.45 34.874C218.45 33.8967 218.093 33.0382 217.352 32.4027L216.05 33.9213C216.307 34.1418 216.45 34.4246 216.45 34.874H218.45ZM217.46 32.5112C216.825 31.7698 215.966 31.413 214.989 31.413V33.413C215.438 33.413 215.721 33.5555 215.941 33.8128L217.46 32.5112ZM214.989 31.413H208.569V33.413H214.989V31.413ZM207.569 66.653V91.156H209.569V66.653H207.569ZM208.569 92.156H214.989V90.156H208.569V92.156ZM214.989 92.156C215.916 92.156 216.759 91.8698 217.408 91.2211L215.994 89.8069C215.786 90.0142 215.488 90.156 214.989 90.156V92.156ZM217.408 91.2211C218.097 90.5321 218.45 89.6705 218.45 88.695H216.45C216.45 89.1461 216.303 89.4972 215.994 89.8069L217.408 91.2211ZM218.45 88.695V69.114H216.45V88.695H218.45ZM218.45 69.114C218.45 68.1367 218.093 67.2782 217.352 66.6427L216.05 68.1613C216.307 68.3818 216.45 68.6646 216.45 69.114H218.45ZM217.46 66.7512C216.825 66.0098 215.966 65.653 214.989 65.653V67.653C215.438 67.653 215.721 67.7955 215.941 68.0528L217.46 66.7512ZM214.989 65.653H208.569V67.653H214.989V65.653ZM273.316 22.569V21.569H272.316V22.569H273.316ZM296.856 22.569H297.856V21.569H296.856V22.569ZM296.856 32.734V33.734H297.856V32.734H296.856ZM283.481 32.734V31.734H282.481V32.734H283.481ZM283.481 56.916H282.481V57.916H283.481V56.916ZM296.856 56.916H297.856V55.916H296.856V56.916ZM296.856 66.653V67.653H297.856V66.653H296.856ZM283.481 66.653V65.653H282.481V66.653H283.481ZM283.481 90.835H282.481V91.835H283.481V90.835ZM296.856 90.835H297.856V89.835H296.856V90.835ZM296.856 101V102H297.856V101H296.856ZM273.316 101H272.316V102H273.316V101ZM273.316 23.569H296.856V21.569H273.316V23.569ZM295.856 22.569V32.734H297.856V22.569H295.856ZM296.856 31.734H283.481V33.734H296.856V31.734ZM282.481 32.734V56.916H284.481V32.734H282.481ZM283.481 57.916H296.856V55.916H283.481V57.916ZM295.856 56.916V66.653H297.856V56.916H295.856ZM296.856 65.653H283.481V67.653H296.856V65.653ZM282.481 66.653V90.835H284.481V66.653H282.481ZM283.481 91.835H296.856V89.835H283.481V91.835ZM295.856 90.835V101H297.856V90.835H295.856ZM296.856 100H273.316V102H296.856V100ZM274.316 101V22.569H272.316V101H274.316ZM367.664 25.351L366.957 26.0581V26.0581L367.664 25.351ZM368.52 62.48L367.733 61.8637L367.724 61.8745L367.716 61.8856L368.52 62.48ZM363.919 65.904L363.592 64.959L362.631 65.2919L362.98 66.2476L363.919 65.904ZM376.759 101V102H378.19L377.698 100.656L376.759 101ZM365.845 101L364.902 101.332L365.137 102H365.845V101ZM353.647 66.332L354.591 66.0001L354.356 65.332H353.647V66.332ZM351.079 66.332V65.332H350.079V66.332H351.079ZM351.079 101V102H352.079V101H351.079ZM340.914 101H339.914V102H340.914V101ZM340.914 22.569V21.569H339.914V22.569H340.914ZM351.079 32.413V31.413H350.079V32.413H351.079ZM351.079 56.488H350.079V57.488H351.079V56.488ZM359.532 55.846L358.825 55.1389V55.1389L359.532 55.846ZM359.532 33.162L358.773 33.8128L358.823 33.8712L358.882 33.9213L359.532 33.162ZM361.03 23.569C363.327 23.569 365.286 24.3865 366.957 26.0581L368.371 24.6439C366.334 22.6062 363.87 21.569 361.03 21.569V23.569ZM366.957 26.0581C368.629 27.7297 369.446 29.6885 369.446 31.985H371.446C371.446 29.1455 370.409 26.6816 368.371 24.6439L366.957 26.0581ZM369.446 31.985V56.916H371.446V31.985H369.446ZM369.446 56.916C369.446 58.7595 368.88 60.3976 367.733 61.8637L369.308 63.0963C370.728 61.2811 371.446 59.2098 371.446 56.916H369.446ZM367.716 61.8856C366.618 63.3707 365.248 64.3858 363.592 64.959L364.246 66.849C366.3 66.1382 367.997 64.8706 369.325 63.0744L367.716 61.8856ZM362.98 66.2476L375.82 101.344L377.698 100.656L364.858 65.5604L362.98 66.2476ZM376.759 100H365.845V102H376.759V100ZM366.789 100.668L354.591 66.0001L352.704 66.6639L364.902 101.332L366.789 100.668ZM353.647 65.332H351.079V67.332H353.647V65.332ZM350.079 66.332V101H352.079V66.332H350.079ZM351.079 100H340.914V102H351.079V100ZM341.914 101V22.569H339.914V101H341.914ZM340.914 23.569H361.03V21.569H340.914V23.569ZM350.079 32.413V56.488H352.079V32.413H350.079ZM351.079 57.488H357.82V55.488H351.079V57.488ZM357.82 57.488C358.748 57.488 359.591 57.2018 360.239 56.5531L358.825 55.1389C358.618 55.3462 358.319 55.488 357.82 55.488V57.488ZM360.239 56.5531C360.928 55.8641 361.281 55.0025 361.281 54.027H359.281C359.281 54.4781 359.135 54.8292 358.825 55.1389L360.239 56.5531ZM361.281 54.027V34.874H359.281V54.027H361.281ZM361.281 34.874C361.281 33.8967 360.924 33.0382 360.183 32.4027L358.882 33.9213C359.139 34.1418 359.281 34.4246 359.281 34.874H361.281ZM360.292 32.5112C359.656 31.7698 358.798 31.413 357.82 31.413V33.413C358.27 33.413 358.553 33.5555 358.773 33.8128L360.292 32.5112ZM357.82 31.413H351.079V33.413H357.82V31.413Z" fill="white"/>
<path d="M404.739 10.2021V1.76685H413.843V10.2021H404.739Z" stroke="#70FF00"/>
<path d="M778 23V1H755L778 23Z" fill="#70FF00" stroke="black"/>
<path d="M757.417 92.6374L768.896 81.5182H777.604V119.477H757.417V92.6374Z" fill="#70FF00" stroke="black"/>
<path d="M778 77.6839V56.5958H772.854L769.688 59.6632V77.6839H778Z" fill="#70FF00" stroke="black"/>
<path d="M439.967 11.7357H423.343V38.5751L436.801 51.6114V60.43H448.675L451.842 57.3627V23.2383L439.967 11.7357Z" fill="#70FF00" stroke="black"/>
<path d="M423 8.25566V2.52751V1H495.109V4.81877L509.741 18.8482H514.023L499.468 4.81877V1H749.869L778 28.1133V53.699H771.661L766.51 58.6634V78.9029L753.039 91.8867V119H682.911L673.006 109.453L680.534 101.434V43.3884L676.571 45.6796V101.434L669.44 108.307H575.143L569.596 119H522.051H518.882H507.788L499.468 110.981H434.886V64.0097H449.15L456.281 57.1359V23.5307L440.433 8.25566H423Z" fill="#2E2E2E"/>
<path d="M572.964 119.477L577.714 111.808H669.545L677.065 119.477H572.964Z" fill="#70FF00" stroke="black"/>
<path d="M413.447 115.864H81.1079L74.6126 122.161H1V32.5623M396.127 2.53369H32M32 2.53369H18.3206L1 19.3234V32.5623M32 2.53369L1 32.5623" stroke="#70FF00"/>
<path d="M112.5 122.567H79L84 118.208H117L112.5 122.567Z" stroke="#70FF00"/>
<path d="M469.98 64.653C467.412 64.653 465.201 63.7257 463.346 61.871C461.491 60.0163 460.564 57.805 460.564 55.237V29.985C460.564 27.417 461.491 25.2057 463.346 23.351C465.201 21.4963 467.412 20.569 469.98 20.569H480.68C483.248 20.569 485.459 21.4963 487.314 23.351C489.169 25.2057 490.096 27.417 490.096 29.985V48.282H479.931V32.874C479.931 32.1607 479.681 31.59 479.182 31.162C478.754 30.6627 478.183 30.413 477.47 30.413H473.19C472.477 30.413 471.87 30.6627 471.371 31.162C470.943 31.59 470.729 32.1607 470.729 32.874V52.562C470.729 53.2753 470.943 53.8817 471.371 54.381C471.87 54.809 472.477 55.023 473.19 55.023H480.68C483.248 55.023 485.459 55.9503 487.314 57.805C489.169 59.6597 490.096 61.871 490.096 64.439V89.584C490.096 92.152 489.169 94.3633 487.314 96.218C485.459 98.0727 483.248 99 480.68 99H469.98C467.412 99 465.201 98.0727 463.346 96.218C461.491 94.3633 460.564 92.152 460.564 89.584V71.073H470.729V86.695C470.729 87.4083 470.943 88.0147 471.371 88.514C471.87 88.942 472.477 89.156 473.19 89.156H477.47C478.183 89.156 478.754 88.942 479.182 88.514C479.681 88.0147 479.931 87.4083 479.931 86.695V67.114C479.931 66.4007 479.681 65.83 479.182 65.402C478.754 64.9027 478.183 64.653 477.47 64.653H469.98ZM529.459 58.554L537.698 20.569H548.398V99H538.554V67.007L538.982 52.027H538.875L532.027 86.16H526.677L519.829 52.027H519.722L520.15 67.007V99H510.306V20.569H521.006L529.459 58.554ZM578.033 99C575.465 99 573.254 98.0727 571.399 96.218C569.545 94.3633 568.617 92.152 568.617 89.584V29.985C568.617 27.417 569.545 25.2057 571.399 23.351C573.254 21.4963 575.465 20.569 578.033 20.569H588.733C591.301 20.569 593.513 21.4963 595.367 23.351C597.222 25.2057 598.149 27.417 598.149 29.985V89.584C598.149 92.152 597.222 94.3633 595.367 96.218C593.513 98.0727 591.301 99 588.733 99H578.033ZM578.782 86.695C578.782 87.4083 578.996 88.0147 579.424 88.514C579.924 88.942 580.53 89.156 581.243 89.156H585.523C586.237 89.156 586.807 88.942 587.235 88.514C587.735 88.0147 587.984 87.4083 587.984 86.695V32.874C587.984 32.1607 587.735 31.59 587.235 31.162C586.807 30.6627 586.237 30.413 585.523 30.413H581.243C580.53 30.413 579.924 30.6627 579.424 31.162C578.996 31.59 578.782 32.1607 578.782 32.874V86.695ZM637.406 50.957L655.275 99H643.933L630.451 61.871L628.525 66.151V99H618.36V20.569H628.525V47.212L642.756 20.569H653.777L637.406 50.957ZM669.983 20.569H693.523V30.734H680.148V54.916H693.523V64.653H680.148V88.835H693.523V99H669.983V20.569ZM731.482 20.569C734.05 20.569 736.261 21.4963 738.116 23.351C739.971 25.2057 740.898 27.417 740.898 29.985V54.916C740.898 56.9847 740.256 58.8393 738.972 60.48C737.759 62.1207 736.226 63.262 734.371 63.904L747.211 99H736.297L724.099 64.332H721.531V99H711.366V20.569H731.482ZM721.531 30.413V54.488H728.272C728.985 54.488 729.556 54.274 729.984 53.846C730.483 53.3467 730.733 52.7403 730.733 52.027V32.874C730.733 32.1607 730.483 31.59 729.984 31.162C729.556 30.6627 728.985 30.413 728.272 30.413H721.531Z" fill="white"/>
</svg>
