<svg width="409" height="16" viewBox="0 0 409 16" fill="none" xmlns="http://www.w3.org/2000/svg">
<path d="M26.2766 9.86328C26.1496 9.86328 26.0617 9.93164 26.0227 10.0586L25.9836 10.0977C25.759 10.752 25.3195 11.2598 24.6652 11.6113C24.0207 11.9629 23.0832 12.1484 21.843 12.1582H9.07929C6.8039 12.1582 5.39765 11.4551 4.86054 10.0391C4.675 9.62891 4.57734 9.0332 4.57734 8.24219C4.57734 7.45117 4.675 6.8457 4.86054 6.43555C5.39765 5.03906 6.8039 4.33594 9.07929 4.33594H21.843C23.0637 4.33594 24.0012 4.52148 24.6359 4.89258C25.2805 5.25391 25.7395 5.77148 26.0031 6.43555V6.46484C26.0422 6.57227 26.1301 6.62109 26.257 6.62109H29.9973C30.1926 6.62109 30.3293 6.46484 30.3 6.2793C30.2121 5.78125 30.0852 5.35156 29.9191 4.98047C28.8449 2.25586 26.1496 0.917969 21.843 0.957031H15.4562C11.2082 0.957031 9.07929 0.957031 9.07929 0.957031C4.73359 0.908203 2.01875 2.24609 0.934763 4.98047C0.563669 5.85938 0.378122 6.94336 0.378122 8.24219C0.378122 9.54102 0.563669 10.625 0.934763 11.5039C2.01875 14.2285 4.73359 15.5664 9.07929 15.5176H15.4562H21.843C26.1594 15.5664 28.8547 14.248 29.9191 11.5625C30.0852 11.1719 30.2121 10.7129 30.3 10.1953C30.3293 10.0391 30.2023 9.86328 30.0168 9.86328H26.2766ZM55.9703 1.54297L46.3707 7.44141C46.3219 7.48047 46.2633 7.48047 46.1949 7.44141L36.6539 1.54297C36.5855 1.51367 36.5172 1.50391 36.4488 1.50391H32.1324C31.9469 1.50391 31.8199 1.5918 31.7613 1.76758C31.7125 1.93359 31.7613 2.07031 31.9273 2.17773L44.1734 10.1953C44.2223 10.2246 44.2516 10.2734 44.2516 10.3418V14.6191C44.2516 14.8242 44.4273 15 44.6324 15H47.9332C48.1383 15 48.3141 14.8242 48.3141 14.6191V10.3418C48.3141 10.2734 48.3434 10.2246 48.3922 10.1953L60.7555 2.17773C60.9117 2.07031 60.9605 1.93359 60.9117 1.76758C60.8629 1.5918 60.7359 1.50391 60.5504 1.50391H56.1754C56.107 1.50391 56.0387 1.51367 55.9703 1.54297ZM91.3672 4.04297C91.1816 3.56445 90.8887 3.125 90.4883 2.72461C90.1074 2.33398 89.6582 2.03125 89.1504 1.81641C88.6328 1.61133 87.9297 1.50391 87.0508 1.50391H64.6289C64.4238 1.50391 64.248 1.66992 64.248 1.85547V14.6191C64.248 14.8242 64.4238 15 64.6289 15H87.5098C88.3984 15 89.1113 14.8926 89.6289 14.6777C90.127 14.4629 90.5664 14.1602 90.9473 13.7793C91.3086 13.418 91.6113 12.9785 91.8555 12.4414C92.1777 11.6504 92.2266 10.8594 92.0215 10.0684C91.8164 9.26758 91.4355 8.64258 90.8887 8.20312C90.7324 8.05664 90.6934 7.8125 90.8496 7.65625C91.0742 7.40234 91.2598 7.09961 91.3965 6.75781C91.543 6.41602 91.6309 6.00586 91.6602 5.52734C91.6895 5.04883 91.5918 4.55078 91.3672 4.04297ZM86.6113 4.73633C87.168 4.73633 87.6465 5.11719 87.6465 5.69336C87.6465 6.26953 87.168 6.62109 86.6113 6.62109H68.4863C68.3691 6.61133 68.3105 6.55273 68.3105 6.43555V4.92188C68.3105 4.79492 68.3691 4.73633 68.4863 4.73633H86.6113ZM87.0703 11.7578H68.4863C68.3691 11.7578 68.3105 11.6992 68.3105 11.582V10.0586C68.3105 9.93164 68.3691 9.86328 68.4863 9.86328H87.0703C87.6562 9.86328 88.1348 10.2051 88.1348 10.8203C88.1348 11.377 87.627 11.7578 87.0703 11.7578ZM122.067 4.38477V1.88477C122.067 1.68945 121.891 1.52344 121.705 1.52344H95.8852C95.6801 1.52344 95.5043 1.69922 95.5043 1.88477V14.6387C95.5043 14.8633 95.6801 15.0195 95.8852 15.0195H121.705C121.901 15.0195 122.067 14.8438 122.067 14.6387V12.1582C122.067 11.9531 121.891 11.7773 121.705 11.7773H99.7523C99.6254 11.7773 99.5668 11.7188 99.5668 11.6016V10.0781C99.5766 9.95117 99.6352 9.88281 99.7523 9.88281H120.885C121.11 9.88281 121.266 9.70703 121.266 9.52148V7.02148C121.266 6.79688 121.09 6.64062 120.885 6.64062H99.7523C99.6254 6.64062 99.5668 6.58203 99.5668 6.46484V4.94141C99.5766 4.81445 99.6352 4.75586 99.7523 4.75586H121.705C121.901 4.75586 122.067 4.58984 122.067 4.38477ZM149.173 15H152.854C153.137 15 153.313 14.6973 153.186 14.4629L151.311 10.5957C151.565 10.4297 151.809 10.2246 152.034 10C152.483 9.54102 152.835 9.01367 153.089 8.41797C153.626 7.19727 153.626 5.76172 153.089 4.54102C152.581 3.33984 151.634 2.39258 150.432 1.88477C149.817 1.63086 149.163 1.50391 148.489 1.50391H126.048C125.843 1.50391 125.667 1.66992 125.667 1.85547V14.6191C125.667 14.8242 125.843 15 126.048 15H129.348C129.573 15 129.729 14.8242 129.729 14.6191V11.6602C129.729 11.5332 129.788 11.4648 129.905 11.4648H147.21L148.85 14.7754C148.919 14.9219 149.026 15 149.173 15ZM129.905 4.73633H147.649C148.128 4.73633 148.548 4.90234 148.889 5.23438C149.231 5.56641 149.407 5.9668 149.407 6.43555C149.417 6.93359 149.261 7.35352 148.919 7.70508C148.577 8.04688 148.167 8.22266 147.669 8.22266H129.905C129.788 8.21289 129.729 8.1543 129.729 8.03711V4.92188C129.729 4.79492 129.788 4.73633 129.905 4.73633ZM192.427 9.10156C191.968 8.24219 191.275 7.66602 190.445 7.31445C190.035 7.12891 189.517 6.99219 188.902 6.88477C188.287 6.77734 187.671 6.69922 187.066 6.65039C186.47 6.60156 185.718 6.57227 184.81 6.5625H178.423H172.007C171.822 6.55273 171.558 6.5332 171.226 6.52344C170.63 6.49414 170.191 6.47461 169.927 6.44531C169.664 6.41602 169.371 6.36719 169.068 6.30859C168.453 6.19141 168.306 5.9375 168.306 5.53711C168.306 5.08789 168.589 4.77539 169.166 4.58984C169.742 4.4043 170.709 4.31641 172.066 4.31641H184.849C187.027 4.32617 188.238 4.72656 188.492 5.49805C188.502 5.54688 188.521 5.5957 188.531 5.66406C188.56 5.84961 188.707 5.97656 188.892 5.97656H192.369C192.593 5.97656 192.75 5.80078 192.75 5.5957V5.53711C192.74 4.92188 192.623 4.375 192.408 3.89648C192.086 3.16406 191.548 2.57812 190.787 2.13867C189.586 1.44531 187.613 1.09375 184.849 1.08398H172.046C169.263 1.07422 167.271 1.42578 166.07 2.13867C165.308 2.57812 164.771 3.16406 164.449 3.89648C164.224 4.4043 164.107 5 164.107 5.68359C164.107 6.35742 164.224 6.93359 164.468 7.40234C164.898 8.22266 165.601 8.80859 166.412 9.16992C166.822 9.35547 167.33 9.49219 167.945 9.59961C168.56 9.70703 169.175 9.78516 169.771 9.83398C170.367 9.88281 171.119 9.91211 172.007 9.94141H178.423C182.681 9.94141 184.81 9.94141 184.81 9.94141C185.015 9.94141 185.289 9.95117 185.65 9.98047C186.265 10.0098 186.705 10.0293 186.968 10.0488C187.232 10.0684 187.515 10.1172 187.818 10.1855C188.414 10.3125 188.589 10.5371 188.589 10.9375C188.589 11.4062 188.306 11.7285 187.73 11.9043C187.154 12.0703 186.187 12.1582 184.83 12.1582H172.007C169.771 12.1484 168.56 11.7188 168.375 10.8789V10.8203C168.345 10.6348 168.179 10.4785 167.994 10.4785H164.527C164.322 10.4785 164.146 10.6543 164.146 10.8594V10.9375C164.156 11.5527 164.273 12.0996 164.488 12.5977C164.81 13.3301 165.347 13.916 166.109 14.3555C167.291 15.0488 169.263 15.4004 172.007 15.4004H184.849C187.632 15.3906 189.625 15.0488 190.826 14.3555C191.578 13.916 192.115 13.3301 192.447 12.5977C192.671 12.0801 192.789 11.4746 192.789 10.8008C192.789 10.127 192.671 9.56055 192.427 9.10156ZM222.297 1.60156L211.994 11.123C211.906 11.2012 211.818 11.2012 211.73 11.123L201.438 1.60156C201.369 1.5332 201.281 1.50391 201.193 1.50391H196.633C196.428 1.50391 196.252 1.66992 196.252 1.85547V14.6191C196.252 14.8242 196.428 15 196.633 15H199.934C200.158 15 200.314 14.8242 200.314 14.6191V6.41602C200.314 6.25977 200.51 6.17188 200.617 6.2793L209.973 14.9023C210.041 14.9707 210.129 15 210.236 15H213.518C213.605 15 213.693 14.9707 213.771 14.9023L223.117 6.2793C223.244 6.17188 223.439 6.25977 223.439 6.41602V14.6191C223.439 14.8242 223.605 15 223.811 15H227.111C227.336 15 227.492 14.8242 227.492 14.6191V1.85547C227.492 1.66992 227.316 1.50391 227.111 1.50391H222.551C222.463 1.50391 222.375 1.5332 222.297 1.60156ZM260.379 11.5625C260.75 10.6934 260.936 9.60938 260.936 8.30078C260.936 6.99219 260.75 5.88867 260.379 5C259.295 2.26562 256.58 0.927734 252.235 0.976562H245.877H239.5C235.174 0.9375 232.479 2.27539 231.395 5C231.024 5.87891 230.838 6.96289 230.838 8.26172C230.838 9.56055 231.024 10.6445 231.395 11.5234C232.479 14.2383 235.174 15.5762 239.481 15.5371H245.858H252.235C256.6 15.5957 259.315 14.2676 260.379 11.5625ZM256.463 6.46484C256.639 6.89453 256.727 7.50977 256.727 8.31055C256.727 9.10156 256.639 9.70703 256.463 10.1172C256.219 10.7715 255.77 11.2793 255.106 11.6309C254.452 11.9824 253.495 12.1582 252.235 12.1582H239.481C237.245 12.1582 235.858 11.4551 235.321 10.0586C235.135 9.64844 235.037 9.05273 235.037 8.26172C235.037 7.4707 235.135 6.875 235.321 6.46484C235.858 5.05859 237.245 4.35547 239.5 4.35547H252.235C253.495 4.35547 254.442 4.54102 255.086 4.91211C255.741 5.2832 256.2 5.80078 256.463 6.46484ZM286.391 15H292.7C292.905 15 293.032 14.9023 293.061 14.6973C293.1 14.4922 293.022 14.3555 292.837 14.2773L277.153 8.01758C276.997 7.93945 276.997 7.73438 277.153 7.65625L292.534 2.2168C292.739 2.14844 292.817 2.02148 292.778 1.81641C292.739 1.61133 292.622 1.50391 292.417 1.50391H285.718C285.659 1.50391 285.61 1.51367 285.571 1.52344L269.36 7.2168C269.243 7.26562 269.116 7.16797 269.116 7.04102V1.85547C269.116 1.66992 268.94 1.50391 268.735 1.50391H267.075H265.434C265.229 1.50391 265.054 1.66992 265.054 1.85547L265.073 14.6191C265.073 14.8242 265.249 15 265.454 15H268.755C268.94 15 269.116 14.8242 269.116 14.6191V10.6445C269.116 10.5469 269.155 10.4883 269.233 10.459L272.153 9.42383C272.212 9.41406 272.261 9.41406 272.3 9.44336L286.274 14.9805C286.313 14.9902 286.352 15 286.391 15ZM322.911 4.38477V1.88477C322.911 1.68945 322.736 1.52344 322.55 1.52344H296.73C296.525 1.52344 296.349 1.69922 296.349 1.88477V14.6387C296.349 14.8633 296.525 15.0195 296.73 15.0195H322.55C322.745 15.0195 322.911 14.8438 322.911 14.6387V12.1582C322.911 11.9531 322.736 11.7773 322.55 11.7773H300.597C300.47 11.7773 300.411 11.7188 300.411 11.6016V10.0781C300.421 9.95117 300.48 9.88281 300.597 9.88281H321.73C321.954 9.88281 322.111 9.70703 322.111 9.52148V7.02148C322.111 6.79688 321.935 6.64062 321.73 6.64062H300.597C300.47 6.64062 300.411 6.58203 300.411 6.46484V4.94141C300.421 4.81445 300.48 4.75586 300.597 4.75586H322.55C322.745 4.75586 322.911 4.58984 322.911 4.38477ZM350.017 15H353.699C353.982 15 354.158 14.6973 354.031 14.4629L352.156 10.5957C352.41 10.4297 352.654 10.2246 352.879 10C353.328 9.54102 353.679 9.01367 353.933 8.41797C354.47 7.19727 354.47 5.76172 353.933 4.54102C353.425 3.33984 352.478 2.39258 351.277 1.88477C350.662 1.63086 350.007 1.50391 349.334 1.50391H326.892C326.687 1.50391 326.511 1.66992 326.511 1.85547V14.6191C326.511 14.8242 326.687 15 326.892 15H330.193C330.418 15 330.574 14.8242 330.574 14.6191V11.6602C330.574 11.5332 330.632 11.4648 330.75 11.4648H348.054L349.695 14.7754C349.763 14.9219 349.871 15 350.017 15ZM330.75 4.73633H348.494C348.972 4.73633 349.392 4.90234 349.734 5.23438C350.076 5.56641 350.252 5.9668 350.252 6.43555C350.261 6.93359 350.105 7.35352 349.763 7.70508C349.422 8.04688 349.011 8.22266 348.513 8.22266H330.75C330.632 8.21289 330.574 8.1543 330.574 8.03711V4.92188C330.574 4.79492 330.632 4.73633 330.75 4.73633ZM377.237 1.48438H374.17C374.043 1.48438 373.946 1.5332 373.877 1.64062L364.795 14.4238C364.639 14.6582 364.795 15 365.118 15H368.174C368.301 15 368.399 14.9512 368.477 14.8438L377.539 2.08008C377.627 1.96289 377.637 1.83594 377.569 1.69922C377.5 1.55273 377.383 1.48438 377.237 1.48438ZM392.673 1.48438H389.606C389.479 1.48438 389.382 1.5332 389.313 1.64062L380.231 14.4238C380.075 14.6582 380.231 15 380.554 15H383.61C383.737 15 383.835 14.9512 383.913 14.8438L392.975 2.08008C393.063 1.96289 393.073 1.83594 393.005 1.69922C392.936 1.55273 392.819 1.48438 392.673 1.48438ZM408.109 1.48438H405.042C404.915 1.48438 404.818 1.5332 404.749 1.64062L395.667 14.4238C395.511 14.6582 395.667 15 395.989 15H399.046C399.173 15 399.271 14.9512 399.349 14.8438L408.411 2.08008C408.499 1.96289 408.509 1.83594 408.441 1.69922C408.372 1.55273 408.255 1.48438 408.109 1.48438Z" fill="#0F0F0F"/>
</svg>
