<svg width="50" height="441" viewBox="0 0 50 441" fill="none" xmlns="http://www.w3.org/2000/svg">
<path d="M50 0.500153H48.25V3.50015H50V0.500153ZM44.75 0.500153H41.25V3.50015H44.75V0.500153ZM37.75 0.500153H34.25V3.50015H37.75V0.500153ZM30.75 0.500153H27.25V3.50015H30.75V0.500153ZM23.75 0.500153H22V3.50015H23.75V0.500153ZM22 0.500153C21.2339 0.500153 20.4838 0.575287 19.7573 0.719025L20.3395 3.66199C20.8753 3.55597 21.4304 3.50015 22 3.50015V0.500153ZM15.6094 2.43805C14.3559 3.27722 13.2771 4.35608 12.4379 5.60953L14.9308 7.27847C15.5518 6.35089 16.3507 5.55197 17.2783 4.93097L15.6094 2.43805ZM10.7189 9.75745C10.5751 10.484 10.5 11.234 10.5 12.0002H13.5C13.5 11.4306 13.5558 10.8755 13.6618 10.3397L10.7189 9.75745ZM10.5 12.0002V13.9946H13.5V12.0002H10.5ZM10.5 17.9835V21.9724H13.5V17.9835H10.5ZM10.5 25.9613V29.9503H13.5V25.9613H10.5ZM10.5 33.9391V37.9281H13.5V33.9391H10.5ZM10.5 41.917V45.9059H13.5V41.917H10.5ZM10.5 49.8948V53.8837H13.5V49.8948H10.5ZM10.5 57.8726V61.8615H13.5V57.8726H10.5ZM10.5 65.8504V69.8393H13.5V65.8504H10.5ZM10.5 73.8282V77.8171H13.5V73.8282H10.5ZM10.5 81.806V85.795H13.5V81.806H10.5ZM10.5 89.7838V93.7728H13.5V89.7838H10.5ZM10.5 97.7617L10.5 101.751H13.5L13.5 97.7617H10.5ZM10.5 105.739V109.728H13.5V105.739H10.5ZM10.5 113.717V117.706H13.5V113.717H10.5ZM10.5 121.695V125.684H13.5V121.695H10.5ZM10.5 129.673V133.662H13.5V129.673H10.5ZM10.5 137.651V141.64H13.5V137.651H10.5ZM10.5 145.629V149.617H13.5V145.629H10.5ZM10.5 153.606L10.5 157.595H13.5L13.5 153.606H10.5ZM10.5 161.584V165.573H13.5V161.584H10.5ZM10.5 169.562V173.551H13.5V169.562H10.5ZM10.5 177.54V181.529H13.5V177.54H10.5ZM10.5 185.518V189.507H13.5V185.518H10.5ZM10.5 193.495V197.484H13.5V193.495H10.5ZM10.5 201.473V205.462H13.5V201.473H10.5ZM10.5 209.451V213.44H13.5V209.451H10.5ZM10.5 217.429V221.418H13.5V217.429H10.5ZM10.5 225.407V229.396H13.5V225.407H10.5ZM10.5 233.384V237.373H13.5V233.384H10.5ZM10.5 241.362V245.351H13.5V241.362H10.5ZM10.5 249.34V253.329H13.5V249.34H10.5ZM10.5 257.318V261.307H13.5V257.318H10.5ZM10.5 265.296V269.285H13.5V265.296H10.5ZM10.5 273.274L10.5 277.262H13.5L13.5 273.274H10.5ZM10.5 281.251V285.24H13.5V281.251H10.5ZM10.5 289.229V293.218H13.5V289.229H10.5ZM10.5 297.207V301.196H13.5V297.207H10.5ZM10.5 305.185V309.174H13.5V305.185H10.5ZM10.5 313.162V317.151H13.5V313.162H10.5ZM10.5 321.14V325.129H13.5V321.14H10.5ZM10.5 329.118L10.5 333.107H13.5L13.5 329.118H10.5ZM10.5 337.096V341.085H13.5V337.096H10.5ZM10.5 345.074V349.062H13.5V345.074H10.5ZM10.5 353.051V357.04H13.5V353.051H10.5ZM10.5 361.029V365.018H13.5V361.029H10.5ZM10.5 369.007V372.996H13.5V369.007H10.5ZM10.5 376.985V380.974H13.5V376.985H10.5ZM10.5 384.962V388.951H13.5V384.962H10.5ZM10.5 392.94V396.929H13.5V392.94H10.5ZM10.5 400.918V404.907H13.5V400.918H10.5ZM10.5 408.896V412.885H13.5V408.896H10.5ZM10.5 416.874V418.869H13.5V416.874H10.5Z" fill="white"/>
<path d="M22.5 429.5C22.5 435.299 17.799 440 12 440C6.20101 440 1.5 435.299 1.5 429.5C1.5 423.701 6.20101 419 12 419C17.799 419 22.5 423.701 22.5 429.5Z" stroke="white" stroke-width="2"/>
</svg>
