<svg width="50" height="375" viewBox="0 0 50 375" fill="none" xmlns="http://www.w3.org/2000/svg">
<path d="M22 363C22 368.799 17.299 373.5 11.5 373.5C5.70101 373.5 1 368.799 1 363C1 357.201 5.70101 352.5 11.5 352.5C17.299 352.5 22 357.201 22 363Z" stroke="white" stroke-width="2"/>
<path d="M7.5 363.182L10.682 366.364L17.0459 360" stroke="white" stroke-width="2" stroke-linecap="round" stroke-linejoin="round"/>
<path d="M10 351V352.5H13V351H10ZM49.5 0.5H47.75V3.5H49.5V0.5ZM44.25 0.5H40.75V3.5H44.25V0.5ZM37.25 0.5H33.75V3.5H37.25V0.5ZM30.25 0.5H26.75V3.5H30.25V0.5ZM23.25 0.5H21.5V3.5H23.25V0.5ZM21.5 0.5C20.7339 0.5 19.9838 0.575123 19.2573 0.718859L19.8395 3.66182C20.3753 3.55582 20.9304 3.5 21.5 3.5V0.5ZM15.1094 2.43789C13.8559 3.27705 12.7771 4.35592 11.9379 5.60936L14.4308 7.27832C15.0518 6.35074 15.8507 5.5518 16.7783 4.9308L15.1094 2.43789ZM10.2189 9.75728C10.0751 10.4838 10 11.2339 10 12H13C13 11.4304 13.0558 10.8753 13.1618 10.3395L10.2189 9.75728ZM10 12V14.0179H13V12H10ZM10 18.0536V22.0893H13V18.0536H10ZM10 26.125V30.1607H13V26.125H10ZM10 34.1964V38.2321H13V34.1964H10ZM10 42.2679V46.3036H13V42.2679H10ZM10 50.3393V54.375H13V50.3393H10ZM10 58.4107V62.4464H13V58.4107H10ZM10 66.4821V70.5178H13V66.4821H10ZM10 74.5536V78.5893H13V74.5536H10ZM10 82.625V86.6607H13V82.625H10ZM10 90.6964V94.7321H13V90.6964H10ZM10 98.7678V102.804H13V98.7678H10ZM10 106.839V110.875H13V106.839H10ZM10 114.911V118.946H13V114.911H10ZM10 122.982V127.018H13V122.982H10ZM10 131.054V135.089H13V131.054H10ZM10 139.125V143.161H13V139.125H10ZM10 147.196L10 151.232H13L13 147.196H10ZM10 155.268V159.304H13V155.268H10ZM10 163.339V167.375H13V163.339H10ZM10 171.411V175.446H13V171.411H10ZM10 179.482V183.518H13V179.482H10ZM10 187.554V191.589H13V187.554H10ZM10 195.625V199.661H13V195.625H10ZM10 203.697L10 207.732H13L13 203.697H10ZM10 211.768V215.804H13V211.768H10ZM10 219.839V223.875H13V219.839H10ZM10 227.911V231.947H13V227.911H10ZM10 235.982V240.018H13V235.982H10ZM10 244.054V248.089H13V244.054H10ZM10 252.125V256.161H13V252.125H10ZM10 260.197L10 264.232H13L13 260.197H10ZM10 268.268V272.304H13V268.268H10ZM10 276.339V280.375H13V276.339H10ZM10 284.411V288.447H13V284.411H10ZM10 292.482V296.518H13V292.482H10ZM10 300.554V304.589H13V300.554H10ZM10 308.625V312.661H13V308.625H10ZM10 316.696V320.732H13V316.696H10ZM10 324.768V328.804H13V324.768H10ZM10 332.839V336.875H13V332.839H10ZM10 340.911V344.946H13V340.911H10ZM10 348.982V351H13V348.982H10Z" fill="white"/>
</svg>
