<svg width="49" height="378" viewBox="0 0 49 378" fill="none" xmlns="http://www.w3.org/2000/svg">
<path d="M9.5 351V352.5H12.5V351H9.5ZM49 0.5H47.25V3.5H49V0.5ZM43.75 0.5H40.25V3.5H43.75V0.5ZM36.75 0.5H33.25V3.5H36.75V0.5ZM29.75 0.5H26.25V3.5H29.75V0.5ZM22.75 0.5H21V3.5H22.75V0.5ZM21 0.5C20.2339 0.5 19.4838 0.575123 18.7573 0.718859L19.3395 3.66182C19.8753 3.55582 20.4304 3.5 21 3.5V0.5ZM14.6094 2.43789C13.3559 3.27705 12.2771 4.35592 11.4379 5.60936L13.9308 7.27832C14.5518 6.35074 15.3507 5.5518 16.2783 4.9308L14.6094 2.43789ZM9.71886 9.75728C9.57512 10.4838 9.5 11.2339 9.5 12H12.5C12.5 11.4304 12.5558 10.8753 12.6618 10.3395L9.71886 9.75728ZM9.5 12V14.0179H12.5V12H9.5ZM9.5 18.0536V22.0893H12.5V18.0536H9.5ZM9.5 26.125V30.1607H12.5V26.125H9.5ZM9.5 34.1964V38.2321H12.5V34.1964H9.5ZM9.5 42.2679V46.3036H12.5V42.2679H9.5ZM9.5 50.3393V54.375H12.5V50.3393H9.5ZM9.5 58.4107V62.4464H12.5V58.4107H9.5ZM9.5 66.4821V70.5178H12.5V66.4821H9.5ZM9.5 74.5536V78.5893H12.5V74.5536H9.5ZM9.5 82.625V86.6607H12.5V82.625H9.5ZM9.5 90.6964V94.7321H12.5V90.6964H9.5ZM9.5 98.7678V102.804H12.5V98.7678H9.5ZM9.5 106.839V110.875H12.5V106.839H9.5ZM9.5 114.911V118.946H12.5V114.911H9.5ZM9.5 122.982V127.018H12.5V122.982H9.5ZM9.5 131.054V135.089H12.5V131.054H9.5ZM9.5 139.125V143.161H12.5V139.125H9.5ZM9.5 147.196L9.5 151.232H12.5L12.5 147.196H9.5ZM9.5 155.268V159.304H12.5V155.268H9.5ZM9.5 163.339V167.375H12.5V163.339H9.5ZM9.5 171.411V175.446H12.5V171.411H9.5ZM9.5 179.482V183.518H12.5V179.482H9.5ZM9.5 187.554V191.589H12.5V187.554H9.5ZM9.5 195.625V199.661H12.5V195.625H9.5ZM9.5 203.697L9.5 207.732H12.5L12.5 203.697H9.5ZM9.5 211.768V215.804H12.5V211.768H9.5ZM9.5 219.839V223.875H12.5V219.839H9.5ZM9.5 227.911V231.947H12.5V227.911H9.5ZM9.5 235.982V240.018H12.5V235.982H9.5ZM9.5 244.054V248.089H12.5V244.054H9.5ZM9.5 252.125V256.161H12.5V252.125H9.5ZM9.5 260.197L9.5 264.232H12.5L12.5 260.197H9.5ZM9.5 268.268V272.304H12.5V268.268H9.5ZM9.5 276.339V280.375H12.5V276.339H9.5ZM9.5 284.411V288.447H12.5V284.411H9.5ZM9.5 292.482V296.518H12.5V292.482H9.5ZM9.5 300.554V304.589H12.5V300.554H9.5ZM9.5 308.625V312.661H12.5V308.625H9.5ZM9.5 316.696V320.732H12.5V316.696H9.5ZM9.5 324.768V328.804H12.5V324.768H9.5ZM9.5 332.839V336.875H12.5V332.839H9.5ZM9.5 340.911V344.946H12.5V340.911H9.5ZM9.5 348.982V351H12.5V348.982H9.5Z" fill="white"/>
<circle cx="11.5" cy="366.5" r="10.5" stroke="white" stroke-width="2"/>
<path d="M6.5 366L9.68198 369.182L16.0459 362.818" stroke="white" stroke-width="2" stroke-linecap="round" stroke-linejoin="round"/>
</svg>
