<svg width="49" height="373" viewBox="0 0 49 373" fill="none" xmlns="http://www.w3.org/2000/svg">
<path d="M49 0.5H47.25V3.5H49V0.5ZM43.75 0.5H40.25V3.5H43.75V0.5ZM36.75 0.5H33.25V3.5H36.75V0.5ZM29.75 0.5H26.25V3.5H29.75V0.5ZM22.75 0.5H21V3.5H22.75V0.5ZM21 0.5C20.2339 0.5 19.4838 0.575123 18.7573 0.718859L19.3395 3.66182C19.8753 3.55582 20.4304 3.5 21 3.5V0.5ZM14.6094 2.43789C13.3559 3.27705 12.2771 4.35592 11.4379 5.60936L13.9308 7.27832C14.5518 6.35074 15.3507 5.5518 16.2783 4.9308L14.6094 2.43789ZM9.71886 9.75728C9.57512 10.4838 9.5 11.2339 9.5 12H12.5C12.5 11.4304 12.5558 10.8753 12.6618 10.3395L9.71886 9.75728ZM9.5 12V13.9821H12.5V12H9.5ZM9.5 17.9464V21.9107H12.5V17.9464H9.5ZM9.5 25.875V29.8393H12.5V25.875H9.5ZM9.5 33.8036V37.7679H12.5V33.8036H9.5ZM9.5 41.7321V45.6964H12.5V41.7321H9.5ZM9.5 49.6607V53.625H12.5V49.6607H9.5ZM9.5 57.5893V61.5536H12.5V57.5893H9.5ZM9.5 65.5179V69.4821H12.5V65.5179H9.5ZM9.5 73.4464V77.4107H12.5V73.4464H9.5ZM9.5 81.375L9.5 85.3393H12.5L12.5 81.375H9.5ZM9.5 89.3036V93.2679H12.5V89.3036H9.5ZM9.5 97.2322V101.196H12.5V97.2322H9.5ZM9.5 105.161V109.125H12.5V105.161H9.5ZM9.5 113.089V117.054H12.5V113.089H9.5ZM9.5 121.018V124.982H12.5V121.018H9.5ZM9.5 128.946V132.911H12.5V128.946H9.5ZM9.5 136.875V140.839H12.5V136.875H9.5ZM9.5 144.804V148.768H12.5V144.804H9.5ZM9.5 152.732V156.696H12.5V152.732H9.5ZM9.5 160.661V164.625H12.5V160.661H9.5ZM9.5 168.589V172.554H12.5V168.589H9.5ZM9.5 176.518V180.482H12.5V176.518H9.5ZM9.5 184.446V188.411H12.5V184.446H9.5ZM9.5 192.375V196.339H12.5V192.375H9.5ZM9.5 200.303V204.268H12.5V200.303H9.5ZM9.5 208.232V212.196H12.5V208.232H9.5ZM9.5 216.161V220.125H12.5V216.161H9.5ZM9.5 224.089V228.053H12.5V224.089H9.5ZM9.5 232.018V235.982H12.5V232.018H9.5ZM9.5 239.946V243.911H12.5V239.946H9.5ZM9.5 247.875V251.839H12.5V247.875H9.5ZM9.5 255.803L9.5 259.768H12.5L12.5 255.803H9.5ZM9.5 263.732V267.696H12.5V263.732H9.5ZM9.5 271.661V275.625H12.5V271.661H9.5ZM9.5 279.589V283.553H12.5V279.589H9.5ZM9.5 287.518V291.482H12.5V287.518H9.5ZM9.5 295.446V299.411H12.5V295.446H9.5ZM9.5 303.375V307.339H12.5V303.375H9.5ZM9.5 311.303V315.268H12.5V311.303H9.5ZM9.5 319.232V323.196H12.5V319.232H9.5ZM9.5 327.161V331.125H12.5V327.161H9.5ZM9.5 335.089V339.054H12.5V335.089H9.5ZM9.5 343.018V345H12.5V343.018H9.5Z" fill="white"/>
<path d="M22 360.523C22 366.337 17.2971 371.046 11.5 371.046C5.7029 371.046 1 366.337 1 360.523C1 354.709 5.7029 350 11.5 350C17.2971 350 22 354.709 22 360.523Z" stroke="white" stroke-width="2"/>
</svg>
