<svg width="49" height="366" viewBox="0 0 49 366" fill="none" xmlns="http://www.w3.org/2000/svg">
<path d="M49 0.5H47.25V3.5H49V0.5ZM43.75 0.5H40.25V3.5H43.75V0.5ZM36.75 0.5H33.25V3.5H36.75V0.5ZM29.75 0.5H26.25V3.5H29.75V0.5ZM22.75 0.5H21V3.5H22.75V0.5ZM21 0.5C20.2339 0.5 19.4838 0.575123 18.7573 0.718859L19.3395 3.66182C19.8753 3.55582 20.4304 3.5 21 3.5V0.5ZM14.6094 2.43789C13.3559 3.27705 12.2771 4.35592 11.4379 5.60936L13.9308 7.27832C14.5518 6.35074 15.3507 5.5518 16.2783 4.9308L14.6094 2.43789ZM9.71886 9.75728C9.57512 10.4838 9.5 11.2339 9.5 12H12.5C12.5 11.4304 12.5558 10.8753 12.6618 10.3395L9.71886 9.75728ZM9.5 12V13.9939H12.5V12H9.5ZM9.5 17.9817L9.5 21.9695H12.5L12.5 17.9817H9.5ZM9.5 25.9573V29.9451H12.5V25.9573H9.5ZM9.5 33.9329V37.9207H12.5V33.9329H9.5ZM9.5 41.9085V45.8963H12.5V41.9085H9.5ZM9.5 49.8841V53.872H12.5V49.8841H9.5ZM9.5 57.8598V61.8476H12.5V57.8598H9.5ZM9.5 65.8354V69.8232H12.5V65.8354H9.5ZM9.5 73.811L9.5 77.7988H12.5L12.5 73.811H9.5ZM9.5 81.7866V85.7744H12.5V81.7866H9.5ZM9.5 89.7622V93.75H12.5V89.7622H9.5ZM9.5 97.7378V101.726H12.5V97.7378H9.5ZM9.5 105.713V109.701H12.5V105.713H9.5ZM9.5 113.689V117.677H12.5V113.689H9.5ZM9.5 121.665V125.652H12.5V121.665H9.5ZM9.5 129.64V133.628H12.5V129.64H9.5ZM9.5 137.616V141.604H12.5V137.616H9.5ZM9.5 145.592V149.579H12.5V145.592H9.5ZM9.5 153.567V157.555H12.5V153.567H9.5ZM9.5 161.543V165.531H12.5V161.543H9.5ZM9.5 169.518V173.506H12.5V169.518H9.5ZM9.5 177.494V181.482H12.5V177.494H9.5ZM9.5 185.47V189.457H12.5V185.47H9.5ZM9.5 193.445L9.5 197.433H12.5L12.5 193.445H9.5ZM9.5 201.421V205.409H12.5V201.421H9.5ZM9.5 209.396V213.384H12.5V209.396H9.5ZM9.5 217.372V221.36H12.5V217.372H9.5ZM9.5 225.348V229.335H12.5V225.348H9.5ZM9.5 233.323V237.311H12.5V233.323H9.5ZM9.5 241.299V245.287H12.5V241.299H9.5ZM9.5 249.275L9.5 253.262H12.5L12.5 249.275H9.5ZM9.5 257.25V261.238H12.5V257.25H9.5ZM9.5 265.226V269.214H12.5V265.226H9.5ZM9.5 273.201V277.189H12.5V273.201H9.5ZM9.5 281.177V285.165H12.5V281.177H9.5ZM9.5 289.153V293.14H12.5V289.153H9.5ZM9.5 297.128V301.116H12.5V297.128H9.5ZM9.5 305.104V309.091H12.5V305.104H9.5ZM9.5 313.079V317.067H12.5V313.079H9.5ZM9.5 321.055V325.043H12.5V321.055H9.5ZM9.5 329.03V333.018H12.5V329.03H9.5ZM9.5 337.006V339H12.5V337.006H9.5Z" fill="white"/>
<path d="M22 353.524C22 359.338 17.297 364.048 11.5 364.048C5.70298 364.048 1 359.338 1 353.524C1 347.71 5.70298 343 11.5 343C17.297 343 22 347.71 22 353.524Z" stroke="white" stroke-width="2"/>
</svg>
