<svg width="50" height="462" viewBox="0 0 50 462" fill="none" xmlns="http://www.w3.org/2000/svg">
<circle cx="12" cy="450" r="11" stroke="white" stroke-width="2"/>
<path d="M50 0.499779H48.25V3.49978H50L50 0.499779ZM44.75 0.499779H41.25V3.49978H44.75V0.499779ZM37.75 0.499779H34.25V3.49978H37.75V0.499779ZM30.75 0.499779H27.25V3.49978H30.75V0.499779ZM23.75 0.499779H22V3.49978H23.75V0.499779ZM22 0.499779C21.2339 0.499779 20.4838 0.574903 19.7573 0.718638L20.3395 3.6616C20.8753 3.55559 21.4304 3.49978 22 3.49978V0.499779ZM15.6094 2.43767C14.3559 3.27683 13.2771 4.3557 12.4379 5.60914L14.9308 7.2781C15.5518 6.35052 16.3507 5.55158 17.2783 4.93058L15.6094 2.43767ZM10.7189 9.75706C10.5751 10.4836 10.5 11.2337 10.5 11.9998H13.5C13.5 11.4302 13.5558 10.8751 13.6618 10.3393L10.7189 9.75706ZM10.5 11.9998V14.0133H13.5V11.9998H10.5ZM10.5 18.0404V22.0676H13.5V18.0404H10.5ZM10.5 26.0947V30.1218H13.5V26.0947H10.5ZM10.5 34.1489V38.176H13.5V34.1489H10.5ZM10.5 42.2031V46.2302H13.5V42.2031H10.5ZM10.5 50.2573V54.2844H13.5V50.2573H10.5ZM10.5 58.3116L10.5 62.3387H13.5L13.5 58.3116H10.5ZM10.5 66.3658V70.3929H13.5V66.3658H10.5ZM10.5 74.42V78.4471H13.5V74.42H10.5ZM10.5 82.4742V86.5013H13.5V82.4742H10.5ZM10.5 90.5285V94.5556H13.5V90.5285H10.5ZM10.5 98.5827V102.61H13.5V98.5827H10.5ZM10.5 106.637V110.664H13.5V106.637H10.5ZM10.5 114.691V118.718H13.5V114.691H10.5ZM10.5 122.745V126.772H13.5V122.745H10.5ZM10.5 130.8V134.827H13.5V130.8H10.5ZM10.5 138.854V142.881H13.5V138.854H10.5ZM10.5 146.908V150.935H13.5V146.908H10.5ZM10.5 154.962V158.989H13.5V154.962H10.5ZM10.5 163.017V167.044H13.5V163.017H10.5ZM10.5 171.071V175.098H13.5V171.071H10.5ZM10.5 179.125V183.152H13.5V179.125H10.5ZM10.5 187.179V191.206H13.5V187.179H10.5ZM10.5 195.233V199.261H13.5V195.233H10.5ZM10.5 203.288V207.315H13.5V203.288H10.5ZM10.5 211.342V215.369H13.5V211.342H10.5ZM10.5 219.396V223.423H13.5V219.396H10.5ZM10.5 227.45V231.477H13.5V227.45H10.5ZM10.5 235.505V239.532H13.5V235.505H10.5ZM10.5 243.559V247.586H13.5V243.559H10.5ZM10.5 251.613V255.64H13.5V251.613H10.5ZM10.5 259.667V263.694H13.5V259.667H10.5ZM10.5 267.721V271.749H13.5V267.721H10.5ZM10.5 275.776V279.803H13.5V275.776H10.5ZM10.5 283.83V287.857H13.5V283.83H10.5ZM10.5 291.884L10.5 295.911H13.5L13.5 291.884H10.5ZM10.5 299.938V303.965H13.5V299.938H10.5ZM10.5 307.993V312.02H13.5V307.993H10.5ZM10.5 316.047V320.074H13.5V316.047H10.5ZM10.5 324.101V328.128H13.5V324.101H10.5ZM10.5 332.155V336.182H13.5V332.155H10.5ZM10.5 340.209V344.236H13.5V340.209H10.5ZM10.5 348.264L10.5 352.291H13.5L13.5 348.264H10.5ZM10.5 356.318V360.345H13.5V356.318H10.5ZM10.5 364.372V368.399H13.5V364.372H10.5ZM10.5 372.426V376.453H13.5V372.426H10.5ZM10.5 380.48V384.507H13.5V380.48H10.5ZM10.5 388.535V392.562H13.5V388.535H10.5ZM10.5 396.589V400.616H13.5V396.589H10.5ZM10.5 404.643V408.67H13.5V404.643H10.5ZM10.5 412.697V416.724H13.5V412.697H10.5ZM10.5 420.751V424.778H13.5V420.751H10.5ZM10.5 428.806V432.833H13.5V428.806H10.5ZM10.5 436.86V438.874H13.5V436.86H10.5Z" fill="white"/>
</svg>
