<svg width="1793" height="799" viewBox="0 0 1793 799" fill="none" xmlns="http://www.w3.org/2000/svg">
<path fill-rule="evenodd" clip-rule="evenodd" d="M1423.5 3.00001V1.79291L1422.65 2.64646L1176.65 248.646L1175.79 249.5H1177H1229H1229.21L1229.35 249.354L1423.35 55.3536L1423.5 55.2071V55V3.00001ZM1228.79 248.5H1178.21L1422.5 4.20711V54.7929L1228.79 248.5ZM1469 532.5H1467.79L1468.65 533.354L1524.65 589.354L1524.79 589.5H1525H1544.79L1630.5 676.205V726.5H1271H1269.79L1270.65 727.354L1341.65 798.354L1341.79 798.5H1342H1697H1697.5V798V650V649.793L1697.35 649.646L1677.35 629.646L1677.21 629.5H1677H1646.21L1575.36 557.649L1575.21 557.5H1575H1540.2L1514.35 532.64L1514.2 532.5H1514H1469ZM1525.21 588.5L1470.21 533.5H1513.8L1539.65 558.36L1539.8 558.5H1540H1574.79L1645.64 630.351L1645.79 630.5H1646H1676.79L1696.5 650.207V797.5H1342.21L1272.21 727.5H1631H1631.5V727V676V675.795L1631.36 675.648L1545.36 588.648L1545.21 588.5H1545H1525.21ZM1792 55V3.00002L1546 249H1598L1792 55ZM1418.5 84V82.7883L1417.65 83.6474L1233.79 268.5H1215H1214.79L1214.65 268.645L1114.65 367.645L1114.5 367.791V368V420V421.233L1115.36 420.348L1418.36 108.348L1418.5 108.203V108V84ZM1234.35 269.353L1417.5 85.2117V107.797L1115.5 418.767V368.209L1215.21 269.5H1234H1234.21L1234.35 269.353ZM1158 263.5H1157.79L1157.65 263.646L627.646 793.646L626.793 794.5H628H694H694.207L694.353 794.354L765.207 723.5H812H812.204L812.35 723.357L860.204 676.5H917H917.5V676V609.207L1096.35 430.354L1096.5 430.207V430V363.209L1196.35 264.355L1197.22 263.5H1196H1158ZM629.207 793.5L1158.21 264.5H1194.78L1095.65 362.645L1095.5 362.791V363V429.793L916.646 608.646L916.5 608.793V609V675.5H860H859.796L859.65 675.643L811.796 722.5H765H764.793L764.646 722.646L693.793 793.5H629.207ZM1787.5 86.7883V88V112V112.203L1787.36 112.348L1484.36 424.348L1483.5 425.233V424V372V371.791L1483.65 371.645L1583.65 272.645L1583.79 272.5H1584H1602.79L1786.65 87.6474L1787.5 86.7883ZM1786.5 89.2117L1603.35 273.353L1603.21 273.5H1603H1584.21L1484.5 372.209V422.767L1786.5 111.797V89.2117ZM1526.79 267.5H1527H1565H1566.22L1565.35 268.355L1465.5 367.209V434V434.207L1465.35 434.354L1286.5 613.207V680V680.5H1286H1229.2L1181.35 727.357L1181.2 727.5H1181H1134.21L1063.35 798.354L1063.21 798.5H1063H997H995.793L996.646 797.646L1526.65 267.646L1526.79 267.5ZM1527.21 268.5L998.207 797.5H1062.79L1133.65 726.646L1133.79 726.5H1134H1180.8L1228.65 679.643L1228.8 679.5H1229H1285.5V613V612.793L1285.65 612.646L1464.5 433.793V367V366.791L1464.65 366.645L1563.78 268.5H1527.21ZM533.5 638V636.793L532.646 637.646L447.793 722.5H2.99999H1.85254L2.63378 723.34L68.6338 794.34L68.7821 794.5H69H481H481.207L481.354 794.354L533.354 742.354L533.5 742.207V742V638ZM448.354 723.354L532.5 639.207V741.793L480.793 793.5H69.2179L4.14744 723.5H448H448.207L448.354 723.354ZM313.793 286.5H315H377H377.208L377.354 286.647L632.354 542.647L632.706 543.001L632.354 543.354L580.354 595.354L580 595.707L579.646 595.354L404.646 420.354L404.5 420.207V420V377.207L314.646 287.354L313.793 286.5ZM316.207 287.5L405.354 376.646L405.5 376.793V377V419.793L580 594.293L631.294 542.999L376.792 287.5H316.207ZM693.5 69V67.7929L694.353 68.6465L784.207 158.5H827H827.207L827.353 158.646L1002.35 333.646L1002.71 334L1002.35 334.354L950.353 386.354L950.001 386.706L949.647 386.354L693.647 131.354L693.5 131.208V131V69ZM783.646 159.354L694.5 70.2071V130.792L949.999 385.294L1001.29 334L826.793 159.5H784H783.793L783.646 159.354ZM260.793 68.5H261H552H552.5V69V157V157.5H552H299.209L91.5 367.206V532.793L140.354 581.646L140.5 581.793V582V665V665.5H140H3H2.5V665V384V383.794L2.64451 383.648L183.5 200.795V146V145.793L183.646 145.646L260.646 68.6464L260.793 68.5ZM261.207 69.5L184.5 146.207V201V201.206L184.355 201.352L3.5 384.205V664.5H139.5V582.207L90.6464 533.354L90.5 533.207V533V367V366.794L90.6448 366.648L298.645 156.648L298.792 156.5H299H551.5V69.5H261.207ZM150 193L3 340V302L150 155V164V169V193ZM382.5 416.286V415V410V407V394V393.806L382.369 393.662L306.369 310.662L305.5 309.714V311V332V332.194L305.631 332.338L381.631 415.338L382.5 416.286ZM381.5 410V413.714L306.5 331.806V312.286L381.5 394.194V407V410ZM728.207 60.962L807.906 140.425L786.925 139.531L707.226 60.0685L712.221 60.2812L715.218 60.4089L728.207 60.962Z" fill="white" fill-opacity="0.1"/>
<path d="M1423.5 1.79291H1424V0.585763L1423.15 1.43936L1423.5 1.79291ZM1422.65 2.64646L1423 3.00001V3.00001L1422.65 2.64646ZM1176.65 248.646L1177 249V249L1176.65 248.646ZM1175.79 249.5L1175.44 249.146L1174.59 250H1175.79V249.5ZM1229.21 249.5V250H1229.41L1229.56 249.853L1229.21 249.5ZM1229.35 249.354L1229 249L1229 249L1229.35 249.354ZM1423.35 55.3536L1423 55V55L1423.35 55.3536ZM1423.5 55.2071L1423.85 55.5607L1424 55.4143V55.2071H1423.5ZM1178.21 248.5L1177.85 248.146L1177 249H1178.21V248.5ZM1228.79 248.5V249H1229L1229.15 248.854L1228.79 248.5ZM1422.5 4.20711H1423V3.00001L1422.15 3.85356L1422.5 4.20711ZM1422.5 54.7929L1422.85 55.1465L1423 55V54.7929H1422.5ZM1467.79 532.5V532H1466.59L1467.44 532.854L1467.79 532.5ZM1468.65 533.354L1469 533L1468.65 533.354ZM1524.65 589.354L1525 589L1525 589L1524.65 589.354ZM1524.79 589.5L1524.44 589.853L1524.59 590H1524.79V589.5ZM1544.79 589.5L1545.15 589.148L1545 589H1544.79V589.5ZM1630.5 676.205H1631V676L1630.86 675.854L1630.5 676.205ZM1630.5 726.5V727H1631V726.5H1630.5ZM1269.79 726.5V726H1268.59L1269.44 726.854L1269.79 726.5ZM1270.65 727.354L1271 727L1270.65 727.354ZM1341.65 798.354L1342 798L1342 798L1341.65 798.354ZM1341.79 798.5L1341.44 798.853L1341.59 799H1341.79V798.5ZM1697.5 798.5V799H1698V798.5H1697.5ZM1697.5 649.793H1698V649.586L1697.85 649.439L1697.5 649.793ZM1677.35 629.646L1677 630L1677 630L1677.35 629.646ZM1677.21 629.5L1677.56 629.147L1677.41 629H1677.21V629.5ZM1646.21 629.5L1645.85 629.851L1646 630H1646.21V629.5ZM1575.36 557.649L1575.71 557.298L1575.71 557.298L1575.36 557.649ZM1575.21 557.5L1575.56 557.149L1575.42 557H1575.21V557.5ZM1540.2 557.5L1539.85 557.86L1540 558H1540.2V557.5ZM1514.35 532.64L1514 533V533L1514.35 532.64ZM1514.2 532.5L1514.55 532.14L1514.4 532H1514.2V532.5ZM1470.21 533.5V533H1469L1469.85 533.854L1470.21 533.5ZM1525.21 588.5L1524.85 588.854L1525 589H1525.21V588.5ZM1513.8 533.5L1514.14 533.14L1514 533H1513.8V533.5ZM1539.65 558.36L1540 558V558L1539.65 558.36ZM1539.8 558.5L1539.45 558.86L1539.6 559H1539.8V558.5ZM1574.79 558.5L1575.15 558.149L1575 558H1574.79V558.5ZM1645.64 630.351L1645.29 630.702L1645.29 630.702L1645.64 630.351ZM1645.79 630.5L1645.43 630.851L1645.58 631H1645.79V630.5ZM1676.79 630.5L1677.15 630.146L1677 630H1676.79V630.5ZM1696.5 650.207H1697V650L1696.85 649.854L1696.5 650.207ZM1696.5 797.5V798H1697V797.5H1696.5ZM1342.21 797.5L1341.85 797.854L1342 798H1342.21V797.5ZM1272.21 727.5V727H1271L1271.85 727.854L1272.21 727.5ZM1631.5 727.5V728H1632V727.5H1631.5ZM1631.5 675.795H1632V675.589L1631.86 675.443L1631.5 675.795ZM1631.36 675.648L1631.71 675.297V675.297L1631.36 675.648ZM1545.36 588.648L1545 589L1545 589L1545.36 588.648ZM1545.21 588.5L1545.56 588.149L1545.42 588H1545.21V588.5ZM1792 3.00002H1792.5V1.79291L1791.65 2.64646L1792 3.00002ZM1792 55L1792.35 55.3536L1792.5 55.2071V55H1792ZM1546 249L1545.65 248.646L1544.79 249.5H1546V249ZM1598 249V249.5H1598.21L1598.35 249.354L1598 249ZM1418.5 82.7883H1419V81.5765L1418.15 82.4357L1418.5 82.7883ZM1417.65 83.6474L1418 84L1417.65 83.6474ZM1233.79 268.5V269H1234L1234.15 268.853L1233.79 268.5ZM1214.79 268.5V268H1214.59L1214.44 268.145L1214.79 268.5ZM1214.65 268.645L1215 269L1215 269L1214.65 268.645ZM1114.65 367.645L1114.3 367.289L1114.65 367.645ZM1114.5 367.791L1114.15 367.436L1114 367.583V367.791H1114.5ZM1114.5 421.233H1114V422.465L1114.86 421.581L1114.5 421.233ZM1115.36 420.348L1115.72 420.697V420.697L1115.36 420.348ZM1418.36 108.348L1418.72 108.697L1418.72 108.697L1418.36 108.348ZM1418.5 108.203L1418.86 108.551L1419 108.406V108.203H1418.5ZM1417.5 85.2117H1418V84L1417.15 84.8592L1417.5 85.2117ZM1234.35 269.353L1234.71 269.705L1234.35 269.353ZM1417.5 107.797L1417.86 108.146L1418 108V107.797H1417.5ZM1115.5 418.767H1115V420L1115.86 419.116L1115.5 418.767ZM1115.5 368.209L1115.15 367.853L1115 368V368.209H1115.5ZM1215.21 269.5V269H1215L1214.85 269.145L1215.21 269.5ZM1234.21 269.5V270H1234.42L1234.56 269.853L1234.21 269.5ZM1157.79 263.5V263H1157.59L1157.44 263.146L1157.79 263.5ZM627.646 793.646L627.293 793.293V793.293L627.646 793.646ZM626.793 794.5L626.439 794.146L625.586 795H626.793V794.5ZM694.207 794.5V795H694.414L694.56 794.854L694.207 794.5ZM694.353 794.354L694.707 794.707L694.707 794.707L694.353 794.354ZM765.207 723.5V723H765L764.853 723.146L765.207 723.5ZM812.204 723.5V724H812.408L812.554 723.857L812.204 723.5ZM812.35 723.357L812 723L812 723L812.35 723.357ZM860.204 676.5V676H860L859.854 676.143L860.204 676.5ZM917.5 676.5V677H918V676.5H917.5ZM917.5 609.207L917.146 608.854L917 609V609.207H917.5ZM1096.5 430.207L1096.85 430.561L1097 430.414V430.207H1096.5ZM1096.5 363.209L1096.15 362.853L1096 363V363.209H1096.5ZM1196.35 264.355L1196 264L1196.35 264.355ZM1197.22 263.5L1197.57 263.855L1198.43 263H1197.22V263.5ZM1158.21 264.5V264H1158L1157.85 264.146L1158.21 264.5ZM629.207 793.5L628.853 793.146L628 794H629.207V793.5ZM1194.78 264.5L1195.14 264.855L1196 264H1194.78V264.5ZM1095.65 362.645L1095.3 362.289L1095.65 362.645ZM1095.5 362.791L1095.15 362.436L1095 362.583V362.791H1095.5ZM1095.5 429.793L1095.85 430.146L1096 430V429.793H1095.5ZM916.5 608.793L916.146 608.439L916 608.586V608.793H916.5ZM916.5 675.5V676H917V675.5H916.5ZM859.796 675.5V675H859.592L859.446 675.143L859.796 675.5ZM859.65 675.643L860 676L860 676L859.65 675.643ZM811.796 722.5V723H812L812.146 722.857L811.796 722.5ZM764.793 722.5V722H764.586L764.439 722.146L764.793 722.5ZM764.646 722.646L765 723L764.646 722.646ZM693.793 793.5V794H694L694.146 793.854L693.793 793.5ZM1787.5 86.7883H1788V85.5765L1787.15 86.4357L1787.5 86.7883ZM1787.5 112.203L1787.86 112.551L1788 112.406V112.203H1787.5ZM1787.36 112.348L1787.72 112.697L1787.72 112.697L1787.36 112.348ZM1484.36 424.348L1484.72 424.697V424.697L1484.36 424.348ZM1483.5 425.233H1483V426.465L1483.86 425.581L1483.5 425.233ZM1483.5 371.791L1483.15 371.436L1483 371.583V371.791H1483.5ZM1483.65 371.645L1483.3 371.289L1483.65 371.645ZM1583.65 272.645L1584 273L1584 273L1583.65 272.645ZM1583.79 272.5V272H1583.59L1583.44 272.145L1583.79 272.5ZM1602.79 272.5V273H1603L1603.15 272.853L1602.79 272.5ZM1786.65 87.6474L1787 88L1786.65 87.6474ZM1603.35 273.353L1603.71 273.705L1603.35 273.353ZM1786.5 89.2117H1787V88L1786.15 88.8592L1786.5 89.2117ZM1603.21 273.5V274H1603.42L1603.56 273.853L1603.21 273.5ZM1584.21 273.5V273H1584L1583.85 273.145L1584.21 273.5ZM1484.5 372.209L1484.15 371.853L1484 372V372.209H1484.5ZM1484.5 422.767H1484V424L1484.86 423.116L1484.5 422.767ZM1786.5 111.797L1786.86 112.146L1787 112V111.797H1786.5ZM1526.79 267.5V267H1526.59L1526.44 267.146L1526.79 267.5ZM1566.22 267.5L1566.57 267.855L1567.43 267H1566.22V267.5ZM1565.35 268.355L1565 268L1565.35 268.355ZM1465.5 367.209L1465.15 366.853L1465 367V367.209H1465.5ZM1465.5 434.207L1465.85 434.561L1466 434.414V434.207H1465.5ZM1286.5 613.207L1286.15 612.854L1286 613V613.207H1286.5ZM1286.5 680.5V681H1287V680.5H1286.5ZM1229.2 680.5V680H1229L1228.85 680.143L1229.2 680.5ZM1181.35 727.357L1181.7 727.715L1181.7 727.714L1181.35 727.357ZM1181.2 727.5V728H1181.41L1181.55 727.857L1181.2 727.5ZM1134.21 727.5V727H1134L1133.85 727.146L1134.21 727.5ZM1063.35 798.354L1063 798L1063 798L1063.35 798.354ZM1063.21 798.5V799H1063.41L1063.56 798.853L1063.21 798.5ZM995.793 798.5L995.439 798.146L994.586 799H995.793V798.5ZM996.646 797.646L996.293 797.293V797.293L996.646 797.646ZM998.207 797.5L997.853 797.146L997 798H998.207V797.5ZM1527.21 268.5V268H1527L1526.85 268.146L1527.21 268.5ZM1062.79 797.5V798H1063L1063.15 797.854L1062.79 797.5ZM1133.65 726.646L1134 727L1134 727L1133.65 726.646ZM1133.79 726.5V726H1133.59L1133.44 726.147L1133.79 726.5ZM1180.8 726.5V727H1181L1181.15 726.857L1180.8 726.5ZM1228.65 679.643L1228.3 679.285L1228.3 679.286L1228.65 679.643ZM1228.8 679.5V679H1228.59L1228.45 679.143L1228.8 679.5ZM1285.5 679.5V680H1286V679.5H1285.5ZM1285.5 612.793L1285.15 612.439L1285 612.586V612.793H1285.5ZM1464.5 433.793L1464.85 434.146L1465 434V433.793H1464.5ZM1464.5 366.791L1464.15 366.436L1464 366.583V366.791H1464.5ZM1464.65 366.645L1464.3 366.289L1464.65 366.645ZM1563.78 268.5L1564.14 268.855L1565 268H1563.78V268.5ZM533.5 636.793H534V635.586L533.146 636.439L533.5 636.793ZM532.646 637.646L532.293 637.293H532.293L532.646 637.646ZM447.793 722.5V723H448L448.146 722.854L447.793 722.5ZM1.85254 722.5V722H0.705059L1.48633 722.84L1.85254 722.5ZM2.63378 723.34L2.99999 723L2.99998 723L2.63378 723.34ZM68.6338 794.34L69 794H69L68.6338 794.34ZM68.7821 794.5L68.4159 794.84L68.5642 795H68.7821V794.5ZM481.207 794.5V795H481.414L481.561 794.854L481.207 794.5ZM481.354 794.354L481.707 794.707H481.707L481.354 794.354ZM533.354 742.354L533.707 742.707L533.707 742.707L533.354 742.354ZM533.5 742.207L533.854 742.561L534 742.414V742.207H533.5ZM532.5 639.207H533V638L532.146 638.854L532.5 639.207ZM448.354 723.354L448.707 723.707H448.707L448.354 723.354ZM532.5 741.793L532.854 742.146L533 742V741.793H532.5ZM480.793 793.5V794H481L481.146 793.854L480.793 793.5ZM69.2179 793.5L68.8517 793.84L69 794H69.2179V793.5ZM4.14744 723.5V723H2.99999L3.78123 723.84L4.14744 723.5ZM448.207 723.5V724H448.414L448.561 723.854L448.207 723.5ZM313.793 286.5V286H312.586L313.439 286.854L313.793 286.5ZM377.208 286.5L377.562 286.147L377.415 286H377.208V286.5ZM377.354 286.647L377.708 286.294L377.708 286.294L377.354 286.647ZM632.354 542.647L632 543V543L632.354 542.647ZM632.706 543.001L633.06 543.354L633.413 543.001L633.061 542.648L632.706 543.001ZM580 595.707L579.646 596.061L580 596.414L580.354 596.061L580 595.707ZM404.5 420.207H404V420.414L404.146 420.561L404.5 420.207ZM404.5 377.207H405V377L404.854 376.854L404.5 377.207ZM316.207 287.5V287H315L315.854 287.854L316.207 287.5ZM405.5 376.793H406V376.586L405.854 376.439L405.5 376.793ZM405.5 419.793H405V420L405.146 420.146L405.5 419.793ZM580 594.293L579.646 594.646L580 595L580.354 594.646L580 594.293ZM631.294 542.999L631.647 543.353L632 543L631.648 542.646L631.294 542.999ZM376.792 287.5L377.147 287.147L377 287H376.792V287.5ZM693.5 67.7929L693.853 67.4393L693 66.5858V67.7929H693.5ZM694.353 68.6465L694.707 68.2929V68.2929L694.353 68.6465ZM784.207 158.5L783.853 158.854L784 159H784.207V158.5ZM827.207 158.5L827.561 158.146L827.414 158H827.207V158.5ZM827.353 158.646L827 159V159L827.353 158.646ZM1002.35 333.646L1002 334L1002 334L1002.35 333.646ZM1002.71 334L1003.06 334.354L1003.41 334L1003.06 333.646L1002.71 334ZM1002.35 334.354L1002 334L1002 334L1002.35 334.354ZM950.353 386.354L950 386L950.353 386.354ZM950.001 386.706L949.648 387.061L950.001 387.413L950.354 387.06L950.001 386.706ZM949.647 386.354L950 386L950 386L949.647 386.354ZM693.647 131.354L694 131L693.647 131.354ZM693.5 131.208H693V131.415L693.147 131.562L693.5 131.208ZM694.5 70.2071L694.853 69.8536L694 69V70.2071H694.5ZM783.646 159.354L783.293 159.707L783.293 159.707L783.646 159.354ZM694.5 130.792H694V131L694.147 131.147L694.5 130.792ZM949.999 385.294L949.646 385.648L950 386L950.353 385.647L949.999 385.294ZM1001.29 334L1001.65 334.354L1002 334L1001.65 333.646L1001.29 334ZM826.793 159.5L827.146 159.146L827 159H826.793V159.5ZM783.793 159.5L783.439 159.854L783.586 160H783.793V159.5ZM260.793 68.5V68H260.586L260.439 68.1464L260.793 68.5ZM552.5 68.5H553V68H552.5V68.5ZM552.5 157.5V158H553V157.5H552.5ZM299.209 157.5V157H299L298.853 157.148L299.209 157.5ZM91.5 367.206L91.1448 366.854L91 367V367.206H91.5ZM91.5 532.793H91V533L91.1464 533.146L91.5 532.793ZM140.354 581.646L140.707 581.293L140.707 581.293L140.354 581.646ZM140.5 581.793H141V581.586L140.854 581.439L140.5 581.793ZM140.5 665.5V666H141V665.5H140.5ZM2.5 665.5H2V666H2.5V665.5ZM2.5 383.794L2.14453 383.443L2 383.589V383.794H2.5ZM2.64451 383.648L2.99998 384L3 384L2.64451 383.648ZM183.5 200.795L183.855 201.146L184 201V200.795H183.5ZM183.5 145.793L183.146 145.439L183 145.586V145.793H183.5ZM183.646 145.646L184 146L184 146L183.646 145.646ZM260.646 68.6464L260.293 68.2929V68.2929L260.646 68.6464ZM184.5 146.207L184.146 145.854L184 146V146.207H184.5ZM261.207 69.5V69H261L260.854 69.1464L261.207 69.5ZM184.5 201.206L184.855 201.557L185 201.411V201.206H184.5ZM184.355 201.352L184 201V201L184.355 201.352ZM3.5 384.205L3.14451 383.854L3 384V384.205H3.5ZM3.5 664.5H3V665H3.5V664.5ZM139.5 664.5V665H140V664.5H139.5ZM139.5 582.207H140V582L139.854 581.854L139.5 582.207ZM90.6464 533.354L90.2928 533.707L90.2929 533.707L90.6464 533.354ZM90.5 533.207H90V533.414L90.1464 533.561L90.5 533.207ZM90.5 366.794L90.1448 366.442L90 366.589V366.794H90.5ZM90.6448 366.648L91 367L90.6448 366.648ZM298.645 156.648L298.29 156.296L298.289 156.296L298.645 156.648ZM298.792 156.5V156H298.583L298.436 156.148L298.792 156.5ZM551.5 156.5V157H552V156.5H551.5ZM551.5 69.5H552V69H551.5V69.5ZM3 340H2.5V341.207L3.35355 340.354L3 340ZM150 193L150.354 193.354L150.5 193.207V193H150ZM3 302L2.64645 301.646L2.5 301.793V302H3ZM150 155H150.5V153.793L149.646 154.646L150 155ZM382.5 416.286L382.131 416.624L383 417.573V416.286H382.5ZM382.5 393.806H383V393.611L382.869 393.468L382.5 393.806ZM382.369 393.662L382 394V394L382.369 393.662ZM306.369 310.662L306.738 310.325L306.369 310.662ZM305.5 309.714L305.869 309.376L305 308.427V309.714H305.5ZM305.5 332.194H305V332.389L305.131 332.532L305.5 332.194ZM305.631 332.338L306 332V332L305.631 332.338ZM381.631 415.338L381.262 415.675L381.631 415.338ZM381.5 413.714L381.131 414.051L382 415V413.714H381.5ZM306.5 331.806H306V332L306.131 332.143L306.5 331.806ZM306.5 312.286L306.869 311.949L306 311V312.286H306.5ZM381.5 394.194H382V394L381.869 393.857L381.5 394.194ZM807.906 140.425L807.884 140.924L809.17 140.979L808.259 140.071L807.906 140.425ZM728.207 60.962L728.56 60.6079L728.422 60.4707L728.228 60.4624L728.207 60.962ZM786.925 139.531L786.572 139.885L786.709 140.023L786.903 140.031L786.925 139.531ZM707.226 60.0685L707.247 59.569L705.962 59.5142L706.873 60.4226L707.226 60.0685ZM712.221 60.2812L712.242 59.7817L712.221 60.2812ZM715.218 60.4089L715.197 60.9084L715.218 60.4089ZM1423 1.79291V3.00001H1424V1.79291H1423ZM1423 3.00001L1423.85 2.14645L1423.15 1.43936L1422.29 2.29292L1423 3.00001ZM1177 249L1423 3.00001L1422.29 2.29291L1176.29 248.293L1177 249ZM1176.15 249.854L1177 249L1176.29 248.293L1175.44 249.146L1176.15 249.854ZM1177 249H1175.79V250H1177V249ZM1229 249H1177V250H1229V249ZM1229.21 249H1229V250H1229.21V249ZM1229 249L1228.85 249.147L1229.56 249.853L1229.71 249.707L1229 249ZM1423 55L1229 249L1229.71 249.707L1423.71 55.7071L1423 55ZM1423.15 54.8535L1423 55L1423.71 55.7072L1423.85 55.5607L1423.15 54.8535ZM1423 55V55.2071H1424V55H1423ZM1423 3.00001V55H1424V3.00001H1423ZM1178.21 249H1228.79V248H1178.21V249ZM1422.15 3.85356L1177.85 248.146L1178.56 248.854L1422.85 4.56067L1422.15 3.85356ZM1423 54.7929V4.20711H1422V54.7929H1423ZM1229.15 248.854L1422.85 55.1465L1422.15 54.4394L1228.44 248.146L1229.15 248.854ZM1467.79 533H1469V532H1467.79V533ZM1469 533L1468.15 532.146L1467.44 532.854L1468.29 533.707L1469 533ZM1525 589L1469 533L1468.29 533.707L1524.29 589.707L1525 589ZM1525.15 589.147L1525 589L1524.29 589.707L1524.44 589.853L1525.15 589.147ZM1525 589H1524.79V590H1525V589ZM1544.79 589H1525V590H1544.79V589ZM1630.86 675.854L1545.15 589.148L1544.44 589.852L1630.14 676.557L1630.86 675.854ZM1631 726.5V676.205H1630V726.5H1631ZM1271 727H1630.5V726H1271V727ZM1269.79 727H1271V726H1269.79V727ZM1271 727L1270.15 726.146L1269.44 726.854L1270.29 727.707L1271 727ZM1342 798L1271 727L1270.29 727.707L1341.29 798.707L1342 798ZM1342.15 798.147L1342 798L1341.29 798.707L1341.44 798.853L1342.15 798.147ZM1342 798H1341.79V799H1342V798ZM1697 798H1342V799H1697V798ZM1697.5 798H1697V799H1697.5V798ZM1697 798V798.5H1698V798H1697ZM1697 650V798H1698V650H1697ZM1697 649.793V650H1698V649.793H1697ZM1697 650L1697.15 650.146L1697.85 649.439L1697.71 649.293L1697 650ZM1677 630L1697 650L1697.71 649.293L1677.71 629.293L1677 630ZM1676.85 629.853L1677 630L1677.71 629.293L1677.56 629.147L1676.85 629.853ZM1677 630H1677.21V629H1677V630ZM1646.21 630H1677V629H1646.21V630ZM1575 558L1645.85 629.851L1646.56 629.149L1575.71 557.298L1575 558ZM1574.85 557.851L1575 558L1575.71 557.298L1575.56 557.149L1574.85 557.851ZM1575 558H1575.21V557H1575V558ZM1540.2 558H1575V557H1540.2V558ZM1514 533L1539.85 557.86L1540.55 557.14L1514.69 532.279L1514 533ZM1513.85 532.86L1514 533L1514.69 532.279L1514.55 532.14L1513.85 532.86ZM1514 533H1514.2V532H1514V533ZM1469 533H1514V532H1469V533ZM1469.85 533.854L1524.85 588.854L1525.56 588.146L1470.56 533.146L1469.85 533.854ZM1513.8 533H1470.21V534H1513.8V533ZM1540 558L1514.14 533.14L1513.45 533.86L1539.31 558.721L1540 558ZM1540.14 558.14L1540 558L1539.31 558.721L1539.45 558.86L1540.14 558.14ZM1540 558H1539.8V559H1540V558ZM1574.79 558H1540V559H1574.79V558ZM1646 630L1575.15 558.149L1574.43 558.851L1645.29 630.702L1646 630ZM1646.15 630.149L1646 630L1645.29 630.702L1645.43 630.851L1646.15 630.149ZM1646 630H1645.79V631H1646V630ZM1676.79 630H1646V631H1676.79V630ZM1696.85 649.854L1677.15 630.146L1676.44 630.854L1696.15 650.561L1696.85 649.854ZM1697 797.5V650.207H1696V797.5H1697ZM1342.21 798H1696.5V797H1342.21V798ZM1271.85 727.854L1341.85 797.854L1342.56 797.146L1272.56 727.146L1271.85 727.854ZM1631 727H1272.21V728H1631V727ZM1631.5 727H1631V728H1631.5V727ZM1631 727V727.5H1632V727H1631ZM1631 676V727H1632V676H1631ZM1631 675.795V676H1632V675.795H1631ZM1631 676L1631.14 676.146L1631.86 675.443L1631.71 675.297L1631 676ZM1545 589L1631 676L1631.71 675.297L1545.71 588.297L1545 589ZM1544.85 588.851L1545 589L1545.71 588.297L1545.56 588.149L1544.85 588.851ZM1545 589H1545.21V588H1545V589ZM1525.21 589H1545V588H1525.21V589ZM1791.5 3.00002V55H1792.5V3.00002H1791.5ZM1546.35 249.354L1792.35 3.35357L1791.65 2.64646L1545.65 248.646L1546.35 249.354ZM1598 248.5H1546V249.5H1598V248.5ZM1791.65 54.6465L1597.65 248.646L1598.35 249.354L1792.35 55.3536L1791.65 54.6465ZM1418 82.7883V84H1419V82.7883H1418ZM1418 84L1418.85 83.1409L1418.15 82.4357L1417.29 83.2948L1418 84ZM1234.15 268.853L1418 84L1417.29 83.2948L1233.44 268.147L1234.15 268.853ZM1215 269H1233.79V268H1215V269ZM1214.79 269H1215V268H1214.79V269ZM1215 269L1215.15 268.855L1214.44 268.145L1214.3 268.29L1215 269ZM1115 368L1215 269L1214.3 268.289L1114.3 367.289L1115 368ZM1114.85 368.147L1115 368L1114.3 367.289L1114.15 367.436L1114.85 368.147ZM1115 368V367.791H1114V368H1115ZM1115 420V368H1114V420H1115ZM1115 421.233V420H1114V421.233H1115ZM1115 420L1114.14 420.884L1114.86 421.581L1115.72 420.697L1115 420ZM1418 108L1115 420L1115.72 420.697L1418.72 108.697L1418 108ZM1418.14 107.855L1418 108L1418.72 108.697L1418.86 108.551L1418.14 107.855ZM1418 108V108.203H1419V108H1418ZM1418 84V108H1419V84H1418ZM1417.15 84.8592L1234 269L1234.71 269.705L1417.85 85.5643L1417.15 84.8592ZM1418 107.797V85.2117H1417V107.797H1418ZM1115.86 419.116L1417.86 108.146L1417.14 107.449L1115.14 418.419L1115.86 419.116ZM1115 368.209V418.767H1116V368.209H1115ZM1214.85 269.145L1115.15 367.853L1115.85 368.564L1215.56 269.855L1214.85 269.145ZM1234 269H1215.21V270H1234V269ZM1234.21 269H1234V270H1234.21V269ZM1234 269L1233.85 269.147L1234.56 269.853L1234.71 269.705L1234 269ZM1157.79 264H1158V263H1157.79V264ZM1158 264L1158.15 263.854L1157.44 263.146L1157.29 263.293L1158 264ZM628 794L1158 264L1157.29 263.293L627.293 793.293L628 794ZM627.146 794.854L628 794L627.293 793.293L626.439 794.146L627.146 794.854ZM628 794H626.793V795H628V794ZM694 794H628V795H694V794ZM694.207 794H694V795H694.207V794ZM694 794L693.854 794.146L694.56 794.854L694.707 794.707L694 794ZM764.853 723.146L694 794L694.707 794.707L765.561 723.854L764.853 723.146ZM812 723H765.207V724H812V723ZM812.204 723H812V724H812.204V723ZM812 723L811.854 723.143L812.554 723.857L812.7 723.714L812 723ZM859.854 676.143L812 723L812.699 723.714L860.554 676.857L859.854 676.143ZM917 676H860.204V677H917V676ZM917.5 676H917V677H917.5V676ZM917 676V676.5H918V676H917ZM917 609.207V676H918V609.207H917ZM1096 430L917.146 608.854L917.853 609.561L1096.71 430.707L1096 430ZM1096.15 429.854L1096 430L1096.71 430.707L1096.85 430.561L1096.15 429.854ZM1096 430V430.207H1097V430H1096ZM1096 363.209V430H1097V363.209H1096ZM1196 264L1096.15 362.853L1096.85 363.564L1196.7 264.711L1196 264ZM1196.86 263.145L1196 264L1196.7 264.711L1197.57 263.855L1196.86 263.145ZM1196 264H1197.22V263H1196V264ZM1158 264H1196V263H1158V264ZM1157.85 264.146L628.853 793.146L629.561 793.854L1158.56 264.854L1157.85 264.146ZM1194.78 264H1158.21V265H1194.78V264ZM1096 363L1195.14 264.855L1194.43 264.145L1095.3 362.289L1096 363ZM1095.85 363.147L1096 363L1095.3 362.289L1095.15 362.436L1095.85 363.147ZM1096 363V362.791H1095V363H1096ZM1096 429.793V363H1095V429.793H1096ZM917 609L1095.85 430.146L1095.15 429.439L916.293 608.293L917 609ZM916.853 609.146L917 609L916.293 608.293L916.146 608.439L916.853 609.146ZM917 609V608.793H916V609H917ZM917 675.5V609H916V675.5H917ZM860 676H916.5V675H860V676ZM859.796 676H860V675H859.796V676ZM860 676L860.146 675.857L859.446 675.143L859.3 675.286L860 676ZM812.146 722.857L860 676L859.3 675.286L811.446 722.143L812.146 722.857ZM765 723H811.796V722H765V723ZM764.793 723H765V722H764.793V723ZM765 723L765.146 722.854L764.439 722.146L764.293 722.293L765 723ZM694.146 793.854L765 723L764.293 722.293L693.439 793.146L694.146 793.854ZM629.207 794H693.793V793H629.207V794ZM1788 88V86.7883H1787V88H1788ZM1788 112V88H1787V112H1788ZM1788 112.203V112H1787V112.203H1788ZM1787.72 112.697L1787.86 112.551L1787.14 111.855L1787 112L1787.72 112.697ZM1484.72 424.697L1787.72 112.697L1787 112L1484 424L1484.72 424.697ZM1483.86 425.581L1484.72 424.697L1484 424L1483.14 424.884L1483.86 425.581ZM1483 424V425.233H1484V424H1483ZM1483 372V424H1484V372H1483ZM1483 371.791V372H1484V371.791H1483ZM1483.3 371.289L1483.15 371.436L1483.85 372.147L1484 372L1483.3 371.289ZM1583.3 272.289L1483.3 371.289L1484 372L1584 273L1583.3 272.289ZM1583.44 272.145L1583.3 272.29L1584 273L1584.15 272.855L1583.44 272.145ZM1584 272H1583.79V273H1584V272ZM1602.79 272H1584V273H1602.79V272ZM1786.29 87.2948L1602.44 272.147L1603.15 272.853L1787 88L1786.29 87.2948ZM1787.15 86.4357L1786.29 87.2948L1787 88L1787.85 87.1409L1787.15 86.4357ZM1603.71 273.705L1786.85 89.5643L1786.15 88.8592L1603 273L1603.71 273.705ZM1603.56 273.853L1603.71 273.705L1603 273L1602.85 273.147L1603.56 273.853ZM1603 274H1603.21V273H1603V274ZM1584.21 274H1603V273H1584.21V274ZM1484.85 372.564L1584.56 273.855L1583.85 273.145L1484.15 371.853L1484.85 372.564ZM1485 422.767V372.209H1484V422.767H1485ZM1786.14 111.449L1484.14 422.419L1484.86 423.116L1786.86 112.146L1786.14 111.449ZM1786 89.2117V111.797H1787V89.2117H1786ZM1527 267H1526.79V268H1527V267ZM1565 267H1527V268H1565V267ZM1566.22 267H1565V268H1566.22V267ZM1565.7 268.711L1566.57 267.855L1565.86 267.145L1565 268L1565.7 268.711ZM1465.85 367.564L1565.7 268.711L1565 268L1465.15 366.853L1465.85 367.564ZM1466 434V367.209H1465V434H1466ZM1466 434.207V434H1465V434.207H1466ZM1465.71 434.707L1465.85 434.561L1465.15 433.854L1465 434L1465.71 434.707ZM1286.85 613.561L1465.71 434.707L1465 434L1286.15 612.854L1286.85 613.561ZM1287 680V613.207H1286V680H1287ZM1287 680.5V680H1286V680.5H1287ZM1286 681H1286.5V680H1286V681ZM1229.2 681H1286V680H1229.2V681ZM1181.7 727.714L1229.55 680.857L1228.85 680.143L1181 727L1181.7 727.714ZM1181.55 727.857L1181.7 727.715L1181 727L1180.85 727.143L1181.55 727.857ZM1181 728H1181.2V727H1181V728ZM1134.21 728H1181V727H1134.21V728ZM1063.71 798.707L1134.56 727.854L1133.85 727.146L1063 798L1063.71 798.707ZM1063.56 798.853L1063.71 798.707L1063 798L1062.85 798.147L1063.56 798.853ZM1063 799H1063.21V798H1063V799ZM997 799H1063V798H997V799ZM995.793 799H997V798H995.793V799ZM996.293 797.293L995.439 798.146L996.146 798.854L997 798L996.293 797.293ZM1526.29 267.293L996.293 797.293L997 798L1527 268L1526.29 267.293ZM1526.44 267.146L1526.29 267.293L1527 268L1527.15 267.854L1526.44 267.146ZM998.561 797.854L1527.56 268.854L1526.85 268.146L997.853 797.146L998.561 797.854ZM1062.79 797H998.207V798H1062.79V797ZM1133.29 726.293L1062.44 797.146L1063.15 797.854L1134 727L1133.29 726.293ZM1133.44 726.147L1133.29 726.293L1134 727L1134.15 726.853L1133.44 726.147ZM1134 726H1133.79V727H1134V726ZM1180.8 726H1134V727H1180.8V726ZM1228.3 679.286L1180.45 726.143L1181.15 726.857L1229 680L1228.3 679.286ZM1228.45 679.143L1228.3 679.285L1229 680L1229.15 679.857L1228.45 679.143ZM1229 679H1228.8V680H1229V679ZM1285.5 679H1229V680H1285.5V679ZM1285 613V679.5H1286V613H1285ZM1285 612.793V613H1286V612.793H1285ZM1285.29 612.293L1285.15 612.439L1285.85 613.146L1286 613L1285.29 612.293ZM1464.15 433.439L1285.29 612.293L1286 613L1464.85 434.146L1464.15 433.439ZM1464 367V433.793H1465V367H1464ZM1464 366.791V367H1465V366.791H1464ZM1464.3 366.289L1464.15 366.436L1464.85 367.147L1465 367L1464.3 366.289ZM1563.43 268.145L1464.3 366.289L1465 367L1564.14 268.855L1563.43 268.145ZM1527.21 269H1563.78V268H1527.21V269ZM533 636.793V638H534V636.793H533ZM533 638L533.854 637.146L533.146 636.439L532.293 637.293L533 638ZM448.146 722.854L533 638L532.293 637.293L447.439 722.146L448.146 722.854ZM2.99999 723H447.793V722H2.99999V723ZM1.85254 723H2.99999V722H1.85254V723ZM2.99998 723L2.21875 722.16L1.48633 722.84L2.26757 723.681L2.99998 723ZM69 794L2.99999 723L2.26756 723.681L68.2676 794.681L69 794ZM69.1484 794.16L69 794L68.2675 794.681L68.4159 794.84L69.1484 794.16ZM69 794H68.7821V795H69V794ZM481 794H69V795H481V794ZM481.207 794H481V795H481.207V794ZM481 794L480.854 794.146L481.561 794.854L481.707 794.707L481 794ZM533 742L481 794L481.707 794.707L533.707 742.707L533 742ZM533.146 741.854L533 742L533.707 742.707L533.854 742.561L533.146 741.854ZM533 742V742.207H534V742H533ZM533 638V742H534V638H533ZM532.146 638.854L448 723L448.707 723.707L532.854 639.561L532.146 638.854ZM533 741.793V639.207H532V741.793H533ZM481.146 793.854L532.854 742.146L532.146 741.439L480.439 793.146L481.146 793.854ZM69.2179 794H480.793V793H69.2179V794ZM3.78123 723.84L68.8517 793.84L69.5841 793.16L4.51366 723.16L3.78123 723.84ZM448 723H4.14744V724H448V723ZM448.207 723H448V724H448.207V723ZM448 723L447.854 723.146L448.561 723.854L448.707 723.707L448 723ZM315 286H313.793V287H315V286ZM377 286H315V287H377V286ZM377.208 286H377V287H377.208V286ZM377.708 286.294L377.562 286.147L376.853 286.853L377 287L377.708 286.294ZM632.708 542.294L377.708 286.294L377 287L632 543L632.708 542.294ZM633.061 542.648L632.708 542.294L632 543L632.352 543.354L633.061 542.648ZM632.707 543.707L633.06 543.354L632.353 542.647L632 543L632.707 543.707ZM580.707 595.707L632.707 543.707L632 543L580 595L580.707 595.707ZM580.354 596.061L580.707 595.707L580 595L579.646 595.354L580.354 596.061ZM579.293 595.707L579.646 596.061L580.354 595.354L580 595L579.293 595.707ZM404.293 420.707L579.293 595.707L580 595L405 420L404.293 420.707ZM404.146 420.561L404.293 420.707L405 420L404.854 419.854L404.146 420.561ZM404 420V420.207H405V420H404ZM404 377.207V420H405V377.207H404ZM314.293 287.707L404.146 377.561L404.854 376.854L315 287L314.293 287.707ZM313.439 286.854L314.293 287.707L315 287L314.146 286.146L313.439 286.854ZM405.707 376.293L316.561 287.146L315.854 287.854L405 377L405.707 376.293ZM405.854 376.439L405.707 376.293L405 377L405.146 377.146L405.854 376.439ZM406 377V376.793H405V377H406ZM406 419.793V377H405V419.793H406ZM580.354 593.939L405.854 419.439L405.146 420.146L579.646 594.646L580.354 593.939ZM630.94 542.646L579.646 593.939L580.354 594.646L631.647 543.353L630.94 542.646ZM376.438 287.853L630.939 543.352L631.648 542.646L377.147 287.147L376.438 287.853ZM316.207 288H376.792V287H316.207V288ZM693 67.7929V69H694V67.7929H693ZM694.707 68.2929L693.853 67.4393L693.146 68.1465L694 69L694.707 68.2929ZM784.561 158.146L694.707 68.2929L694 69L783.853 158.854L784.561 158.146ZM827 158H784.207V159H827V158ZM827.207 158H827V159H827.207V158ZM827.707 158.293L827.561 158.146L826.853 158.854L827 159L827.707 158.293ZM1002.71 333.293L827.707 158.293L827 159L1002 334L1002.71 333.293ZM1003.06 333.646L1002.71 333.293L1002 334L1002.35 334.354L1003.06 333.646ZM1002.71 334.707L1003.06 334.354L1002.35 333.646L1002 334L1002.71 334.707ZM950.707 386.707L1002.71 334.707L1002 334L950 386L950.707 386.707ZM950.354 387.06L950.707 386.707L950 386L949.647 386.353L950.354 387.06ZM949.294 386.708L949.648 387.061L950.353 386.352L950 386L949.294 386.708ZM693.294 131.709L949.294 386.709L950 386L694 131L693.294 131.709ZM693.147 131.562L693.294 131.709L694 131L693.853 130.853L693.147 131.562ZM693 131V131.208H694V131H693ZM693 69V131H694V69H693ZM694.146 70.5607L783.293 159.707L784 159L694.853 69.8536L694.146 70.5607ZM695 130.792V70.2071H694V130.792H695ZM950.352 384.939L694.853 130.438L694.147 131.147L949.646 385.648L950.352 384.939ZM1000.94 333.646L949.646 384.94L950.353 385.647L1001.65 334.354L1000.94 333.646ZM826.439 159.854L1000.94 334.354L1001.65 333.646L827.146 159.146L826.439 159.854ZM784 160H826.793V159H784V160ZM783.793 160H784V159H783.793V160ZM783.293 159.707L783.439 159.854L784.146 159.146L784 159L783.293 159.707ZM261 68H260.793V69H261V68ZM552 68H261V69H552V68ZM552.5 68H552V69H552.5V68ZM553 69V68.5H552V69H553ZM553 157V69H552V157H553ZM553 157.5V157H552V157.5H553ZM552 158H552.5V157H552V158ZM299.209 158H552V157H299.209V158ZM91.8552 367.558L299.564 157.852L298.853 157.148L91.1448 366.854L91.8552 367.558ZM92 532.793V367.206H91V532.793H92ZM140.707 581.293L91.8536 532.439L91.1464 533.146L140 582L140.707 581.293ZM140.854 581.439L140.707 581.293L140 582L140.146 582.146L140.854 581.439ZM141 582V581.793H140V582H141ZM141 665V582H140V665H141ZM141 665.5V665H140V665.5H141ZM140 666H140.5V665H140V666ZM3 666H140V665H3V666ZM2.5 666H3V665H2.5V666ZM2 665V665.5H3V665H2ZM2 384V665H3V384H2ZM2 383.794V384H3V383.794H2ZM2.28904 383.297L2.14453 383.443L2.85547 384.146L2.99998 384L2.28904 383.297ZM183.145 200.443L2.28902 383.297L3 384L183.855 201.146L183.145 200.443ZM183 146V200.795H184V146H183ZM183 145.793V146H184V145.793H183ZM183.293 145.293L183.146 145.439L183.854 146.146L184 146L183.293 145.293ZM260.293 68.2929L183.293 145.293L184 146L261 69L260.293 68.2929ZM260.439 68.1464L260.293 68.2929L261 69L261.146 68.8536L260.439 68.1464ZM184.854 146.561L261.561 69.8536L260.854 69.1464L184.146 145.854L184.854 146.561ZM185 201V146.207H184V201H185ZM185 201.206V201H184V201.206H185ZM184.711 201.703L184.855 201.557L184.145 200.854L184 201L184.711 201.703ZM3.85549 384.557L184.711 201.703L184 201L3.14451 383.854L3.85549 384.557ZM4 664.5V384.205H3V664.5H4ZM139.5 664H3.5V665H139.5V664ZM139 582.207V664.5H140V582.207H139ZM90.2929 533.707L139.146 582.561L139.854 581.854L91 533L90.2929 533.707ZM90.1464 533.561L90.2928 533.707L91 533L90.8536 532.854L90.1464 533.561ZM90 533V533.207H91V533H90ZM90 367V533H91V367H90ZM90 366.794V367H91V366.794H90ZM90.2895 366.296L90.1448 366.442L90.8552 367.146L91 367L90.2895 366.296ZM298.289 156.296L90.2895 366.296L91 367L299 157L298.289 156.296ZM298.436 156.148L298.29 156.296L299 157L299.147 156.852L298.436 156.148ZM299 156H298.792V157H299V156ZM551.5 156H299V157H551.5V156ZM551 69.5V156.5H552V69.5H551ZM261.207 70H551.5V69H261.207V70ZM3.35355 340.354L150.354 193.354L149.646 192.646L2.64645 339.646L3.35355 340.354ZM2.5 302V340H3.5V302H2.5ZM149.646 154.646L2.64645 301.646L3.35355 302.354L150.354 155.354L149.646 154.646ZM150.5 164V155H149.5V164H150.5ZM150.5 169V164H149.5V169H150.5ZM150.5 193V169H149.5V193H150.5ZM382 415V416.286H383V415H382ZM382 410V415H383V410H382ZM382 407V410H383V407H382ZM382 394V407H383V394H382ZM382 393.806V394H383V393.806H382ZM382 394L382.131 394.143L382.869 393.468L382.738 393.325L382 394ZM306 311L382 394L382.738 393.325L306.738 310.325L306 311ZM305.131 310.051L306 311L306.738 310.325L305.869 309.376L305.131 310.051ZM306 311V309.714H305V311H306ZM306 332V311H305V332H306ZM306 332.194V332H305V332.194H306ZM306 332L305.869 331.857L305.131 332.532L305.262 332.675L306 332ZM382 415L306 332L305.262 332.675L381.262 415.675L382 415ZM382.869 415.949L382 415L381.262 415.675L382.131 416.624L382.869 415.949ZM382 413.714V410H381V413.714H382ZM306.131 332.143L381.131 414.051L381.869 413.376L306.869 331.468L306.131 332.143ZM306 312.286V331.806H307V312.286H306ZM381.869 393.857L306.869 311.949L306.131 312.624L381.131 394.532L381.869 393.857ZM382 407V394.194H381V407H382ZM382 410V407H381V410H382ZM808.259 140.071L728.56 60.6079L727.854 61.3161L807.553 140.779L808.259 140.071ZM786.903 140.031L807.884 140.924L807.927 139.925L786.946 139.032L786.903 140.031ZM706.873 60.4226L786.572 139.885L787.278 139.177L707.579 59.7144L706.873 60.4226ZM712.242 59.7817L707.247 59.569L707.204 60.568L712.2 60.7808L712.242 59.7817ZM715.24 59.9093L712.242 59.7817L712.2 60.7808L715.197 60.9084L715.24 59.9093ZM728.228 60.4624L715.24 59.9093L715.197 60.9084L728.185 61.4615L728.228 60.4624Z" fill="white" fill-opacity="0.1"/>
</svg>
